<svg width="660" height="398" viewBox="0 0 660 398" fill="none" xmlns="http://www.w3.org/2000/svg">
<g clip-path="url(#clip0_1740_2650)">
<rect width="660" height="398" fill="#E6DED7"/>
<path d="M448.24 242.771H169.813C168.872 242.771 168.452 241.589 169.182 240.995L310.125 126.291C310.496 125.989 311.029 125.992 311.397 126.298L448.881 241.003C449.599 241.602 449.175 242.771 448.24 242.771Z" fill="#8A630B" stroke="#333333" stroke-width="5"/>
<rect x="189.5" y="78.2705" width="236" height="283" fill="white" stroke="#333333" stroke-width="5"/>
<path d="M303.076 125.384V126.849L299.238 129.072L287.775 131.975V127.365L303.076 125.384Z" fill="#C78A0C"/>
<path d="M303.076 109.133V125.386L287.775 127.367V117.992L303.076 109.133Z" fill="#598F22"/>
<path d="M303.076 109.133L287.775 117.992L272.474 109.133L287.775 100.275L303.076 109.133Z" fill="#598F22"/>
<path d="M299.237 129.072L287.774 135.708V131.976L299.237 129.072Z" fill="#754C24"/>
<path d="M287.775 131.976V135.708L272.474 126.849V118.787L287.754 131.981L287.775 131.976Z" fill="#754C24"/>
<path d="M287.775 127.366V131.976L287.754 131.981L272.474 118.787V113.562L287.754 127.369L287.775 127.366Z" fill="#C78A0C"/>
<path d="M287.775 117.992V127.366L287.754 127.369L272.474 113.562V109.133L287.775 117.992Z" fill="#598F22"/>
<path d="M288.144 135.708H287.404V118.207L272.289 109.455L272.659 108.812L288.145 117.778L288.144 135.708Z" fill="#1D1D1B"/>
<path d="M302.891 108.812L287.59 117.672L287.96 118.315L303.261 109.455L302.891 108.812Z" fill="#1D1D1B"/>
<path d="M287.775 136.136L272.106 127.064V108.92L272.291 108.813L287.777 99.8479L303.446 108.92V127.063L287.775 136.136ZM272.844 126.637L287.775 135.281L302.706 126.637V109.349L287.775 100.705L272.844 109.349V126.637Z" fill="#1D1D1B"/>
<path d="M287.655 132.386L272.233 119.069L272.716 118.506L287.85 131.574L299.147 128.712L299.327 129.432L287.837 132.343L287.655 132.386Z" fill="#1D1D1B"/>
<path d="M287.63 127.757L287.506 127.645L272.226 113.838L272.72 113.287L287.874 126.98L303.027 125.017L303.122 125.752L287.794 127.738L287.63 127.757Z" fill="#1D1D1B"/>
<path d="M290.982 105.272H284.101V110.9H290.982V105.272Z" fill="white"/>
<path d="M284.971 106.111L283.987 108.069L285.247 109.577V112.217H283.167L280.742 109.136L283.167 103.359C283.045 99.5234 283.248 96.1811 283.248 96.1811C283.248 96.1811 285.706 94.6657 286.638 94.5252C287.707 94.3645 290.908 95.1929 290.908 95.1929L294.709 98.4019L294.738 98.4276C294.757 98.5619 294.766 98.6973 294.766 98.8328C294.755 99.4047 294.613 99.9664 294.35 100.474C293.724 101.605 292.858 102.583 291.812 103.34C291.795 103.353 291.786 103.359 291.786 103.359L294.213 109.136L291.786 112.217H289.705V109.577L290.966 108.068L289.982 106.11" fill="white"/>
<path d="M291.965 112.588H289.335V109.442L290.525 108.017L289.651 106.277L290.311 105.944L291.405 108.12L290.075 109.712V111.846H291.607L293.787 109.077L291.324 103.213L291.587 103.044C292.587 102.321 293.416 101.387 294.018 100.309C294.255 99.8522 294.385 99.3465 294.396 98.8314C294.396 98.7594 294.392 98.6865 294.386 98.6135L290.733 95.5296C289.802 95.2928 287.483 94.7719 286.693 94.8908C286.041 94.9889 284.377 95.9312 283.606 96.3954C283.566 97.1607 283.433 100.091 283.536 103.346L283.539 103.427L281.166 109.077L283.346 111.845H284.877V109.711L283.547 108.119L284.641 105.943L285.301 106.277L284.426 108.017L285.617 109.441V112.587H282.987L280.314 109.193L282.796 103.289C282.68 99.5135 282.878 96.1914 282.88 96.1581L282.892 95.9659L283.056 95.865C283.314 95.7061 285.606 94.306 286.585 94.1583C287.695 93.9908 290.666 94.7463 291.001 94.8336L291.083 94.8548L295.087 98.2381L295.105 98.3772C295.126 98.5283 295.137 98.6807 295.137 98.8332C295.126 99.462 294.971 100.08 294.683 100.639C294.081 101.751 293.248 102.721 292.241 103.483L294.64 109.194L291.965 112.588Z" fill="#1D1D1B"/>
<path d="M289.705 110.528H285.247V111.27H289.705V110.528Z" fill="#1D1D1B"/>
<path d="M294.764 98.8323C294.753 99.4042 294.611 99.9659 294.348 100.474L293.002 98.8715L294.735 98.4266C294.754 98.561 294.764 98.6966 294.764 98.8323V98.8323Z" fill="#1D1D1B"/>
<path d="M290.384 98.022C290.384 98.022 289.897 96.665 289.131 96.9073C288.728 97.0086 288.364 97.228 288.086 97.5375C288.086 97.5375 288.723 98.379 289.247 98.4195C289.656 98.399 290.05 98.261 290.384 98.022V98.022Z" fill="#1D1D1B"/>
<path d="M285.769 98.4993H284.377C284.325 98.4993 284.274 98.4884 284.227 98.4674C284.18 98.4464 284.137 98.4157 284.103 98.3772C284.068 98.3388 284.042 98.2935 284.026 98.2443C284.009 98.1951 284.004 98.1429 284.009 98.0914L284.125 96.929C284.132 96.8576 284.16 96.7899 284.204 96.734L284.668 96.1528C284.702 96.1093 284.746 96.0743 284.796 96.0502C284.846 96.0261 284.901 96.0136 284.957 96.0137H286.116V96.7556H285.134L284.85 97.1117L284.786 97.7573H285.768L285.769 98.4993Z" fill="#1D1D1B"/>
<path d="M294.402 100.686V102.203C294.402 102.223 294.396 102.243 294.385 102.26C294.374 102.276 294.358 102.289 294.34 102.297C294.322 102.305 294.301 102.307 294.282 102.303C294.262 102.299 294.244 102.289 294.23 102.275L293.68 101.723L294.402 100.686Z" fill="white"/>
<path d="M294.301 102.614C294.248 102.614 294.194 102.603 294.145 102.583C294.095 102.562 294.05 102.532 294.012 102.493L293.279 101.759L294.71 99.7043V102.203C294.71 102.312 294.667 102.417 294.59 102.494C294.513 102.571 294.409 102.614 294.3 102.614H294.301ZM294.081 101.688L294.094 101.701V101.669L294.081 101.688Z" fill="#1D1D1B"/>
<path d="M294.45 101.17L293.911 100.527L294.018 100.31C294.255 99.8531 294.384 99.3477 294.395 98.8328C294.395 98.714 294.387 98.5953 294.371 98.4776L295.089 98.3191C295.413 99.3852 294.736 100.642 294.708 100.695L294.45 101.17Z" fill="#1D1D1B"/>
<path d="M291.71 103.869L291.501 103.539C291.157 102.996 290.964 102.371 290.944 101.728C290.924 101.085 291.076 100.448 291.385 99.8847C291.694 99.3209 292.148 98.8508 292.7 98.5234C293.252 98.1959 293.882 98.0233 294.523 98.0234C294.592 98.0234 294.66 98.0254 294.729 98.0293L294.854 98.0361L295.085 98.2355L295.104 98.3746C295.125 98.5257 295.135 98.6781 295.135 98.8307C295.125 99.4594 294.97 100.077 294.682 100.636C294.032 101.823 293.125 102.85 292.027 103.64L291.71 103.869ZM294.395 98.7699C293.932 98.7911 293.482 98.9254 293.083 99.161C292.684 99.3966 292.348 99.7265 292.105 100.122C291.862 100.517 291.719 100.966 291.689 101.43C291.658 101.893 291.741 102.357 291.93 102.781C292.786 102.108 293.496 101.267 294.018 100.31C294.255 99.8532 294.385 99.3475 294.396 98.8325C294.396 98.8117 294.396 98.7888 294.395 98.7699Z" fill="#1D1D1B"/>
<path d="M316.455 122.883C316.476 123.03 316.463 123.181 316.416 123.322C316.369 123.463 316.289 123.592 316.184 123.697C316.079 123.802 315.951 123.882 315.81 123.929C315.669 123.976 315.519 123.99 315.372 123.969H311.646C311.5 123.987 311.353 123.972 311.214 123.924C311.076 123.875 310.951 123.795 310.848 123.69C310.746 123.584 310.67 123.457 310.626 123.316C310.582 123.176 310.57 123.028 310.593 122.883V113.178C310.571 113.03 310.584 112.88 310.63 112.738C310.676 112.596 310.755 112.467 310.859 112.361C310.964 112.254 311.092 112.174 311.232 112.126C311.373 112.078 311.524 112.064 311.671 112.084H315.374C315.522 112.064 315.672 112.078 315.813 112.126C315.955 112.173 316.083 112.254 316.188 112.36C316.293 112.466 316.372 112.595 316.419 112.737C316.466 112.879 316.479 113.03 316.457 113.178V115.714H314.678V113.611H312.368V122.442H314.678V119.116H313.36V117.605H316.458L316.455 122.883Z" fill="black"/>
<path d="M323.846 122.881C323.867 123.028 323.854 123.179 323.808 123.32C323.762 123.461 323.683 123.589 323.578 123.695C323.474 123.8 323.346 123.88 323.205 123.927C323.065 123.974 322.915 123.988 322.768 123.967H318.921C318.776 123.986 318.628 123.971 318.49 123.922C318.351 123.874 318.226 123.794 318.124 123.688C318.022 123.583 317.945 123.455 317.901 123.315C317.857 123.175 317.846 123.026 317.869 122.881V113.177C317.869 112.447 318.22 112.083 318.921 112.083H322.768C322.916 112.063 323.066 112.077 323.207 112.125C323.348 112.173 323.476 112.253 323.58 112.359C323.685 112.465 323.763 112.594 323.809 112.736C323.855 112.878 323.868 113.029 323.846 113.177V122.881ZM322.074 122.441V113.61H319.643V122.441H322.074Z" fill="black"/>
<path d="M330.108 113.655H327.042V117.171H329.662V118.712H327.042V123.967H325.269V112.082H330.108V113.655Z" fill="black"/>
<path d="M336.032 123.967H331.115V112.082H335.984V113.654H332.887V117.124H335.552V118.666H332.889V122.394H336.032V123.967Z" fill="black"/>
<path d="M343.307 123.967H341.459L339.506 118.447V117.376H341.247V113.61H339.013V123.967H337.241V112.082H341.942C342.089 112.062 342.238 112.077 342.378 112.126C342.518 112.174 342.645 112.255 342.748 112.361C342.852 112.467 342.929 112.596 342.975 112.737C343.02 112.878 343.032 113.029 343.01 113.175V117.497C343.037 117.692 343.002 117.891 342.912 118.065C342.821 118.239 342.677 118.381 342.502 118.469C342.127 118.568 341.738 118.607 341.351 118.583L343.307 123.967Z" fill="black"/>
<rect x="213" y="149.771" width="194" height="10" rx="5" fill="#D9D9D9"/>
<rect x="213" y="179.771" width="194" height="10" rx="5" fill="#D9D9D9"/>
<rect x="213" y="209.771" width="194" height="10" rx="5" fill="#D9D9D9"/>
<rect x="213" y="239.771" width="194" height="10" rx="5" fill="#D9D9D9"/>
<rect x="213" y="269.771" width="194" height="10" rx="5" fill="#D9D9D9"/>
<rect x="213" y="299.771" width="194" height="10" rx="5" fill="#D9D9D9"/>
<path d="M167 426.064V243.598C167 242.808 167.873 242.33 168.539 242.756L320.595 340.071C321.231 340.478 321.203 341.417 320.544 341.786L168.489 426.937C167.822 427.31 167 426.828 167 426.064Z" fill="#649D35" stroke="#333333" stroke-width="5"/>
<path d="M451 426.064V243.598C451 242.808 450.127 242.33 449.461 242.756L297.405 340.071C296.769 340.478 296.797 341.417 297.456 341.786L449.511 426.937C450.178 427.31 451 426.828 451 426.064Z" fill="#649D35" stroke="#333333" stroke-width="5"/>
<path d="M446.273 427.771H169.779C168.842 427.771 168.42 426.597 169.142 426L309.106 310.304C309.48 309.995 310.021 309.998 310.39 310.312L446.92 426.008C447.63 426.61 447.204 427.771 446.273 427.771Z" fill="#8A630B" stroke="#333333" stroke-width="5"/>
<rect x="395" y="48.7705" width="65" height="65" rx="32.5" fill="#D0213B"/>
<path d="M413.833 93.2288V89.8121H417.25V77.8538C417.25 75.4906 417.962 73.3908 419.385 71.5543C420.809 69.7179 422.66 68.5149 424.937 67.9455V66.7496C424.937 66.0378 425.187 65.4328 425.685 64.9345C426.183 64.4363 426.788 64.1871 427.5 64.1871C428.212 64.1871 428.817 64.4363 429.315 64.9345C429.813 65.4328 430.062 66.0378 430.062 66.7496V67.9455C432.34 68.5149 434.191 69.7179 435.615 71.5543C437.038 73.3908 437.75 75.4906 437.75 77.8538V89.8121H441.167V93.2288H413.833ZM427.5 98.3538C426.56 98.3538 425.756 98.0192 425.087 97.3502C424.418 96.6811 424.083 95.8767 424.083 94.9371H430.917C430.917 95.8767 430.582 96.6811 429.913 97.3502C429.244 98.0192 428.44 98.3538 427.5 98.3538Z" fill="#F7F7F7"/>
<path d="M479.704 51.4099C480.764 50.7705 481.036 49.2802 480.313 48.0812C479.59 46.8822 478.144 46.4286 477.084 47.0681L468.982 51.9566C467.922 52.5961 467.65 54.0864 468.373 55.2854C469.096 56.4843 470.542 56.9379 471.602 56.2985L479.704 51.4099Z" fill="#D0213B"/>
<path d="M483.317 71.82C484.511 72.1155 485.719 71.3869 486.014 70.1926C486.31 68.9984 485.581 67.7908 484.387 67.4953L475.257 65.2368C474.063 64.9414 472.855 65.67 472.56 66.8642C472.264 68.0584 472.993 69.266 474.187 69.5615L483.317 71.82Z" fill="#D0213B"/>
<path d="M458.454 43.4852C458.158 44.6794 458.887 45.8871 460.081 46.1825C461.276 46.4779 462.483 45.7493 462.779 44.5551L465.037 35.4252C465.333 34.2309 464.604 33.0233 463.41 32.7279C462.215 32.4325 461.008 33.1611 460.712 34.3553L458.454 43.4852Z" fill="#D0213B"/>
<path d="M262.764 88.7705H175.443C174.891 88.7705 174.443 88.3228 174.443 87.7705V65.7705C174.443 65.2182 174.891 64.7705 175.443 64.7705H262.764C263.522 64.7705 264.004 65.5805 263.643 66.2468L258.201 76.2942C258.04 76.5914 258.04 76.9497 258.201 77.2468L263.643 87.2942C264.004 87.9605 263.522 88.7705 262.764 88.7705Z" fill="#D0213B"/>
<path d="M191.603 71.7764V78.2432C191.603 78.9404 191.455 79.5648 191.159 80.1162C190.867 80.6676 190.425 81.1051 189.833 81.4287C189.24 81.7477 188.495 81.9072 187.597 81.9072C186.317 81.9072 185.341 81.5723 184.671 80.9023C184.006 80.2279 183.673 79.3324 183.673 78.2158V71.7764H185.314V78.0723C185.314 78.9062 185.51 79.5215 185.902 79.918C186.294 80.3145 186.879 80.5127 187.659 80.5127C188.196 80.5127 188.634 80.4193 188.971 80.2324C189.313 80.041 189.564 79.763 189.723 79.3984C189.887 79.0293 189.969 78.585 189.969 78.0654V71.7764H191.603ZM199.128 74.0596C200.026 74.0596 200.746 74.3877 201.289 75.0439C201.835 75.7002 202.109 76.6755 202.109 77.9697C202.109 78.8265 201.981 79.5488 201.726 80.1367C201.475 80.7201 201.122 81.1621 200.667 81.4629C200.215 81.7591 199.689 81.9072 199.087 81.9072C198.705 81.9072 198.372 81.8571 198.089 81.7568C197.807 81.6566 197.565 81.5267 197.365 81.3672C197.164 81.2031 196.996 81.0254 196.859 80.834H196.763C196.786 81.0163 196.806 81.2191 196.825 81.4424C196.847 81.6611 196.859 81.8617 196.859 82.0439V85.127H195.246V74.2031H196.558L196.784 75.249H196.859C197 75.0348 197.171 74.8366 197.372 74.6543C197.577 74.472 197.823 74.3285 198.11 74.2236C198.402 74.1143 198.741 74.0596 199.128 74.0596ZM198.698 75.3721C198.256 75.3721 197.9 75.4609 197.631 75.6387C197.367 75.8118 197.173 76.0739 197.05 76.4248C196.932 76.7757 196.868 77.2155 196.859 77.7441V77.9697C196.859 78.5303 196.916 79.0065 197.03 79.3984C197.148 79.7858 197.342 80.082 197.611 80.2871C197.884 80.4876 198.253 80.5879 198.718 80.5879C199.11 80.5879 199.434 80.4808 199.689 80.2666C199.949 80.0524 200.142 79.7471 200.27 79.3506C200.398 78.9541 200.461 78.487 200.461 77.9492C200.461 77.1335 200.316 76.5 200.024 76.0488C199.737 75.5977 199.295 75.3721 198.698 75.3721ZM207.761 81.9072C206.859 81.9072 206.134 81.5791 205.587 80.9229C205.045 80.262 204.774 79.2891 204.774 78.0039C204.774 76.7051 205.05 75.723 205.601 75.0576C206.157 74.3923 206.889 74.0596 207.795 74.0596C208.178 74.0596 208.513 74.112 208.8 74.2168C209.087 74.3171 209.333 74.4538 209.539 74.627C209.748 74.8001 209.926 74.9938 210.072 75.208H210.147C210.124 75.0667 210.097 74.8639 210.065 74.5996C210.038 74.3307 210.024 74.0824 210.024 73.8545V71.1338H211.637V81.7705H210.379L210.092 80.7383H210.024C209.887 80.957 209.714 81.1553 209.504 81.333C209.299 81.5062 209.053 81.6452 208.766 81.75C208.484 81.8548 208.149 81.9072 207.761 81.9072ZM208.212 80.6016C208.901 80.6016 209.386 80.4033 209.668 80.0068C209.951 79.6104 210.097 79.0156 210.106 78.2227V78.0107C210.106 77.1631 209.969 76.5137 209.696 76.0625C209.422 75.6068 208.923 75.3789 208.199 75.3789C207.62 75.3789 207.178 75.6136 206.873 76.083C206.572 76.5479 206.421 77.1973 206.421 78.0312C206.421 78.8652 206.572 79.5033 206.873 79.9453C207.178 80.3828 207.625 80.6016 208.212 80.6016ZM218.158 74.0596C219.115 74.0596 219.837 74.2715 220.325 74.6953C220.817 75.1191 221.063 75.7799 221.063 76.6777V81.7705H219.921L219.614 80.6973H219.559C219.345 80.9707 219.124 81.1963 218.896 81.374C218.668 81.5518 218.404 81.6839 218.103 81.7705C217.807 81.8617 217.444 81.9072 217.016 81.9072C216.565 81.9072 216.162 81.8252 215.806 81.6611C215.451 81.4925 215.17 81.2373 214.965 80.8955C214.76 80.5537 214.658 80.1208 214.658 79.5967C214.658 78.8174 214.947 78.2318 215.526 77.8398C216.109 77.4479 216.989 77.2314 218.165 77.1904L219.477 77.1426V76.7461C219.477 76.222 219.354 75.8483 219.108 75.625C218.866 75.4017 218.525 75.29 218.083 75.29C217.704 75.29 217.337 75.3447 216.982 75.4541C216.626 75.5635 216.28 75.6979 215.943 75.8574L215.423 74.7227C215.792 74.5267 216.212 74.3672 216.681 74.2441C217.155 74.1211 217.647 74.0596 218.158 74.0596ZM219.47 78.1543L218.493 78.1885C217.691 78.2158 217.128 78.3525 216.804 78.5986C216.481 78.8447 216.319 79.182 216.319 79.6104C216.319 79.984 216.431 80.2575 216.654 80.4307C216.877 80.5993 217.171 80.6836 217.536 80.6836C218.092 80.6836 218.552 80.5264 218.917 80.2119C219.286 79.8929 219.47 79.4258 219.47 78.8105V78.1543ZM227.378 80.6084C227.588 80.6084 227.795 80.5902 228 80.5537C228.206 80.5127 228.392 80.4648 228.561 80.4102V81.627C228.383 81.7044 228.153 81.7705 227.871 81.8252C227.588 81.8799 227.294 81.9072 226.989 81.9072C226.56 81.9072 226.175 81.8366 225.833 81.6953C225.492 81.5495 225.221 81.3011 225.02 80.9502C224.819 80.5993 224.719 80.1139 224.719 79.4941V75.4268H223.687V74.709L224.794 74.1416L225.321 72.5215H226.333V74.2031H228.5V75.4268H226.333V79.4736C226.333 79.8564 226.428 80.1413 226.62 80.3281C226.811 80.515 227.064 80.6084 227.378 80.6084ZM234.364 74.0596C235.038 74.0596 235.617 74.1986 236.1 74.4766C236.583 74.7546 236.955 75.1488 237.214 75.6592C237.474 76.1696 237.604 76.7803 237.604 77.4912V78.3525H232.552C232.57 79.0863 232.766 79.6514 233.14 80.0479C233.518 80.4443 234.047 80.6426 234.726 80.6426C235.209 80.6426 235.642 80.597 236.025 80.5059C236.412 80.4102 236.811 80.2712 237.221 80.0889V81.3945C236.843 81.5723 236.458 81.7021 236.066 81.7842C235.674 81.8662 235.205 81.9072 234.658 81.9072C233.915 81.9072 233.261 81.7637 232.696 81.4766C232.135 81.1849 231.695 80.752 231.376 80.1777C231.062 79.6035 230.905 78.8903 230.905 78.0381C230.905 77.1904 231.048 76.4704 231.335 75.8779C231.623 75.2855 232.026 74.8343 232.545 74.5244C233.065 74.2145 233.671 74.0596 234.364 74.0596ZM234.364 75.2695C233.858 75.2695 233.448 75.4336 233.133 75.7617C232.823 76.0898 232.641 76.5706 232.586 77.2041H236.032C236.027 76.8258 235.963 76.4909 235.84 76.1992C235.722 75.9076 235.54 75.6797 235.293 75.5156C235.052 75.3516 234.742 75.2695 234.364 75.2695ZM245.751 79.6104C245.751 80.1071 245.631 80.5264 245.389 80.8682C245.148 81.21 244.794 81.4697 244.33 81.6475C243.869 81.8206 243.304 81.9072 242.634 81.9072C242.106 81.9072 241.65 81.8685 241.267 81.791C240.889 81.7181 240.531 81.6042 240.194 81.4492V80.0615C240.554 80.2301 240.957 80.376 241.404 80.499C241.855 80.6221 242.281 80.6836 242.682 80.6836C243.211 80.6836 243.591 80.6016 243.824 80.4375C244.056 80.2689 244.172 80.0456 244.172 79.7676C244.172 79.6035 244.125 79.4577 244.029 79.3301C243.938 79.1979 243.764 79.0635 243.509 78.9268C243.259 78.7855 242.889 78.6169 242.402 78.4209C241.923 78.2295 241.52 78.0381 241.192 77.8467C240.864 77.6553 240.615 77.4251 240.447 77.1562C240.278 76.8828 240.194 76.5342 240.194 76.1104C240.194 75.4404 240.458 74.9323 240.987 74.5859C241.52 74.235 242.224 74.0596 243.099 74.0596C243.564 74.0596 244.001 74.1074 244.412 74.2031C244.826 74.2943 245.232 74.4287 245.628 74.6064L245.123 75.8164C244.781 75.666 244.437 75.543 244.09 75.4473C243.749 75.347 243.4 75.2969 243.044 75.2969C242.63 75.2969 242.313 75.3607 242.094 75.4883C241.88 75.6159 241.773 75.7982 241.773 76.0352C241.773 76.2129 241.825 76.3633 241.93 76.4863C242.035 76.6094 242.215 76.7324 242.47 76.8555C242.73 76.9785 243.09 77.1312 243.55 77.3135C244.001 77.4867 244.391 77.6689 244.719 77.8604C245.052 78.0472 245.307 78.2773 245.485 78.5508C245.663 78.8242 245.751 79.1774 245.751 79.6104Z" fill="#F7F7F7"/>
<path d="M-33 91C4.03227 89.6481 53.1106 76.5084 64.6737 57.5789C67.0755 53.647 69.7951 33.5944 51.864 33.5944C39.4547 33.5944 27.5067 51.9489 33.4501 72.9133C39.3936 93.8777 97.1101 95.351 119.915 77.6315C173.556 35.9536 148.338 -5.02566 232 -36" stroke="#CDBEAF" stroke-width="3" stroke-dasharray="6 6"/>
<path d="M721.923 253.365C699.758 284.226 660.457 318.545 637.349 317.449C632.549 317.221 613.468 307.915 623.628 292.592C630.659 281.988 653.483 282.423 668.452 299.66C683.422 316.897 652.008 367.073 623.588 376.284C556.741 397.951 535.186 352.636 460.691 406.165" stroke="#CDBEAF" stroke-width="3" stroke-dasharray="6 6"/>
<path d="M561.849 92.8691L613.211 68.5642L560.064 114.039L561.849 92.8691Z" fill="#CDBEAF"/>
<path d="M560.064 114.039L570.015 98.6433L576.43 105.148L560.064 114.039Z" fill="#815C38"/>
<path d="M539 82.9705C562.925 78.4211 611.145 69.3506 612.633 69.4639L562.299 93.1583L539 82.9705Z" fill="#9B7D60"/>
<path d="M590.751 122.308L612.648 69.5224L570.015 98.6432L590.751 122.308Z" fill="#9B7D60"/>
<path d="M184.01 194.314C142.63 215.009 76.5047 260.724 92.4251 308.287C112.325 367.742 429.137 248.481 552 118" stroke="#9B7D60" stroke-width="4" stroke-dasharray="12 12"/>
</g>
<defs>
<clipPath id="clip0_1740_2650">
<rect width="660" height="398" fill="white"/>
</clipPath>
</defs>
</svg>
