<svg width="660" height="398" viewBox="0 0 660 398" fill="none" xmlns="http://www.w3.org/2000/svg">
<g clip-path="url(#clip0_9994_2414)">
<rect width="660" height="398" fill="url(#paint0_linear_9994_2414)"/>
<path d="M176 225C180.473 225 184 228.411 184 232.5C184 236.589 180.473 240 176 240C171.527 240 168 236.589 168 232.5C168 228.411 171.527 225 176 225Z" stroke="black" stroke-width="2"/>
<path d="M176 225C180.473 225 184 228.411 184 232.5C184 236.589 180.473 240 176 240C171.527 240 168 236.589 168 232.5C168 228.411 171.527 225 176 225Z" stroke="black" stroke-width="2"/>
<path d="M176 225C180.473 225 184 228.411 184 232.5C184 236.589 180.473 240 176 240C171.527 240 168 236.589 168 232.5C168 228.411 171.527 225 176 225Z" stroke="black" stroke-width="2"/>
<rect x="-114" y="292.503" width="700" height="64.4493" transform="rotate(-35 -114 292.503)" fill="url(#paint1_linear_9994_2414)" fill-opacity="0.2"/>
<rect x="-57" y="284.146" width="600" height="60.9575" transform="rotate(-35 -57 284.146)" fill="url(#paint2_linear_9994_2414)" fill-opacity="0.34"/>
<rect x="-57" y="434.219" width="900" height="36.0241" transform="rotate(-35 -57 434.219)" fill="url(#paint3_linear_9994_2414)" fill-opacity="0.28"/>
<rect x="15" y="450.219" width="900" height="22.1527" transform="rotate(-35 15 450.219)" fill="url(#paint4_linear_9994_2414)" fill-opacity="0.3"/>
<rect x="167" y="415.219" width="900" height="9.3048" transform="rotate(-35 167 415.219)" fill="url(#paint5_linear_9994_2414)" fill-opacity="0.15"/>
<rect x="272" y="392.219" width="900" height="8" transform="rotate(-35 272 392.219)" fill="url(#paint6_linear_9994_2414)" fill-opacity="0.09"/>
<rect x="-195" y="259.503" width="700" height="20" transform="rotate(-35 -195 259.503)" fill="url(#paint7_linear_9994_2414)" fill-opacity="0.32"/>
<rect x="-171" y="308.503" width="700" height="8.28184" transform="rotate(-35 -171 308.503)" fill="url(#paint8_linear_9994_2414)" fill-opacity="0.26"/>
<rect x="-306" y="218.503" width="700" height="75.7492" transform="rotate(-35 -306 218.503)" fill="url(#paint9_linear_9994_2414)" fill-opacity="0.15"/>
<rect x="-180" y="55.959" width="380" height="8" transform="rotate(-35 -180 55.959)" fill="url(#paint10_linear_9994_2414)" fill-opacity="0.5"/>
<rect x="-254" y="132.503" width="700" height="8" transform="rotate(-35 -254 132.503)" fill="url(#paint11_linear_9994_2414)" fill-opacity="0.5"/>
<g clip-path="url(#clip1_9994_2414)">
<rect x="338.088" y="42.9583" width="255.714" height="354.869" fill="#CFF59E"/>
<path d="M421.98 88.928C421.377 89.8896 420.668 90.6879 419.851 91.3124C418.857 92.0661 417.832 92.4452 416.771 92.4452C415.294 92.4452 414.4 91.8862 414.092 90.7787L413.461 90.6722L412.934 93.5064C413.859 94.0156 414.776 94.275 415.681 94.275C418.393 94.275 420.917 92.4889 423.252 88.928H421.98Z" fill="#243D51"/>
<path d="M429.549 85.7758C430.544 86.3601 431.296 86.7305 431.802 86.9095C432.574 87.1995 433.479 87.3462 434.517 87.3462C436.348 87.3462 437.761 86.8754 438.754 85.9461C439.637 85.1059 440.078 83.9775 440.078 82.5765C440.078 81.3572 439.416 80.0689 438.092 78.7186C436.923 77.5596 436.193 76.791 435.906 76.4198C435.332 75.7071 435.046 75.0267 435.046 74.3883C435.046 73.8284 435.254 73.3437 435.675 72.9209C436.116 72.5 436.734 72.2842 437.528 72.2842C438.059 72.2842 438.621 72.4528 439.216 72.7847C439.835 73.1 440.243 73.4887 440.441 73.9498C440.552 74.2162 440.609 74.5673 440.609 74.9883L441.469 75.2547L442.462 72.0912C441.07 71.3287 439.613 70.9566 438.092 70.9566C436.57 70.9566 435.254 71.4187 434.284 72.3585C433.313 73.2624 432.828 74.3638 432.828 75.6512C432.828 76.8094 433.378 77.9745 434.483 79.1492L436.567 81.414C437.429 82.3704 437.861 83.2124 437.861 83.9486C437.861 84.4849 437.66 84.9347 437.263 85.3173C436.777 85.802 436.039 86.0457 435.046 86.0457C434.229 86.0457 433.456 85.8265 432.729 85.3828C431.846 84.8727 431.405 84.2168 431.405 83.4141C431.405 83.2857 431.426 83.0508 431.473 82.7197L430.512 82.4848L429.549 85.7784V85.7758Z" fill="#243D51"/>
<path d="M400.879 85.7758C401.873 86.3601 402.626 86.7305 403.132 86.9095C403.929 87.1995 404.834 87.3462 405.847 87.3462C407.702 87.3462 409.112 86.8754 410.087 85.9461C410.991 85.1059 411.441 83.9775 411.441 82.5765C411.441 81.3572 410.77 80.0689 409.422 78.7186C408.251 77.5596 407.523 76.791 407.239 76.4198C406.686 75.7071 406.41 75.0267 406.41 74.3883C406.41 73.8284 406.618 73.3437 407.039 72.9209C407.48 72.5 408.087 72.2842 408.859 72.2842C409.39 72.2842 409.953 72.4528 410.548 72.7847C411.169 73.1 411.574 73.4887 411.775 73.9498C411.884 74.2162 411.941 74.5673 411.941 74.9883L412.801 75.2547L413.795 72.0912C412.403 71.3287 410.947 70.9566 409.423 70.9566C407.899 70.9566 406.588 71.4187 405.614 72.3585C404.644 73.2624 404.158 74.3638 404.158 75.6512C404.158 76.8094 404.709 77.9745 405.815 79.1492L407.898 81.414C408.76 82.3704 409.193 83.2124 409.193 83.9486C409.193 84.4849 408.993 84.9347 408.594 85.3173C408.112 85.802 407.383 86.0457 406.411 86.0457C405.572 86.0457 404.791 85.8265 404.06 85.3828C403.177 84.8727 402.737 84.2168 402.737 83.4141C402.737 83.2857 402.772 83.0508 402.836 82.7197L401.843 82.4848L400.881 85.7784L400.879 85.7758Z" fill="#243D51"/>
<path d="M399.457 82.5459C398.42 84.077 397.627 84.8448 397.076 84.8448C396.565 84.8448 396.311 84.5705 396.311 84.0098C396.311 83.656 396.392 83.0892 396.544 82.3127L398.928 70.9558C398.505 71.0204 398.088 71.0518 397.671 71.0518C397.493 71.0518 397.094 71.0457 396.475 71.0204C395.878 70.9794 395.436 70.9558 395.151 70.9558C392.637 70.9558 390.36 71.7567 388.33 73.3507C386.634 74.6879 385.265 76.4207 384.227 78.5466C383.299 80.4166 382.837 82.0682 382.837 83.5084C382.837 84.5382 383.067 85.388 383.532 86.0763C384.083 86.9235 384.878 87.3462 385.915 87.3462C387.57 87.3462 389.304 86.3095 391.113 84.2465C392.372 82.8053 393.518 81.0489 394.556 78.9868L394.621 79.0497L394.061 81.4123C393.707 82.9923 393.531 84.3032 393.531 85.3478C393.531 86.6833 394.07 87.3462 395.151 87.3462C396.632 87.3462 398.365 85.8553 400.351 82.8787L399.455 82.5459H399.457ZM385.618 83.3163C385.618 82.2717 385.881 81.0175 386.414 79.5519C386.9 78.24 387.483 77.0504 388.167 75.9814C389.115 74.5167 390.142 73.5053 391.248 72.955C392.151 72.5104 393.298 72.2842 394.69 72.2842C395.089 72.2842 395.493 72.3314 395.916 72.4205C395.783 74.6634 394.622 77.4391 392.437 80.7502C390.253 84.0351 388.456 85.6789 387.04 85.6789C386.092 85.6789 385.617 84.8937 385.617 83.3163" fill="#243D51"/>
<path d="M356.354 75.0521C356.354 78.758 357.557 81.8271 359.963 84.2473C362.367 86.6422 365.338 87.8484 368.868 87.8484C373.371 87.8484 376.913 86.3435 379.494 83.3477C381.656 80.8393 382.738 77.9649 382.738 74.7193C382.738 71.0291 381.536 68.0089 379.132 65.655C376.746 63.2846 373.635 62.0933 369.794 62.0933C365.954 62.0933 362.533 63.4995 359.929 66.3258C357.545 68.8744 356.354 71.7916 356.354 75.0521ZM359.697 75.2215C359.697 71.9357 360.724 69.167 362.776 66.9258C364.829 64.6829 367.291 63.5571 370.158 63.5571C372.72 63.5571 374.873 64.5065 376.614 66.3904C378.467 68.3906 379.396 70.9951 379.396 74.2153C379.396 77.6653 378.413 80.545 376.449 82.8778C374.506 85.2081 372.045 86.382 369.065 86.382C366.086 86.382 363.704 85.1941 361.981 82.8132C360.459 80.7004 359.697 78.1736 359.697 75.2198" fill="#243D51"/>
<path d="M423.251 88.928C423.444 88.631 423.634 88.3314 423.824 88.0083L426.639 83.3154C429.994 77.6732 431.671 74.1525 431.671 72.7515C431.671 71.5549 431.24 70.9549 430.38 70.9549C429.828 70.9549 429.21 71.1732 428.525 71.6178C428.261 71.7715 427.653 72.2423 426.704 73.0188L427.002 73.7551C427.468 73.376 427.907 73.1891 428.33 73.1891C428.879 73.1891 429.155 73.5218 429.155 74.1839C429.155 75.1403 428.438 76.9928 427.002 79.7458L424.023 85.4771H423.957C423.758 84.2535 423.451 82.732 423.03 80.9109C422.501 78.5807 422.224 77.3587 422.203 77.2531C421.673 74.7193 421.086 72.962 420.446 71.9838C419.984 71.2964 419.411 70.9558 418.726 70.9558C417.646 70.9558 416.2 72.0903 414.391 74.3551L413.827 75.0521L414.656 75.6835C415.604 74.1944 416.477 73.4581 417.269 73.4581C418.174 73.4581 418.883 74.5341 419.39 76.6888L422.168 88.61C422.108 88.7201 422.046 88.8214 421.983 88.9297H423.253L423.251 88.928Z" fill="#243D51"/>
<rect x="358.963" y="106.452" width="46.0981" height="3.4791" fill="#CBCBCB"/>
<rect x="358.963" y="114.28" width="46.0981" height="3.4791" fill="#CBCBCB"/>
<rect x="358.963" y="122.108" width="46.0981" height="3.4791" fill="#CBCBCB"/>
<rect x="387" y="330" width="163" height="3" fill="#CBCBCB"/>
<rect x="387" y="338" width="163" height="3" fill="#CBCBCB"/>
<path d="M434.145 314.314C434.208 314.757 434.167 315.209 434.025 315.633C433.882 316.058 433.642 316.444 433.322 316.76C433.003 317.076 432.614 317.315 432.186 317.456C431.758 317.598 431.303 317.638 430.856 317.575H419.539C419.098 317.632 418.649 317.586 418.229 317.44C417.808 317.295 417.428 317.055 417.118 316.738C416.807 316.422 416.576 316.038 416.441 315.617C416.307 315.196 416.273 314.75 416.343 314.314V285.174C416.276 284.731 416.314 284.278 416.454 283.852C416.594 283.426 416.832 283.038 417.15 282.719C417.468 282.401 417.856 282.16 418.284 282.016C418.712 281.872 419.168 281.829 419.615 281.89H430.861C431.31 281.828 431.767 281.87 432.196 282.014C432.625 282.157 433.015 282.398 433.334 282.716C433.653 283.035 433.893 283.423 434.035 283.85C434.176 284.276 434.216 284.729 434.15 285.174V292.79H428.747V286.474H421.732V312.992H428.747V303.005H424.745V298.468H434.153L434.145 314.314Z" fill="black"/>
<path d="M456.59 314.313C456.656 314.755 456.616 315.206 456.475 315.63C456.334 316.054 456.095 316.44 455.778 316.756C455.46 317.073 455.072 317.312 454.645 317.454C454.218 317.596 453.764 317.637 453.318 317.574H441.634C441.193 317.631 440.744 317.585 440.324 317.439C439.903 317.294 439.523 317.054 439.213 316.737C438.902 316.421 438.671 316.037 438.536 315.616C438.402 315.195 438.368 314.749 438.438 314.313V285.173C438.438 282.983 439.503 281.889 441.634 281.889H453.318C453.765 281.828 454.221 281.871 454.649 282.015C455.077 282.159 455.466 282.4 455.783 282.718C456.101 283.037 456.339 283.425 456.479 283.851C456.619 284.277 456.657 284.729 456.59 285.173V314.313ZM451.208 312.991V286.473H443.827V312.991H451.208Z" fill="black"/>
<path d="M475.609 286.61H466.295V297.167H474.253V301.795H466.295V317.574H460.914V281.885H475.609V286.61Z" fill="black"/>
<path d="M493.599 317.574H478.667V281.885H493.454V286.606H484.046V297.026H492.141V301.655H484.054V312.849H493.599V317.574Z" fill="black"/>
<path d="M515.692 317.574H510.082L504.149 300.998V297.783H509.438V286.473H502.654V317.574H497.272V281.885H511.547C511.993 281.827 512.447 281.872 512.872 282.018C513.297 282.163 513.682 282.405 513.996 282.723C514.311 283.042 514.546 283.429 514.684 283.853C514.822 284.278 514.858 284.728 514.79 285.169V298.147C514.872 298.732 514.768 299.328 514.492 299.851C514.216 300.374 513.781 300.799 513.249 301.065C512.11 301.363 510.929 301.478 509.753 301.407L515.692 317.574Z" fill="black"/>
<path d="M512.488 238.939V243.339L500.83 250.012L466.018 258.73V244.888L512.488 238.939Z" fill="#C78A0C"/>
<path d="M512.488 190.142V238.944L466.018 244.892V216.744L512.488 190.142Z" fill="#598F22"/>
<path d="M512.488 190.142L466.019 216.743L419.551 190.142L466.019 163.543L512.488 190.142Z" fill="#598F22"/>
<path d="M500.828 250.012L466.016 269.94V258.734L500.828 250.012Z" fill="#754C24"/>
<path d="M466.018 258.733V269.938L419.551 243.338V219.13L465.954 258.748L466.018 258.733Z" fill="#754C24"/>
<path d="M466.018 244.891V258.733L465.954 258.748L419.551 219.13V203.439L465.954 244.898L466.018 244.891Z" fill="#C78A0C"/>
<path d="M466.018 216.743V244.891L465.954 244.899L419.551 203.439V190.142L466.018 216.743Z" fill="#598F22"/>
<path d="M467.14 269.94H464.893V217.387L418.989 191.107L420.113 189.178L467.142 216.099L467.14 269.94Z" fill="#1D1D1B"/>
<path d="M511.925 189.178L465.457 215.782L466.58 217.711L513.049 191.107L511.925 189.178Z" fill="#1D1D1B"/>
<path d="M466.018 271.225L418.433 243.983V189.503L418.995 189.181L466.024 162.26L513.612 189.5V243.98L466.018 271.225ZM420.675 242.701L466.018 268.657L511.365 242.701V190.79L466.018 164.834L420.675 190.79V242.701Z" fill="#1D1D1B"/>
<path d="M465.654 259.963L418.818 219.975L420.285 218.286L466.246 257.527L500.555 248.932L501.101 251.095L466.207 259.836L465.654 259.963Z" fill="#1D1D1B"/>
<path d="M465.578 246.063L465.202 245.727L418.799 204.268L420.298 202.613L466.318 243.73L512.338 237.836L512.626 240.045L466.076 246.006L465.578 246.063Z" fill="#1D1D1B"/>
<path d="M475.759 178.547H454.86V195.446H475.759V178.547Z" fill="white"/>
<path d="M457.502 181.066L454.514 186.945L458.341 191.475V199.403H452.024L444.661 190.151L452.024 172.803C451.654 161.286 452.271 151.249 452.271 151.249C452.271 151.249 459.736 146.699 462.566 146.277C465.811 145.795 475.533 148.282 475.533 148.282L487.076 157.918L487.166 157.995C487.222 158.398 487.25 158.805 487.251 159.212C487.218 160.929 486.786 162.616 485.988 164.141C484.086 167.535 481.455 170.473 478.28 172.747C478.228 172.785 478.201 172.802 478.201 172.802L485.571 190.149L478.201 199.401H471.881V191.474L475.709 186.944L472.721 181.065" fill="white"/>
<path d="M478.743 200.515H470.756V191.068L474.371 186.791L471.715 181.566L473.72 180.564L477.042 187.098L473.003 191.878V198.286H477.655L484.276 189.973L476.796 172.364L477.597 171.859C480.631 169.686 483.151 166.883 484.979 163.645C485.7 162.273 486.092 160.755 486.125 159.208C486.125 158.992 486.116 158.773 486.097 158.554L475.004 149.293C472.174 148.582 465.133 147.018 462.732 147.375C460.753 147.67 455.698 150.499 453.358 151.893C453.237 154.191 452.832 162.989 453.146 172.764L453.154 173.008L445.947 189.972L452.568 198.285H457.218V191.877L453.178 187.097L456.5 180.563L458.505 181.565L455.849 186.79L459.464 191.067V200.514H451.478L443.36 190.322L450.897 172.594C450.547 161.256 451.147 151.281 451.154 151.181L451.189 150.603L451.687 150.3C452.471 149.823 459.431 145.619 462.404 145.176C465.777 144.673 474.799 146.941 475.817 147.203L476.064 147.267L488.224 157.426L488.281 157.844C488.344 158.298 488.376 158.755 488.376 159.213C488.345 161.101 487.873 162.956 486.999 164.634C485.169 167.973 482.64 170.886 479.582 173.177L486.867 190.325L478.743 200.515Z" fill="#1D1D1B"/>
<path d="M471.881 194.331H458.342V196.558H471.881V194.331Z" fill="#1D1D1B"/>
<path d="M487.245 159.211C487.212 160.928 486.78 162.615 485.982 164.14L481.892 159.328L487.158 157.993C487.215 158.396 487.244 158.803 487.245 159.211Z" fill="#1D1D1B"/>
<path d="M473.942 156.777C473.942 156.777 472.462 152.703 470.136 153.43C468.912 153.734 467.808 154.393 466.963 155.323C466.963 155.323 468.897 157.849 470.488 157.971C471.731 157.909 472.93 157.495 473.942 156.777Z" fill="#1D1D1B"/>
<path d="M459.926 158.21H455.7C455.543 158.21 455.387 158.178 455.244 158.115C455.1 158.052 454.972 157.959 454.866 157.844C454.761 157.729 454.681 157.593 454.632 157.445C454.583 157.297 454.566 157.141 454.582 156.986L454.933 153.495C454.955 153.281 455.039 153.078 455.175 152.91L456.582 151.165C456.687 151.034 456.821 150.929 456.973 150.856C457.125 150.784 457.291 150.747 457.46 150.747H460.98V152.975H458L457.137 154.044L456.942 155.983H459.925L459.926 158.21Z" fill="#1D1D1B"/>
<path d="M486.146 164.777V169.333C486.146 169.393 486.128 169.452 486.094 169.502C486.06 169.552 486.013 169.591 485.957 169.614C485.901 169.637 485.839 169.643 485.779 169.631C485.72 169.619 485.665 169.591 485.622 169.548L483.952 167.892L486.146 164.777Z" fill="white"/>
<path d="M485.839 170.566C485.676 170.566 485.514 170.534 485.364 170.472C485.213 170.41 485.076 170.319 484.961 170.204L482.736 167.998L487.081 161.829V169.333C487.081 169.66 486.949 169.974 486.716 170.205C486.482 170.436 486.166 170.566 485.836 170.566H485.839ZM485.17 167.785L485.211 167.826V167.727L485.17 167.785Z" fill="#1D1D1B"/>
<path d="M486.291 166.229L484.654 164.299L484.979 163.647C485.699 162.276 486.091 160.758 486.124 159.212C486.124 158.855 486.1 158.499 486.051 158.145L488.232 157.669C489.215 160.871 487.161 164.644 487.073 164.803L486.291 166.229Z" fill="#1D1D1B"/>
<path d="M477.97 174.335L477.334 173.344C476.289 171.714 475.705 169.835 475.643 167.905C475.581 165.974 476.044 164.063 476.982 162.37C477.92 160.677 479.3 159.266 480.976 158.282C482.653 157.299 484.566 156.781 486.514 156.781C486.722 156.781 486.93 156.787 487.137 156.799L487.519 156.819L488.22 157.418L488.277 157.836C488.34 158.29 488.372 158.747 488.372 159.205C488.34 161.093 487.869 162.948 486.995 164.626C485.02 168.191 482.265 171.273 478.933 173.646L477.97 174.335ZM486.124 159.023C484.719 159.086 483.351 159.49 482.139 160.197C480.927 160.905 479.907 161.895 479.17 163.082C478.432 164.269 477.998 165.617 477.905 167.009C477.812 168.4 478.064 169.793 478.638 171.066C481.237 169.045 483.394 166.521 484.979 163.647C485.7 162.276 486.092 160.757 486.125 159.211C486.127 159.148 486.125 159.079 486.124 159.023Z" fill="#1D1D1B"/>
<g opacity="0.1">
<path fill-rule="evenodd" clip-rule="evenodd" d="M549.608 107.773L553.49 93.2839L555.422 93.8015L551.54 108.29L549.608 107.773Z" fill="#353535"/>
<path d="M546.559 87.0411C545.789 86.8347 545.115 86.9654 544.536 87.4332C543.959 87.8966 543.532 88.6456 543.255 89.6801C542.678 91.8326 543.197 93.1254 544.813 93.5582C545.491 93.7399 546.357 93.7904 547.412 93.7098L546.952 95.4265C546.071 95.5444 545.142 95.4724 544.165 95.2105C542.761 94.8342 541.801 94.1217 541.284 93.0727C540.769 92.0194 540.725 90.696 541.152 89.1024C541.421 88.0988 541.839 87.2695 542.406 86.6147C542.974 85.9555 543.653 85.5169 544.443 85.2992C545.238 85.0782 546.096 85.091 547.016 85.3375C547.953 85.5887 548.835 86.0679 549.66 86.7749L548.553 88.2619C548.238 87.9935 547.915 87.7465 547.584 87.521C547.253 87.2954 546.911 87.1354 546.559 87.0411Z" fill="#353535"/>
<path fill-rule="evenodd" clip-rule="evenodd" d="M553.421 97.4064C551.189 96.8083 549.127 97.9779 548.651 99.7519C548.176 101.526 549.377 103.57 551.609 104.168C553.841 104.766 555.903 103.596 556.379 101.822C556.854 100.048 555.653 98.0045 553.421 97.4064ZM546.719 99.2342C547.531 96.2069 550.836 94.6432 553.938 95.4745C557.041 96.3059 559.122 99.3128 558.311 102.34C557.499 105.367 554.194 106.931 551.091 106.1C547.989 105.268 545.908 102.261 546.719 99.2342Z" fill="#353535"/>
</g>
<g opacity="0.1">
<path fill-rule="evenodd" clip-rule="evenodd" d="M441.608 373.773L445.49 359.284L447.422 359.802L443.54 374.29L441.608 373.773Z" fill="#353535"/>
<path d="M438.559 353.041C437.789 352.835 437.115 352.965 436.536 353.433C435.959 353.897 435.532 354.646 435.255 355.68C434.678 357.833 435.197 359.125 436.813 359.558C437.491 359.74 438.357 359.79 439.412 359.71L438.952 361.427C438.071 361.544 437.142 361.472 436.165 361.211C434.761 360.834 433.801 360.122 433.284 359.073C432.769 358.019 432.725 356.696 433.152 355.102C433.421 354.099 433.839 353.27 434.406 352.615C434.974 351.955 435.653 351.517 436.443 351.299C437.238 351.078 438.096 351.091 439.016 351.337C439.953 351.589 440.835 352.068 441.66 352.775L440.553 354.262C440.238 353.993 439.915 353.747 439.584 353.521C439.253 353.295 438.911 353.135 438.559 353.041Z" fill="#353535"/>
<path fill-rule="evenodd" clip-rule="evenodd" d="M445.421 363.406C443.189 362.808 441.127 363.978 440.651 365.752C440.176 367.526 441.377 369.57 443.609 370.168C445.841 370.766 447.903 369.596 448.379 367.822C448.854 366.048 447.653 364.004 445.421 363.406ZM438.719 365.234C439.531 362.207 442.836 360.643 445.938 361.475C449.041 362.306 451.122 365.313 450.311 368.34C449.499 371.367 446.194 372.931 443.091 372.1C439.989 371.268 437.908 368.261 438.719 365.234Z" fill="#353535"/>
</g>
<g opacity="0.1" clip-path="url(#clip2_9994_2414)">
<path d="M493.172 112.899L480.673 110.341L479.098 110.763L482.129 122.074L480.554 122.496L483.577 124.33L485.278 121.23L483.703 121.652L481.2 112.309L485.664 113.223L487.64 120.597L486.065 121.019L489.089 122.853L490.789 119.753L489.215 120.175L487.427 113.502L491.901 114.452L493.151 119.12L491.577 119.542L494.6 121.377L496.301 118.276L494.726 118.698L493.172 112.899Z" fill="#353535"/>
<path d="M491.169 105.419L489.594 105.841L490.86 110.565L492.435 110.143L491.169 105.419Z" fill="#353535"/>
<path d="M493.587 108.146L493.165 106.571L488.441 107.837L488.863 109.412L493.587 108.146Z" fill="#353535"/>
</g>
<g opacity="0.1" clip-path="url(#clip3_9994_2414)">
<path d="M575.747 60.1623L571.089 42.7776C571.088 42.777 571.088 42.7767 571.087 42.7769L565.294 44.3293C565.293 44.3294 565.293 44.33 565.293 44.3305L569.951 61.7152C569.951 61.7158 569.952 61.7161 569.952 61.7159L575.746 60.1635C575.747 60.1634 575.747 60.1628 575.747 60.1623Z" stroke="#353535" stroke-width="2" stroke-miterlimit="10"/>
<path d="M564.156 63.2681L559.498 45.8834C559.497 45.8829 559.497 45.8826 559.496 45.8827L553.703 47.4351C553.702 47.4352 553.702 47.4358 553.702 47.4363L558.36 64.8211C558.36 64.8216 558.361 64.8219 558.361 64.8218L564.155 63.2694C564.156 63.2692 564.156 63.2687 564.156 63.2681Z" stroke="#353535" stroke-width="2" stroke-miterlimit="10"/>
<path d="M562.109 44.0376L567.313 63.4585" stroke="#353535" stroke-width="2" stroke-miterlimit="10" stroke-linecap="round" stroke-dasharray="3 3"/>
</g>
<rect x="332" y="36" width="268" height="10" rx="5" fill="#6C6C6C"/>
<g opacity="0.1">
<path d="M346.42 350.453C346.202 349.636 346.915 348.893 347.664 349.287C349.092 350.039 350.213 351.361 350.664 353.043C351.522 356.244 349.622 359.534 346.421 360.391C343.221 361.249 339.931 359.35 339.073 356.149C338.622 354.467 338.933 352.761 339.793 351.396C340.244 350.681 341.234 350.967 341.453 351.784C341.541 352.113 341.471 352.459 341.315 352.761C340.873 353.615 340.736 354.629 341.005 355.631C341.577 357.765 343.77 359.031 345.904 358.46C348.038 357.888 349.304 355.694 348.732 353.561C348.464 352.559 347.838 351.749 347.029 351.23C346.743 351.046 346.508 350.782 346.42 350.453Z" fill="#353535"/>
<rect x="342.091" y="348.093" width="2" height="6" rx="1" transform="rotate(-15 342.091 348.093)" fill="#353535"/>
<path d="M346.144 343.901C346.677 343.758 347.226 344.075 347.369 344.608L348.211 347.753C347.519 347.503 346.783 347.36 346.03 347.339L345.437 345.126C345.294 344.593 345.611 344.044 346.144 343.901Z" fill="#353535"/>
<path d="M349.508 346.521C349.289 345.704 350.003 344.962 350.752 345.356C352.179 346.108 353.3 347.429 353.75 349.11C354.234 350.916 353.841 352.749 352.831 354.159C352.817 353.618 352.742 353.071 352.596 352.525C352.443 351.953 352.222 351.418 351.946 350.923C351.974 350.498 351.935 350.062 351.819 349.628C351.55 348.627 350.925 347.816 350.117 347.297C349.83 347.114 349.596 346.85 349.508 346.521Z" fill="#353535"/>
<path d="M348.972 339.002C349.506 338.859 350.054 339.176 350.197 339.71L351.04 342.854C350.347 342.604 349.612 342.461 348.858 342.44L348.265 340.227C348.122 339.694 348.439 339.145 348.972 339.002Z" fill="#353535"/>
<path d="M352.337 341.622C352.118 340.805 352.832 340.063 353.58 340.457C355.007 341.209 356.128 342.53 356.579 344.211C357.063 346.017 356.669 347.85 355.66 349.26C355.646 348.719 355.571 348.172 355.424 347.626C355.271 347.054 355.051 346.519 354.775 346.024C354.802 345.599 354.763 345.163 354.647 344.729C354.379 343.728 353.754 342.917 352.945 342.399C352.659 342.215 352.425 341.951 352.337 341.622Z" fill="#353535"/>
</g>
<g opacity="0.1">
<path d="M407.64 389.597C408.628 390.081 409.04 391.285 408.556 392.273L403.716 402.15C404.555 400.438 404.631 398.55 404.075 396.872L404.12 396.78L404.028 396.735C403.439 395.069 402.223 393.623 400.51 392.784C398.798 391.945 396.91 391.87 395.232 392.425L395.14 392.38L395.096 392.471C393.429 393.061 391.983 394.277 391.144 395.99C390.305 397.702 390.23 399.59 390.785 401.268L390.74 401.36L390.832 401.405C391.422 403.071 392.637 404.517 394.35 405.356L384.472 400.516C383.484 400.032 383.072 398.827 383.556 397.84L390.597 383.472C391.081 382.484 392.285 382.072 393.273 382.556L407.64 389.597ZM387.112 395.128L385.352 398.72L388.944 400.48L390.704 396.888L387.112 395.128ZM389.752 389.74L387.992 393.332L391.584 395.092L393.344 391.5L389.752 389.74ZM392.393 384.352L390.632 387.944L394.224 389.704L395.985 386.112L392.393 384.352ZM397.781 386.992L396.02 390.584L399.612 392.344L401.372 388.752L397.781 386.992ZM403.168 389.632L401.408 393.224L405 394.985L406.76 391.393L403.168 389.632Z" fill="#353535"/>
<rect x="393.133" y="398.412" width="2.15921" height="2.15921" transform="rotate(-18.8939 393.133 398.412)" fill="#353535"/>
<rect x="398.24" y="396.664" width="2.15921" height="2.15921" transform="rotate(-18.8939 398.24 396.664)" fill="#353535"/>
<path d="M401.857 400.561C402.532 402.536 401.479 404.684 399.504 405.36C397.53 406.036 395.382 404.983 394.706 403.009L394.154 401.395L396.197 400.695L396.749 402.31C397.039 403.156 397.959 403.607 398.805 403.317C399.651 403.028 400.103 402.107 399.814 401.261L399.261 399.647L401.304 398.947L401.857 400.561ZM395.873 399.749L393.83 400.448L393.133 398.412L395.176 397.713L395.873 399.749ZM400.98 398.001L398.937 398.7L398.241 396.664L400.283 395.965L400.98 398.001Z" fill="#353535"/>
<path d="M395.176 396.852L395.305 396.589C395.504 396.183 395.857 395.872 396.285 395.725V395.725C396.714 395.579 397.183 395.608 397.589 395.807L397.852 395.936" stroke="#353535"/>
<path d="M393.38 395.972L393.638 395.446C394.036 394.633 394.742 394.011 395.598 393.718V393.718C396.455 393.425 397.393 393.484 398.206 393.882L398.732 394.14" stroke="#353535"/>
</g>
<g opacity="0.1" clip-path="url(#clip4_9994_2414)">
<path d="M536.375 160.737L536.569 161.461L538.631 162.651L538.001 160.302L541.254 159.43L542.125 162.682L539.775 163.312L541.837 164.502L542.561 164.308L542.754 165.032L544.816 166.222L544.187 163.873L547.439 163.001L548.31 166.253L545.96 166.883L548.022 168.073L548.746 167.879L548.94 168.603L551.001 169.793L547.758 157.688C547.518 156.793 546.59 156.258 545.696 156.497L533.59 159.741L535.652 160.931L536.375 160.737ZM542.88 158.995L546.132 158.123L547.003 161.375L543.751 162.247L542.88 158.995ZM530.395 159.848L529.556 161.301L531.617 162.492L534.983 175.053C535.223 175.947 536.15 176.483 537.045 176.243L549.606 172.877L551.678 174.074L552.517 172.62L530.395 159.848ZM539.864 167.253L541.359 168.116L540.18 168.432L539.864 167.253ZM533.679 163.682L535.174 164.545L533.995 164.861L533.679 163.682ZM539.861 173.746L536.609 174.617L535.738 171.365L538.99 170.494L539.861 173.746ZM538.554 168.868L535.302 169.739L534.43 166.487L537.235 165.735L537.802 166.063L538.554 168.868ZM544.739 172.439L541.487 173.31L540.616 170.058L543.42 169.306L543.987 169.634L544.739 172.439ZM546.365 172.003L546.049 170.824L547.544 171.687L546.365 172.003Z" fill="#353535"/>
</g>
<g opacity="0.1" clip-path="url(#clip5_9994_2414)">
<path d="M380.343 302.714L384.891 301.501L386.115 306.046L383.951 304.797L378.947 313.462L377.504 312.629L382.507 303.963L380.343 302.714Z" fill="#353535"/>
<path d="M378.272 294.987L382.82 293.774L384.044 298.319L381.88 297.07L371.927 314.308L370.484 313.475L380.436 296.236L378.272 294.987Z" fill="#353535"/>
<path d="M370.286 296.091L374.834 294.879L376.058 299.424L373.894 298.174L368.89 306.839L367.447 306.007L372.45 297.34L370.286 296.091Z" fill="#353535"/>
</g>
<g opacity="0.1" clip-path="url(#clip6_9994_2414)">
<g clip-path="url(#clip7_9994_2414)">
<path d="M579.391 391.893L570.729 382.746L572.003 387.501L580.665 396.648L579.391 391.893Z" fill="#353535"/>
<path d="M567.313 381.591C569.447 381.019 571.64 382.285 572.212 384.419C572.784 386.553 571.518 388.746 569.384 389.318C567.25 389.89 565.057 388.624 564.485 386.49C563.913 384.356 565.179 382.162 567.313 381.591ZM567.831 383.523C566.764 383.808 566.131 384.905 566.417 385.972C566.702 387.039 567.799 387.672 568.866 387.386C569.933 387.1 570.566 386.004 570.28 384.937C569.994 383.87 568.898 383.237 567.831 383.523Z" fill="#353535"/>
<path d="M582.01 390.076C584.144 389.504 586.337 390.77 586.909 392.904C587.481 395.038 586.215 397.231 584.081 397.803C581.947 398.375 579.753 397.109 579.182 394.975C578.61 392.841 579.876 390.648 582.01 390.076ZM582.528 392.008C581.461 392.294 580.828 393.39 581.114 394.457C581.399 395.524 582.496 396.157 583.563 395.871C584.63 395.585 585.263 394.489 584.977 393.422C584.691 392.355 583.595 391.722 582.528 392.008Z" fill="#353535"/>
<path d="M580.836 377.967L578.904 378.485L580.457 384.28L582.389 383.763L580.836 377.967Z" fill="#353535"/>
<path d="M583.803 381.313L583.286 379.381L577.49 380.934L578.008 382.866L583.803 381.313Z" fill="#353535"/>
</g>
</g>
<g opacity="0.1" clip-path="url(#clip8_9994_2414)">
<rect x="514.073" y="378.149" width="6" height="6" rx="1" transform="rotate(-15 514.073 378.149)" fill="#353535"/>
<rect x="512.381" y="364.108" width="2" height="3" transform="rotate(-15 512.381 364.108)" fill="#353535"/>
<rect x="514.193" y="370.87" width="2" height="7" transform="rotate(-15 514.193 370.87)" fill="#353535"/>
<rect x="528.114" y="376.457" width="2" height="8" transform="rotate(75 528.114 376.457)" fill="#353535"/>
<rect width="2" height="3" transform="matrix(0.258819 0.965926 0.965926 -0.258819 531.011 375.681)" fill="#353535"/>
<path d="M514.124 366.747C515.724 366.318 517.369 367.268 517.798 368.869C518.227 370.469 517.277 372.114 515.677 372.543C514.076 372.972 512.431 372.022 512.002 370.421C511.574 368.821 512.523 367.176 514.124 366.747ZM514.641 368.679C514.108 368.822 513.791 369.37 513.934 369.904C514.077 370.437 514.626 370.754 515.159 370.611C515.692 370.468 516.009 369.92 515.866 369.386C515.723 368.853 515.175 368.536 514.641 368.679Z" fill="#353535"/>
<path d="M528.562 374.267C530.162 373.838 531.807 374.787 532.236 376.388C532.665 377.988 531.715 379.633 530.115 380.062C528.514 380.491 526.869 379.541 526.441 377.941C526.012 376.34 526.961 374.695 528.562 374.267ZM529.079 376.198C528.546 376.341 528.229 376.89 528.372 377.423C528.515 377.957 529.064 378.273 529.597 378.13C530.131 377.987 530.447 377.439 530.304 376.905C530.161 376.372 529.613 376.055 529.079 376.198Z" fill="#353535"/>
</g>
<g opacity="0.1">
<path fill-rule="evenodd" clip-rule="evenodd" d="M555.608 246.773L559.49 232.284L561.422 232.802L557.54 247.29L555.608 246.773Z" fill="#353535"/>
<path d="M552.559 226.041C551.789 225.835 551.115 225.965 550.536 226.433C549.959 226.897 549.532 227.646 549.255 228.68C548.678 230.833 549.197 232.125 550.813 232.558C551.491 232.74 552.357 232.79 553.412 232.71L552.952 234.427C552.071 234.544 551.142 234.472 550.165 234.211C548.761 233.834 547.801 233.122 547.284 232.073C546.769 231.019 546.725 229.696 547.152 228.102C547.421 227.099 547.839 226.27 548.406 225.615C548.974 224.955 549.653 224.517 550.443 224.299C551.238 224.078 552.096 224.091 553.016 224.337C553.953 224.589 554.835 225.068 555.66 225.775L554.553 227.262C554.238 226.993 553.915 226.747 553.584 226.521C553.253 226.295 552.911 226.135 552.559 226.041Z" fill="#353535"/>
<path fill-rule="evenodd" clip-rule="evenodd" d="M559.421 236.406C557.189 235.808 555.127 236.978 554.651 238.752C554.176 240.526 555.377 242.57 557.609 243.168C559.841 243.766 561.903 242.596 562.379 240.822C562.854 239.048 561.653 237.004 559.421 236.406ZM552.719 238.234C553.531 235.207 556.836 233.643 559.938 234.475C563.041 235.306 565.122 238.313 564.311 241.34C563.499 244.367 560.194 245.931 557.091 245.1C553.989 244.268 551.908 241.261 552.719 238.234Z" fill="#353535"/>
</g>
<g opacity="0.1" clip-path="url(#clip9_9994_2414)">
<path d="M355.933 166.858L349.657 155.935L349.781 160.857L356.057 171.779L355.933 166.858Z" fill="#353535"/>
<path d="M346.608 154.011C348.816 153.956 350.651 155.701 350.707 157.909C350.762 160.118 349.017 161.953 346.809 162.009C344.6 162.064 342.765 160.319 342.71 158.11C342.654 155.902 344.399 154.067 346.608 154.011ZM346.658 156.01C345.554 156.038 344.681 156.956 344.709 158.06C344.737 159.164 345.654 160.037 346.759 160.009C347.863 159.981 348.735 159.064 348.708 157.96C348.68 156.855 347.762 155.983 346.658 156.01Z" fill="#353535"/>
<path d="M358.905 165.706C361.114 165.65 362.949 167.395 363.005 169.604C363.06 171.812 361.315 173.648 359.106 173.703C356.898 173.759 355.063 172.013 355.007 169.805C354.952 167.596 356.697 165.761 358.905 165.706ZM358.956 167.705C357.852 167.733 356.979 168.65 357.007 169.755C357.034 170.859 357.952 171.732 359.056 171.704C360.16 171.676 361.033 170.758 361.005 169.654C360.978 168.55 360.06 167.677 358.956 167.705Z" fill="#353535"/>
<path d="M360.603 153.659L358.604 153.709L358.755 159.708L360.754 159.657L360.603 153.659Z" fill="#353535"/>
<path d="M362.703 157.608L362.653 155.608L356.655 155.759L356.705 157.759L362.703 157.608Z" fill="#353535"/>
</g>
<g opacity="0.1" clip-path="url(#clip10_9994_2414)">
<rect x="377.073" y="243.149" width="6" height="6" rx="1" transform="rotate(-15 377.073 243.149)" fill="#353535"/>
<rect x="375.381" y="229.108" width="2" height="3" transform="rotate(-15 375.381 229.108)" fill="#353535"/>
<rect x="377.193" y="235.87" width="2" height="7" transform="rotate(-15 377.193 235.87)" fill="#353535"/>
<rect x="391.114" y="241.457" width="2" height="8" transform="rotate(75 391.114 241.457)" fill="#353535"/>
<rect width="2" height="3" transform="matrix(0.258819 0.965926 0.965926 -0.258819 394.011 240.681)" fill="#353535"/>
<path d="M377.124 231.747C378.724 231.318 380.369 232.268 380.798 233.869C381.227 235.469 380.277 237.114 378.677 237.543C377.076 237.972 375.431 237.022 375.002 235.421C374.574 233.821 375.523 232.176 377.124 231.747ZM377.641 233.679C377.108 233.822 376.791 234.37 376.934 234.904C377.077 235.437 377.626 235.754 378.159 235.611C378.692 235.468 379.009 234.92 378.866 234.386C378.723 233.853 378.175 233.536 377.641 233.679Z" fill="#353535"/>
<path d="M391.562 239.267C393.162 238.838 394.807 239.787 395.236 241.388C395.665 242.988 394.715 244.633 393.115 245.062C391.514 245.491 389.869 244.541 389.441 242.941C389.012 241.34 389.961 239.695 391.562 239.267ZM392.079 241.198C391.546 241.341 391.229 241.89 391.372 242.423C391.515 242.957 392.064 243.273 392.597 243.13C393.131 242.987 393.447 242.439 393.304 241.905C393.161 241.372 392.613 241.055 392.079 241.198Z" fill="#353535"/>
</g>
<g opacity="0.1">
<path d="M556.614 323.556L558.709 331.276C558.867 331.855 559.357 332.137 559.936 331.98L576.261 323.405C576.84 323.248 577.121 322.757 576.964 322.178L575.916 318.318C575.759 317.739 575.268 317.457 574.689 317.614L557.317 322.329C556.738 322.486 556.457 322.977 556.614 323.556ZM574.772 321.737L560.378 329.788L558.806 323.997L574.248 319.807L574.772 321.737Z" fill="#353535"/>
<path fill-rule="evenodd" clip-rule="evenodd" d="M569.327 329.691C569.584 329.818 569.774 330.049 569.849 330.326L571.944 338.046C572.089 338.579 571.774 339.129 571.241 339.273L562.555 341.63C562.022 341.775 561.473 341.46 561.328 340.927L559.495 334.172C559.363 333.685 559.614 333.176 560.081 332.985L568.505 329.662C568.77 329.553 569.069 329.564 569.327 329.691ZM561.657 334.5L562.997 339.438L569.752 337.605L568.216 331.943L561.657 334.5Z" fill="#353535"/>
<path fill-rule="evenodd" clip-rule="evenodd" d="M577.381 325.358C577.69 325.467 577.925 325.722 578.011 326.038L580.63 335.689C580.775 336.222 580.46 336.772 579.927 336.916L575.102 338.226C574.569 338.37 574.019 338.056 573.875 337.523L571.649 329.319C571.539 328.917 571.691 328.489 572.03 328.246L576.462 325.488C576.728 325.297 577.072 325.248 577.381 325.358ZM573.76 329.464L575.543 336.034L578.438 335.248L576.459 327.955L573.76 329.464Z" fill="#353535"/>
</g>
</g>
<path d="M324.145 211.778C326.369 211.182 327.626 208.659 326.951 206.143C326.277 203.627 323.928 202.07 321.703 202.666L304.7 207.222C302.476 207.818 301.219 210.341 301.894 212.857C302.568 215.373 304.917 216.93 307.141 216.334L324.145 211.778Z" fill="#F3DB23"/>
<path d="M320.07 250.121C322.052 251.266 324.586 250.587 325.731 248.605C326.875 246.623 326.196 244.088 324.214 242.944L309.062 234.196C307.08 233.052 304.545 233.731 303.401 235.713C302.257 237.695 302.936 240.229 304.918 241.373L320.07 250.121Z" fill="#F3DB23"/>
<path d="M290.255 186.649C289.11 188.631 289.789 191.165 291.771 192.309C293.753 193.453 296.288 192.774 297.432 190.792L306.18 175.64C307.324 173.658 306.645 171.124 304.663 169.98C302.681 168.835 300.147 169.514 299.003 171.496L290.255 186.649Z" fill="#F3DB23"/>
<g filter="url(#filter0_d_9994_2414)">
<path d="M239.153 390.98V398.96L218.188 411.062L155.583 426.881V401.775L239.153 390.98Z" fill="#C78A0C"/>
<path d="M239.153 302.475V390.98L155.583 401.776V350.721L239.153 302.475Z" fill="#70A739"/>
<path d="M239.154 302.475L155.584 350.722L72.0216 302.475L155.584 254.229L239.154 302.475Z" fill="#70A739"/>
<path d="M155.583 426.883V447.208L72.0205 398.962V355.048L155.469 426.907L155.583 426.883Z" fill="#754C24"/>
<path d="M155.583 401.777V426.883L155.465 426.91L72.0205 355.053V326.592L155.469 401.788L155.583 401.777Z" fill="#C78A0C"/>
<path d="M155.583 350.722V401.777L155.465 401.79L72.0172 326.594V302.475L155.583 350.722Z" fill="#70A739"/>
<path d="M157.603 447.208H153.562V351.888L71.0103 304.225L73.0301 300.726L157.603 349.556V447.208Z" fill="#1D1D1B"/>
<path d="M238.141 300.722L154.576 348.976L156.597 352.475L240.162 304.221L238.141 300.722Z" fill="#1D1D1B"/>
<path d="M155.583 449.541L70 400.129V301.308L71.0105 300.726L155.583 251.896L241.173 301.308V400.128L155.583 449.541ZM74.0407 397.795L155.583 444.876L237.132 397.795V303.641L155.583 256.561L74.0407 303.641V397.795Z" fill="#1D1D1B"/>
<path d="M154.931 429.113L70.7022 356.583L73.3393 353.521L155.994 424.695L217.693 409.105L218.684 413.022L155.933 428.877L154.931 429.113Z" fill="#1D1D1B"/>
<path d="M154.792 403.901L154.116 403.291L70.6679 328.096L73.3724 325.094L156.132 399.671L238.892 388.979L239.41 392.993L155.698 403.805L154.792 403.901Z" fill="#1D1D1B"/>
<path d="M173.102 281.443H135.518V312.093H173.102V281.443Z" fill="white"/>
<path d="M193.031 271.666L178.835 273.769L186.275 291.019L206.701 279.027L221.423 263.779L214.062 256.944L202.495 267.46L193.031 271.666Z" fill="white"/>
<path fill-rule="evenodd" clip-rule="evenodd" d="M214.073 254.807L223.67 263.718L207.684 280.275L185.536 293.278L176.579 272.512L192.588 270.141L201.624 266.125L214.073 254.807ZM214.051 259.081L203.366 268.795L193.474 273.191L181.091 275.026L187.015 288.76L205.719 277.779L219.176 263.841L214.051 259.081Z" fill="#1D1D1D"/>
<path d="M140.272 286.01L134.898 296.673L141.78 304.888V319.266H130.419L117.167 302.485L130.419 271.019C129.756 250.125 130.862 231.926 130.862 231.926C130.862 231.926 144.285 223.673 149.377 222.907C155.212 222.031 172.696 226.542 172.696 226.542L193.453 244.02L193.615 244.159C193.716 244.892 193.767 245.63 193.767 246.369C193.708 249.484 192.931 252.543 191.497 255.309C187.35 263.755 178.839 270.056 177.635 270.919C177.543 270.988 177.492 271.021 177.492 271.021L190.745 302.486L177.491 313.365H166.125V304.889L173.007 296.674L167.633 286.011" fill="white"/>
<path d="M174.959 270.235L188.046 301.644L176.242 310.497L178.603 314.038L193.072 302.802L179.968 271.7C182.911 269.426 189.638 263.677 193.308 256.205C194.88 253.162 195.729 249.797 195.787 246.372C195.786 245.542 195.729 244.714 195.615 243.893L195.512 243.136L173.645 224.71L173.2 224.592C171.369 224.118 155.142 220.004 149.077 220.915C143.733 221.719 131.213 229.344 129.804 230.21L128.909 230.76L128.845 231.808C128.833 231.989 127.754 250.082 128.385 270.646L114.841 302.802L129.44 321.289H143.803V304.155L137.302 296.397L142.078 286.921L138.47 285.103L132.499 296.953L139.763 305.625V317.248H131.4L119.476 302.171L132.436 271.4L132.422 270.958C131.86 253.23 132.587 237.268 132.804 233.103C137.013 230.576 146.102 225.444 149.661 224.91C153.985 224.258 166.647 227.101 171.736 228.39L191.686 245.187C191.72 245.584 191.736 245.981 191.736 246.373C191.677 249.179 190.971 251.933 189.674 254.421C185.708 262.499 177.386 268.61 176.399 269.319L174.959 270.235Z" fill="#1D1D1D"/>
<path d="M178.603 310.497H142.009V314.038H178.603V310.497Z" fill="#1D1D1B"/>
<path d="M193.767 246.372C193.707 249.486 192.931 252.546 191.497 255.311L184.143 246.584L193.613 244.163C193.714 244.895 193.766 245.633 193.767 246.372Z" fill="#1D1D1B"/>
<path d="M144.629 244.552H137.033C136.751 244.552 136.473 244.493 136.215 244.378C135.957 244.263 135.727 244.096 135.538 243.887C135.349 243.678 135.206 243.431 135.117 243.164C135.029 242.896 134.998 242.612 135.026 242.332L135.659 236.001C135.698 235.613 135.848 235.244 136.092 234.939L138.623 231.773C138.813 231.536 139.053 231.345 139.326 231.214C139.599 231.083 139.898 231.015 140.201 231.015H146.532V235.056H141.173L139.62 236.996L139.265 240.512H144.629V244.552Z" fill="#1D1D1B"/>
<path d="M191.783 256.467V264.73C191.784 264.839 191.752 264.947 191.691 265.038C191.63 265.129 191.544 265.201 191.442 265.242C191.341 265.284 191.229 265.295 191.122 265.273C191.014 265.251 190.916 265.198 190.839 265.119L187.835 262.115L191.783 256.467Z" fill="white"/>
<path d="M191.229 266.965C190.935 266.965 190.645 266.907 190.374 266.794C190.103 266.681 189.857 266.516 189.65 266.309L185.649 262.306L193.467 251.117V264.728C193.465 265.322 193.228 265.891 192.808 266.31C192.387 266.729 191.818 266.965 191.224 266.965H191.229ZM190.026 261.921L190.1 261.995V261.816L190.026 261.921Z" fill="#1D1D1B"/>
<path d="M192.044 259.102L189.101 255.6L189.691 254.42C190.988 251.932 191.693 249.178 191.752 246.374C191.752 245.726 191.707 245.08 191.619 244.439L195.553 243.576C197.324 249.384 193.627 256.227 193.469 256.516L192.044 259.102Z" fill="#1D1D1B"/>
<path d="M177.078 273.805L175.932 272.008C174.055 269.051 173.006 265.644 172.895 262.143C172.785 258.642 173.617 255.176 175.304 252.106C176.991 249.037 179.472 246.477 182.487 244.694C185.502 242.911 188.94 241.97 192.443 241.971C192.817 241.971 193.19 241.981 193.563 242.001L194.25 242.038L195.512 243.125L195.616 243.882C195.73 244.703 195.787 245.532 195.788 246.361C195.731 249.786 194.882 253.151 193.309 256.194C189.001 264.97 180.477 271.361 178.811 272.553L177.078 273.805ZM191.742 246.031C189.216 246.148 186.758 246.88 184.579 248.163C182.401 249.447 180.569 251.243 179.243 253.395C177.916 255.547 177.136 257.991 176.969 260.514C176.802 263.036 177.254 265.562 178.285 267.87C181.186 265.516 186.685 260.529 189.687 254.413C190.984 251.924 191.69 249.17 191.749 246.364C191.746 246.258 191.745 246.146 191.742 246.031Z" fill="#1D1D1B"/>
<path d="M168.56 244.358C168.378 244.54 168.132 244.642 167.876 244.642C167.619 244.642 167.373 244.54 167.192 244.358L162.706 239.873L158.18 244.4C157.998 244.581 157.752 244.683 157.495 244.683C157.239 244.683 156.993 244.581 156.811 244.4L155.759 243.348C155.577 243.166 155.476 242.92 155.476 242.663C155.476 242.407 155.577 242.161 155.759 241.979L162.054 235.684C162.235 235.503 162.481 235.401 162.738 235.401C162.995 235.401 163.241 235.503 163.422 235.684L164.475 236.737C164.496 236.759 164.518 236.78 164.54 236.802L169.644 241.906C169.825 242.087 169.927 242.333 169.927 242.59C169.927 242.847 169.825 243.093 169.644 243.274L168.56 244.358Z" fill="#2E2E2E"/>
<path opacity="0.6" d="M162.396 253.668C165.98 253.668 168.885 252.084 168.885 250.129C168.885 248.175 165.98 246.59 162.396 246.59C158.813 246.59 155.908 248.175 155.908 250.129C155.908 252.084 158.813 253.668 162.396 253.668Z" fill="#FFB2E8"/>
</g>
<path d="M275.431 220.815C277.121 227.123 274.267 233.369 269.056 234.765C263.845 236.161 258.25 232.179 256.56 225.871C254.87 219.563 257.724 213.318 262.935 211.921C268.146 210.525 273.741 214.507 275.431 220.815Z" fill="#E5E5E5"/>
<path fill-rule="evenodd" clip-rule="evenodd" d="M275.904 223.844C274.773 228.263 270.878 232.148 265.545 233.577C264.66 233.814 263.775 233.973 262.901 234.058C264.832 235.022 266.975 235.323 269.057 234.765C273.427 233.594 276.139 229.013 275.904 223.844Z" fill="#CBCBCB"/>
<path fill-rule="evenodd" clip-rule="evenodd" d="M218.128 250.316L268.487 249.347L255.521 200.957L211.424 225.298L218.128 250.316Z" fill="white"/>
<path d="M195.615 232.741C195.525 232.405 195.724 232.06 196.06 231.97L202.385 230.275L207.708 250.139L201.383 251.834C201.047 251.924 200.702 251.724 200.612 251.389L195.615 232.741Z" fill="#6C6C6C"/>
<path d="M214.537 255.76L221.489 253.897L226.546 272.768L219.593 274.631L214.537 255.76Z" fill="white"/>
<path d="M214.537 255.76L217.516 254.962L222.573 273.833L219.593 274.631L214.537 255.76Z" fill="#C4C4C4" fill-opacity="0.44"/>
<path fill-rule="evenodd" clip-rule="evenodd" d="M262.883 228.435L218.89 240.223L221.577 250.249L268.486 249.347L262.883 228.435Z" fill="#E5E5E5"/>
<path d="M203.205 225.384C203.115 225.048 203.314 224.703 203.65 224.613L215.346 221.479C215.682 221.389 216.027 221.588 216.117 221.924L224.307 252.491C224.397 252.826 224.198 253.172 223.862 253.262L212.166 256.395C211.831 256.485 211.485 256.286 211.395 255.95L203.205 225.384Z" fill="#F3DB23"/>
<path d="M256.461 197.688L260.21 196.684C260.882 196.504 261.573 196.902 261.753 197.574L275.472 248.775C275.652 249.446 275.253 250.137 274.581 250.317L270.832 251.321L256.461 197.688Z" fill="#F3DB23"/>
<path d="M254.801 199.437C254.621 198.765 255.019 198.075 255.691 197.895L256.461 197.688L270.832 251.321L270.062 251.528C269.39 251.708 268.7 251.309 268.52 250.637L254.801 199.437Z" fill="#585858"/>
<path fill-rule="evenodd" clip-rule="evenodd" d="M267.297 214.579C267.346 214.272 267.564 214.059 267.783 214.103C269.96 214.543 271.522 216.131 272.436 218.834C272.529 219.107 272.437 219.448 272.232 219.597C272.027 219.746 271.786 219.646 271.694 219.373C270.884 216.981 269.531 215.605 267.605 215.216C267.385 215.171 267.247 214.886 267.297 214.579Z" fill="white" stroke="white" stroke-width="0.629542" stroke-linecap="round"/>
<path d="M202.386 230.275L204.372 229.742L209.695 249.606L207.708 250.139L202.386 230.275Z" fill="white"/>
<g opacity="0.1">
<path d="M483.222 42.6055L478.821 49.2864C478.491 49.7875 478.605 50.3415 479.106 50.6716L496.339 57.2326C496.84 57.5626 497.394 57.4486 497.724 56.9475L499.924 53.6071C500.254 53.106 500.14 52.5519 499.639 52.2219L484.607 42.3205C484.106 41.9904 483.552 42.1044 483.222 42.6055ZM496.604 55.0122L481.042 49.5514L484.342 44.5408L497.704 53.342L496.604 55.0122Z" fill="#353535"/>
<path fill-rule="evenodd" clip-rule="evenodd" d="M487.037 56.1953C487.112 56.4721 487.065 56.7679 486.907 57.0074L482.507 63.6883C482.203 64.1496 481.583 64.2772 481.122 63.9734L473.606 59.0227C473.144 58.7189 473.017 58.0987 473.32 57.6375L477.171 51.7917C477.448 51.3705 477.996 51.2218 478.448 51.4449L486.514 55.5605C486.772 55.6873 486.962 55.9185 487.037 56.1953ZM478.356 53.6291L475.541 57.9025L481.387 61.7531L484.614 56.8533L478.356 53.6291Z" fill="#353535"/>
<path fill-rule="evenodd" clip-rule="evenodd" d="M495.616 59.3648C495.739 59.6691 495.704 60.0141 495.524 60.288L490.023 68.6391C489.719 69.1003 489.099 69.2279 488.638 68.9241L484.462 66.1737C484.001 65.8699 483.873 65.2498 484.177 64.7885L488.853 57.6901C489.082 57.342 489.503 57.1726 489.91 57.2651L494.91 58.7628C495.23 58.8356 495.494 59.0605 495.616 59.3648ZM490.142 59.369L486.397 65.0536L488.903 66.7038L493.06 60.3929L490.142 59.369Z" fill="#353535"/>
</g>
<path d="M163 231C168.523 231 173 235.477 173 241C173 246.523 168.523 251 163 251C157.477 251 153 246.523 153 241C153 235.477 157.477 231 163 231Z" stroke="black" stroke-width="2"/>
<path d="M163 231C168.523 231 173 235.477 173 241C173 246.523 168.523 251 163 251C157.477 251 153 246.523 153 241C153 235.477 157.477 231 163 231Z" stroke="black" stroke-width="2"/>
<path d="M163 231C168.523 231 173 235.477 173 241C173 246.523 168.523 251 163 251C157.477 251 153 246.523 153 241C153 235.477 157.477 231 163 231Z" stroke="black" stroke-width="2"/>
<path d="M171 236L177 230" stroke="black" stroke-width="3" stroke-linecap="round" stroke-linejoin="round"/>
<circle cx="-0.0885277" cy="77.2647" r="5.73529" fill="#74A9CB"/>
<rect x="-11.5002" y="68.5" width="97.8235" height="29" rx="4.5" stroke="#CBCBCB"/>
<rect x="10.9409" y="74.1764" width="66.1765" height="3.52941" rx="1.76471" fill="#B2B2B2"/>
<rect x="10.9409" y="82.1177" width="45" height="3.52941" rx="1.76471" fill="#B2B2B2"/>
<rect x="10.9409" y="90.0588" width="25.5882" height="3.52941" rx="1.76471" fill="#B2B2B2"/>
<circle cx="56.2502" cy="8.75" r="9.75" fill="#FED77F"/>
<rect x="36.5" y="-6.5" width="167" height="50" rx="4.5" stroke="#CBCBCB"/>
<rect x="75.4999" y="3.99988" width="111.5" height="5" rx="2.5" fill="#CBCBCB" stroke="#CBCBCB"/>
<rect x="75.4999" y="17.5001" width="75.5" height="5" rx="2.5" fill="#CBCBCB" stroke="#CBCBCB"/>
<rect x="75.4999" y="31" width="42.5" height="5" rx="2.5" fill="#CBCBCB" stroke="#CBCBCB"/>
<circle cx="164.031" cy="93.4688" r="7.71875" fill="#BE1C48"/>
<rect x="148.5" y="81.5" width="132" height="39.375" rx="4.5" stroke="#CBCBCB"/>
<rect x="179.375" y="89.8125" width="88.0625" height="3.75" rx="1.875" fill="#CBCBCB" stroke="#CBCBCB"/>
<rect x="179.375" y="100.5" width="59.5625" height="3.75" rx="1.875" fill="#CBCBCB" stroke="#CBCBCB"/>
<rect x="179.375" y="111.188" width="33.4375" height="3.75" rx="1.875" fill="#CBCBCB" stroke="#CBCBCB"/>
</g>
<defs>
<filter id="filter0_d_9994_2414" x="66.8523" y="220.154" width="177.468" height="235.052" filterUnits="userSpaceOnUse" color-interpolation-filters="sRGB">
<feFlood flood-opacity="0" result="BackgroundImageFix"/>
<feColorMatrix in="SourceAlpha" type="matrix" values="0 0 0 0 0 0 0 0 0 0 0 0 0 0 0 0 0 0 127 0" result="hardAlpha"/>
<feOffset dy="2.51817"/>
<feGaussianBlur stdDeviation="1.57385"/>
<feComposite in2="hardAlpha" operator="out"/>
<feColorMatrix type="matrix" values="0 0 0 0 0 0 0 0 0 0 0 0 0 0 0 0 0 0 0.25 0"/>
<feBlend mode="normal" in2="BackgroundImageFix" result="effect1_dropShadow_9994_2414"/>
<feBlend mode="normal" in="SourceGraphic" in2="effect1_dropShadow_9994_2414" result="shape"/>
</filter>
<linearGradient id="paint0_linear_9994_2414" x1="330" y1="0" x2="330" y2="398" gradientUnits="userSpaceOnUse">
<stop stop-color="#649D35"/>
<stop offset="1" stop-color="#C78A0C"/>
</linearGradient>
<linearGradient id="paint1_linear_9994_2414" x1="-114" y1="324.728" x2="586" y2="324.728" gradientUnits="userSpaceOnUse">
<stop offset="0.0616663" stop-color="#FED77F"/>
</linearGradient>
<linearGradient id="paint2_linear_9994_2414" x1="-57" y1="314.625" x2="543" y2="314.625" gradientUnits="userSpaceOnUse">
<stop offset="0.0616663" stop-color="#FED77F"/>
</linearGradient>
<linearGradient id="paint3_linear_9994_2414" x1="-57" y1="452.231" x2="843" y2="452.231" gradientUnits="userSpaceOnUse">
<stop offset="0.0616663" stop-color="#FED77F"/>
</linearGradient>
<linearGradient id="paint4_linear_9994_2414" x1="15" y1="461.295" x2="915" y2="461.295" gradientUnits="userSpaceOnUse">
<stop offset="0.0616663" stop-color="#FED77F"/>
</linearGradient>
<linearGradient id="paint5_linear_9994_2414" x1="167" y1="419.871" x2="1067" y2="419.871" gradientUnits="userSpaceOnUse">
<stop offset="0.0616663" stop-color="#FED77F"/>
</linearGradient>
<linearGradient id="paint6_linear_9994_2414" x1="272" y1="396.219" x2="1172" y2="396.219" gradientUnits="userSpaceOnUse">
<stop offset="0.0616663" stop-color="#FED77F"/>
</linearGradient>
<linearGradient id="paint7_linear_9994_2414" x1="-195" y1="269.503" x2="505" y2="269.503" gradientUnits="userSpaceOnUse">
<stop offset="0.0616663" stop-color="#FED77F"/>
</linearGradient>
<linearGradient id="paint8_linear_9994_2414" x1="-171" y1="312.644" x2="529" y2="312.644" gradientUnits="userSpaceOnUse">
<stop offset="0.0616663" stop-color="#FED77F"/>
</linearGradient>
<linearGradient id="paint9_linear_9994_2414" x1="-306" y1="256.378" x2="394" y2="256.378" gradientUnits="userSpaceOnUse">
<stop offset="0.0616663" stop-color="#FED77F"/>
</linearGradient>
<linearGradient id="paint10_linear_9994_2414" x1="-180" y1="59.959" x2="200" y2="59.959" gradientUnits="userSpaceOnUse">
<stop offset="0.0616663" stop-color="#FED77F"/>
</linearGradient>
<linearGradient id="paint11_linear_9994_2414" x1="-254" y1="136.503" x2="446" y2="136.503" gradientUnits="userSpaceOnUse">
<stop offset="0.0616663" stop-color="#FED77F"/>
</linearGradient>
<clipPath id="clip0_9994_2414">
<rect width="660" height="398" fill="white"/>
</clipPath>
<clipPath id="clip1_9994_2414">
<rect width="267.891" height="361.827" fill="white" transform="translate(332 36)"/>
</clipPath>
<clipPath id="clip2_9994_2414">
<rect width="19.5628" height="19.5628" fill="white" transform="translate(475 108.063) rotate(-15)"/>
</clipPath>
<clipPath id="clip3_9994_2414">
<rect width="24" height="24" fill="white" transform="translate(550 45.2117) rotate(-15)"/>
</clipPath>
<clipPath id="clip4_9994_2414">
<rect width="20.2005" height="20.2005" fill="white" transform="translate(529 159.228) rotate(-15)"/>
</clipPath>
<clipPath id="clip5_9994_2414">
<rect width="24" height="24" fill="white" transform="translate(362 295.212) rotate(-15)"/>
</clipPath>
<clipPath id="clip6_9994_2414">
<rect width="24" height="24" fill="white" transform="translate(561 381.212) rotate(-15)"/>
</clipPath>
<clipPath id="clip7_9994_2414">
<rect width="24" height="24" fill="white" transform="translate(561 381.212) rotate(-15)"/>
</clipPath>
<clipPath id="clip8_9994_2414">
<rect width="24" height="24" fill="white" transform="translate(508 363.212) rotate(-15)"/>
</clipPath>
<clipPath id="clip9_9994_2414">
<rect width="24" height="24" fill="white" transform="translate(340.559 152.162) rotate(-1.43982)"/>
</clipPath>
<clipPath id="clip10_9994_2414">
<rect width="24" height="24" fill="white" transform="translate(371 228.212) rotate(-15)"/>
</clipPath>
</defs>
</svg>
