<svg width="677" height="330" viewBox="0 0 677 330" fill="none" xmlns="http://www.w3.org/2000/svg">
<g clip-path="url(#clip0_17108_2573)">
<rect width="677" height="330" fill="#CAEBFD"/>
<path fill-rule="evenodd" clip-rule="evenodd" d="M162.208 193.563H133.969C133.957 193.563 133.944 193.563 133.932 193.563C133.92 193.563 133.907 193.563 133.895 193.563H108.093C108.078 193.563 108.064 193.563 108.049 193.563C108.034 193.563 108.019 193.563 108.004 193.563H106.242V193.456C98.7829 192.564 93 186.215 93 178.515C93 170.204 99.7375 163.466 108.049 163.466C108.403 163.466 108.754 163.478 109.101 163.502C111.336 151.825 121.603 143 133.932 143C145.558 143 155.351 150.847 158.303 161.534C159.559 161.223 160.872 161.058 162.224 161.058C171.2 161.058 178.476 168.335 178.476 177.311C178.476 185.677 172.156 192.566 164.029 193.464V193.563H162.24C162.234 193.563 162.229 193.563 162.224 193.563C162.218 193.563 162.213 193.563 162.208 193.563Z" fill="white"/>
<path fill-rule="evenodd" clip-rule="evenodd" d="M69.2143 110.472C69.575 110.491 69.9382 110.5 70.3036 110.5C81.7339 110.5 91 101.234 91 89.8036C91 78.3732 81.7339 69.1071 70.3036 69.1071C69.1096 69.1071 67.9393 69.2082 66.8007 69.4023C62.2801 58.9737 51.8938 51.6786 39.8036 51.6786C37.3577 51.6786 34.9816 51.9771 32.7097 52.5398C27.3673 33.2008 9.64558 19 -11.3929 19C-34.9864 19 -54.4087 36.8596 -56.8779 59.7971C-59.6781 58.7731 -62.7023 58.2143 -65.8571 58.2143C-80.2954 58.2143 -92 69.9188 -92 84.3571C-92 98.7954 -80.2954 110.5 -65.8571 110.5C-64.3726 110.5 -62.917 110.376 -61.5 110.139V110.5H-11.3929H39.8036H69.2143V110.472Z" fill="white"/>
<path fill-rule="evenodd" clip-rule="evenodd" d="M509.993 161.515C510.259 161.529 510.527 161.536 510.796 161.536C519.233 161.536 526.072 154.696 526.072 146.26C526.072 137.823 519.233 130.984 510.796 130.984C509.915 130.984 509.051 131.059 508.21 131.202C504.873 123.504 497.207 118.12 488.283 118.12C486.478 118.12 484.725 118.34 483.048 118.755C479.104 104.481 466.024 94 450.496 94C433.081 94 418.746 107.182 416.924 124.112C414.857 123.356 412.624 122.944 410.296 122.944C399.639 122.944 391 131.583 391 142.24C391 152.897 399.639 161.536 410.296 161.536C411.392 161.536 412.467 161.444 413.513 161.269V161.536H509.993V161.515Z" fill="white"/>
<path fill-rule="evenodd" clip-rule="evenodd" d="M558.824 338.699H757.999C737.376 222.858 700.487 145.683 658.412 145.683C616.336 145.683 579.447 222.858 558.824 338.699Z" fill="#598F22"/>
<path fill-rule="evenodd" clip-rule="evenodd" d="M607.208 69.5634H578.969C578.957 69.5634 578.944 69.5634 578.932 69.5634C578.92 69.5634 578.907 69.5634 578.895 69.5634H553.093C553.078 69.5634 553.064 69.5635 553.049 69.5635C553.034 69.5635 553.019 69.5634 553.004 69.5634H551.242V69.4562C543.783 68.5639 538 62.2147 538 54.5148C538 46.2037 544.738 39.4662 553.049 39.4662C553.403 39.4662 553.754 39.4784 554.101 39.5024C556.336 27.8249 566.603 19 578.932 19C590.558 19 600.351 26.8474 603.303 37.5343C604.559 37.2234 605.872 37.0583 607.224 37.0583C616.2 37.0583 623.476 44.3349 623.476 53.3109C623.476 61.6766 617.156 68.5661 609.029 69.4643V69.5634H607.24C607.234 69.5634 607.229 69.5634 607.224 69.5634C607.218 69.5634 607.213 69.5634 607.208 69.5634Z" fill="white"/>
<path fill-rule="evenodd" clip-rule="evenodd" d="M663.237 146.035C635.416 179.496 611.949 248.576 596.782 338.699H558.738C579.361 222.858 616.25 145.683 658.326 145.683C659.971 145.683 661.608 145.801 663.237 146.035Z" fill="#527F24"/>
<path d="M626.241 265.992C619.685 258.732 606.682 256.01 601 255.556C605.589 255.556 656.071 237.407 664.594 234.231C673.117 231.055 688.73 222.925 688.73 218.307C688.73 210.983 665.91 202.499 659.026 198.869C652.142 195.24 637.386 187.25 631.486 179.536C625.585 171.823 631.486 165.176 636.654 160.582C641.952 155.873 656.894 146.222 659.717 146.041C662.54 145.861 665.243 146.298 664.458 146.797C654.972 152.829 645.858 160.201 639.598 167.475C634.037 173.936 653.946 183.339 674.598 193.321C695.25 203.303 706 209.691 706 218.307C706 226.435 696.534 233.901 687.028 240.707C679.423 246.152 652.493 257.673 638.944 265.992C634.355 269.016 632.797 273.251 626.241 265.992Z" fill="#8B8B8B"/>
<path fill-rule="evenodd" clip-rule="evenodd" d="M658.204 122.934C658.692 122.662 659.02 122.154 659.02 121.572C659.02 120.704 658.289 120 657.388 120C656.487 120 655.756 120.704 655.756 121.572C655.756 122.154 656.084 122.663 656.572 122.934V152.23H658.204V136.634L674.525 129.826L658.204 123.018V122.934Z" fill="#BE1C48"/>
<path fill-rule="evenodd" clip-rule="evenodd" d="M472 339.51H681.455C659.767 284.023 620.974 247.057 576.727 247.057C532.48 247.057 493.687 284.023 472 339.51Z" fill="#36631D"/>
<path fill-rule="evenodd" clip-rule="evenodd" d="M679.489 334.644H504.767C520.934 291.004 547.131 258.82 577.984 247.067C577.565 247.06 577.147 247.057 576.727 247.057C532.48 247.057 493.687 284.023 472 339.51H681.455C680.814 337.871 680.159 336.249 679.489 334.644Z" fill="#2E501C"/>
<path d="M550.729 264.244C550.139 259.147 565.043 250.306 572.167 247.424C575.007 246.574 582.484 246.987 578.799 248.807C575.114 250.627 562.592 258.911 565.166 262.443C568.482 266.994 593.538 271.545 603.118 277.462C617.857 286.565 614.541 297.505 610.856 305.698C605.872 316.78 596.854 326.178 590.59 331.185C585.579 335.19 586.537 342.09 587.643 343H511C512.228 340.876 517.264 335.263 519.475 333.46C524.265 329.555 538.636 323.885 557.428 318.878C576.22 313.872 593.4 305.037 593.4 294.988C593.4 284.038 584.357 280.757 575.114 277.462C568.754 275.194 551.466 270.616 550.729 264.244Z" fill="#ACACAC"/>
<path fill-rule="evenodd" clip-rule="evenodd" d="M-28.0001 333.998H140C122.605 303.391 91.4895 283 55.9998 283C20.5101 283 -10.605 303.391 -28.0001 333.998Z" fill="#649D35"/>
<path fill-rule="evenodd" clip-rule="evenodd" d="M138.423 331.314H-1.71817C11.2494 307.242 32.2613 289.489 57.0079 283.005C56.6722 283.002 56.3362 283 55.9998 283C20.5101 283 -10.605 303.391 -28.0001 333.998H140C139.486 333.095 138.96 332.2 138.423 331.314Z" fill="#467609"/>
<rect x="169" y="47" width="322" height="72" fill="#598F22"/>
<path d="M292.094 90.7812C292.094 92.1354 291.76 93.3021 291.094 94.2812C290.438 95.2604 289.49 96.0104 288.25 96.5312C287.021 97.0521 285.552 97.3125 283.844 97.3125C283.01 97.3125 282.214 97.2656 281.453 97.1719C280.693 97.0781 279.974 96.9427 279.297 96.7656C278.63 96.5781 278.021 96.3542 277.469 96.0938V92.5625C278.396 92.9688 279.432 93.3385 280.578 93.6719C281.724 93.9948 282.891 94.1562 284.078 94.1562C285.047 94.1562 285.849 94.0312 286.484 93.7812C287.13 93.5208 287.609 93.1562 287.922 92.6875C288.234 92.2083 288.391 91.651 288.391 91.0156C288.391 90.3385 288.208 89.7656 287.844 89.2969C287.479 88.8281 286.927 88.401 286.188 88.0156C285.458 87.6198 284.542 87.1979 283.438 86.75C282.688 86.4479 281.969 86.1042 281.281 85.7188C280.604 85.3333 280 84.8802 279.469 84.3594C278.938 83.8385 278.516 83.224 278.203 82.5156C277.901 81.7969 277.75 80.9531 277.75 79.9844C277.75 78.6927 278.057 77.5885 278.672 76.6719C279.297 75.7552 280.172 75.0521 281.297 74.5625C282.432 74.0729 283.755 73.8281 285.266 73.8281C286.464 73.8281 287.589 73.9531 288.641 74.2031C289.703 74.4531 290.745 74.8073 291.766 75.2656L290.578 78.2812C289.641 77.8958 288.729 77.5885 287.844 77.3594C286.969 77.1302 286.073 77.0156 285.156 77.0156C284.365 77.0156 283.693 77.1354 283.141 77.375C282.589 77.6146 282.167 77.9531 281.875 78.3906C281.594 78.8177 281.453 79.3281 281.453 79.9219C281.453 80.5885 281.615 81.151 281.938 81.6094C282.271 82.0573 282.781 82.4688 283.469 82.8438C284.167 83.2188 285.062 83.6354 286.156 84.0938C287.417 84.6146 288.484 85.1615 289.359 85.7344C290.245 86.3073 290.922 86.9948 291.391 87.7969C291.859 88.5885 292.094 89.5833 292.094 90.7812ZM304.422 97H300.656V77.3438H293.969V74.1562H311.094V77.3438H304.422V97ZM328.75 97L326.516 90.6562H317.781L315.547 97H311.594L320.094 74.0625H324.25L332.734 97H328.75ZM325.547 87.4375L323.375 81.1875C323.292 80.9167 323.172 80.5365 323.016 80.0469C322.859 79.5469 322.703 79.0417 322.547 78.5312C322.391 78.0104 322.26 77.5729 322.156 77.2188C322.052 77.6458 321.922 78.125 321.766 78.6562C321.62 79.1771 321.474 79.6667 321.328 80.125C321.193 80.5833 321.089 80.9375 321.016 81.1875L318.828 87.4375H325.547ZM342.172 74.1562C344.141 74.1562 345.766 74.3958 347.047 74.875C348.339 75.3542 349.297 76.0833 349.922 77.0625C350.557 78.0417 350.875 79.2865 350.875 80.7969C350.875 81.9219 350.667 82.8802 350.25 83.6719C349.833 84.4635 349.286 85.1198 348.609 85.6406C347.932 86.1615 347.208 86.5781 346.438 86.8906L352.922 97H348.688L343.172 87.8438H339.5V97H335.75V74.1562H342.172ZM341.922 77.2812H339.5V84.75H342.094C343.833 84.75 345.094 84.4271 345.875 83.7812C346.667 83.1354 347.062 82.1823 347.062 80.9219C347.062 79.599 346.641 78.6615 345.797 78.1094C344.964 77.5573 343.672 77.2812 341.922 77.2812ZM364.109 97H360.344V77.3438H353.656V74.1562H370.781V77.3438H364.109V97ZM377.078 90.0312H374.312L373.562 74.1562H377.828L377.078 90.0312ZM373.375 95.0625C373.375 94.2083 373.594 93.6094 374.031 93.2656C374.479 92.9115 375.026 92.7344 375.672 92.7344C376.307 92.7344 376.849 92.9115 377.297 93.2656C377.745 93.6094 377.969 94.2083 377.969 95.0625C377.969 95.8958 377.745 96.5 377.297 96.875C376.849 97.2396 376.307 97.4219 375.672 97.4219C375.026 97.4219 374.479 97.2396 374.031 96.875C373.594 96.5 373.375 95.8958 373.375 95.0625Z" fill="white"/>
<ellipse cx="165.5" cy="30" rx="11.5" ry="11" fill="#754C24"/>
<ellipse cx="494.5" cy="30" rx="11.5" ry="11" fill="#754C24"/>
<rect x="162" y="38" width="7" height="388" fill="#754C24"/>
<rect x="159" y="38" width="5" height="388" fill="#C78A0C"/>
<rect x="493" y="38" width="7" height="388" fill="#754C24"/>
<rect x="491" y="38" width="5" height="388" fill="#C78A0C"/>
<g filter="url(#filter0_d_17108_2573)">
<path d="M433.862 258.262V375.392L323.264 389.679V322.111L433.862 258.262Z" fill="#70A739"/>
<path d="M433.863 258.261L323.265 322.112L212.676 258.261L323.265 194.41L433.863 258.261Z" fill="#70A739"/>
<path d="M323.265 422.906V449.805L212.676 385.954V327.838L323.113 422.937L323.265 422.906Z" fill="#754C24"/>
<path d="M323.265 389.68V422.906L323.109 422.942L212.676 327.845V290.179L323.113 389.694L323.265 389.68Z" fill="#C78A0C"/>
<path d="M323.264 322.113V389.68L323.107 389.698L212.67 290.182V258.262L323.264 322.113Z" fill="#70A739"/>
<path d="M325.937 449.806H320.59V323.656L211.338 260.577L214.011 255.947L325.937 320.569V449.806Z" fill="#1D1D1B"/>
<path d="M432.522 255.941L321.93 319.802L324.604 324.433L435.197 260.572L432.522 255.941Z" fill="#1D1D1B"/>
<path d="M323.264 452.892L210 387.499V256.716L211.337 255.946L323.264 191.324L436.535 256.716V387.498L323.264 452.892ZM215.348 384.411L323.264 446.718L431.187 384.411V259.805L323.264 197.498L215.348 259.805V384.411Z" fill="#1D1D1B"/>
<path d="M322.4 425.857L210.93 329.869L214.42 325.816L323.807 420.011L405.462 399.378L406.773 404.562L323.726 425.545L322.4 425.857Z" fill="#1D1D1B"/>
<path d="M322.217 392.491L321.322 391.684L210.885 292.168L214.464 288.195L323.991 386.892L433.517 372.743L434.203 378.055L323.416 392.363L322.217 392.491Z" fill="#1D1D1B"/>
<path d="M346.446 230.427H296.707V270.989H346.446V230.427Z" fill="white"/>
<path d="M372.825 217.488L354.038 220.271L363.884 243.1L390.917 227.229L410.4 207.05L400.658 198.004L385.35 211.921L372.825 217.488Z" fill="white" stroke="#1D1D1D" stroke-width="5"/>
<path d="M303.002 236.471L295.889 250.582L304.997 261.454V280.483H289.962L272.424 258.274L289.962 216.632C289.084 188.98 290.548 164.894 290.548 164.894C290.548 164.894 308.312 153.973 315.052 152.959C322.774 151.799 345.912 157.769 345.912 157.769L373.383 180.9L373.597 181.084C373.731 182.053 373.798 183.03 373.799 184.008C373.72 188.131 372.692 192.179 370.794 195.839C365.306 207.017 354.042 215.357 352.449 216.499C352.327 216.589 352.26 216.633 352.26 216.633L369.799 258.275L352.258 272.673H337.215V261.456L346.323 250.584L339.212 236.472" fill="white"/>
<path d="M348.907 215.593L366.227 257.161L350.605 268.877L353.729 273.564L372.878 258.694L355.537 217.532C359.432 214.523 368.333 206.915 373.19 197.026C375.272 192.998 376.395 188.545 376.471 184.012C376.47 182.915 376.394 181.819 376.245 180.731L376.107 179.73L347.168 155.345L346.579 155.189C344.156 154.561 322.681 149.116 314.654 150.322C307.582 151.386 291.013 161.477 289.147 162.623L287.963 163.351L287.879 164.739C287.863 164.978 286.435 188.922 287.269 216.137L269.346 258.694L288.666 283.159H307.674V260.485L299.071 250.217L305.392 237.676L300.617 235.27L292.714 250.953L302.328 262.43V277.812H291.259L275.479 257.858L292.631 217.135L292.612 216.551C291.869 193.089 292.831 171.964 293.119 166.452C298.688 163.108 310.717 156.316 315.428 155.609C321.15 154.746 337.907 158.508 344.642 160.214L371.044 182.444C371.089 182.97 371.111 183.495 371.111 184.014C371.033 187.727 370.099 191.372 368.382 194.665C363.133 205.356 352.119 213.443 350.813 214.381L348.907 215.593Z" fill="#1D1D1D"/>
<path d="M353.729 268.877H305.299V273.564H353.729V268.877Z" fill="#1D1D1B"/>
<path d="M373.794 184.012C373.716 188.135 372.688 192.183 370.79 195.843L361.059 184.294L373.591 181.089C373.725 182.058 373.793 183.035 373.794 184.012Z" fill="#1D1D1B"/>
<path d="M308.765 181.605H298.712C298.339 181.604 297.97 181.525 297.629 181.374C297.288 181.222 296.983 181.001 296.733 180.724C296.483 180.447 296.293 180.121 296.177 179.767C296.06 179.412 296.019 179.037 296.056 178.666L296.894 170.288C296.945 169.773 297.144 169.285 297.467 168.882L300.816 164.692C301.067 164.379 301.385 164.126 301.747 163.952C302.108 163.779 302.504 163.689 302.905 163.689H311.284V169.036H304.191L302.135 171.605L301.666 176.257H308.765V181.605Z" fill="#1D1D1B"/>
<path d="M371.169 197.372V208.308C371.17 208.453 371.127 208.595 371.047 208.716C370.967 208.837 370.852 208.931 370.718 208.987C370.584 209.042 370.436 209.056 370.294 209.027C370.151 208.998 370.021 208.927 369.919 208.824L365.943 204.848L371.169 197.372Z" fill="white"/>
<path d="M370.436 211.266C370.047 211.266 369.663 211.189 369.305 211.04C368.946 210.891 368.621 210.673 368.347 210.398L363.051 205.1L373.398 190.293V208.306C373.396 209.092 373.082 209.845 372.525 210.4C371.969 210.954 371.215 211.266 370.429 211.266H370.436ZM368.844 204.591L368.942 204.689V204.452L368.844 204.591Z" fill="#1D1D1B"/>
<path d="M371.516 200.861L367.621 196.225L368.402 194.663C370.118 191.37 371.051 187.727 371.13 184.015C371.129 183.158 371.07 182.303 370.953 181.454L376.16 180.312C378.504 187.999 373.611 197.055 373.401 197.438L371.516 200.861Z" fill="#1D1D1B"/>
<path d="M351.71 220.319L350.193 217.94C347.709 214.026 346.321 209.517 346.175 204.884C346.029 200.251 347.13 195.664 349.363 191.602C351.596 187.539 354.879 184.151 358.869 181.792C362.859 179.432 367.409 178.188 372.045 178.188C372.539 178.188 373.034 178.202 373.527 178.229L374.437 178.277L376.107 179.716L376.244 180.717C376.394 181.805 376.471 182.901 376.472 183.998C376.396 188.531 375.273 192.985 373.191 197.012C367.489 208.626 356.208 217.084 354.004 218.662L351.71 220.319ZM371.117 183.562C367.774 183.717 364.52 184.685 361.638 186.384C358.755 188.082 356.33 190.459 354.575 193.307C352.82 196.156 351.787 199.39 351.566 202.728C351.345 206.067 351.943 209.409 353.307 212.464C357.147 209.349 364.424 202.748 368.397 194.654C370.114 191.361 371.048 187.716 371.126 184.003C371.123 183.862 371.121 183.714 371.117 183.562Z" fill="#1D1D1B"/>
<path d="M342.147 180.614C341.854 180.907 341.457 181.071 341.043 181.071C340.629 181.071 340.232 180.907 339.939 180.614L332.703 173.378L325.399 180.682C325.106 180.974 324.709 181.139 324.295 181.139C323.881 181.139 323.483 180.974 323.191 180.682L321.493 178.984C321.2 178.691 321.035 178.294 321.035 177.88C321.035 177.466 321.2 177.068 321.493 176.776L331.649 166.619C331.942 166.326 332.339 166.162 332.753 166.162C333.167 166.162 333.565 166.326 333.857 166.619L335.555 168.317C335.591 168.352 335.626 168.388 335.66 168.422L343.896 176.658C344.189 176.95 344.353 177.347 344.353 177.761C344.353 178.176 344.189 178.573 343.896 178.865L342.147 180.614Z" fill="#2E2E2E"/>
<path opacity="0.6" d="M332.28 193.669C337.023 193.669 340.867 191.572 340.867 188.986C340.867 186.399 337.023 184.302 332.28 184.302C327.538 184.302 323.693 186.399 323.693 188.986C323.693 191.572 327.538 193.669 332.28 193.669Z" fill="#FFB2E8"/>
</g>
<path fill-rule="evenodd" clip-rule="evenodd" d="M380.312 152.969C381.359 151.772 381.758 150.064 381.209 148.449C380.39 146.039 377.773 144.749 375.363 145.568C372.953 146.387 371.664 149.005 372.483 151.414C373.032 153.029 374.388 154.141 375.949 154.452L403.578 235.753L407.941 234.27L393.232 190.988L430.441 157.269L380.391 153.204L380.312 152.969Z" fill="#FDC11B"/>
<ellipse cx="33.5" cy="257" rx="15.5" ry="22" fill="#2F4F06"/>
<rect x="31" y="275" width="5" height="23" fill="#8A630B"/>
<ellipse cx="53.5" cy="264" rx="15.5" ry="22" fill="#467609"/>
<rect x="51" y="282" width="5" height="23" fill="#8A630B"/>
</g>
<defs>
<filter id="filter0_d_17108_2573" x="205" y="149.148" width="236.535" height="312.744" filterUnits="userSpaceOnUse" color-interpolation-filters="sRGB">
<feFlood flood-opacity="0" result="BackgroundImageFix"/>
<feColorMatrix in="SourceAlpha" type="matrix" values="0 0 0 0 0 0 0 0 0 0 0 0 0 0 0 0 0 0 127 0" result="hardAlpha"/>
<feOffset dy="4"/>
<feGaussianBlur stdDeviation="2.5"/>
<feComposite in2="hardAlpha" operator="out"/>
<feColorMatrix type="matrix" values="0 0 0 0 0 0 0 0 0 0 0 0 0 0 0 0 0 0 0.25 0"/>
<feBlend mode="normal" in2="BackgroundImageFix" result="effect1_dropShadow_17108_2573"/>
<feBlend mode="normal" in="SourceGraphic" in2="effect1_dropShadow_17108_2573" result="shape"/>
</filter>
<clipPath id="clip0_17108_2573">
<rect width="677" height="330" fill="white"/>
</clipPath>
</defs>
</svg>
