<svg width="660" height="398" viewBox="0 0 660 398" fill="none" xmlns="http://www.w3.org/2000/svg">
<g clip-path="url(#clip0_1864_14555)">
<rect width="660" height="398" fill="#FFF2D4"/>
<path fill-rule="evenodd" clip-rule="evenodd" d="M180.208 109.563H151.969C151.957 109.563 151.944 109.563 151.932 109.563C151.92 109.563 151.907 109.563 151.895 109.563H126.093C126.078 109.563 126.064 109.563 126.049 109.563C126.034 109.563 126.019 109.563 126.004 109.563H124.242V109.456C116.783 108.564 111 102.215 111 94.5148C111 86.2037 117.738 79.4662 126.049 79.4662C126.403 79.4662 126.754 79.4784 127.101 79.5024C129.336 67.8249 139.603 59 151.932 59C163.558 59 173.351 66.8474 176.303 77.5343C177.559 77.2234 178.872 77.0583 180.224 77.0583C189.2 77.0583 196.476 84.3349 196.476 93.3109C196.476 101.677 190.156 108.566 182.029 109.464V109.563H180.24C180.234 109.563 180.229 109.563 180.224 109.563C180.218 109.563 180.213 109.563 180.208 109.563Z" fill="white"/>
<path fill-rule="evenodd" clip-rule="evenodd" d="M634.79 109.492C629.839 108.9 626 104.685 626 99.5743C626 94.0575 630.472 89.5852 635.989 89.5852C636.224 89.5852 636.457 89.5933 636.688 89.6093C638.171 81.8579 644.987 76 653.17 76C660.887 76 667.388 81.209 669.348 88.3029C670.181 88.0965 671.053 87.9869 671.95 87.9869C677.908 87.9869 682.738 92.817 682.738 98.7752C682.738 104.328 678.543 108.901 673.148 109.498V109.563H635.998C635.995 109.563 635.992 109.563 635.989 109.563C635.986 109.563 635.983 109.563 635.98 109.563H634.79V109.492Z" fill="white"/>
<rect y="329" width="1500" height="69" fill="#9A9A9A"/>
<path d="M2.18557e-07 361.5C-1.38071 361.5 -2.5 362.619 -2.5 364C-2.5 365.381 -1.38071 366.5 -2.18557e-07 366.5L2.18557e-07 361.5ZM9.86842 366.5C11.2491 366.5 12.3684 365.381 12.3684 364C12.3684 362.619 11.2491 361.5 9.86842 361.5L9.86842 366.5ZM29.6053 361.5C28.2246 361.5 27.1053 362.619 27.1053 364C27.1053 365.381 28.2246 366.5 29.6053 366.5L29.6053 361.5ZM49.3421 366.5C50.7228 366.5 51.8421 365.381 51.8421 364C51.8421 362.619 50.7228 361.5 49.3421 361.5L49.3421 366.5ZM69.0789 361.5C67.6982 361.5 66.5789 362.619 66.5789 364C66.5789 365.381 67.6982 366.5 69.0789 366.5L69.0789 361.5ZM88.8158 366.5C90.1965 366.5 91.3158 365.381 91.3158 364C91.3158 362.619 90.1965 361.5 88.8158 361.5L88.8158 366.5ZM108.553 361.5C107.172 361.5 106.053 362.619 106.053 364C106.053 365.381 107.172 366.5 108.553 366.5L108.553 361.5ZM128.289 366.5C129.67 366.5 130.789 365.381 130.789 364C130.789 362.619 129.67 361.5 128.289 361.5L128.289 366.5ZM148.026 361.5C146.646 361.5 145.526 362.619 145.526 364C145.526 365.381 146.646 366.5 148.026 366.5L148.026 361.5ZM167.763 366.5C169.144 366.5 170.263 365.381 170.263 364C170.263 362.619 169.144 361.5 167.763 361.5L167.763 366.5ZM187.5 361.5C186.119 361.5 185 362.619 185 364C185 365.381 186.119 366.5 187.5 366.5L187.5 361.5ZM207.237 366.5C208.618 366.5 209.737 365.381 209.737 364C209.737 362.619 208.618 361.5 207.237 361.5L207.237 366.5ZM226.974 361.5C225.593 361.5 224.474 362.619 224.474 364C224.474 365.381 225.593 366.5 226.974 366.5L226.974 361.5ZM246.711 366.5C248.091 366.5 249.211 365.381 249.211 364C249.211 362.619 248.091 361.5 246.711 361.5L246.711 366.5ZM266.447 361.5C265.067 361.5 263.947 362.619 263.947 364C263.947 365.381 265.067 366.5 266.447 366.5L266.447 361.5ZM286.184 366.5C287.565 366.5 288.684 365.381 288.684 364C288.684 362.619 287.565 361.5 286.184 361.5L286.184 366.5ZM305.921 361.5C304.54 361.5 303.421 362.619 303.421 364C303.421 365.381 304.54 366.5 305.921 366.5L305.921 361.5ZM325.658 366.5C327.039 366.5 328.158 365.381 328.158 364C328.158 362.619 327.039 361.5 325.658 361.5L325.658 366.5ZM345.395 361.5C344.014 361.5 342.895 362.619 342.895 364C342.895 365.381 344.014 366.5 345.395 366.5L345.395 361.5ZM365.132 366.5C366.512 366.5 367.632 365.381 367.632 364C367.632 362.619 366.512 361.5 365.132 361.5L365.132 366.5ZM384.868 361.5C383.488 361.5 382.368 362.619 382.368 364C382.368 365.381 383.488 366.5 384.868 366.5L384.868 361.5ZM404.605 366.5C405.986 366.5 407.105 365.381 407.105 364C407.105 362.619 405.986 361.5 404.605 361.5L404.605 366.5ZM424.342 361.5C422.961 361.5 421.842 362.619 421.842 364C421.842 365.381 422.961 366.5 424.342 366.5L424.342 361.5ZM444.079 366.5C445.46 366.5 446.579 365.381 446.579 364C446.579 362.619 445.46 361.5 444.079 361.5L444.079 366.5ZM463.816 361.5C462.435 361.5 461.316 362.619 461.316 364C461.316 365.381 462.435 366.5 463.816 366.5L463.816 361.5ZM483.553 366.5C484.933 366.5 486.053 365.381 486.053 364C486.053 362.619 484.933 361.5 483.553 361.5L483.553 366.5ZM503.29 361.5C501.909 361.5 500.79 362.619 500.79 364C500.79 365.381 501.909 366.5 503.29 366.5L503.29 361.5ZM523.026 366.5C524.407 366.5 525.526 365.381 525.526 364C525.526 362.619 524.407 361.5 523.026 361.5L523.026 366.5ZM542.763 361.5C541.383 361.5 540.263 362.619 540.263 364C540.263 365.381 541.383 366.5 542.763 366.5L542.763 361.5ZM562.5 366.5C563.881 366.5 565 365.381 565 364C565 362.619 563.881 361.5 562.5 361.5L562.5 366.5ZM582.237 361.5C580.856 361.5 579.737 362.619 579.737 364C579.737 365.381 580.856 366.5 582.237 366.5L582.237 361.5ZM601.974 366.5C603.354 366.5 604.474 365.381 604.474 364C604.474 362.619 603.354 361.5 601.974 361.5L601.974 366.5ZM621.71 361.5C620.33 361.5 619.21 362.619 619.21 364C619.21 365.381 620.33 366.5 621.71 366.5L621.71 361.5ZM641.447 366.5C642.828 366.5 643.947 365.381 643.947 364C643.947 362.619 642.828 361.5 641.447 361.5L641.447 366.5ZM661.184 361.5C659.803 361.5 658.684 362.619 658.684 364C658.684 365.381 659.803 366.5 661.184 366.5L661.184 361.5ZM680.921 366.5C682.302 366.5 683.421 365.381 683.421 364C683.421 362.619 682.302 361.5 680.921 361.5L680.921 366.5ZM700.658 361.5C699.277 361.5 698.158 362.619 698.158 364C698.158 365.381 699.277 366.5 700.658 366.5L700.658 361.5ZM720.395 366.5C721.775 366.5 722.895 365.381 722.895 364C722.895 362.619 721.775 361.5 720.395 361.5L720.395 366.5ZM740.131 361.5C738.751 361.5 737.631 362.619 737.631 364C737.631 365.381 738.751 366.5 740.131 366.5L740.131 361.5ZM759.868 366.5C761.249 366.5 762.368 365.381 762.368 364C762.368 362.619 761.249 361.5 759.868 361.5L759.868 366.5ZM779.605 361.5C778.224 361.5 777.105 362.619 777.105 364C777.105 365.381 778.224 366.5 779.605 366.5L779.605 361.5ZM799.342 366.5C800.723 366.5 801.842 365.381 801.842 364C801.842 362.619 800.723 361.5 799.342 361.5L799.342 366.5ZM819.079 361.5C817.698 361.5 816.579 362.619 816.579 364C816.579 365.381 817.698 366.5 819.079 366.5L819.079 361.5ZM838.815 366.5C840.196 366.5 841.315 365.381 841.315 364C841.315 362.619 840.196 361.5 838.815 361.5L838.815 366.5ZM858.552 361.5C857.172 361.5 856.052 362.619 856.052 364C856.052 365.381 857.172 366.5 858.552 366.5L858.552 361.5ZM878.289 366.5C879.67 366.5 880.789 365.381 880.789 364C880.789 362.619 879.67 361.5 878.289 361.5L878.289 366.5ZM898.026 361.5C896.645 361.5 895.526 362.619 895.526 364C895.526 365.381 896.645 366.5 898.026 366.5L898.026 361.5ZM917.763 366.5C919.143 366.5 920.263 365.381 920.263 364C920.263 362.619 919.143 361.5 917.763 361.5L917.763 366.5ZM937.5 361.5C936.119 361.5 935 362.619 935 364C935 365.381 936.119 366.5 937.5 366.5L937.5 361.5ZM957.236 366.5C958.617 366.5 959.736 365.381 959.736 364C959.736 362.619 958.617 361.5 957.236 361.5L957.236 366.5ZM976.973 361.5C975.592 361.5 974.473 362.619 974.473 364C974.473 365.381 975.592 366.5 976.973 366.5L976.973 361.5ZM996.71 366.5C998.091 366.5 999.21 365.381 999.21 364C999.21 362.619 998.091 361.5 996.71 361.5L996.71 366.5ZM1016.45 361.5C1015.07 361.5 1013.95 362.619 1013.95 364C1013.95 365.381 1015.07 366.5 1016.45 366.5L1016.45 361.5ZM1036.18 366.5C1037.56 366.5 1038.68 365.381 1038.68 364C1038.68 362.619 1037.56 361.5 1036.18 361.5L1036.18 366.5ZM1055.92 361.5C1054.54 361.5 1053.42 362.619 1053.42 364C1053.42 365.381 1054.54 366.5 1055.92 366.5L1055.92 361.5ZM1075.66 366.5C1077.04 366.5 1078.16 365.381 1078.16 364C1078.16 362.619 1077.04 361.5 1075.66 361.5L1075.66 366.5ZM1095.39 361.5C1094.01 361.5 1092.89 362.619 1092.89 364C1092.89 365.381 1094.01 366.5 1095.39 366.5L1095.39 361.5ZM1115.13 366.5C1116.51 366.5 1117.63 365.381 1117.63 364C1117.63 362.619 1116.51 361.5 1115.13 361.5L1115.13 366.5ZM1134.87 361.5C1133.49 361.5 1132.37 362.619 1132.37 364C1132.37 365.381 1133.49 366.5 1134.87 366.5L1134.87 361.5ZM1154.6 366.5C1155.99 366.5 1157.1 365.381 1157.1 364C1157.1 362.619 1155.99 361.5 1154.6 361.5L1154.6 366.5ZM1174.34 361.5C1172.96 361.5 1171.84 362.619 1171.84 364C1171.84 365.381 1172.96 366.5 1174.34 366.5L1174.34 361.5ZM1194.08 366.5C1195.46 366.5 1196.58 365.381 1196.58 364C1196.58 362.619 1195.46 361.5 1194.08 361.5L1194.08 366.5ZM1213.81 361.5C1212.43 361.5 1211.31 362.619 1211.31 364C1211.31 365.381 1212.43 366.5 1213.81 366.5L1213.81 361.5ZM1233.55 366.5C1234.93 366.5 1236.05 365.381 1236.05 364C1236.05 362.619 1234.93 361.5 1233.55 361.5L1233.55 366.5ZM1253.29 361.5C1251.91 361.5 1250.79 362.619 1250.79 364C1250.79 365.381 1251.91 366.5 1253.29 366.5L1253.29 361.5ZM1273.03 366.5C1274.41 366.5 1275.53 365.381 1275.53 364C1275.53 362.619 1274.41 361.5 1273.03 361.5L1273.03 366.5ZM1292.76 361.5C1291.38 361.5 1290.26 362.619 1290.26 364C1290.26 365.381 1291.38 366.5 1292.76 366.5L1292.76 361.5ZM1312.5 366.5C1313.88 366.5 1315 365.381 1315 364C1315 362.619 1313.88 361.5 1312.5 361.5L1312.5 366.5ZM1332.24 361.5C1330.86 361.5 1329.74 362.619 1329.74 364C1329.74 365.381 1330.86 366.5 1332.24 366.5L1332.24 361.5ZM1351.97 366.5C1353.35 366.5 1354.47 365.381 1354.47 364C1354.47 362.619 1353.35 361.5 1351.97 361.5L1351.97 366.5ZM1371.71 361.5C1370.33 361.5 1369.21 362.619 1369.21 364C1369.21 365.381 1370.33 366.5 1371.71 366.5L1371.71 361.5ZM1391.45 366.5C1392.83 366.5 1393.95 365.381 1393.95 364C1393.95 362.619 1392.83 361.5 1391.45 361.5L1391.45 366.5ZM1411.18 361.5C1409.8 361.5 1408.68 362.619 1408.68 364C1408.68 365.381 1409.8 366.5 1411.18 366.5L1411.18 361.5ZM1430.92 366.5C1432.3 366.5 1433.42 365.381 1433.42 364C1433.42 362.619 1432.3 361.5 1430.92 361.5L1430.92 366.5ZM1450.66 361.5C1449.28 361.5 1448.16 362.619 1448.16 364C1448.16 365.381 1449.28 366.5 1450.66 366.5L1450.66 361.5ZM1470.39 366.5C1471.77 366.5 1472.89 365.381 1472.89 364C1472.89 362.619 1471.77 361.5 1470.39 361.5L1470.39 366.5ZM1490.13 361.5C1488.75 361.5 1487.63 362.619 1487.63 364C1487.63 365.381 1488.75 366.5 1490.13 366.5L1490.13 361.5ZM-2.18557e-07 366.5L9.86842 366.5L9.86842 361.5L2.18557e-07 361.5L-2.18557e-07 366.5ZM29.6053 366.5L49.3421 366.5L49.3421 361.5L29.6053 361.5L29.6053 366.5ZM69.0789 366.5L88.8158 366.5L88.8158 361.5L69.0789 361.5L69.0789 366.5ZM108.553 366.5L128.289 366.5L128.289 361.5L108.553 361.5L108.553 366.5ZM148.026 366.5L167.763 366.5L167.763 361.5L148.026 361.5L148.026 366.5ZM187.5 366.5L207.237 366.5L207.237 361.5L187.5 361.5L187.5 366.5ZM226.974 366.5L246.711 366.5L246.711 361.5L226.974 361.5L226.974 366.5ZM266.447 366.5L286.184 366.5L286.184 361.5L266.447 361.5L266.447 366.5ZM305.921 366.5L325.658 366.5L325.658 361.5L305.921 361.5L305.921 366.5ZM345.395 366.5L365.132 366.5L365.132 361.5L345.395 361.5L345.395 366.5ZM384.868 366.5L404.605 366.5L404.605 361.5L384.868 361.5L384.868 366.5ZM424.342 366.5L444.079 366.5L444.079 361.5L424.342 361.5L424.342 366.5ZM463.816 366.5L483.553 366.5L483.553 361.5L463.816 361.5L463.816 366.5ZM503.29 366.5L523.026 366.5L523.026 361.5L503.29 361.5L503.29 366.5ZM542.763 366.5L562.5 366.5L562.5 361.5L542.763 361.5L542.763 366.5ZM582.237 366.5L601.974 366.5L601.974 361.5L582.237 361.5L582.237 366.5ZM621.71 366.5L641.447 366.5L641.447 361.5L621.71 361.5L621.71 366.5ZM661.184 366.5L680.921 366.5L680.921 361.5L661.184 361.5L661.184 366.5ZM700.658 366.5L720.395 366.5L720.395 361.5L700.658 361.5L700.658 366.5ZM740.131 366.5L759.868 366.5L759.868 361.5L740.131 361.5L740.131 366.5ZM779.605 366.5L799.342 366.5L799.342 361.5L779.605 361.5L779.605 366.5ZM819.079 366.5L838.815 366.5L838.815 361.5L819.079 361.5L819.079 366.5ZM858.552 366.5L878.289 366.5L878.289 361.5L858.552 361.5L858.552 366.5ZM898.026 366.5L917.763 366.5L917.763 361.5L898.026 361.5L898.026 366.5ZM937.5 366.5L957.236 366.5L957.236 361.5L937.5 361.5L937.5 366.5ZM976.973 366.5L996.71 366.5L996.71 361.5L976.973 361.5L976.973 366.5ZM1016.45 366.5L1036.18 366.5L1036.18 361.5L1016.45 361.5L1016.45 366.5ZM1055.92 366.5L1075.66 366.5L1075.66 361.5L1055.92 361.5L1055.92 366.5ZM1095.39 366.5L1115.13 366.5L1115.13 361.5L1095.39 361.5L1095.39 366.5ZM1134.87 366.5L1154.6 366.5L1154.6 361.5L1134.87 361.5L1134.87 366.5ZM1174.34 366.5L1194.08 366.5L1194.08 361.5L1174.34 361.5L1174.34 366.5ZM1213.81 366.5L1233.55 366.5L1233.55 361.5L1213.81 361.5L1213.81 366.5ZM1253.29 366.5L1273.03 366.5L1273.03 361.5L1253.29 361.5L1253.29 366.5ZM1292.76 366.5L1312.5 366.5L1312.5 361.5L1292.76 361.5L1292.76 366.5ZM1332.24 366.5L1351.97 366.5L1351.97 361.5L1332.24 361.5L1332.24 366.5ZM1371.71 366.5L1391.45 366.5L1391.45 361.5L1371.71 361.5L1371.71 366.5ZM1411.18 366.5L1430.92 366.5L1430.92 361.5L1411.18 361.5L1411.18 366.5ZM1450.66 366.5L1470.39 366.5L1470.39 361.5L1450.66 361.5L1450.66 366.5ZM1490.13 366.5L1500 366.5L1500 361.5L1490.13 361.5L1490.13 366.5Z" fill="#FEC955"/>
<path fill-rule="evenodd" clip-rule="evenodd" d="M91.9929 47.515C92.259 47.5288 92.5268 47.5357 92.7963 47.5357C101.233 47.5357 108.072 40.6965 108.072 32.2598C108.072 23.8231 101.233 16.9839 92.7963 16.9839C91.9148 16.9839 91.0507 17.0585 90.21 17.2019C86.8734 9.50448 79.2073 4.11986 70.2835 4.11986C68.4783 4.11986 66.7245 4.34021 65.0477 4.75548C61.1044 -9.51852 48.0242 -20 32.4958 -20C15.0815 -20 0.746008 -6.81783 -1.07644 10.1123C-3.14326 9.35646 -5.3755 8.94399 -7.70408 8.94399C-18.3609 8.94399 -27 17.5831 -27 28.2399C-27 38.8968 -18.3609 47.5358 -7.70408 47.5358C-6.60786 47.5358 -5.53299 47.4444 -4.48668 47.2688V47.5359H91.9929V47.515Z" fill="white"/>
<path fill-rule="evenodd" clip-rule="evenodd" d="M580.208 64.5634H551.969C551.957 64.5634 551.944 64.5634 551.932 64.5634C551.92 64.5634 551.907 64.5634 551.895 64.5634H526.093C526.078 64.5634 526.064 64.5635 526.049 64.5635C526.034 64.5635 526.019 64.5634 526.004 64.5634H524.242V64.4562C516.783 63.5639 511 57.2147 511 49.5148C511 41.2037 517.738 34.4662 526.049 34.4662C526.403 34.4662 526.754 34.4784 527.101 34.5024C529.336 22.8249 539.603 14 551.932 14C563.558 14 573.351 21.8474 576.303 32.5343C577.559 32.2234 578.872 32.0583 580.224 32.0583C589.2 32.0583 596.476 39.3349 596.476 48.3109C596.476 56.6766 590.156 63.5661 582.029 64.4643V64.5634H580.24C580.234 64.5634 580.229 64.5634 580.224 64.5634C580.218 64.5634 580.213 64.5634 580.208 64.5634Z" fill="white"/>
<rect x="62" y="86.5601" width="469.92" height="21.12" fill="#626463"/>
<rect x="77.84" y="107.68" width="14.52" height="241.56" fill="#626463"/>
<rect x="498.92" y="107.68" width="14.52" height="241.56" fill="#626463"/>
<rect x="62.0002" y="76" width="469.92" height="10.56" fill="#8F908C"/>
<rect x="110.84" y="107.68" width="368.28" height="229.68" fill="#626463"/>
<rect x="122.72" y="107.68" width="345.84" height="215.16" fill="#DBE9F0"/>
<path opacity="0.3" d="M123.2 179.2V107.8H231.2L123.2 179.2Z" fill="#A1C5DD"/>
<path opacity="0.3" d="M468.8 231.4L468.8 322.6L360.8 322.6L468.8 231.4Z" fill="#A1C5DD"/>
<path d="M143.302 124.265H148.06V130.483C147.431 130.691 146.777 130.858 146.099 130.984C145.421 131.104 144.653 131.164 143.794 131.164C142.602 131.164 141.59 130.929 140.759 130.459C139.928 129.988 139.296 129.294 138.864 128.375C138.432 127.456 138.216 126.327 138.216 124.987C138.216 123.729 138.457 122.641 138.938 121.722C139.425 120.804 140.133 120.093 141.063 119.589C141.998 119.086 143.138 118.835 144.483 118.835C145.118 118.835 145.744 118.903 146.362 119.04C146.98 119.177 147.54 119.354 148.044 119.573L147.199 121.607C146.832 121.421 146.414 121.266 145.944 121.14C145.473 121.014 144.981 120.951 144.467 120.951C143.729 120.951 143.086 121.121 142.539 121.46C141.998 121.799 141.577 122.275 141.276 122.887C140.981 123.494 140.833 124.211 140.833 125.036C140.833 125.818 140.94 126.513 141.153 127.12C141.366 127.721 141.702 128.195 142.162 128.539C142.621 128.878 143.22 129.048 143.958 129.048C144.319 129.048 144.623 129.031 144.869 128.998C145.12 128.96 145.356 128.922 145.574 128.884V126.382H143.302V124.265ZM159.588 126.398C159.588 127.164 159.484 127.842 159.277 128.432C159.074 129.023 158.776 129.523 158.382 129.934C157.994 130.338 157.524 130.645 156.972 130.852C156.425 131.06 155.807 131.164 155.118 131.164C154.472 131.164 153.879 131.06 153.338 130.852C152.802 130.645 152.334 130.338 151.935 129.934C151.541 129.523 151.235 129.023 151.016 128.432C150.803 127.842 150.696 127.164 150.696 126.398C150.696 125.381 150.877 124.52 151.238 123.814C151.598 123.109 152.113 122.573 152.78 122.206C153.447 121.84 154.243 121.657 155.167 121.657C156.025 121.657 156.786 121.84 157.447 122.206C158.114 122.573 158.637 123.109 159.014 123.814C159.397 124.52 159.588 125.381 159.588 126.398ZM153.247 126.398C153.247 127 153.313 127.505 153.444 127.916C153.575 128.326 153.78 128.635 154.059 128.843C154.338 129.05 154.702 129.154 155.15 129.154C155.593 129.154 155.952 129.05 156.225 128.843C156.504 128.635 156.706 128.326 156.832 127.916C156.963 127.505 157.029 127 157.029 126.398C157.029 125.791 156.963 125.288 156.832 124.889C156.706 124.484 156.504 124.18 156.225 123.978C155.946 123.776 155.582 123.675 155.134 123.675C154.472 123.675 153.991 123.902 153.69 124.355C153.395 124.809 153.247 125.49 153.247 126.398ZM167.253 123.707H165.087V131H162.585V123.707H161.207V122.502L162.585 121.829V121.156C162.585 120.374 162.717 119.767 162.979 119.335C163.247 118.898 163.622 118.591 164.103 118.416C164.59 118.236 165.164 118.146 165.826 118.146C166.312 118.146 166.755 118.187 167.155 118.269C167.554 118.345 167.879 118.433 168.131 118.531L167.491 120.369C167.3 120.309 167.092 120.254 166.867 120.205C166.643 120.155 166.386 120.131 166.096 120.131C165.746 120.131 165.489 120.237 165.325 120.451C165.167 120.659 165.087 120.927 165.087 121.255V121.829H167.253V123.707ZM173.006 121.657C173.854 121.657 174.584 121.821 175.197 122.149C175.809 122.471 176.282 122.942 176.616 123.56C176.949 124.178 177.116 124.932 177.116 125.824V127.038H171.202C171.229 127.743 171.44 128.298 171.833 128.703C172.233 129.102 172.785 129.302 173.49 129.302C174.076 129.302 174.611 129.242 175.098 129.121C175.585 129.001 176.085 128.821 176.599 128.58V130.516C176.145 130.74 175.67 130.904 175.172 131.008C174.68 131.112 174.081 131.164 173.376 131.164C172.457 131.164 171.642 130.995 170.931 130.655C170.226 130.316 169.67 129.8 169.266 129.105C168.867 128.411 168.667 127.536 168.667 126.48C168.667 125.408 168.847 124.517 169.208 123.806C169.575 123.089 170.083 122.554 170.734 122.198C171.385 121.837 172.142 121.657 173.006 121.657ZM173.023 123.437C172.536 123.437 172.131 123.593 171.809 123.904C171.492 124.216 171.308 124.705 171.259 125.373H174.77C174.765 125.001 174.696 124.67 174.565 124.38C174.439 124.09 174.248 123.861 173.991 123.691C173.739 123.521 173.417 123.437 173.023 123.437ZM184.797 121.657C184.923 121.657 185.068 121.665 185.232 121.681C185.402 121.692 185.538 121.709 185.642 121.73L185.454 124.077C185.372 124.049 185.254 124.03 185.101 124.019C184.953 124.003 184.825 123.995 184.715 123.995C184.393 123.995 184.078 124.036 183.772 124.118C183.471 124.2 183.2 124.334 182.96 124.52C182.719 124.7 182.528 124.941 182.386 125.241C182.249 125.537 182.181 125.9 182.181 126.332V131H179.679V121.829H181.573L181.943 123.371H182.066C182.246 123.059 182.47 122.775 182.738 122.518C183.012 122.255 183.321 122.048 183.665 121.895C184.015 121.736 184.393 121.657 184.797 121.657ZM191.989 135.036C191.705 135.036 191.41 135.014 191.103 134.97C190.797 134.932 190.543 134.886 190.34 134.831V132.862C190.543 132.917 190.734 132.955 190.915 132.977C191.09 133.004 191.289 133.018 191.513 133.018C191.853 133.018 192.14 132.922 192.375 132.731C192.61 132.545 192.728 132.176 192.728 131.623V121.829H195.229V131.993C195.229 132.55 195.123 133.059 194.91 133.518C194.696 133.983 194.352 134.352 193.876 134.626C193.4 134.899 192.771 135.036 191.989 135.036ZM192.621 119.458C192.621 118.988 192.752 118.668 193.015 118.498C193.283 118.323 193.605 118.236 193.983 118.236C194.354 118.236 194.674 118.323 194.942 118.498C195.21 118.668 195.344 118.988 195.344 119.458C195.344 119.923 195.21 120.246 194.942 120.426C194.674 120.601 194.354 120.689 193.983 120.689C193.605 120.689 193.283 120.601 193.015 120.426C192.752 120.246 192.621 119.923 192.621 119.458ZM206.725 126.398C206.725 127.164 206.621 127.842 206.413 128.432C206.211 129.023 205.913 129.523 205.519 129.934C205.131 130.338 204.661 130.645 204.108 130.852C203.561 131.06 202.943 131.164 202.254 131.164C201.609 131.164 201.016 131.06 200.474 130.852C199.938 130.645 199.471 130.338 199.072 129.934C198.678 129.523 198.372 129.023 198.153 128.432C197.94 127.842 197.833 127.164 197.833 126.398C197.833 125.381 198.013 124.52 198.374 123.814C198.735 123.109 199.249 122.573 199.916 122.206C200.584 121.84 201.379 121.657 202.304 121.657C203.162 121.657 203.922 121.84 204.584 122.206C205.251 122.573 205.773 123.109 206.151 123.814C206.534 124.52 206.725 125.381 206.725 126.398ZM200.384 126.398C200.384 127 200.45 127.505 200.581 127.916C200.712 128.326 200.917 128.635 201.196 128.843C201.475 129.05 201.839 129.154 202.287 129.154C202.73 129.154 203.088 129.05 203.362 128.843C203.641 128.635 203.843 128.326 203.969 127.916C204.1 127.505 204.166 127 204.166 126.398C204.166 125.791 204.1 125.288 203.969 124.889C203.843 124.484 203.641 124.18 203.362 123.978C203.083 123.776 202.719 123.675 202.271 123.675C201.609 123.675 201.128 123.902 200.827 124.355C200.532 124.809 200.384 125.49 200.384 126.398ZM217.737 121.829V131H215.817L215.481 129.827H215.35C215.153 130.139 214.907 130.393 214.611 130.59C214.316 130.787 213.991 130.932 213.635 131.025C213.28 131.118 212.91 131.164 212.528 131.164C211.871 131.164 211.3 131.049 210.813 130.82C210.326 130.584 209.946 130.221 209.673 129.729C209.405 129.236 209.271 128.596 209.271 127.809V121.829H211.773V127.186C211.773 127.842 211.891 128.337 212.126 128.67C212.361 129.004 212.735 129.171 213.25 129.171C213.758 129.171 214.157 129.056 214.447 128.826C214.737 128.591 214.939 128.249 215.054 127.801C215.175 127.347 215.235 126.795 215.235 126.144V121.829H217.737ZM226.008 121.657C226.134 121.657 226.279 121.665 226.443 121.681C226.613 121.692 226.749 121.709 226.853 121.73L226.665 124.077C226.583 124.049 226.465 124.03 226.312 124.019C226.164 124.003 226.036 123.995 225.926 123.995C225.604 123.995 225.289 124.036 224.983 124.118C224.682 124.2 224.412 124.334 224.171 124.52C223.93 124.7 223.739 124.941 223.597 125.241C223.46 125.537 223.392 125.9 223.392 126.332V131H220.89V121.829H222.785L223.154 123.371H223.277C223.457 123.059 223.681 122.775 223.949 122.518C224.223 122.255 224.532 122.048 224.876 121.895C225.226 121.736 225.604 121.657 226.008 121.657ZM234.256 121.657C235.234 121.657 236.022 121.925 236.618 122.461C237.214 122.991 237.512 123.844 237.512 125.02V131H235.01V125.643C235.01 124.987 234.89 124.492 234.649 124.159C234.414 123.825 234.042 123.658 233.534 123.658C232.768 123.658 232.246 123.918 231.967 124.437C231.688 124.957 231.549 125.706 231.549 126.685V131H229.047V121.829H230.958L231.294 123.002H231.434C231.631 122.685 231.874 122.428 232.164 122.231C232.459 122.034 232.784 121.889 233.14 121.796C233.501 121.703 233.873 121.657 234.256 121.657ZM244.398 121.657C245.245 121.657 245.975 121.821 246.588 122.149C247.2 122.471 247.673 122.942 248.007 123.56C248.341 124.178 248.507 124.932 248.507 125.824V127.038H242.593C242.62 127.743 242.831 128.298 243.225 128.703C243.624 129.102 244.176 129.302 244.882 129.302C245.467 129.302 246.003 129.242 246.489 129.121C246.976 129.001 247.477 128.821 247.991 128.58V130.516C247.537 130.74 247.061 130.904 246.563 131.008C246.071 131.112 245.472 131.164 244.767 131.164C243.848 131.164 243.033 130.995 242.322 130.655C241.617 130.316 241.062 129.8 240.657 129.105C240.258 128.411 240.058 127.536 240.058 126.48C240.058 125.408 240.239 124.517 240.6 123.806C240.966 123.089 241.475 122.554 242.125 122.198C242.776 121.837 243.534 121.657 244.398 121.657ZM244.414 123.437C243.927 123.437 243.523 123.593 243.2 123.904C242.883 124.216 242.7 124.705 242.65 125.373H246.161C246.156 125.001 246.087 124.67 245.956 124.38C245.83 124.09 245.639 123.861 245.382 123.691C245.13 123.521 244.808 123.437 244.414 123.437ZM249.757 121.829H252.497L254.228 126.989C254.283 127.153 254.329 127.32 254.367 127.489C254.406 127.659 254.438 127.834 254.466 128.014C254.493 128.195 254.515 128.383 254.531 128.58H254.581C254.613 128.285 254.657 128.009 254.712 127.752C254.772 127.495 254.846 127.24 254.933 126.989L256.631 121.829H259.314L255.434 132.173C255.199 132.807 254.892 133.335 254.515 133.756C254.138 134.183 253.703 134.503 253.211 134.716C252.724 134.929 252.188 135.036 251.603 135.036C251.319 135.036 251.072 135.02 250.865 134.987C250.657 134.959 250.479 134.929 250.331 134.896V132.911C250.446 132.939 250.591 132.963 250.766 132.985C250.941 133.007 251.124 133.018 251.316 133.018C251.666 133.018 251.967 132.944 252.218 132.796C252.47 132.649 252.68 132.449 252.85 132.198C253.019 131.952 253.153 131.681 253.252 131.386L253.399 130.934L249.757 121.829Z" fill="#333333"/>
<path opacity="0.5" d="M150.2 322.6H123.2L359.6 107.8H385.4L150.2 322.6Z" fill="white"/>
<path opacity="0.5" d="M306.8 322.6H255.2L468.2 131.2V175.6L306.8 322.6Z" fill="white"/>
<path opacity="0.5" d="M424.245 323.2H410L468.8 270.4V282.648L424.245 323.2Z" fill="white"/>
<path opacity="0.6" d="M177.2 322.6H167.6L404 107.8H412.4L177.2 322.6Z" fill="white"/>
<rect x="139.55" y="161.47" width="86.46" height="97.02" rx="16.17" fill="#FAF0A7" stroke="#333333" stroke-width="1.98"/>
<path d="M163.742 231.903C163.742 232.462 163.607 232.948 163.336 233.36C163.065 233.773 162.67 234.091 162.15 234.314C161.634 234.537 161.007 234.649 160.268 234.649C159.941 234.649 159.621 234.628 159.308 234.585C158.998 234.542 158.7 234.479 158.412 234.398C158.128 234.312 157.858 234.207 157.6 234.082V232.226C158.047 232.423 158.511 232.602 158.992 232.761C159.473 232.92 159.95 232.999 160.423 232.999C160.749 232.999 161.011 232.956 161.209 232.87C161.411 232.784 161.557 232.666 161.647 232.516C161.738 232.365 161.783 232.194 161.783 232C161.783 231.764 161.703 231.562 161.544 231.394C161.385 231.227 161.166 231.07 160.887 230.924C160.612 230.778 160.3 230.621 159.952 230.453C159.733 230.35 159.495 230.226 159.237 230.079C158.979 229.929 158.734 229.746 158.502 229.532C158.27 229.317 158.079 229.057 157.928 228.752C157.782 228.442 157.709 228.073 157.709 227.643C157.709 227.08 157.838 226.599 158.096 226.199C158.354 225.8 158.721 225.495 159.198 225.284C159.679 225.069 160.247 224.962 160.9 224.962C161.39 224.962 161.856 225.02 162.298 225.136C162.745 225.248 163.211 225.411 163.697 225.626L163.052 227.179C162.618 227.003 162.23 226.868 161.886 226.773C161.542 226.674 161.192 226.625 160.835 226.625C160.586 226.625 160.373 226.666 160.197 226.747C160.021 226.825 159.888 226.936 159.798 227.082C159.707 227.224 159.662 227.39 159.662 227.579C159.662 227.802 159.727 227.991 159.856 228.146C159.989 228.296 160.186 228.442 160.449 228.584C160.715 228.726 161.046 228.891 161.441 229.08C161.922 229.308 162.333 229.547 162.672 229.796C163.016 230.041 163.28 230.331 163.465 230.666C163.65 230.997 163.742 231.409 163.742 231.903ZM168.775 227.166C169.742 227.166 170.483 227.377 170.999 227.798C171.515 228.219 171.772 228.859 171.772 229.719V234.52H170.4L170.019 233.541H169.968C169.761 233.798 169.551 234.009 169.336 234.172C169.121 234.335 168.874 234.456 168.595 234.533C168.316 234.61 167.976 234.649 167.577 234.649C167.151 234.649 166.769 234.568 166.429 234.404C166.094 234.241 165.83 233.992 165.636 233.657C165.443 233.317 165.346 232.887 165.346 232.368C165.346 231.603 165.615 231.04 166.152 230.679C166.689 230.314 167.495 230.112 168.569 230.073L169.819 230.034V229.719C169.819 229.34 169.721 229.063 169.523 228.887C169.325 228.711 169.05 228.623 168.698 228.623C168.35 228.623 168.008 228.672 167.673 228.771C167.338 228.87 167.003 228.994 166.668 229.145L166.017 227.817C166.399 227.615 166.827 227.456 167.299 227.34C167.776 227.224 168.268 227.166 168.775 227.166ZM169.819 231.182L169.059 231.207C168.423 231.225 167.98 231.338 167.731 231.549C167.486 231.76 167.364 232.037 167.364 232.38C167.364 232.681 167.452 232.896 167.628 233.025C167.804 233.15 168.034 233.212 168.318 233.212C168.739 233.212 169.093 233.087 169.381 232.838C169.673 232.589 169.819 232.234 169.819 231.775V231.182ZM182.793 227.179C183.61 227.179 184.226 227.39 184.643 227.811C185.064 228.227 185.275 228.898 185.275 229.822V234.52H183.303V230.311C183.303 229.796 183.214 229.407 183.038 229.145C182.862 228.883 182.589 228.752 182.22 228.752C181.7 228.752 181.33 228.939 181.111 229.312C180.892 229.682 180.782 230.213 180.782 230.904V234.52H178.817V230.311C178.817 229.968 178.778 229.68 178.701 229.448C178.623 229.216 178.505 229.042 178.346 228.926C178.187 228.81 177.983 228.752 177.734 228.752C177.369 228.752 177.081 228.844 176.87 229.029C176.664 229.209 176.516 229.478 176.425 229.835C176.339 230.187 176.297 230.619 176.297 231.13V234.52H174.331V227.314H175.832L176.097 228.236H176.206C176.352 227.987 176.535 227.785 176.754 227.63C176.978 227.476 177.223 227.362 177.489 227.289C177.755 227.216 178.026 227.179 178.301 227.179C178.83 227.179 179.276 227.265 179.642 227.437C180.011 227.609 180.295 227.875 180.492 228.236H180.666C180.881 227.867 181.184 227.598 181.575 227.43C181.971 227.263 182.377 227.179 182.793 227.179ZM191.836 227.179C192.648 227.179 193.303 227.495 193.801 228.127C194.304 228.758 194.556 229.684 194.556 230.904C194.556 231.721 194.437 232.408 194.201 232.967C193.965 233.521 193.638 233.94 193.221 234.224C192.805 234.507 192.326 234.649 191.784 234.649C191.436 234.649 191.137 234.606 190.888 234.52C190.639 234.43 190.426 234.316 190.25 234.179C190.074 234.037 189.921 233.886 189.792 233.727H189.689C189.724 233.899 189.75 234.076 189.767 234.256C189.784 234.436 189.792 234.613 189.792 234.785V237.691H187.827V227.314H189.425L189.702 228.249H189.792C189.921 228.056 190.078 227.877 190.263 227.714C190.448 227.551 190.669 227.422 190.927 227.327C191.189 227.228 191.492 227.179 191.836 227.179ZM191.204 228.752C190.86 228.752 190.587 228.823 190.385 228.964C190.184 229.106 190.035 229.319 189.941 229.602C189.85 229.886 189.801 230.245 189.792 230.679V230.892C189.792 231.356 189.835 231.749 189.921 232.071C190.012 232.393 190.16 232.638 190.366 232.806C190.577 232.973 190.865 233.057 191.23 233.057C191.531 233.057 191.778 232.973 191.971 232.806C192.164 232.638 192.308 232.393 192.403 232.071C192.502 231.744 192.551 231.347 192.551 230.879C192.551 230.174 192.442 229.643 192.222 229.287C192.003 228.93 191.664 228.752 191.204 228.752ZM198.674 234.52H196.708V224.491H198.674V234.52ZM204.242 227.179C204.908 227.179 205.481 227.308 205.963 227.566C206.444 227.819 206.816 228.189 207.078 228.674C207.34 229.16 207.471 229.753 207.471 230.453V231.407H202.824C202.845 231.961 203.011 232.398 203.32 232.716C203.634 233.029 204.068 233.186 204.622 233.186C205.082 233.186 205.503 233.139 205.885 233.044C206.268 232.95 206.661 232.808 207.065 232.619V234.14C206.708 234.316 206.334 234.445 205.943 234.527C205.557 234.608 205.086 234.649 204.532 234.649C203.81 234.649 203.17 234.516 202.611 234.25C202.057 233.983 201.621 233.577 201.303 233.031C200.989 232.486 200.832 231.798 200.832 230.969C200.832 230.127 200.974 229.426 201.258 228.868C201.546 228.305 201.945 227.884 202.456 227.604C202.968 227.321 203.563 227.179 204.242 227.179ZM204.255 228.578C203.872 228.578 203.554 228.7 203.301 228.945C203.052 229.19 202.908 229.575 202.869 230.099H205.628C205.623 229.807 205.57 229.547 205.466 229.319C205.368 229.091 205.217 228.911 205.015 228.777C204.818 228.644 204.564 228.578 204.255 228.578ZM169.278 240.179C170.09 240.179 170.745 240.495 171.244 241.127C171.747 241.758 171.998 242.684 171.998 243.904C171.998 244.721 171.88 245.408 171.644 245.967C171.407 246.521 171.081 246.94 170.664 247.224C170.247 247.507 169.768 247.649 169.227 247.649C168.878 247.649 168.58 247.606 168.331 247.52C168.081 247.43 167.869 247.316 167.693 247.179C167.516 247.037 167.364 246.886 167.235 246.727H167.132C167.166 246.899 167.192 247.076 167.209 247.256C167.226 247.436 167.235 247.613 167.235 247.785V250.691H165.269V240.314H166.868L167.145 241.249H167.235C167.364 241.056 167.521 240.877 167.705 240.714C167.89 240.551 168.111 240.422 168.369 240.327C168.631 240.228 168.934 240.179 169.278 240.179ZM168.646 241.752C168.303 241.752 168.03 241.823 167.828 241.964C167.626 242.106 167.478 242.319 167.383 242.602C167.293 242.886 167.244 243.245 167.235 243.679V243.892C167.235 244.356 167.278 244.749 167.364 245.071C167.454 245.393 167.602 245.638 167.809 245.806C168.019 245.973 168.307 246.057 168.672 246.057C168.973 246.057 169.22 245.973 169.413 245.806C169.607 245.638 169.751 245.393 169.845 245.071C169.944 244.744 169.994 244.347 169.994 243.879C169.994 243.174 169.884 242.643 169.665 242.287C169.446 241.93 169.106 241.752 168.646 241.752ZM180.699 243.904C180.699 244.506 180.617 245.039 180.454 245.503C180.295 245.967 180.061 246.36 179.751 246.682C179.446 247 179.077 247.241 178.643 247.404C178.213 247.568 177.727 247.649 177.186 247.649C176.679 247.649 176.213 247.568 175.787 247.404C175.366 247.241 174.999 247 174.685 246.682C174.376 246.36 174.135 245.967 173.963 245.503C173.796 245.039 173.712 244.506 173.712 243.904C173.712 243.105 173.854 242.428 174.137 241.874C174.421 241.32 174.825 240.899 175.349 240.611C175.873 240.323 176.498 240.179 177.225 240.179C177.899 240.179 178.497 240.323 179.016 240.611C179.541 240.899 179.951 241.32 180.248 241.874C180.548 242.428 180.699 243.105 180.699 243.904ZM175.716 243.904C175.716 244.377 175.768 244.775 175.871 245.097C175.974 245.419 176.135 245.662 176.355 245.825C176.574 245.988 176.859 246.07 177.212 246.07C177.56 246.07 177.841 245.988 178.056 245.825C178.275 245.662 178.434 245.419 178.533 245.097C178.636 244.775 178.688 244.377 178.688 243.904C178.688 243.427 178.636 243.032 178.533 242.719C178.434 242.401 178.275 242.162 178.056 242.003C177.837 241.844 177.551 241.765 177.199 241.765C176.679 241.765 176.301 241.943 176.064 242.3C175.832 242.656 175.716 243.191 175.716 243.904ZM184.817 240.314V247.52H182.851V240.314H184.817ZM183.837 237.491C184.129 237.491 184.381 237.56 184.591 237.698C184.802 237.831 184.907 238.082 184.907 238.452C184.907 238.817 184.802 239.07 184.591 239.212C184.381 239.35 184.129 239.419 183.837 239.419C183.541 239.419 183.287 239.35 183.076 239.212C182.87 239.07 182.767 238.817 182.767 238.452C182.767 238.082 182.87 237.831 183.076 237.698C183.287 237.56 183.541 237.491 183.837 237.491ZM191.506 240.179C192.276 240.179 192.894 240.39 193.363 240.811C193.831 241.227 194.065 241.898 194.065 242.822V247.52H192.099V243.311C192.099 242.796 192.005 242.407 191.816 242.145C191.631 241.883 191.339 241.752 190.939 241.752C190.338 241.752 189.927 241.956 189.708 242.364C189.489 242.772 189.379 243.361 189.379 244.13V247.52H187.414V240.314H188.915L189.18 241.236H189.289C189.444 240.987 189.635 240.785 189.863 240.63C190.095 240.476 190.351 240.362 190.63 240.289C190.913 240.216 191.206 240.179 191.506 240.179ZM199.653 246.083C199.868 246.083 200.076 246.061 200.278 246.019C200.484 245.976 200.688 245.922 200.89 245.857V247.32C200.68 247.415 200.418 247.492 200.104 247.552C199.795 247.617 199.455 247.649 199.086 247.649C198.656 247.649 198.269 247.58 197.925 247.443C197.586 247.301 197.317 247.058 197.12 246.715C196.926 246.367 196.83 245.883 196.83 245.264V241.79H195.889V240.959L196.972 240.302L197.539 238.78H198.796V240.314H200.813V241.79H198.796V245.264C198.796 245.539 198.873 245.746 199.028 245.883C199.187 246.016 199.395 246.083 199.653 246.083Z" fill="#333333"/>
<path d="M200.179 201.185V202.839L195.814 205.347L182.778 208.625V203.421L200.179 201.185Z" fill="#C78A0C"/>
<path d="M200.179 182.842V201.187L182.778 203.423V192.842L200.179 182.842Z" fill="#598F22"/>
<path d="M200.179 182.842L182.778 192.841L165.379 182.842L182.778 172.843L200.179 182.842Z" fill="#598F22"/>
<path d="M195.814 205.347L182.778 212.838V208.626L195.814 205.347Z" fill="#754C24"/>
<path d="M182.778 208.626V212.838L165.379 202.839V193.739L182.754 208.631L182.778 208.626Z" fill="#754C24"/>
<path d="M182.778 203.422V208.626L182.754 208.631L165.379 193.738V187.84L182.754 203.425L182.778 203.422Z" fill="#C78A0C"/>
<path d="M182.778 192.841V203.422L182.754 203.425L165.379 187.84V182.842L182.778 192.841Z" fill="#598F22"/>
<path d="M183.198 212.838H182.357V193.083L165.168 183.204L165.589 182.479L183.199 192.599L183.198 212.838Z" fill="#1D1D1B"/>
<path d="M199.969 182.479L182.568 192.48L182.989 193.205L200.389 183.204L199.969 182.479Z" fill="#1D1D1B"/>
<path d="M182.778 213.321L164.96 203.081V182.601L165.17 182.48L182.78 172.36L200.6 182.6V203.08L182.778 213.321ZM165.799 202.599L182.778 212.356L199.759 202.599V183.085L182.778 173.328L165.799 183.085V202.599Z" fill="#1D1D1B"/>
<path d="M182.642 209.087L165.104 194.056L165.654 193.421L182.864 208.172L195.711 204.941L195.915 205.754L182.849 209.04L182.642 209.087Z" fill="#1D1D1B"/>
<path d="M182.613 203.863L182.472 203.736L165.096 188.151L165.658 187.529L182.89 202.986L200.123 200.77L200.23 201.6L182.799 203.841L182.613 203.863Z" fill="#1D1D1B"/>
<rect x="242.51" y="146.95" width="110.22" height="97.02" rx="16.17" fill="#FAF0A7" stroke="#333333" stroke-width="1.98"/>
<path d="M254.95 217.385C254.568 217.385 254.228 217.46 253.932 217.61C253.64 217.756 253.393 217.969 253.191 218.248C252.993 218.527 252.843 218.865 252.74 219.26C252.636 219.655 252.585 220.1 252.585 220.594C252.585 221.26 252.667 221.83 252.83 222.302C252.997 222.771 253.255 223.129 253.603 223.379C253.951 223.624 254.4 223.746 254.95 223.746C255.333 223.746 255.715 223.703 256.098 223.617C256.484 223.531 256.903 223.409 257.354 223.25V224.926C256.938 225.097 256.527 225.22 256.123 225.293C255.719 225.37 255.266 225.409 254.763 225.409C253.792 225.409 252.993 225.209 252.366 224.81C251.743 224.406 251.281 223.843 250.98 223.121C250.679 222.395 250.529 221.548 250.529 220.581C250.529 219.868 250.626 219.215 250.819 218.622C251.012 218.029 251.296 217.516 251.67 217.082C252.043 216.648 252.505 216.312 253.055 216.076C253.605 215.84 254.237 215.722 254.95 215.722C255.419 215.722 255.887 215.782 256.355 215.902C256.828 216.018 257.279 216.179 257.709 216.385L257.064 218.01C256.712 217.842 256.358 217.696 256.001 217.571C255.644 217.447 255.294 217.385 254.95 217.385ZM266.287 221.664C266.287 222.266 266.205 222.799 266.042 223.263C265.883 223.727 265.649 224.12 265.34 224.442C265.035 224.76 264.665 225.001 264.231 225.164C263.801 225.327 263.316 225.409 262.774 225.409C262.267 225.409 261.801 225.327 261.376 225.164C260.955 225.001 260.587 224.76 260.274 224.442C259.964 224.12 259.724 223.727 259.552 223.263C259.384 222.799 259.3 222.266 259.3 221.664C259.3 220.865 259.442 220.188 259.726 219.634C260.009 219.08 260.413 218.659 260.937 218.371C261.462 218.083 262.087 217.939 262.813 217.939C263.488 217.939 264.085 218.083 264.605 218.371C265.129 218.659 265.539 219.08 265.836 219.634C266.137 220.188 266.287 220.865 266.287 221.664ZM261.305 221.664C261.305 222.137 261.356 222.534 261.46 222.857C261.563 223.179 261.724 223.422 261.943 223.585C262.162 223.748 262.448 223.83 262.8 223.83C263.148 223.83 263.43 223.748 263.645 223.585C263.864 223.422 264.023 223.179 264.121 222.857C264.225 222.534 264.276 222.137 264.276 221.664C264.276 221.187 264.225 220.792 264.121 220.478C264.023 220.16 263.864 219.922 263.645 219.763C263.425 219.604 263.14 219.524 262.787 219.524C262.267 219.524 261.889 219.703 261.653 220.059C261.421 220.416 261.305 220.951 261.305 221.664ZM272.532 217.939C273.301 217.939 273.92 218.149 274.388 218.57C274.857 218.987 275.091 219.658 275.091 220.581V225.28H273.125V221.071C273.125 220.556 273.031 220.167 272.841 219.905C272.657 219.643 272.365 219.511 271.965 219.511C271.363 219.511 270.953 219.716 270.734 220.124C270.515 220.532 270.405 221.121 270.405 221.89V225.28H268.439V218.074H269.941L270.205 218.996H270.315C270.47 218.747 270.661 218.545 270.889 218.39C271.121 218.235 271.376 218.121 271.656 218.048C271.939 217.975 272.231 217.939 272.532 217.939ZM282.67 223.14C282.67 223.63 282.554 224.045 282.322 224.384C282.094 224.719 281.753 224.975 281.297 225.151C280.842 225.323 280.275 225.409 279.596 225.409C279.093 225.409 278.661 225.377 278.3 225.312C277.943 225.248 277.583 225.14 277.217 224.99V223.366C277.608 223.542 278.027 223.688 278.474 223.804C278.925 223.916 279.321 223.972 279.66 223.972C280.043 223.972 280.315 223.916 280.479 223.804C280.646 223.688 280.73 223.538 280.73 223.353C280.73 223.233 280.696 223.125 280.627 223.031C280.562 222.932 280.421 222.822 280.201 222.702C279.982 222.577 279.639 222.416 279.17 222.219C278.719 222.029 278.347 221.838 278.055 221.645C277.767 221.452 277.552 221.224 277.411 220.962C277.273 220.695 277.204 220.358 277.204 219.95C277.204 219.284 277.462 218.783 277.978 218.448C278.498 218.109 279.192 217.939 280.06 217.939C280.507 217.939 280.932 217.984 281.336 218.074C281.744 218.164 282.163 218.308 282.593 218.506L282 219.924C281.643 219.769 281.306 219.643 280.988 219.544C280.674 219.445 280.354 219.395 280.027 219.395C279.74 219.395 279.523 219.434 279.376 219.511C279.23 219.589 279.157 219.707 279.157 219.866C279.157 219.982 279.194 220.085 279.267 220.175C279.344 220.266 279.49 220.367 279.705 220.478C279.924 220.586 280.244 220.725 280.666 220.897C281.074 221.065 281.428 221.241 281.729 221.426C282.03 221.606 282.262 221.832 282.425 222.102C282.588 222.369 282.67 222.715 282.67 223.14ZM291.28 221.664C291.28 222.266 291.199 222.799 291.036 223.263C290.877 223.727 290.642 224.12 290.333 224.442C290.028 224.76 289.658 225.001 289.224 225.164C288.795 225.327 288.309 225.409 287.768 225.409C287.261 225.409 286.795 225.327 286.369 225.164C285.948 225.001 285.581 224.76 285.267 224.442C284.958 224.12 284.717 223.727 284.545 223.263C284.378 222.799 284.294 222.266 284.294 221.664C284.294 220.865 284.436 220.188 284.719 219.634C285.003 219.08 285.407 218.659 285.931 218.371C286.455 218.083 287.08 217.939 287.806 217.939C288.481 217.939 289.078 218.083 289.598 218.371C290.122 218.659 290.533 219.08 290.829 219.634C291.13 220.188 291.28 220.865 291.28 221.664ZM286.298 221.664C286.298 222.137 286.35 222.534 286.453 222.857C286.556 223.179 286.717 223.422 286.936 223.585C287.155 223.748 287.441 223.83 287.794 223.83C288.142 223.83 288.423 223.748 288.638 223.585C288.857 223.422 289.016 223.179 289.115 222.857C289.218 222.534 289.27 222.137 289.27 221.664C289.27 221.187 289.218 220.792 289.115 220.478C289.016 220.16 288.857 219.922 288.638 219.763C288.419 219.604 288.133 219.524 287.781 219.524C287.261 219.524 286.883 219.703 286.646 220.059C286.414 220.416 286.298 220.951 286.298 221.664ZM295.399 225.28H293.433V215.251H295.399V225.28ZM299.961 218.074V225.28H297.995V218.074H299.961ZM298.982 215.251C299.274 215.251 299.525 215.32 299.736 215.457C299.946 215.591 300.052 215.842 300.052 216.211C300.052 216.577 299.946 216.83 299.736 216.972C299.525 217.11 299.274 217.178 298.982 217.178C298.685 217.178 298.432 217.11 298.221 216.972C298.015 216.83 297.912 216.577 297.912 216.211C297.912 215.842 298.015 215.591 298.221 215.457C298.432 215.32 298.685 215.251 298.982 215.251ZM304.84 225.409C304.036 225.409 303.381 225.095 302.874 224.468C302.371 223.836 302.12 222.91 302.12 221.69C302.12 220.457 302.376 219.524 302.887 218.893C303.398 218.257 304.066 217.939 304.891 217.939C305.235 217.939 305.538 217.986 305.8 218.081C306.062 218.175 306.288 218.302 306.477 218.461C306.67 218.62 306.834 218.798 306.967 218.996H307.031C307.005 218.858 306.973 218.656 306.935 218.39C306.9 218.119 306.883 217.842 306.883 217.559V215.251H308.855V225.28H307.347L306.967 224.345H306.883C306.758 224.543 306.602 224.724 306.413 224.887C306.228 225.046 306.006 225.173 305.749 225.267C305.491 225.362 305.188 225.409 304.84 225.409ZM305.53 223.843C306.067 223.843 306.445 223.684 306.664 223.366C306.887 223.044 307.005 222.56 307.018 221.916V221.703C307.018 221.002 306.911 220.468 306.696 220.098C306.481 219.724 306.082 219.537 305.497 219.537C305.063 219.537 304.724 219.724 304.479 220.098C304.234 220.472 304.112 221.011 304.112 221.716C304.112 222.42 304.234 222.951 304.479 223.308C304.728 223.664 305.078 223.843 305.53 223.843ZM314.391 217.926C315.358 217.926 316.099 218.136 316.615 218.558C317.131 218.979 317.388 219.619 317.388 220.478V225.28H316.016L315.635 224.3H315.584C315.377 224.558 315.167 224.769 314.952 224.932C314.737 225.095 314.49 225.216 314.211 225.293C313.932 225.37 313.592 225.409 313.192 225.409C312.767 225.409 312.385 225.327 312.045 225.164C311.71 225.001 311.446 224.752 311.252 224.416C311.059 224.077 310.962 223.647 310.962 223.127C310.962 222.362 311.231 221.8 311.768 221.439C312.305 221.073 313.111 220.871 314.185 220.833L315.435 220.794V220.478C315.435 220.1 315.337 219.823 315.139 219.647C314.941 219.471 314.666 219.383 314.314 219.383C313.966 219.383 313.624 219.432 313.289 219.531C312.954 219.63 312.619 219.754 312.284 219.905L311.633 218.577C312.015 218.375 312.443 218.216 312.915 218.1C313.392 217.984 313.884 217.926 314.391 217.926ZM315.435 221.941L314.675 221.967C314.039 221.984 313.596 222.098 313.347 222.309C313.102 222.519 312.98 222.796 312.98 223.14C312.98 223.441 313.068 223.656 313.244 223.785C313.42 223.909 313.65 223.972 313.934 223.972C314.355 223.972 314.709 223.847 314.997 223.598C315.289 223.349 315.435 222.994 315.435 222.534V221.941ZM322.982 223.843C323.197 223.843 323.406 223.821 323.608 223.778C323.814 223.735 324.018 223.682 324.22 223.617V225.08C324.009 225.175 323.747 225.252 323.434 225.312C323.124 225.377 322.785 225.409 322.415 225.409C321.986 225.409 321.599 225.34 321.255 225.203C320.916 225.061 320.647 224.818 320.449 224.474C320.256 224.126 320.159 223.643 320.159 223.024V219.55H319.218V218.719L320.301 218.061L320.868 216.54H322.125V218.074H324.143V219.55H322.125V223.024C322.125 223.299 322.202 223.505 322.357 223.643C322.516 223.776 322.725 223.843 322.982 223.843ZM328.177 218.074V225.28H326.211V218.074H328.177ZM327.197 215.251C327.489 215.251 327.741 215.32 327.951 215.457C328.162 215.591 328.267 215.842 328.267 216.211C328.267 216.577 328.162 216.83 327.951 216.972C327.741 217.11 327.489 217.178 327.197 217.178C326.901 217.178 326.647 217.11 326.437 216.972C326.23 216.83 326.127 216.577 326.127 216.211C326.127 215.842 326.23 215.591 326.437 215.457C326.647 215.32 326.901 215.251 327.197 215.251ZM337.322 221.664C337.322 222.266 337.241 222.799 337.077 223.263C336.918 223.727 336.684 224.12 336.375 224.442C336.07 224.76 335.7 225.001 335.266 225.164C334.836 225.327 334.351 225.409 333.809 225.409C333.302 225.409 332.836 225.327 332.411 225.164C331.99 225.001 331.622 224.76 331.309 224.442C330.999 224.12 330.759 223.727 330.587 223.263C330.419 222.799 330.335 222.266 330.335 221.664C330.335 220.865 330.477 220.188 330.761 219.634C331.044 219.08 331.448 218.659 331.973 218.371C332.497 218.083 333.122 217.939 333.848 217.939C334.523 217.939 335.12 218.083 335.64 218.371C336.164 218.659 336.575 219.08 336.871 219.634C337.172 220.188 337.322 220.865 337.322 221.664ZM332.34 221.664C332.34 222.137 332.392 222.534 332.495 222.857C332.598 223.179 332.759 223.422 332.978 223.585C333.197 223.748 333.483 223.83 333.835 223.83C334.183 223.83 334.465 223.748 334.68 223.585C334.899 223.422 335.058 223.179 335.157 222.857C335.26 222.534 335.311 222.137 335.311 221.664C335.311 221.187 335.26 220.792 335.157 220.478C335.058 220.16 334.899 219.922 334.68 219.763C334.46 219.604 334.175 219.524 333.822 219.524C333.302 219.524 332.924 219.703 332.688 220.059C332.456 220.416 332.34 220.951 332.34 221.664ZM343.567 217.939C344.336 217.939 344.955 218.149 345.423 218.57C345.892 218.987 346.126 219.658 346.126 220.581V225.28H344.16V221.071C344.16 220.556 344.066 220.167 343.877 219.905C343.692 219.643 343.4 219.511 343 219.511C342.398 219.511 341.988 219.716 341.769 220.124C341.55 220.532 341.44 221.121 341.44 221.89V225.28H339.474V218.074H340.976L341.24 218.996H341.35C341.505 218.747 341.696 218.545 341.924 218.39C342.156 218.235 342.411 218.121 342.691 218.048C342.974 217.975 343.266 217.939 343.567 217.939Z" fill="#333333"/>
<path d="M315.019 189.304V190.958L310.654 193.467L297.618 196.744V191.541L315.019 189.304Z" fill="#C78A0C"/>
<path d="M315.019 170.961V189.306L297.618 191.542V180.961L315.019 170.961Z" fill="#598F22"/>
<path d="M315.019 170.961L297.618 180.961L280.219 170.961L297.618 160.962L315.019 170.961Z" fill="#598F22"/>
<path d="M310.654 193.467L297.618 200.958V196.746L310.654 193.467Z" fill="#754C24"/>
<path d="M297.618 196.745V200.958L280.219 190.958V181.858L297.594 196.751L297.618 196.745Z" fill="#754C24"/>
<path d="M297.618 191.542V196.745L297.594 196.751L280.219 181.858V175.96L297.594 191.544L297.618 191.542Z" fill="#C78A0C"/>
<path d="M297.618 180.961V191.542L297.594 191.545L280.219 175.96V170.961L297.618 180.961Z" fill="#598F22"/>
<path d="M298.039 200.958H297.197V181.203L280.008 171.324L280.429 170.599L298.039 180.719L298.039 200.958Z" fill="#1D1D1B"/>
<path d="M314.809 170.599L297.409 180.599L297.83 181.325L315.23 171.324L314.809 170.599Z" fill="#1D1D1B"/>
<path d="M297.619 201.441L279.8 191.2V170.721L280.011 170.6L297.621 160.48L315.44 170.72V191.199L297.619 201.441ZM280.64 190.719L297.619 200.476L314.599 190.719V171.205L297.619 161.448L280.64 171.205V190.719Z" fill="#1D1D1B"/>
<path d="M297.483 197.207L279.944 182.175L280.494 181.541L297.704 196.292L310.551 193.061L310.756 193.874L297.689 197.16L297.483 197.207Z" fill="#1D1D1B"/>
<path d="M297.453 191.982L297.313 191.856L279.937 176.271L280.498 175.649L297.731 191.105L314.963 188.89L315.071 189.72L297.64 191.961L297.453 191.982Z" fill="#1D1D1B"/>
<path d="M296.96 244.96L296.96 289.84" stroke="#FD9850" stroke-width="2.64" stroke-dasharray="5.28 5.28"/>
<path d="M183.44 260.8L183.44 293.8" stroke="#FD9850" stroke-width="2.64" stroke-dasharray="5.28 5.28"/>
<path d="M413.12 268.72L413.12 310.96" stroke="#FD9850" stroke-width="2.64" stroke-dasharray="5.28 5.28"/>
<rect x="369.23" y="177.31" width="86.46" height="97.02" rx="16.17" fill="#FAF0A7" stroke="#333333" stroke-width="1.98"/>
<path d="M377.858 258.28V248.857H379.856V258.28H377.858ZM386.694 250.939C387.463 250.939 388.082 251.149 388.55 251.571C389.018 251.987 389.252 252.658 389.252 253.582V258.28H387.287V254.071C387.287 253.556 387.192 253.167 387.003 252.905C386.818 252.643 386.526 252.512 386.126 252.512C385.525 252.512 385.115 252.716 384.895 253.124C384.676 253.532 384.567 254.121 384.567 254.89V258.28H382.601V251.074H384.103L384.367 251.996H384.476C384.631 251.747 384.822 251.545 385.05 251.39C385.282 251.235 385.538 251.122 385.817 251.049C386.101 250.975 386.393 250.939 386.694 250.939ZM394.84 256.843C395.055 256.843 395.263 256.821 395.465 256.778C395.671 256.735 395.876 256.682 396.077 256.617V258.08C395.867 258.175 395.605 258.252 395.291 258.312C394.982 258.377 394.642 258.409 394.273 258.409C393.843 258.409 393.456 258.34 393.113 258.203C392.773 258.061 392.505 257.818 392.307 257.474C392.114 257.126 392.017 256.643 392.017 256.024V252.55H391.076V251.719L392.159 251.061L392.726 249.54H393.983V251.074H396V252.55H393.983V256.024C393.983 256.299 394.06 256.506 394.215 256.643C394.374 256.776 394.582 256.843 394.84 256.843ZM401.04 250.939C401.706 250.939 402.279 251.068 402.761 251.326C403.242 251.579 403.614 251.949 403.876 252.434C404.138 252.92 404.269 253.513 404.269 254.213V255.167H399.622C399.643 255.721 399.809 256.157 400.118 256.475C400.432 256.789 400.866 256.946 401.42 256.946C401.88 256.946 402.301 256.899 402.683 256.804C403.066 256.71 403.459 256.568 403.863 256.379V257.9C403.506 258.076 403.132 258.205 402.741 258.287C402.355 258.368 401.884 258.409 401.33 258.409C400.608 258.409 399.968 258.276 399.409 258.009C398.855 257.743 398.419 257.337 398.101 256.791C397.787 256.246 397.63 255.558 397.63 254.729C397.63 253.887 397.772 253.186 398.056 252.628C398.344 252.065 398.743 251.644 399.254 251.364C399.766 251.081 400.361 250.939 401.04 250.939ZM401.053 252.338C400.67 252.338 400.352 252.46 400.099 252.705C399.85 252.95 399.706 253.334 399.667 253.859H402.426C402.421 253.566 402.368 253.307 402.264 253.079C402.166 252.851 402.015 252.671 401.813 252.537C401.616 252.404 401.362 252.338 401.053 252.338ZM410.417 250.939C410.516 250.939 410.63 250.945 410.759 250.958C410.892 250.967 410.999 250.98 411.081 250.997L410.933 252.84C410.868 252.819 410.776 252.804 410.656 252.795C410.54 252.782 410.439 252.776 410.353 252.776C410.099 252.776 409.852 252.808 409.612 252.873C409.375 252.937 409.163 253.042 408.974 253.188C408.784 253.33 408.634 253.519 408.522 253.756C408.415 253.988 408.361 254.273 408.361 254.613V258.28H406.395V251.074H407.884L408.174 252.286H408.271C408.413 252.041 408.589 251.818 408.799 251.616C409.014 251.409 409.257 251.246 409.528 251.126C409.803 251.001 410.099 250.939 410.417 250.939ZM416.901 252.55H415.199V258.28H413.233V252.55H412.151V251.603L413.233 251.074V250.546C413.233 249.931 413.336 249.454 413.543 249.115C413.753 248.771 414.048 248.531 414.426 248.393C414.808 248.251 415.259 248.18 415.779 248.18C416.162 248.18 416.51 248.213 416.823 248.277C417.137 248.337 417.393 248.406 417.59 248.483L417.088 249.927C416.937 249.88 416.774 249.837 416.598 249.798C416.422 249.759 416.22 249.74 415.992 249.74C415.717 249.74 415.515 249.824 415.386 249.991C415.261 250.155 415.199 250.365 415.199 250.623V251.074H416.901V252.55ZM421.515 250.926C422.482 250.926 423.223 251.137 423.739 251.558C424.254 251.979 424.512 252.619 424.512 253.478V258.28H423.139L422.759 257.3H422.707C422.501 257.558 422.291 257.769 422.076 257.932C421.861 258.095 421.614 258.216 421.335 258.293C421.055 258.37 420.716 258.409 420.316 258.409C419.891 258.409 419.508 258.327 419.169 258.164C418.834 258.001 418.57 257.752 418.376 257.416C418.183 257.077 418.086 256.647 418.086 256.127C418.086 255.363 418.355 254.8 418.892 254.439C419.429 254.074 420.235 253.872 421.309 253.833L422.559 253.794V253.478C422.559 253.1 422.46 252.823 422.263 252.647C422.065 252.471 421.79 252.383 421.438 252.383C421.09 252.383 420.748 252.432 420.413 252.531C420.078 252.63 419.743 252.754 419.407 252.905L418.756 251.577C419.139 251.375 419.566 251.216 420.039 251.1C420.516 250.984 421.008 250.926 421.515 250.926ZM422.559 254.941L421.799 254.967C421.163 254.984 420.72 255.098 420.471 255.309C420.226 255.519 420.104 255.797 420.104 256.14C420.104 256.441 420.192 256.656 420.368 256.785C420.544 256.909 420.774 256.972 421.057 256.972C421.479 256.972 421.833 256.847 422.121 256.598C422.413 256.349 422.559 255.994 422.559 255.534V254.941ZM429.997 258.409C429.283 258.409 428.675 258.28 428.173 258.022C427.67 257.76 427.287 257.356 427.025 256.811C426.763 256.265 426.632 255.567 426.632 254.716C426.632 253.835 426.78 253.117 427.077 252.563C427.378 252.005 427.792 251.594 428.321 251.332C428.854 251.07 429.47 250.939 430.171 250.939C430.669 250.939 431.099 250.988 431.46 251.087C431.825 251.182 432.143 251.296 432.414 251.429L431.833 252.95C431.524 252.825 431.236 252.724 430.97 252.647C430.703 252.565 430.437 252.524 430.171 252.524C429.827 252.524 429.541 252.606 429.313 252.769C429.086 252.928 428.916 253.169 428.804 253.491C428.692 253.814 428.637 254.217 428.637 254.703C428.637 255.18 428.697 255.575 428.817 255.889C428.937 256.203 429.111 256.437 429.339 256.591C429.567 256.742 429.844 256.817 430.171 256.817C430.579 256.817 430.942 256.763 431.26 256.656C431.578 256.544 431.887 256.39 432.188 256.192V257.874C431.887 258.063 431.571 258.199 431.241 258.28C430.914 258.366 430.499 258.409 429.997 258.409ZM437.363 250.939C438.029 250.939 438.603 251.068 439.084 251.326C439.565 251.579 439.937 251.949 440.199 252.434C440.461 252.92 440.592 253.513 440.592 254.213V255.167H435.945C435.967 255.721 436.132 256.157 436.441 256.475C436.755 256.789 437.189 256.946 437.743 256.946C438.203 256.946 438.624 256.899 439.007 256.804C439.389 256.71 439.782 256.568 440.186 256.379V257.9C439.829 258.076 439.456 258.205 439.065 258.287C438.678 258.368 438.207 258.409 437.653 258.409C436.931 258.409 436.291 258.276 435.732 258.009C435.178 257.743 434.742 257.337 434.424 256.791C434.11 256.246 433.953 255.558 433.953 254.729C433.953 253.887 434.095 253.186 434.379 252.628C434.667 252.065 435.066 251.644 435.578 251.364C436.089 251.081 436.684 250.939 437.363 250.939ZM437.376 252.338C436.994 252.338 436.676 252.46 436.422 252.705C436.173 252.95 436.029 253.334 435.99 253.859H438.749C438.744 253.566 438.691 253.307 438.588 253.079C438.489 252.851 438.338 252.671 438.136 252.537C437.939 252.404 437.685 252.338 437.376 252.338ZM447.746 256.14C447.746 256.63 447.63 257.045 447.398 257.384C447.17 257.719 446.829 257.975 446.373 258.151C445.918 258.323 445.35 258.409 444.672 258.409C444.169 258.409 443.737 258.377 443.376 258.312C443.019 258.248 442.658 258.141 442.293 257.99V256.366C442.684 256.542 443.103 256.688 443.55 256.804C444.001 256.916 444.397 256.972 444.736 256.972C445.118 256.972 445.391 256.916 445.555 256.804C445.722 256.688 445.806 256.538 445.806 256.353C445.806 256.233 445.772 256.125 445.703 256.031C445.638 255.932 445.497 255.822 445.277 255.702C445.058 255.577 444.714 255.416 444.246 255.219C443.795 255.03 443.423 254.838 443.131 254.645C442.843 254.452 442.628 254.224 442.487 253.962C442.349 253.695 442.28 253.358 442.28 252.95C442.28 252.284 442.538 251.783 443.054 251.448C443.574 251.109 444.268 250.939 445.136 250.939C445.582 250.939 446.008 250.984 446.412 251.074C446.82 251.165 447.239 251.308 447.669 251.506L447.076 252.924C446.719 252.769 446.382 252.643 446.064 252.544C445.75 252.445 445.43 252.396 445.103 252.396C444.815 252.396 444.598 252.434 444.452 252.512C444.306 252.589 444.233 252.707 444.233 252.866C444.233 252.982 444.27 253.085 444.343 253.175C444.42 253.266 444.566 253.367 444.781 253.478C445 253.586 445.32 253.725 445.741 253.897C446.15 254.065 446.504 254.241 446.805 254.426C447.106 254.606 447.338 254.832 447.501 255.103C447.664 255.369 447.746 255.715 447.746 256.14Z" fill="#333333"/>
<path d="M429.859 223.625V225.279L425.494 227.787L412.458 231.064V225.861L429.859 223.625Z" fill="#C78A0C"/>
<path d="M429.859 205.282V223.627L412.458 225.863V215.281L429.859 205.282Z" fill="#598F22"/>
<path d="M429.859 205.282L412.458 215.281L395.058 205.282L412.458 195.283L429.859 205.282Z" fill="#598F22"/>
<path d="M425.494 227.787L412.458 235.278V231.066L425.494 227.787Z" fill="#754C24"/>
<path d="M412.458 231.066V235.278L395.059 225.279V216.179L412.434 231.071L412.458 231.066Z" fill="#754C24"/>
<path d="M412.458 225.862V231.065L412.434 231.071L395.059 216.178V210.28L412.434 225.865L412.458 225.862Z" fill="#C78A0C"/>
<path d="M412.458 215.281V225.862L412.434 225.865L395.059 210.28V205.282L412.458 215.281Z" fill="#598F22"/>
<path d="M412.878 235.278H412.037V215.523L394.848 205.644L395.269 204.919L412.879 215.039L412.878 235.278Z" fill="#1D1D1B"/>
<path d="M429.649 204.919L412.249 214.92L412.67 215.645L430.07 205.644L429.649 204.919Z" fill="#1D1D1B"/>
<path d="M412.459 235.761L394.64 225.52V205.041L394.85 204.92L412.461 194.8L430.28 205.04V225.519L412.459 235.761ZM395.48 225.039L412.459 234.796L429.439 225.039V205.525L412.459 195.768L395.48 205.525V225.039Z" fill="#1D1D1B"/>
<path d="M412.323 231.527L394.785 216.496L395.334 215.861L412.544 230.612L425.392 227.381L425.596 228.194L412.53 231.48L412.323 231.527Z" fill="#1D1D1B"/>
<path d="M412.294 226.303L412.153 226.176L394.777 210.591L395.338 209.969L412.571 225.425L429.803 223.21L429.911 224.04L412.48 226.281L412.294 226.303Z" fill="#1D1D1B"/>
<path d="M123.2 317.2C165.573 305.084 198.014 295.742 262.235 296.897C326.455 298.052 382.9 317.2 468.8 314.916" stroke="#FD9850" stroke-width="6.6"/>
<circle cx="183.8" cy="302.2" r="7.68" fill="white" stroke="#FD9850" stroke-width="2.64"/>
<circle cx="296.6" cy="298.6" r="7.68" fill="white" stroke="#FD9850" stroke-width="2.64"/>
<circle cx="413" cy="314.2" r="7.68" fill="white" stroke="#FD9850" stroke-width="2.64"/>
<rect x="582.6" y="189.6" width="7.2" height="163.2" fill="#6C6C6C"/>
<path fill-rule="evenodd" clip-rule="evenodd" d="M559.8 358.081H612.609C608.165 347.909 598.015 340.8 586.205 340.8C574.394 340.8 564.244 347.909 559.8 358.081Z" fill="#6C6C6C"/>
<rect x="545.1" y="138.9" width="78.6" height="88.2" rx="14.7" fill="#FAF0A7" stroke="#333333" stroke-width="1.8"/>
<rect x="556.2" y="356.4" width="60" height="4.8" rx="2.4" fill="#565656"/>
<path d="M571.493 200.6H569.677V193.545H567.35V192.034H573.819V193.545H571.493V200.6ZM581.43 197.313C581.43 197.86 581.356 198.344 581.207 198.766C581.063 199.188 580.85 199.545 580.569 199.838C580.291 200.127 579.955 200.346 579.561 200.495C579.17 200.643 578.729 200.717 578.237 200.717C577.776 200.717 577.352 200.643 576.965 200.495C576.582 200.346 576.248 200.127 575.963 199.838C575.682 199.545 575.463 199.188 575.307 198.766C575.155 198.344 575.078 197.86 575.078 197.313C575.078 196.586 575.207 195.971 575.465 195.467C575.723 194.963 576.09 194.581 576.567 194.319C577.043 194.057 577.612 193.926 578.272 193.926C578.885 193.926 579.428 194.057 579.901 194.319C580.377 194.581 580.75 194.963 581.02 195.467C581.293 195.971 581.43 196.586 581.43 197.313ZM576.901 197.313C576.901 197.743 576.948 198.104 577.041 198.397C577.135 198.69 577.282 198.911 577.481 199.059C577.68 199.208 577.94 199.282 578.26 199.282C578.576 199.282 578.832 199.208 579.028 199.059C579.227 198.911 579.371 198.69 579.461 198.397C579.555 198.104 579.602 197.743 579.602 197.313C579.602 196.879 579.555 196.52 579.461 196.235C579.371 195.946 579.227 195.729 579.028 195.584C578.828 195.44 578.569 195.368 578.248 195.368C577.776 195.368 577.432 195.53 577.217 195.854C577.006 196.178 576.901 196.665 576.901 197.313ZM588.771 191.483V193.604C588.771 193.85 588.763 194.094 588.747 194.336C588.736 194.579 588.72 194.766 588.701 194.899H588.771C588.943 194.629 589.177 194.401 589.474 194.213C589.771 194.022 590.156 193.926 590.628 193.926C591.363 193.926 591.958 194.213 592.415 194.788C592.872 195.362 593.101 196.204 593.101 197.313C593.101 198.059 592.995 198.686 592.785 199.194C592.574 199.698 592.279 200.079 591.9 200.336C591.521 200.59 591.081 200.717 590.581 200.717C590.101 200.717 589.722 200.631 589.445 200.459C589.167 200.288 588.943 200.094 588.771 199.879H588.648L588.349 200.6H586.984V191.483H588.771ZM590.054 195.356C589.742 195.356 589.494 195.42 589.31 195.549C589.126 195.678 588.992 195.872 588.906 196.129C588.824 196.387 588.779 196.713 588.771 197.108V197.301C588.771 197.938 588.865 198.426 589.052 198.766C589.24 199.102 589.581 199.27 590.077 199.27C590.445 199.27 590.736 199.1 590.951 198.76C591.169 198.42 591.279 197.93 591.279 197.29C591.279 196.649 591.169 196.167 590.951 195.842C590.732 195.518 590.433 195.356 590.054 195.356ZM597.759 193.926C598.364 193.926 598.886 194.043 599.323 194.278C599.761 194.508 600.099 194.844 600.337 195.286C600.575 195.727 600.694 196.266 600.694 196.903V197.77H596.47C596.489 198.274 596.64 198.67 596.921 198.959C597.206 199.245 597.6 199.387 598.104 199.387C598.522 199.387 598.905 199.344 599.253 199.258C599.6 199.172 599.958 199.043 600.325 198.872V200.254C600.001 200.415 599.661 200.532 599.306 200.606C598.954 200.68 598.526 200.717 598.022 200.717C597.366 200.717 596.784 200.596 596.276 200.354C595.772 200.112 595.376 199.743 595.087 199.247C594.802 198.75 594.659 198.125 594.659 197.372C594.659 196.606 594.788 195.969 595.046 195.461C595.308 194.95 595.671 194.567 596.136 194.313C596.6 194.055 597.141 193.926 597.759 193.926ZM597.77 195.198C597.423 195.198 597.134 195.309 596.903 195.532C596.677 195.754 596.546 196.104 596.511 196.581H599.018C599.015 196.315 598.966 196.079 598.872 195.872C598.782 195.665 598.645 195.5 598.462 195.379C598.282 195.258 598.052 195.198 597.77 195.198ZM555.662 212.717C555.013 212.717 554.46 212.6 554.003 212.366C553.546 212.127 553.199 211.76 552.96 211.264C552.722 210.768 552.603 210.133 552.603 209.36C552.603 208.559 552.738 207.907 553.007 207.403C553.281 206.895 553.658 206.522 554.138 206.284C554.623 206.045 555.183 205.926 555.82 205.926C556.273 205.926 556.664 205.971 556.992 206.061C557.324 206.147 557.613 206.25 557.859 206.372L557.332 207.754C557.05 207.641 556.789 207.549 556.546 207.479C556.304 207.405 556.062 207.368 555.82 207.368C555.507 207.368 555.248 207.442 555.041 207.59C554.834 207.735 554.679 207.954 554.578 208.247C554.476 208.54 554.425 208.907 554.425 209.348C554.425 209.782 554.48 210.141 554.589 210.426C554.699 210.711 554.857 210.924 555.064 211.065C555.271 211.202 555.523 211.27 555.82 211.27C556.191 211.27 556.521 211.221 556.81 211.124C557.099 211.022 557.38 210.881 557.654 210.702V212.231C557.38 212.403 557.093 212.526 556.793 212.6C556.496 212.678 556.119 212.717 555.662 212.717ZM565.61 209.313C565.61 209.86 565.536 210.344 565.388 210.766C565.243 211.188 565.03 211.545 564.749 211.838C564.472 212.127 564.136 212.346 563.741 212.495C563.351 212.643 562.909 212.717 562.417 212.717C561.956 212.717 561.532 212.643 561.146 212.495C560.763 212.346 560.429 212.127 560.144 211.838C559.862 211.545 559.644 211.188 559.487 210.766C559.335 210.344 559.259 209.86 559.259 209.313C559.259 208.586 559.388 207.971 559.646 207.467C559.903 206.963 560.271 206.581 560.747 206.319C561.224 206.057 561.792 205.926 562.452 205.926C563.065 205.926 563.608 206.057 564.081 206.319C564.558 206.581 564.931 206.963 565.2 207.467C565.474 207.971 565.61 208.586 565.61 209.313ZM561.081 209.313C561.081 209.743 561.128 210.104 561.222 210.397C561.315 210.69 561.462 210.911 561.661 211.059C561.86 211.208 562.12 211.282 562.44 211.282C562.757 211.282 563.013 211.208 563.208 211.059C563.407 210.911 563.552 210.69 563.642 210.397C563.735 210.104 563.782 209.743 563.782 209.313C563.782 208.879 563.735 208.52 563.642 208.235C563.552 207.946 563.407 207.729 563.208 207.584C563.009 207.44 562.749 207.368 562.429 207.368C561.956 207.368 561.612 207.53 561.398 207.854C561.187 208.178 561.081 208.665 561.081 209.313ZM571.288 205.926C571.987 205.926 572.549 206.118 572.975 206.5C573.401 206.879 573.614 207.489 573.614 208.329V212.6H571.827V208.774C571.827 208.305 571.741 207.952 571.569 207.713C571.401 207.475 571.135 207.356 570.772 207.356C570.225 207.356 569.852 207.542 569.653 207.913C569.454 208.284 569.354 208.819 569.354 209.518V212.6H567.567V206.049H568.932L569.172 206.887H569.272C569.413 206.661 569.586 206.477 569.794 206.336C570.004 206.196 570.237 206.092 570.491 206.026C570.749 205.959 571.014 205.926 571.288 205.926ZM578.693 211.293C578.889 211.293 579.078 211.274 579.262 211.235C579.449 211.196 579.635 211.147 579.818 211.088V212.418C579.627 212.504 579.389 212.575 579.104 212.629C578.822 212.688 578.514 212.717 578.178 212.717C577.787 212.717 577.436 212.655 577.123 212.53C576.815 212.401 576.57 212.18 576.391 211.868C576.215 211.551 576.127 211.112 576.127 210.549V207.391H575.272V206.635L576.256 206.038L576.772 204.655H577.914V206.049H579.748V207.391H577.914V210.549C577.914 210.799 577.984 210.987 578.125 211.112C578.27 211.233 578.459 211.293 578.693 211.293ZM583.416 206.049V212.6H581.629V206.049H583.416ZM582.525 203.483C582.791 203.483 583.019 203.545 583.211 203.67C583.402 203.792 583.498 204.02 583.498 204.356C583.498 204.688 583.402 204.918 583.211 205.047C583.019 205.172 582.791 205.235 582.525 205.235C582.255 205.235 582.025 205.172 581.834 205.047C581.646 204.918 581.552 204.688 581.552 204.356C581.552 204.02 581.646 203.792 581.834 203.67C582.025 203.545 582.255 203.483 582.525 203.483ZM589.497 205.926C590.196 205.926 590.759 206.118 591.185 206.5C591.61 206.879 591.823 207.489 591.823 208.329V212.6H590.036V208.774C590.036 208.305 589.95 207.952 589.778 207.713C589.61 207.475 589.345 207.356 588.982 207.356C588.435 207.356 588.062 207.542 587.862 207.913C587.663 208.284 587.564 208.819 587.564 209.518V212.6H585.776V206.049H587.142L587.382 206.887H587.482C587.622 206.661 587.796 206.477 588.003 206.336C588.214 206.196 588.446 206.092 588.7 206.026C588.958 205.959 589.224 205.926 589.497 205.926ZM600.155 206.049V212.6H598.784L598.544 211.762H598.45C598.309 211.985 598.133 212.167 597.923 212.307C597.712 212.448 597.479 212.551 597.225 212.618C596.971 212.684 596.708 212.717 596.434 212.717C595.965 212.717 595.557 212.635 595.21 212.471C594.862 212.303 594.59 212.043 594.395 211.692C594.204 211.34 594.108 210.883 594.108 210.321V206.049H595.895V209.875C595.895 210.344 595.979 210.698 596.147 210.936C596.315 211.174 596.583 211.293 596.95 211.293C597.313 211.293 597.598 211.211 597.805 211.047C598.012 210.879 598.157 210.635 598.239 210.315C598.325 209.991 598.368 209.596 598.368 209.131V206.049H600.155ZM605.211 205.926C605.817 205.926 606.338 206.043 606.776 206.278C607.213 206.508 607.551 206.844 607.789 207.286C608.028 207.727 608.147 208.266 608.147 208.903V209.77H603.922C603.942 210.274 604.092 210.67 604.373 210.959C604.658 211.245 605.053 211.387 605.557 211.387C605.975 211.387 606.358 211.344 606.705 211.258C607.053 211.172 607.41 211.043 607.778 210.872V212.254C607.453 212.415 607.113 212.532 606.758 212.606C606.406 212.68 605.979 212.717 605.475 212.717C604.819 212.717 604.236 212.596 603.729 212.354C603.225 212.112 602.828 211.743 602.539 211.247C602.254 210.75 602.111 210.125 602.111 209.372C602.111 208.606 602.24 207.969 602.498 207.461C602.76 206.95 603.123 206.567 603.588 206.313C604.053 206.055 604.594 205.926 605.211 205.926ZM605.223 207.198C604.875 207.198 604.586 207.309 604.356 207.532C604.129 207.754 603.998 208.104 603.963 208.581H606.471C606.467 208.315 606.418 208.079 606.324 207.872C606.235 207.665 606.098 207.5 605.914 207.379C605.735 207.258 605.504 207.198 605.223 207.198ZM612.154 212.717C611.424 212.717 610.828 212.432 610.367 211.862C609.91 211.288 609.681 210.446 609.681 209.336C609.681 208.215 609.914 207.368 610.379 206.793C610.843 206.215 611.451 205.926 612.201 205.926C612.513 205.926 612.789 205.969 613.027 206.055C613.265 206.141 613.47 206.256 613.642 206.401C613.818 206.545 613.966 206.708 614.088 206.887H614.146C614.123 206.762 614.093 206.579 614.058 206.336C614.027 206.09 614.011 205.838 614.011 205.581V203.483H615.804V212.6H614.433L614.088 211.75H614.011C613.898 211.93 613.756 212.094 613.584 212.243C613.416 212.387 613.215 212.502 612.98 212.588C612.746 212.674 612.47 212.717 612.154 212.717ZM612.781 211.293C613.269 211.293 613.613 211.149 613.812 210.86C614.015 210.567 614.123 210.127 614.134 209.542V209.348C614.134 208.711 614.037 208.225 613.841 207.889C613.646 207.549 613.283 207.379 612.752 207.379C612.357 207.379 612.049 207.549 611.826 207.889C611.603 208.229 611.492 208.719 611.492 209.36C611.492 210 611.603 210.483 611.826 210.807C612.052 211.131 612.371 211.293 612.781 211.293Z" fill="#333333"/>
<path d="M600.217 175.004V176.508L596.248 178.788L584.398 181.767V177.037L600.217 175.004Z" fill="#C78A0C"/>
<path d="M600.217 158.328V175.006L584.398 177.038V167.419L600.217 158.328Z" fill="#598F22"/>
<path d="M600.217 158.328L584.398 167.419L568.58 158.328L584.398 149.239L600.217 158.328Z" fill="#598F22"/>
<path d="M596.248 178.788L584.398 185.598V181.769L596.248 178.788Z" fill="#754C24"/>
<path d="M584.398 181.768V185.598L568.58 176.507V168.235L584.377 181.773L584.398 181.768Z" fill="#754C24"/>
<path d="M584.398 177.038V181.768L584.377 181.773L568.58 168.234V162.872L584.377 177.04L584.398 177.038Z" fill="#C78A0C"/>
<path d="M584.398 167.419V177.038L584.377 177.041L568.58 162.872V158.328L584.398 167.419Z" fill="#598F22"/>
<path d="M584.78 185.598H584.015V167.639L568.389 158.658L568.772 157.999L584.781 167.199L584.78 185.598Z" fill="#1D1D1B"/>
<path d="M600.026 157.999L584.208 167.09L584.59 167.75L600.409 158.658L600.026 157.999Z" fill="#1D1D1B"/>
<path d="M584.399 186.037L568.2 176.728V158.11L568.391 158L584.4 148.8L600.6 158.109V176.727L584.399 186.037ZM568.963 176.29L584.399 185.16L599.835 176.29V158.55L584.399 149.68L568.963 158.55V176.29Z" fill="#1D1D1B"/>
<path d="M584.275 182.188L568.331 168.523L568.83 167.946L584.476 181.356L596.156 178.419L596.341 179.158L584.463 182.145L584.275 182.188Z" fill="#1D1D1B"/>
<path d="M584.249 177.439L584.12 177.323L568.324 163.156L568.835 162.59L584.501 176.641L600.166 174.627L600.264 175.382L584.418 177.419L584.249 177.439Z" fill="#1D1D1B"/>
</g>
<defs>
<clipPath id="clip0_1864_14555">
<rect width="660" height="398" fill="white"/>
</clipPath>
</defs>
</svg>
