<svg width="660" height="398" viewBox="0 0 660 398" fill="none" xmlns="http://www.w3.org/2000/svg">
<g clip-path="url(#clip0_1864_14555)">
<rect width="660" height="398" fill="#FFF2D4"/>
<path fill-rule="evenodd" clip-rule="evenodd" d="M180.208 109.563H151.969C151.957 109.563 151.944 109.563 151.932 109.563C151.92 109.563 151.907 109.563 151.895 109.563H126.093C126.078 109.563 126.064 109.563 126.049 109.563C126.034 109.563 126.019 109.563 126.004 109.563H124.242V109.456C116.783 108.564 111 102.215 111 94.5148C111 86.2037 117.738 79.4662 126.049 79.4662C126.403 79.4662 126.754 79.4784 127.101 79.5024C129.336 67.8249 139.603 59 151.932 59C163.558 59 173.351 66.8474 176.303 77.5343C177.559 77.2234 178.872 77.0583 180.224 77.0583C189.2 77.0583 196.476 84.3349 196.476 93.3109C196.476 101.677 190.156 108.566 182.029 109.464V109.563H180.24C180.234 109.563 180.229 109.563 180.224 109.563C180.218 109.563 180.213 109.563 180.208 109.563Z" fill="white"/>
<path fill-rule="evenodd" clip-rule="evenodd" d="M634.79 109.492C629.839 108.9 626 104.685 626 99.5743C626 94.0575 630.472 89.5852 635.989 89.5852C636.224 89.5852 636.457 89.5933 636.688 89.6093C638.171 81.8579 644.987 76 653.17 76C660.887 76 667.388 81.209 669.348 88.3029C670.181 88.0965 671.053 87.9869 671.95 87.9869C677.908 87.9869 682.738 92.817 682.738 98.7752C682.738 104.328 678.543 108.901 673.148 109.498V109.563H635.998C635.995 109.563 635.992 109.563 635.989 109.563C635.986 109.563 635.983 109.563 635.98 109.563H634.79V109.492Z" fill="white"/>
<rect y="329" width="1500" height="69" fill="#9A9A9A"/>
<path d="M2.18557e-07 361.5C-1.38071 361.5 -2.5 362.619 -2.5 364C-2.5 365.381 -1.38071 366.5 -2.18557e-07 366.5L2.18557e-07 361.5ZM9.86842 366.5C11.2491 366.5 12.3684 365.381 12.3684 364C12.3684 362.619 11.2491 361.5 9.86842 361.5L9.86842 366.5ZM29.6053 361.5C28.2246 361.5 27.1053 362.619 27.1053 364C27.1053 365.381 28.2246 366.5 29.6053 366.5L29.6053 361.5ZM49.3421 366.5C50.7228 366.5 51.8421 365.381 51.8421 364C51.8421 362.619 50.7228 361.5 49.3421 361.5L49.3421 366.5ZM69.0789 361.5C67.6982 361.5 66.5789 362.619 66.5789 364C66.5789 365.381 67.6982 366.5 69.0789 366.5L69.0789 361.5ZM88.8158 366.5C90.1965 366.5 91.3158 365.381 91.3158 364C91.3158 362.619 90.1965 361.5 88.8158 361.5L88.8158 366.5ZM108.553 361.5C107.172 361.5 106.053 362.619 106.053 364C106.053 365.381 107.172 366.5 108.553 366.5L108.553 361.5ZM128.289 366.5C129.67 366.5 130.789 365.381 130.789 364C130.789 362.619 129.67 361.5 128.289 361.5L128.289 366.5ZM148.026 361.5C146.646 361.5 145.526 362.619 145.526 364C145.526 365.381 146.646 366.5 148.026 366.5L148.026 361.5ZM167.763 366.5C169.144 366.5 170.263 365.381 170.263 364C170.263 362.619 169.144 361.5 167.763 361.5L167.763 366.5ZM187.5 361.5C186.119 361.5 185 362.619 185 364C185 365.381 186.119 366.5 187.5 366.5L187.5 361.5ZM207.237 366.5C208.618 366.5 209.737 365.381 209.737 364C209.737 362.619 208.618 361.5 207.237 361.5L207.237 366.5ZM226.974 361.5C225.593 361.5 224.474 362.619 224.474 364C224.474 365.381 225.593 366.5 226.974 366.5L226.974 361.5ZM246.711 366.5C248.091 366.5 249.211 365.381 249.211 364C249.211 362.619 248.091 361.5 246.711 361.5L246.711 366.5ZM266.447 361.5C265.067 361.5 263.947 362.619 263.947 364C263.947 365.381 265.067 366.5 266.447 366.5L266.447 361.5ZM286.184 366.5C287.565 366.5 288.684 365.381 288.684 364C288.684 362.619 287.565 361.5 286.184 361.5L286.184 366.5ZM305.921 361.5C304.54 361.5 303.421 362.619 303.421 364C303.421 365.381 304.54 366.5 305.921 366.5L305.921 361.5ZM325.658 366.5C327.039 366.5 328.158 365.381 328.158 364C328.158 362.619 327.039 361.5 325.658 361.5L325.658 366.5ZM345.395 361.5C344.014 361.5 342.895 362.619 342.895 364C342.895 365.381 344.014 366.5 345.395 366.5L345.395 361.5ZM365.132 366.5C366.512 366.5 367.632 365.381 367.632 364C367.632 362.619 366.512 361.5 365.132 361.5L365.132 366.5ZM384.868 361.5C383.488 361.5 382.368 362.619 382.368 364C382.368 365.381 383.488 366.5 384.868 366.5L384.868 361.5ZM404.605 366.5C405.986 366.5 407.105 365.381 407.105 364C407.105 362.619 405.986 361.5 404.605 361.5L404.605 366.5ZM424.342 361.5C422.961 361.5 421.842 362.619 421.842 364C421.842 365.381 422.961 366.5 424.342 366.5L424.342 361.5ZM444.079 366.5C445.46 366.5 446.579 365.381 446.579 364C446.579 362.619 445.46 361.5 444.079 361.5L444.079 366.5ZM463.816 361.5C462.435 361.5 461.316 362.619 461.316 364C461.316 365.381 462.435 366.5 463.816 366.5L463.816 361.5ZM483.553 366.5C484.933 366.5 486.053 365.381 486.053 364C486.053 362.619 484.933 361.5 483.553 361.5L483.553 366.5ZM503.29 361.5C501.909 361.5 500.79 362.619 500.79 364C500.79 365.381 501.909 366.5 503.29 366.5L503.29 361.5ZM523.026 366.5C524.407 366.5 525.526 365.381 525.526 364C525.526 362.619 524.407 361.5 523.026 361.5L523.026 366.5ZM542.763 361.5C541.383 361.5 540.263 362.619 540.263 364C540.263 365.381 541.383 366.5 542.763 366.5L542.763 361.5ZM562.5 366.5C563.881 366.5 565 365.381 565 364C565 362.619 563.881 361.5 562.5 361.5L562.5 366.5ZM582.237 361.5C580.856 361.5 579.737 362.619 579.737 364C579.737 365.381 580.856 366.5 582.237 366.5L582.237 361.5ZM601.974 366.5C603.354 366.5 604.474 365.381 604.474 364C604.474 362.619 603.354 361.5 601.974 361.5L601.974 366.5ZM621.71 361.5C620.33 361.5 619.21 362.619 619.21 364C619.21 365.381 620.33 366.5 621.71 366.5L621.71 361.5ZM641.447 366.5C642.828 366.5 643.947 365.381 643.947 364C643.947 362.619 642.828 361.5 641.447 361.5L641.447 366.5ZM661.184 361.5C659.803 361.5 658.684 362.619 658.684 364C658.684 365.381 659.803 366.5 661.184 366.5L661.184 361.5ZM680.921 366.5C682.302 366.5 683.421 365.381 683.421 364C683.421 362.619 682.302 361.5 680.921 361.5L680.921 366.5ZM700.658 361.5C699.277 361.5 698.158 362.619 698.158 364C698.158 365.381 699.277 366.5 700.658 366.5L700.658 361.5ZM720.395 366.5C721.775 366.5 722.895 365.381 722.895 364C722.895 362.619 721.775 361.5 720.395 361.5L720.395 366.5ZM740.131 361.5C738.751 361.5 737.631 362.619 737.631 364C737.631 365.381 738.751 366.5 740.131 366.5L740.131 361.5ZM759.868 366.5C761.249 366.5 762.368 365.381 762.368 364C762.368 362.619 761.249 361.5 759.868 361.5L759.868 366.5ZM779.605 361.5C778.224 361.5 777.105 362.619 777.105 364C777.105 365.381 778.224 366.5 779.605 366.5L779.605 361.5ZM799.342 366.5C800.723 366.5 801.842 365.381 801.842 364C801.842 362.619 800.723 361.5 799.342 361.5L799.342 366.5ZM819.079 361.5C817.698 361.5 816.579 362.619 816.579 364C816.579 365.381 817.698 366.5 819.079 366.5L819.079 361.5ZM838.815 366.5C840.196 366.5 841.315 365.381 841.315 364C841.315 362.619 840.196 361.5 838.815 361.5L838.815 366.5ZM858.552 361.5C857.172 361.5 856.052 362.619 856.052 364C856.052 365.381 857.172 366.5 858.552 366.5L858.552 361.5ZM878.289 366.5C879.67 366.5 880.789 365.381 880.789 364C880.789 362.619 879.67 361.5 878.289 361.5L878.289 366.5ZM898.026 361.5C896.645 361.5 895.526 362.619 895.526 364C895.526 365.381 896.645 366.5 898.026 366.5L898.026 361.5ZM917.763 366.5C919.143 366.5 920.263 365.381 920.263 364C920.263 362.619 919.143 361.5 917.763 361.5L917.763 366.5ZM937.5 361.5C936.119 361.5 935 362.619 935 364C935 365.381 936.119 366.5 937.5 366.5L937.5 361.5ZM957.236 366.5C958.617 366.5 959.736 365.381 959.736 364C959.736 362.619 958.617 361.5 957.236 361.5L957.236 366.5ZM976.973 361.5C975.592 361.5 974.473 362.619 974.473 364C974.473 365.381 975.592 366.5 976.973 366.5L976.973 361.5ZM996.71 366.5C998.091 366.5 999.21 365.381 999.21 364C999.21 362.619 998.091 361.5 996.71 361.5L996.71 366.5ZM1016.45 361.5C1015.07 361.5 1013.95 362.619 1013.95 364C1013.95 365.381 1015.07 366.5 1016.45 366.5L1016.45 361.5ZM1036.18 366.5C1037.56 366.5 1038.68 365.381 1038.68 364C1038.68 362.619 1037.56 361.5 1036.18 361.5L1036.18 366.5ZM1055.92 361.5C1054.54 361.5 1053.42 362.619 1053.42 364C1053.42 365.381 1054.54 366.5 1055.92 366.5L1055.92 361.5ZM1075.66 366.5C1077.04 366.5 1078.16 365.381 1078.16 364C1078.16 362.619 1077.04 361.5 1075.66 361.5L1075.66 366.5ZM1095.39 361.5C1094.01 361.5 1092.89 362.619 1092.89 364C1092.89 365.381 1094.01 366.5 1095.39 366.5L1095.39 361.5ZM1115.13 366.5C1116.51 366.5 1117.63 365.381 1117.63 364C1117.63 362.619 1116.51 361.5 1115.13 361.5L1115.13 366.5ZM1134.87 361.5C1133.49 361.5 1132.37 362.619 1132.37 364C1132.37 365.381 1133.49 366.5 1134.87 366.5L1134.87 361.5ZM1154.6 366.5C1155.99 366.5 1157.1 365.381 1157.1 364C1157.1 362.619 1155.99 361.5 1154.6 361.5L1154.6 366.5ZM1174.34 361.5C1172.96 361.5 1171.84 362.619 1171.84 364C1171.84 365.381 1172.96 366.5 1174.34 366.5L1174.34 361.5ZM1194.08 366.5C1195.46 366.5 1196.58 365.381 1196.58 364C1196.58 362.619 1195.46 361.5 1194.08 361.5L1194.08 366.5ZM1213.81 361.5C1212.43 361.5 1211.31 362.619 1211.31 364C1211.31 365.381 1212.43 366.5 1213.81 366.5L1213.81 361.5ZM1233.55 366.5C1234.93 366.5 1236.05 365.381 1236.05 364C1236.05 362.619 1234.93 361.5 1233.55 361.5L1233.55 366.5ZM1253.29 361.5C1251.91 361.5 1250.79 362.619 1250.79 364C1250.79 365.381 1251.91 366.5 1253.29 366.5L1253.29 361.5ZM1273.03 366.5C1274.41 366.5 1275.53 365.381 1275.53 364C1275.53 362.619 1274.41 361.5 1273.03 361.5L1273.03 366.5ZM1292.76 361.5C1291.38 361.5 1290.26 362.619 1290.26 364C1290.26 365.381 1291.38 366.5 1292.76 366.5L1292.76 361.5ZM1312.5 366.5C1313.88 366.5 1315 365.381 1315 364C1315 362.619 1313.88 361.5 1312.5 361.5L1312.5 366.5ZM1332.24 361.5C1330.86 361.5 1329.74 362.619 1329.74 364C1329.74 365.381 1330.86 366.5 1332.24 366.5L1332.24 361.5ZM1351.97 366.5C1353.35 366.5 1354.47 365.381 1354.47 364C1354.47 362.619 1353.35 361.5 1351.97 361.5L1351.97 366.5ZM1371.71 361.5C1370.33 361.5 1369.21 362.619 1369.21 364C1369.21 365.381 1370.33 366.5 1371.71 366.5L1371.71 361.5ZM1391.45 366.5C1392.83 366.5 1393.95 365.381 1393.95 364C1393.95 362.619 1392.83 361.5 1391.45 361.5L1391.45 366.5ZM1411.18 361.5C1409.8 361.5 1408.68 362.619 1408.68 364C1408.68 365.381 1409.8 366.5 1411.18 366.5L1411.18 361.5ZM1430.92 366.5C1432.3 366.5 1433.42 365.381 1433.42 364C1433.42 362.619 1432.3 361.5 1430.92 361.5L1430.92 366.5ZM1450.66 361.5C1449.28 361.5 1448.16 362.619 1448.16 364C1448.16 365.381 1449.28 366.5 1450.66 366.5L1450.66 361.5ZM1470.39 366.5C1471.77 366.5 1472.89 365.381 1472.89 364C1472.89 362.619 1471.77 361.5 1470.39 361.5L1470.39 366.5ZM1490.13 361.5C1488.75 361.5 1487.63 362.619 1487.63 364C1487.63 365.381 1488.75 366.5 1490.13 366.5L1490.13 361.5ZM-2.18557e-07 366.5L9.86842 366.5L9.86842 361.5L2.18557e-07 361.5L-2.18557e-07 366.5ZM29.6053 366.5L49.3421 366.5L49.3421 361.5L29.6053 361.5L29.6053 366.5ZM69.0789 366.5L88.8158 366.5L88.8158 361.5L69.0789 361.5L69.0789 366.5ZM108.553 366.5L128.289 366.5L128.289 361.5L108.553 361.5L108.553 366.5ZM148.026 366.5L167.763 366.5L167.763 361.5L148.026 361.5L148.026 366.5ZM187.5 366.5L207.237 366.5L207.237 361.5L187.5 361.5L187.5 366.5ZM226.974 366.5L246.711 366.5L246.711 361.5L226.974 361.5L226.974 366.5ZM266.447 366.5L286.184 366.5L286.184 361.5L266.447 361.5L266.447 366.5ZM305.921 366.5L325.658 366.5L325.658 361.5L305.921 361.5L305.921 366.5ZM345.395 366.5L365.132 366.5L365.132 361.5L345.395 361.5L345.395 366.5ZM384.868 366.5L404.605 366.5L404.605 361.5L384.868 361.5L384.868 366.5ZM424.342 366.5L444.079 366.5L444.079 361.5L424.342 361.5L424.342 366.5ZM463.816 366.5L483.553 366.5L483.553 361.5L463.816 361.5L463.816 366.5ZM503.29 366.5L523.026 366.5L523.026 361.5L503.29 361.5L503.29 366.5ZM542.763 366.5L562.5 366.5L562.5 361.5L542.763 361.5L542.763 366.5ZM582.237 366.5L601.974 366.5L601.974 361.5L582.237 361.5L582.237 366.5ZM621.71 366.5L641.447 366.5L641.447 361.5L621.71 361.5L621.71 366.5ZM661.184 366.5L680.921 366.5L680.921 361.5L661.184 361.5L661.184 366.5ZM700.658 366.5L720.395 366.5L720.395 361.5L700.658 361.5L700.658 366.5ZM740.131 366.5L759.868 366.5L759.868 361.5L740.131 361.5L740.131 366.5ZM779.605 366.5L799.342 366.5L799.342 361.5L779.605 361.5L779.605 366.5ZM819.079 366.5L838.815 366.5L838.815 361.5L819.079 361.5L819.079 366.5ZM858.552 366.5L878.289 366.5L878.289 361.5L858.552 361.5L858.552 366.5ZM898.026 366.5L917.763 366.5L917.763 361.5L898.026 361.5L898.026 366.5ZM937.5 366.5L957.236 366.5L957.236 361.5L937.5 361.5L937.5 366.5ZM976.973 366.5L996.71 366.5L996.71 361.5L976.973 361.5L976.973 366.5ZM1016.45 366.5L1036.18 366.5L1036.18 361.5L1016.45 361.5L1016.45 366.5ZM1055.92 366.5L1075.66 366.5L1075.66 361.5L1055.92 361.5L1055.92 366.5ZM1095.39 366.5L1115.13 366.5L1115.13 361.5L1095.39 361.5L1095.39 366.5ZM1134.87 366.5L1154.6 366.5L1154.6 361.5L1134.87 361.5L1134.87 366.5ZM1174.34 366.5L1194.08 366.5L1194.08 361.5L1174.34 361.5L1174.34 366.5ZM1213.81 366.5L1233.55 366.5L1233.55 361.5L1213.81 361.5L1213.81 366.5ZM1253.29 366.5L1273.03 366.5L1273.03 361.5L1253.29 361.5L1253.29 366.5ZM1292.76 366.5L1312.5 366.5L1312.5 361.5L1292.76 361.5L1292.76 366.5ZM1332.24 366.5L1351.97 366.5L1351.97 361.5L1332.24 361.5L1332.24 366.5ZM1371.71 366.5L1391.45 366.5L1391.45 361.5L1371.71 361.5L1371.71 366.5ZM1411.18 366.5L1430.92 366.5L1430.92 361.5L1411.18 361.5L1411.18 366.5ZM1450.66 366.5L1470.39 366.5L1470.39 361.5L1450.66 361.5L1450.66 366.5ZM1490.13 366.5L1500 366.5L1500 361.5L1490.13 361.5L1490.13 366.5Z" fill="#FEC955"/>
<path fill-rule="evenodd" clip-rule="evenodd" d="M91.9929 47.515C92.259 47.5288 92.5268 47.5357 92.7963 47.5357C101.233 47.5357 108.072 40.6965 108.072 32.2598C108.072 23.8231 101.233 16.9839 92.7963 16.9839C91.9148 16.9839 91.0507 17.0585 90.21 17.2019C86.8734 9.50448 79.2073 4.11986 70.2835 4.11986C68.4783 4.11986 66.7245 4.34021 65.0477 4.75548C61.1044 -9.51852 48.0242 -20 32.4958 -20C15.0815 -20 0.746008 -6.81783 -1.07644 10.1123C-3.14326 9.35646 -5.3755 8.94399 -7.70408 8.94399C-18.3609 8.94399 -27 17.5831 -27 28.2399C-27 38.8968 -18.3609 47.5358 -7.70408 47.5358C-6.60786 47.5358 -5.53299 47.4444 -4.48668 47.2688V47.5359H91.9929V47.515Z" fill="white"/>
<path fill-rule="evenodd" clip-rule="evenodd" d="M580.208 64.5634H551.969C551.957 64.5634 551.944 64.5634 551.932 64.5634C551.92 64.5634 551.907 64.5634 551.895 64.5634H526.093C526.078 64.5634 526.064 64.5635 526.049 64.5635C526.034 64.5635 526.019 64.5634 526.004 64.5634H524.242V64.4562C516.783 63.5639 511 57.2147 511 49.5148C511 41.2037 517.738 34.4662 526.049 34.4662C526.403 34.4662 526.754 34.4784 527.101 34.5024C529.336 22.8249 539.603 14 551.932 14C563.558 14 573.351 21.8474 576.303 32.5343C577.559 32.2234 578.872 32.0583 580.224 32.0583C589.2 32.0583 596.476 39.3349 596.476 48.3109C596.476 56.6766 590.156 63.5661 582.029 64.4643V64.5634H580.24C580.234 64.5634 580.229 64.5634 580.224 64.5634C580.218 64.5634 580.213 64.5634 580.208 64.5634Z" fill="white"/>
<rect x="62" y="86.5601" width="469.92" height="21.12" fill="#626463"/>
<rect x="77.84" y="107.68" width="14.52" height="241.56" fill="#626463"/>
<rect x="498.92" y="107.68" width="14.52" height="241.56" fill="#626463"/>
<rect x="62.0002" y="76" width="469.92" height="10.56" fill="#8F908C"/>
<rect x="110.84" y="107.68" width="368.28" height="229.68" fill="#626463"/>
<rect x="122.72" y="107.68" width="345.84" height="215.16" fill="#DBE9F0"/>
<path opacity="0.3" d="M123.2 179.2V107.8H231.2L123.2 179.2Z" fill="#A1C5DD"/>
<path opacity="0.3" d="M468.8 231.4L468.8 322.6L360.8 322.6L468.8 231.4Z" fill="#A1C5DD"/>
<path d="M143.302 124.265H148.06V130.483C147.431 130.691 146.777 130.858 146.099 130.984C145.421 131.104 144.653 131.164 143.794 131.164C142.602 131.164 141.59 130.929 140.759 130.459C139.928 129.988 139.296 129.294 138.864 128.375C138.432 127.456 138.216 126.327 138.216 124.987C138.216 123.729 138.457 122.641 138.938 121.722C139.425 120.804 140.133 120.093 141.063 119.589C141.998 119.086 143.138 118.835 144.483 118.835C145.118 118.835 145.744 118.903 146.362 119.04C146.98 119.177 147.54 119.354 148.044 119.573L147.199 121.607C146.832 121.421 146.414 121.266 145.944 121.14C145.473 121.014 144.981 120.951 144.467 120.951C143.729 120.951 143.086 121.121 142.539 121.46C141.998 121.799 141.577 122.275 141.276 122.887C140.981 123.494 140.833 124.211 140.833 125.036C140.833 125.818 140.94 126.513 141.153 127.12C141.366 127.721 141.702 128.195 142.162 128.539C142.621 128.878 143.22 129.048 143.958 129.048C144.319 129.048 144.623 129.031 144.869 128.998C145.12 128.96 145.356 128.922 145.574 128.884V126.382H143.302V124.265ZM159.588 126.398C159.588 127.164 159.484 127.842 159.277 128.432C159.074 129.023 158.776 129.523 158.382 129.934C157.994 130.338 157.524 130.645 156.972 130.852C156.425 131.06 155.807 131.164 155.118 131.164C154.472 131.164 153.879 131.06 153.338 130.852C152.802 130.645 152.334 130.338 151.935 129.934C151.541 129.523 151.235 129.023 151.016 128.432C150.803 127.842 150.696 127.164 150.696 126.398C150.696 125.381 150.877 124.52 151.238 123.814C151.598 123.109 152.113 122.573 152.78 122.206C153.447 121.84 154.243 121.657 155.167 121.657C156.025 121.657 156.786 121.84 157.447 122.206C158.114 122.573 158.637 123.109 159.014 123.814C159.397 124.52 159.588 125.381 159.588 126.398ZM153.247 126.398C153.247 127 153.313 127.505 153.444 127.916C153.575 128.326 153.78 128.635 154.059 128.843C154.338 129.05 154.702 129.154 155.15 129.154C155.593 129.154 155.952 129.05 156.225 128.843C156.504 128.635 156.706 128.326 156.832 127.916C156.963 127.505 157.029 127 157.029 126.398C157.029 125.791 156.963 125.288 156.832 124.889C156.706 124.484 156.504 124.18 156.225 123.978C155.946 123.776 155.582 123.675 155.134 123.675C154.472 123.675 153.991 123.902 153.69 124.355C153.395 124.809 153.247 125.49 153.247 126.398ZM167.253 123.707H165.087V131H162.585V123.707H161.207V122.502L162.585 121.829V121.156C162.585 120.374 162.717 119.767 162.979 119.335C163.247 118.898 163.622 118.591 164.103 118.416C164.59 118.236 165.164 118.146 165.826 118.146C166.312 118.146 166.755 118.187 167.155 118.269C167.554 118.345 167.879 118.433 168.131 118.531L167.491 120.369C167.3 120.309 167.092 120.254 166.867 120.205C166.643 120.155 166.386 120.131 166.096 120.131C165.746 120.131 165.489 120.237 165.325 120.451C165.167 120.659 165.087 120.927 165.087 121.255V121.829H167.253V123.707ZM173.006 121.657C173.854 121.657 174.584 121.821 175.197 122.149C175.809 122.471 176.282 122.942 176.616 123.56C176.949 124.178 177.116 124.932 177.116 125.824V127.038H171.202C171.229 127.743 171.44 128.298 171.833 128.703C172.233 129.102 172.785 129.302 173.49 129.302C174.076 129.302 174.611 129.242 175.098 129.121C175.585 129.001 176.085 128.821 176.599 128.58V130.516C176.145 130.74 175.67 130.904 175.172 131.008C174.68 131.112 174.081 131.164 173.376 131.164C172.457 131.164 171.642 130.995 170.931 130.655C170.226 130.316 169.67 129.8 169.266 129.105C168.867 128.411 168.667 127.536 168.667 126.48C168.667 125.408 168.847 124.517 169.208 123.806C169.575 123.089 170.083 122.554 170.734 122.198C171.385 121.837 172.142 121.657 173.006 121.657ZM173.023 123.437C172.536 123.437 172.131 123.593 171.809 123.904C171.492 124.216 171.308 124.705 171.259 125.373H174.77C174.765 125.001 174.696 124.67 174.565 124.38C174.439 124.09 174.248 123.861 173.991 123.691C173.739 123.521 173.417 123.437 173.023 123.437ZM184.797 121.657C184.923 121.657 185.068 121.665 185.232 121.681C185.402 121.692 185.538 121.709 185.642 121.73L185.454 124.077C185.372 124.049 185.254 124.03 185.101 124.019C184.953 124.003 184.825 123.995 184.715 123.995C184.393 123.995 184.078 124.036 183.772 124.118C183.471 124.2 183.2 124.334 182.96 124.52C182.719 124.7 182.528 124.941 182.386 125.241C182.249 125.537 182.181 125.9 182.181 126.332V131H179.679V121.829H181.573L181.943 123.371H182.066C182.246 123.059 182.47 122.775 182.738 122.518C183.012 122.255 183.321 122.048 183.665 121.895C184.015 121.736 184.393 121.657 184.797 121.657ZM191.989 135.036C191.705 135.036 191.41 135.014 191.103 134.97C190.797 134.932 190.543 134.886 190.34 134.831V132.862C190.543 132.917 190.734 132.955 190.915 132.977C191.09 133.004 191.289 133.018 191.513 133.018C191.853 133.018 192.14 132.922 192.375 132.731C192.61 132.545 192.728 132.176 192.728 131.623V121.829H195.229V131.993C195.229 132.55 195.123 133.059 194.91 133.518C194.696 133.983 194.352 134.352 193.876 134.626C193.4 134.899 192.771 135.036 191.989 135.036ZM192.621 119.458C192.621 118.988 192.752 118.668 193.015 118.498C193.283 118.323 193.605 118.236 193.983 118.236C194.354 118.236 194.674 118.323 194.942 118.498C195.21 118.668 195.344 118.988 195.344 119.458C195.344 119.923 195.21 120.246 194.942 120.426C194.674 120.601 194.354 120.689 193.983 120.689C193.605 120.689 193.283 120.601 193.015 120.426C192.752 120.246 192.621 119.923 192.621 119.458ZM206.725 126.398C206.725 127.164 206.621 127.842 206.413 128.432C206.211 129.023 205.913 129.523 205.519 129.934C205.131 130.338 204.661 130.645 204.108 130.852C203.561 131.06 202.943 131.164 202.254 131.164C201.609 131.164 201.016 131.06 200.474 130.852C199.938 130.645 199.471 130.338 199.072 129.934C198.678 129.523 198.372 129.023 198.153 128.432C197.94 127.842 197.833 127.164 197.833 126.398C197.833 125.381 198.013 124.52 198.374 123.814C198.735 123.109 199.249 122.573 199.916 122.206C200.584 121.84 201.379 121.657 202.304 121.657C203.162 121.657 203.922 121.84 204.584 122.206C205.251 122.573 205.773 123.109 206.151 123.814C206.534 124.52 206.725 125.381 206.725 126.398ZM200.384 126.398C200.384 127 200.45 127.505 200.581 127.916C200.712 128.326 200.917 128.635 201.196 128.843C201.475 129.05 201.839 129.154 202.287 129.154C202.73 129.154 203.088 129.05 203.362 128.843C203.641 128.635 203.843 128.326 203.969 127.916C204.1 127.505 204.166 127 204.166 126.398C204.166 125.791 204.1 125.288 203.969 124.889C203.843 124.484 203.641 124.18 203.362 123.978C203.083 123.776 202.719 123.675 202.271 123.675C201.609 123.675 201.128 123.902 200.827 124.355C200.532 124.809 200.384 125.49 200.384 126.398ZM217.737 121.829V131H215.817L215.481 129.827H215.35C215.153 130.139 214.907 130.393 214.611 130.59C214.316 130.787 213.991 130.932 213.635 131.025C213.28 131.118 212.91 131.164 212.528 131.164C211.871 131.164 211.3 131.049 210.813 130.82C210.326 130.584 209.946 130.221 209.673 129.729C209.405 129.236 209.271 128.596 209.271 127.809V121.829H211.773V127.186C211.773 127.842 211.891 128.337 212.126 128.67C212.361 129.004 212.735 129.171 213.25 129.171C213.758 129.171 214.157 129.056 214.447 128.826C214.737 128.591 214.939 128.249 215.054 127.801C215.175 127.347 215.235 126.795 215.235 126.144V121.829H217.737ZM226.008 121.657C226.134 121.657 226.279 121.665 226.443 121.681C226.613 121.692 226.749 121.709 226.853 121.73L226.665 124.077C226.583 124.049 226.465 124.03 226.312 124.019C226.164 124.003 226.036 123.995 225.926 123.995C225.604 123.995 225.289 124.036 224.983 124.118C224.682 124.2 224.412 124.334 224.171 124.52C223.93 124.7 223.739 124.941 223.597 125.241C223.46 125.537 223.392 125.9 223.392 126.332V131H220.89V121.829H222.785L223.154 123.371H223.277C223.457 123.059 223.681 122.775 223.949 122.518C224.223 122.255 224.532 122.048 224.876 121.895C225.226 121.736 225.604 121.657 226.008 121.657ZM234.256 121.657C235.234 121.657 236.022 121.925 236.618 122.461C237.214 122.991 237.512 123.844 237.512 125.02V131H235.01V125.643C235.01 124.987 234.89 124.492 234.649 124.159C234.414 123.825 234.042 123.658 233.534 123.658C232.768 123.658 232.246 123.918 231.967 124.437C231.688 124.957 231.549 125.706 231.549 126.685V131H229.047V121.829H230.958L231.294 123.002H231.434C231.631 122.685 231.874 122.428 232.164 122.231C232.459 122.034 232.784 121.889 233.14 121.796C233.501 121.703 233.873 121.657 234.256 121.657ZM244.398 121.657C245.245 121.657 245.975 121.821 246.588 122.149C247.2 122.471 247.673 122.942 248.007 123.56C248.341 124.178 248.507 124.932 248.507 125.824V127.038H242.593C242.62 127.743 242.831 128.298 243.225 128.703C243.624 129.102 244.176 129.302 244.882 129.302C245.467 129.302 246.003 129.242 246.489 129.121C246.976 129.001 247.477 128.821 247.991 128.58V130.516C247.537 130.74 247.061 130.904 246.563 131.008C246.071 131.112 245.472 131.164 244.767 131.164C243.848 131.164 243.033 130.995 242.322 130.655C241.617 130.316 241.062 129.8 240.657 129.105C240.258 128.411 240.058 127.536 240.058 126.48C240.058 125.408 240.239 124.517 240.6 123.806C240.966 123.089 241.475 122.554 242.125 122.198C242.776 121.837 243.534 121.657 244.398 121.657ZM244.414 123.437C243.927 123.437 243.523 123.593 243.2 123.904C242.883 124.216 242.7 124.705 242.65 125.373H246.161C246.156 125.001 246.087 124.67 245.956 124.38C245.83 124.09 245.639 123.861 245.382 123.691C245.13 123.521 244.808 123.437 244.414 123.437ZM249.757 121.829H252.497L254.228 126.989C254.283 127.153 254.329 127.32 254.367 127.489C254.406 127.659 254.438 127.834 254.466 128.014C254.493 128.195 254.515 128.383 254.531 128.58H254.581C254.613 128.285 254.657 128.009 254.712 127.752C254.772 127.495 254.846 127.24 254.933 126.989L256.631 121.829H259.314L255.434 132.173C255.199 132.807 254.892 133.335 254.515 133.756C254.138 134.183 253.703 134.503 253.211 134.716C252.724 134.929 252.188 135.036 251.603 135.036C251.319 135.036 251.072 135.02 250.865 134.987C250.657 134.959 250.479 134.929 250.331 134.896V132.911C250.446 132.939 250.591 132.963 250.766 132.985C250.941 133.007 251.124 133.018 251.316 133.018C251.666 133.018 251.967 132.944 252.218 132.796C252.47 132.649 252.68 132.449 252.85 132.198C253.019 131.952 253.153 131.681 253.252 131.386L253.399 130.934L249.757 121.829Z" fill="#333333"/>
<path opacity="0.5" d="M150.2 322.6H123.2L359.6 107.8H385.4L150.2 322.6Z" fill="white"/>
<path opacity="0.5" d="M306.8 322.6H255.2L468.2 131.2V175.6L306.8 322.6Z" fill="white"/>
<path opacity="0.5" d="M424.245 323.2H410L468.8 270.4V282.648L424.245 323.2Z" fill="white"/>
<path opacity="0.6" d="M177.2 322.6H167.6L404 107.8H412.4L177.2 322.6Z" fill="white"/>
<path d="M230.44 245L230.44 289.88" stroke="#FD9850" stroke-width="2.64" stroke-dasharray="5.28 5.28"/>
<path d="M376.12 263.72L376.12 305.96" stroke="#FD9850" stroke-width="2.64" stroke-dasharray="5.28 5.28"/>
<rect x="332.31" y="171.99" width="86.46" height="97.02" rx="16.17" fill="#FAF0A7" stroke="#333333" stroke-width="1.98"/>
<path d="M340.937 252.96V243.537H342.935V252.96H340.937ZM349.773 245.619C350.543 245.619 351.161 245.829 351.63 246.25C352.098 246.667 352.332 247.337 352.332 248.261V252.96H350.366V248.751C350.366 248.236 350.272 247.847 350.083 247.585C349.898 247.322 349.606 247.191 349.206 247.191C348.605 247.191 348.194 247.396 347.975 247.804C347.756 248.212 347.646 248.801 347.646 249.57V252.96H345.681V245.754H347.182L347.447 246.676H347.556C347.711 246.427 347.902 246.225 348.13 246.07C348.362 245.915 348.618 245.801 348.897 245.728C349.18 245.655 349.473 245.619 349.773 245.619ZM357.92 251.523C358.135 251.523 358.343 251.501 358.545 251.458C358.751 251.415 358.955 251.362 359.157 251.297V252.76C358.947 252.855 358.685 252.932 358.371 252.992C358.062 253.057 357.722 253.089 357.353 253.089C356.923 253.089 356.536 253.02 356.192 252.883C355.853 252.741 355.584 252.498 355.387 252.154C355.193 251.806 355.097 251.323 355.097 250.704V247.23H354.156V246.399L355.239 245.741L355.806 244.22H357.063V245.754H359.08V247.23H357.063V250.704C357.063 250.979 357.14 251.185 357.295 251.323C357.454 251.456 357.662 251.523 357.92 251.523ZM364.12 245.619C364.786 245.619 365.359 245.748 365.841 246.005C366.322 246.259 366.694 246.629 366.956 247.114C367.218 247.6 367.349 248.193 367.349 248.893V249.847H362.702C362.723 250.401 362.889 250.837 363.198 251.155C363.512 251.469 363.946 251.626 364.5 251.626C364.96 251.626 365.381 251.579 365.763 251.484C366.146 251.389 366.539 251.248 366.943 251.059V252.58C366.586 252.756 366.212 252.885 365.821 252.966C365.435 253.048 364.964 253.089 364.41 253.089C363.688 253.089 363.048 252.956 362.489 252.689C361.935 252.423 361.499 252.017 361.181 251.471C360.867 250.925 360.71 250.238 360.71 249.409C360.71 248.566 360.852 247.866 361.136 247.307C361.423 246.745 361.823 246.323 362.334 246.044C362.846 245.761 363.441 245.619 364.12 245.619ZM364.133 247.017C363.75 247.017 363.432 247.14 363.179 247.385C362.929 247.63 362.786 248.014 362.747 248.538H365.505C365.501 248.246 365.447 247.986 365.344 247.759C365.245 247.531 365.095 247.35 364.893 247.217C364.695 247.084 364.442 247.017 364.133 247.017ZM373.497 245.619C373.596 245.619 373.71 245.625 373.839 245.638C373.972 245.647 374.079 245.66 374.161 245.677L374.013 247.52C373.948 247.499 373.856 247.484 373.736 247.475C373.62 247.462 373.519 247.456 373.433 247.456C373.179 247.456 372.932 247.488 372.691 247.552C372.455 247.617 372.242 247.722 372.053 247.868C371.864 248.01 371.714 248.199 371.602 248.435C371.495 248.667 371.441 248.953 371.441 249.293V252.96H369.475V245.754H370.964L371.254 246.966H371.351C371.493 246.721 371.669 246.497 371.879 246.296C372.094 246.089 372.337 245.926 372.608 245.806C372.883 245.681 373.179 245.619 373.497 245.619ZM379.981 247.23H378.279V252.96H376.313V247.23H375.23V246.283L376.313 245.754V245.226C376.313 244.611 376.416 244.134 376.623 243.795C376.833 243.451 377.127 243.21 377.506 243.073C377.888 242.931 378.339 242.86 378.859 242.86C379.242 242.86 379.59 242.892 379.903 242.957C380.217 243.017 380.473 243.086 380.67 243.163L380.167 244.607C380.017 244.56 379.854 244.517 379.678 244.478C379.501 244.439 379.3 244.42 379.072 244.42C378.797 244.42 378.595 244.504 378.466 244.671C378.341 244.835 378.279 245.045 378.279 245.303V245.754H379.981V247.23ZM384.595 245.606C385.562 245.606 386.303 245.816 386.819 246.237C387.334 246.659 387.592 247.299 387.592 248.158V252.96H386.219L385.839 251.98H385.787C385.581 252.238 385.37 252.449 385.156 252.612C384.941 252.775 384.694 252.896 384.414 252.973C384.135 253.05 383.796 253.089 383.396 253.089C382.971 253.089 382.588 253.007 382.249 252.844C381.914 252.681 381.649 252.431 381.456 252.096C381.263 251.757 381.166 251.327 381.166 250.807C381.166 250.042 381.435 249.479 381.972 249.119C382.509 248.753 383.314 248.551 384.389 248.513L385.639 248.474V248.158C385.639 247.78 385.54 247.503 385.343 247.327C385.145 247.151 384.87 247.062 384.518 247.062C384.17 247.062 383.828 247.112 383.493 247.211C383.158 247.31 382.822 247.434 382.487 247.585L381.836 246.257C382.219 246.055 382.646 245.896 383.119 245.78C383.596 245.664 384.088 245.606 384.595 245.606ZM385.639 249.621L384.878 249.647C384.243 249.664 383.8 249.778 383.551 249.989C383.306 250.199 383.183 250.476 383.183 250.82C383.183 251.121 383.271 251.336 383.448 251.465C383.624 251.589 383.854 251.652 384.137 251.652C384.558 251.652 384.913 251.527 385.201 251.278C385.493 251.029 385.639 250.674 385.639 250.214V249.621ZM393.076 253.089C392.363 253.089 391.755 252.96 391.252 252.702C390.75 252.44 390.367 252.036 390.105 251.49C389.843 250.945 389.712 250.246 389.712 249.396C389.712 248.515 389.86 247.797 390.157 247.243C390.457 246.684 390.872 246.274 391.401 246.012C391.933 245.75 392.55 245.619 393.25 245.619C393.749 245.619 394.179 245.668 394.539 245.767C394.905 245.862 395.223 245.975 395.493 246.109L394.913 247.63C394.604 247.505 394.316 247.404 394.05 247.327C393.783 247.245 393.517 247.204 393.25 247.204C392.907 247.204 392.621 247.286 392.393 247.449C392.165 247.608 391.996 247.849 391.884 248.171C391.772 248.493 391.716 248.897 391.716 249.383C391.716 249.86 391.777 250.255 391.897 250.569C392.017 250.882 392.191 251.117 392.419 251.271C392.647 251.422 392.924 251.497 393.25 251.497C393.659 251.497 394.022 251.443 394.34 251.336C394.658 251.224 394.967 251.069 395.268 250.872V252.554C394.967 252.743 394.651 252.878 394.32 252.96C393.994 253.046 393.579 253.089 393.076 253.089ZM400.443 245.619C401.109 245.619 401.683 245.748 402.164 246.005C402.645 246.259 403.017 246.629 403.279 247.114C403.541 247.6 403.672 248.193 403.672 248.893V249.847H399.025C399.046 250.401 399.212 250.837 399.521 251.155C399.835 251.469 400.269 251.626 400.823 251.626C401.283 251.626 401.704 251.579 402.086 251.484C402.469 251.389 402.862 251.248 403.266 251.059V252.58C402.909 252.756 402.535 252.885 402.144 252.966C401.758 253.048 401.287 253.089 400.733 253.089C400.011 253.089 399.371 252.956 398.812 252.689C398.258 252.423 397.822 252.017 397.504 251.471C397.19 250.925 397.033 250.238 397.033 249.409C397.033 248.566 397.175 247.866 397.459 247.307C397.747 246.745 398.146 246.323 398.658 246.044C399.169 245.761 399.764 245.619 400.443 245.619ZM400.456 247.017C400.073 247.017 399.755 247.14 399.502 247.385C399.253 247.63 399.109 248.014 399.07 248.538H401.829C401.824 248.246 401.771 247.986 401.667 247.759C401.569 247.531 401.418 247.35 401.216 247.217C401.019 247.084 400.765 247.017 400.456 247.017ZM410.826 250.82C410.826 251.31 410.71 251.725 410.478 252.064C410.25 252.399 409.908 252.655 409.453 252.831C408.997 253.003 408.43 253.089 407.751 253.089C407.249 253.089 406.817 253.057 406.456 252.992C406.099 252.928 405.738 252.82 405.373 252.67V251.046C405.764 251.222 406.183 251.368 406.63 251.484C407.081 251.596 407.476 251.652 407.816 251.652C408.198 251.652 408.471 251.596 408.634 251.484C408.802 251.368 408.886 251.218 408.886 251.033C408.886 250.912 408.851 250.805 408.783 250.711C408.718 250.612 408.576 250.502 408.357 250.382C408.138 250.257 407.794 250.096 407.326 249.898C406.875 249.709 406.503 249.518 406.211 249.325C405.923 249.131 405.708 248.904 405.566 248.642C405.429 248.375 405.36 248.038 405.36 247.63C405.36 246.964 405.618 246.463 406.134 246.128C406.654 245.788 407.347 245.619 408.215 245.619C408.662 245.619 409.088 245.664 409.492 245.754C409.9 245.844 410.319 245.988 410.748 246.186L410.155 247.604C409.799 247.449 409.462 247.322 409.144 247.224C408.83 247.125 408.51 247.075 408.183 247.075C407.895 247.075 407.678 247.114 407.532 247.191C407.386 247.269 407.313 247.387 407.313 247.546C407.313 247.662 407.35 247.765 407.423 247.855C407.5 247.946 407.646 248.046 407.861 248.158C408.08 248.266 408.4 248.405 408.821 248.577C409.229 248.745 409.584 248.921 409.885 249.106C410.186 249.286 410.418 249.512 410.581 249.782C410.744 250.049 410.826 250.395 410.826 250.82Z" fill="#333333"/>
<path d="M392.939 218.305V219.959L388.573 222.467L375.538 225.744V220.541L392.939 218.305Z" fill="#C78A0C"/>
<path d="M392.939 199.961V218.307L375.538 220.543V209.961L392.939 199.961Z" fill="#598F22"/>
<path d="M392.939 199.962L375.538 209.961L358.138 199.962L375.538 189.963L392.939 199.962Z" fill="#598F22"/>
<path d="M388.573 222.467L375.538 229.958V225.746L388.573 222.467Z" fill="#754C24"/>
<path d="M375.538 225.746V229.958L358.138 219.958V210.859L375.514 225.751L375.538 225.746Z" fill="#754C24"/>
<path d="M375.538 220.542V225.745L375.514 225.751L358.138 210.858V204.96L375.514 220.545L375.538 220.542Z" fill="#C78A0C"/>
<path d="M375.538 209.961V220.542L375.514 220.545L358.138 204.96V199.961L375.538 209.961Z" fill="#598F22"/>
<path d="M375.958 229.958H375.117V210.203L357.928 200.324L358.349 199.599L375.959 209.719L375.958 229.958Z" fill="#1D1D1B"/>
<path d="M392.729 199.599L375.329 209.599L375.749 210.325L393.15 200.324L392.729 199.599Z" fill="#1D1D1B"/>
<path d="M375.538 230.441L357.72 220.2V199.721L357.93 199.6L375.54 189.48L393.36 199.72V220.199L375.538 230.441ZM358.559 219.719L375.538 229.476L392.519 219.719V200.205L375.538 190.448L358.559 200.205V219.719Z" fill="#1D1D1B"/>
<path d="M375.403 226.207L357.865 211.175L358.414 210.541L375.624 225.291L388.471 222.061L388.676 222.874L375.609 226.159L375.403 226.207Z" fill="#1D1D1B"/>
<path d="M375.373 220.982L375.232 220.856L357.857 205.271L358.418 204.649L375.651 220.105L392.883 217.89L392.991 218.72L375.56 220.961L375.373 220.982Z" fill="#1D1D1B"/>
<path d="M123.2 317.2C165.573 305.084 198.014 295.742 262.235 296.897C326.455 298.052 382.9 317.2 468.8 314.916" stroke="#FD9850" stroke-width="6.6"/>
<circle cx="230.08" cy="298.64" r="7.68" fill="white" stroke="#FD9850" stroke-width="2.64"/>
<circle cx="376.08" cy="308.88" r="7.68" fill="white" stroke="#FD9850" stroke-width="2.64"/>
<rect x="175.99" y="151.99" width="110.22" height="97.02" rx="16.17" fill="#FAF0A7" stroke="#333333" stroke-width="1.98"/>
<path d="M188.43 222.424C188.048 222.424 187.708 222.5 187.412 222.65C187.12 222.796 186.873 223.009 186.671 223.288C186.473 223.567 186.323 223.905 186.219 224.3C186.116 224.695 186.065 225.14 186.065 225.634C186.065 226.3 186.146 226.87 186.31 227.342C186.477 227.811 186.735 228.169 187.083 228.419C187.431 228.664 187.88 228.786 188.43 228.786C188.813 228.786 189.195 228.743 189.577 228.657C189.964 228.571 190.383 228.449 190.834 228.29V229.965C190.417 230.137 190.007 230.26 189.603 230.333C189.199 230.41 188.746 230.449 188.243 230.449C187.272 230.449 186.473 230.249 185.846 229.849C185.223 229.446 184.761 228.883 184.46 228.161C184.159 227.435 184.009 226.588 184.009 225.621C184.009 224.908 184.105 224.255 184.299 223.662C184.492 223.069 184.776 222.555 185.15 222.122C185.523 221.688 185.985 221.352 186.535 221.116C187.085 220.88 187.717 220.762 188.43 220.762C188.899 220.762 189.367 220.822 189.835 220.942C190.308 221.058 190.759 221.219 191.189 221.425L190.544 223.05C190.192 222.882 189.837 222.736 189.481 222.611C189.124 222.487 188.774 222.424 188.43 222.424ZM199.767 226.704C199.767 227.306 199.685 227.839 199.522 228.303C199.363 228.767 199.129 229.16 198.819 229.482C198.514 229.8 198.145 230.041 197.711 230.204C197.281 230.367 196.796 230.449 196.254 230.449C195.747 230.449 195.281 230.367 194.856 230.204C194.435 230.041 194.067 229.8 193.753 229.482C193.444 229.16 193.203 228.767 193.032 228.303C192.864 227.839 192.78 227.306 192.78 226.704C192.78 225.905 192.922 225.228 193.206 224.674C193.489 224.12 193.893 223.698 194.417 223.411C194.942 223.123 195.567 222.979 196.293 222.979C196.968 222.979 197.565 223.123 198.085 223.411C198.609 223.698 199.019 224.12 199.316 224.674C199.617 225.228 199.767 225.905 199.767 226.704ZM194.785 226.704C194.785 227.177 194.836 227.574 194.939 227.897C195.043 228.219 195.204 228.462 195.423 228.625C195.642 228.788 195.928 228.87 196.28 228.87C196.628 228.87 196.91 228.788 197.124 228.625C197.344 228.462 197.503 228.219 197.601 227.897C197.704 227.574 197.756 227.177 197.756 226.704C197.756 226.227 197.704 225.832 197.601 225.518C197.503 225.2 197.344 224.962 197.124 224.803C196.905 224.644 196.619 224.564 196.267 224.564C195.747 224.564 195.369 224.743 195.133 225.099C194.901 225.456 194.785 225.991 194.785 226.704ZM206.012 222.979C206.781 222.979 207.4 223.189 207.868 223.61C208.337 224.027 208.571 224.697 208.571 225.621V230.32H206.605V226.111C206.605 225.596 206.51 225.207 206.321 224.945C206.137 224.682 205.844 224.551 205.445 224.551C204.843 224.551 204.433 224.755 204.214 225.164C203.995 225.572 203.885 226.161 203.885 226.93V230.32H201.919V223.114H203.421L203.685 224.036H203.795C203.949 223.787 204.141 223.585 204.368 223.43C204.6 223.275 204.856 223.161 205.135 223.088C205.419 223.015 205.711 222.979 206.012 222.979ZM216.15 228.18C216.15 228.67 216.034 229.085 215.802 229.424C215.574 229.759 215.233 230.015 214.777 230.191C214.322 230.363 213.754 230.449 213.075 230.449C212.573 230.449 212.141 230.417 211.78 230.352C211.423 230.288 211.062 230.18 210.697 230.03V228.406C211.088 228.582 211.507 228.728 211.954 228.844C212.405 228.956 212.8 229.012 213.14 229.012C213.522 229.012 213.795 228.956 213.959 228.844C214.126 228.728 214.21 228.578 214.21 228.393C214.21 228.272 214.175 228.165 214.107 228.071C214.042 227.972 213.9 227.862 213.681 227.742C213.462 227.617 213.118 227.456 212.65 227.258C212.199 227.069 211.827 226.878 211.535 226.685C211.247 226.491 211.032 226.264 210.891 226.002C210.753 225.735 210.684 225.398 210.684 224.99C210.684 224.324 210.942 223.823 211.458 223.488C211.978 223.148 212.672 222.979 213.54 222.979C213.986 222.979 214.412 223.024 214.816 223.114C215.224 223.204 215.643 223.348 216.073 223.546L215.48 224.964C215.123 224.809 214.786 224.682 214.468 224.584C214.154 224.485 213.834 224.435 213.507 224.435C213.219 224.435 213.002 224.474 212.856 224.551C212.71 224.629 212.637 224.747 212.637 224.906C212.637 225.022 212.674 225.125 212.747 225.215C212.824 225.305 212.97 225.406 213.185 225.518C213.404 225.626 213.724 225.765 214.145 225.937C214.554 226.105 214.908 226.281 215.209 226.466C215.51 226.646 215.742 226.872 215.905 227.142C216.068 227.409 216.15 227.755 216.15 228.18ZM224.76 226.704C224.76 227.306 224.679 227.839 224.515 228.303C224.356 228.767 224.122 229.16 223.813 229.482C223.508 229.8 223.138 230.041 222.704 230.204C222.275 230.367 221.789 230.449 221.248 230.449C220.741 230.449 220.274 230.367 219.849 230.204C219.428 230.041 219.061 229.8 218.747 229.482C218.437 229.16 218.197 228.767 218.025 228.303C217.857 227.839 217.774 227.306 217.774 226.704C217.774 225.905 217.915 225.228 218.199 224.674C218.483 224.12 218.887 223.698 219.411 223.411C219.935 223.123 220.56 222.979 221.286 222.979C221.961 222.979 222.558 223.123 223.078 223.411C223.602 223.698 224.013 224.12 224.309 224.674C224.61 225.228 224.76 225.905 224.76 226.704ZM219.778 226.704C219.778 227.177 219.83 227.574 219.933 227.897C220.036 228.219 220.197 228.462 220.416 228.625C220.635 228.788 220.921 228.87 221.273 228.87C221.621 228.87 221.903 228.788 222.118 228.625C222.337 228.462 222.496 228.219 222.595 227.897C222.698 227.574 222.749 227.177 222.749 226.704C222.749 226.227 222.698 225.832 222.595 225.518C222.496 225.2 222.337 224.962 222.118 224.803C221.899 224.644 221.613 224.564 221.261 224.564C220.741 224.564 220.362 224.743 220.126 225.099C219.894 225.456 219.778 225.991 219.778 226.704ZM228.878 230.32H226.913V220.291H228.878V230.32ZM233.441 223.114V230.32H231.475V223.114H233.441ZM232.461 220.291C232.754 220.291 233.005 220.36 233.216 220.497C233.426 220.63 233.531 220.882 233.531 221.251C233.531 221.617 233.426 221.87 233.216 222.012C233.005 222.149 232.754 222.218 232.461 222.218C232.165 222.218 231.911 222.149 231.701 222.012C231.495 221.87 231.392 221.617 231.392 221.251C231.392 220.882 231.495 220.63 231.701 220.497C231.911 220.36 232.165 220.291 232.461 220.291ZM238.32 230.449C237.516 230.449 236.861 230.135 236.354 229.508C235.851 228.876 235.6 227.95 235.6 226.73C235.6 225.497 235.855 224.564 236.367 223.933C236.878 223.297 237.546 222.979 238.371 222.979C238.715 222.979 239.018 223.026 239.28 223.121C239.542 223.215 239.768 223.342 239.957 223.501C240.15 223.66 240.313 223.838 240.447 224.036H240.511C240.485 223.898 240.453 223.696 240.414 223.43C240.38 223.159 240.363 222.882 240.363 222.598V220.291H242.335V230.32H240.827L240.447 229.385H240.363C240.238 229.583 240.081 229.764 239.892 229.927C239.708 230.086 239.486 230.213 239.229 230.307C238.971 230.402 238.668 230.449 238.32 230.449ZM239.009 228.883C239.546 228.883 239.925 228.724 240.144 228.406C240.367 228.083 240.485 227.6 240.498 226.955V226.743C240.498 226.042 240.391 225.507 240.176 225.138C239.961 224.764 239.562 224.577 238.977 224.577C238.543 224.577 238.204 224.764 237.959 225.138C237.714 225.512 237.591 226.051 237.591 226.756C237.591 227.46 237.714 227.991 237.959 228.348C238.208 228.704 238.558 228.883 239.009 228.883ZM247.871 222.966C248.838 222.966 249.579 223.176 250.095 223.597C250.61 224.019 250.868 224.659 250.868 225.518V230.32H249.495L249.115 229.34H249.064C248.857 229.598 248.647 229.809 248.432 229.972C248.217 230.135 247.97 230.255 247.691 230.333C247.411 230.41 247.072 230.449 246.672 230.449C246.247 230.449 245.865 230.367 245.525 230.204C245.19 230.041 244.926 229.791 244.732 229.456C244.539 229.117 244.442 228.687 244.442 228.167C244.442 227.402 244.711 226.839 245.248 226.479C245.785 226.113 246.591 225.911 247.665 225.873L248.915 225.834V225.518C248.915 225.14 248.816 224.863 248.619 224.687C248.421 224.511 248.146 224.422 247.794 224.422C247.446 224.422 247.104 224.472 246.769 224.571C246.434 224.67 246.099 224.794 245.764 224.945L245.113 223.617C245.495 223.415 245.923 223.256 246.395 223.14C246.872 223.024 247.364 222.966 247.871 222.966ZM248.915 226.981L248.155 227.007C247.519 227.024 247.076 227.138 246.827 227.349C246.582 227.559 246.46 227.836 246.46 228.18C246.46 228.481 246.548 228.696 246.724 228.825C246.9 228.949 247.13 229.012 247.414 229.012C247.835 229.012 248.189 228.887 248.477 228.638C248.769 228.389 248.915 228.034 248.915 227.574V226.981ZM256.462 228.883C256.677 228.883 256.885 228.861 257.087 228.818C257.294 228.775 257.498 228.722 257.7 228.657V230.12C257.489 230.215 257.227 230.292 256.913 230.352C256.604 230.417 256.265 230.449 255.895 230.449C255.465 230.449 255.079 230.38 254.735 230.243C254.395 230.101 254.127 229.858 253.929 229.514C253.736 229.166 253.639 228.683 253.639 228.064V224.59H252.698V223.759L253.781 223.101L254.348 221.58H255.605V223.114H257.622V224.59H255.605V228.064C255.605 228.339 255.682 228.545 255.837 228.683C255.996 228.816 256.204 228.883 256.462 228.883ZM261.657 223.114V230.32H259.691V223.114H261.657ZM260.677 220.291C260.969 220.291 261.221 220.36 261.431 220.497C261.642 220.63 261.747 220.882 261.747 221.251C261.747 221.617 261.642 221.87 261.431 222.012C261.221 222.149 260.969 222.218 260.677 222.218C260.38 222.218 260.127 222.149 259.916 222.012C259.71 221.87 259.607 221.617 259.607 221.251C259.607 220.882 259.71 220.63 259.916 220.497C260.127 220.36 260.38 220.291 260.677 220.291ZM270.802 226.704C270.802 227.306 270.72 227.839 270.557 228.303C270.398 228.767 270.164 229.16 269.855 229.482C269.549 229.8 269.18 230.041 268.746 230.204C268.316 230.367 267.831 230.449 267.289 230.449C266.782 230.449 266.316 230.367 265.891 230.204C265.47 230.041 265.102 229.8 264.789 229.482C264.479 229.16 264.239 228.767 264.067 228.303C263.899 227.839 263.815 227.306 263.815 226.704C263.815 225.905 263.957 225.228 264.241 224.674C264.524 224.12 264.928 223.698 265.452 223.411C265.977 223.123 266.602 222.979 267.328 222.979C268.003 222.979 268.6 223.123 269.12 223.411C269.644 223.698 270.054 224.12 270.351 224.674C270.652 225.228 270.802 225.905 270.802 226.704ZM265.82 226.704C265.82 227.177 265.871 227.574 265.974 227.897C266.078 228.219 266.239 228.462 266.458 228.625C266.677 228.788 266.963 228.87 267.315 228.87C267.663 228.87 267.945 228.788 268.159 228.625C268.379 228.462 268.538 228.219 268.636 227.897C268.74 227.574 268.791 227.177 268.791 226.704C268.791 226.227 268.74 225.832 268.636 225.518C268.538 225.2 268.379 224.962 268.159 224.803C267.94 224.644 267.655 224.564 267.302 224.564C266.782 224.564 266.404 224.743 266.168 225.099C265.936 225.456 265.82 225.991 265.82 226.704ZM277.047 222.979C277.816 222.979 278.435 223.189 278.903 223.61C279.372 224.027 279.606 224.697 279.606 225.621V230.32H277.64V226.111C277.64 225.596 277.545 225.207 277.356 224.945C277.172 224.682 276.879 224.551 276.48 224.551C275.878 224.551 275.468 224.755 275.249 225.164C275.03 225.572 274.92 226.161 274.92 226.93V230.32H272.954V223.114H274.456L274.72 224.036H274.83C274.985 223.787 275.176 223.585 275.403 223.43C275.636 223.275 275.891 223.161 276.17 223.088C276.454 223.015 276.746 222.979 277.047 222.979Z" fill="#333333"/>
<path d="M248.499 194.344V195.998L244.133 198.507L231.098 201.784V196.581L248.499 194.344Z" fill="#C78A0C"/>
<path d="M248.499 176.001V194.346L231.098 196.582V186.001L248.499 176.001Z" fill="#598F22"/>
<path d="M248.499 176.001L231.098 186.001L213.698 176.001L231.098 166.002L248.499 176.001Z" fill="#598F22"/>
<path d="M244.133 198.507L231.098 205.998V201.786L244.133 198.507Z" fill="#754C24"/>
<path d="M231.098 201.785V205.997L213.698 195.998V186.898L231.074 201.791L231.098 201.785Z" fill="#754C24"/>
<path d="M231.098 196.582V201.785L231.074 201.791L213.698 186.898V181L231.074 196.584L231.098 196.582Z" fill="#C78A0C"/>
<path d="M231.098 186V196.582L231.074 196.585L213.698 181V176.001L231.098 186Z" fill="#598F22"/>
<path d="M231.519 205.998H230.677V186.243L213.488 176.364L213.909 175.639L231.519 185.759L231.519 205.998Z" fill="#1D1D1B"/>
<path d="M248.289 175.639L230.889 185.639L231.309 186.365L248.71 176.364L248.289 175.639Z" fill="#1D1D1B"/>
<path d="M231.098 206.481L213.28 196.24V175.761L213.49 175.64L231.101 165.52L248.92 175.76V196.239L231.098 206.481ZM214.119 195.759L231.098 205.516L248.079 195.759V176.245L231.098 166.488L214.119 176.245V195.759Z" fill="#1D1D1B"/>
<path d="M230.962 202.247L213.424 187.215L213.974 186.581L231.184 201.332L244.031 198.101L244.235 198.914L231.169 202.199L230.962 202.247Z" fill="#1D1D1B"/>
<path d="M230.933 197.022L230.792 196.896L213.417 181.311L213.978 180.689L231.211 196.145L248.443 193.93L248.551 194.76L231.12 197.001L230.933 197.022Z" fill="#1D1D1B"/>
<rect x="582.6" y="189.6" width="7.2" height="163.2" fill="#6C6C6C"/>
<path fill-rule="evenodd" clip-rule="evenodd" d="M559.8 358.081H612.609C608.165 347.909 598.015 340.8 586.205 340.8C574.394 340.8 564.244 347.909 559.8 358.081Z" fill="#6C6C6C"/>
<rect x="545.1" y="138.9" width="78.6" height="88.2" rx="14.7" fill="#FAF0A7" stroke="#333333" stroke-width="1.8"/>
<rect x="556.2" y="356.4" width="60" height="4.8" rx="2.4" fill="#565656"/>
<path d="M571.493 200.6H569.677V193.545H567.35V192.034H573.819V193.545H571.493V200.6ZM581.43 197.313C581.43 197.86 581.356 198.344 581.207 198.766C581.063 199.188 580.85 199.545 580.569 199.838C580.291 200.127 579.955 200.346 579.561 200.495C579.17 200.643 578.729 200.717 578.237 200.717C577.776 200.717 577.352 200.643 576.965 200.495C576.582 200.346 576.248 200.127 575.963 199.838C575.682 199.545 575.463 199.188 575.307 198.766C575.155 198.344 575.078 197.86 575.078 197.313C575.078 196.586 575.207 195.971 575.465 195.467C575.723 194.963 576.09 194.581 576.567 194.319C577.043 194.057 577.612 193.926 578.272 193.926C578.885 193.926 579.428 194.057 579.901 194.319C580.377 194.581 580.75 194.963 581.02 195.467C581.293 195.971 581.43 196.586 581.43 197.313ZM576.901 197.313C576.901 197.743 576.948 198.104 577.041 198.397C577.135 198.69 577.282 198.911 577.481 199.059C577.68 199.208 577.94 199.282 578.26 199.282C578.576 199.282 578.832 199.208 579.028 199.059C579.227 198.911 579.371 198.69 579.461 198.397C579.555 198.104 579.602 197.743 579.602 197.313C579.602 196.879 579.555 196.52 579.461 196.235C579.371 195.946 579.227 195.729 579.028 195.584C578.828 195.44 578.569 195.368 578.248 195.368C577.776 195.368 577.432 195.53 577.217 195.854C577.006 196.178 576.901 196.665 576.901 197.313ZM588.771 191.483V193.604C588.771 193.85 588.763 194.094 588.747 194.336C588.736 194.579 588.72 194.766 588.701 194.899H588.771C588.943 194.629 589.177 194.401 589.474 194.213C589.771 194.022 590.156 193.926 590.628 193.926C591.363 193.926 591.958 194.213 592.415 194.788C592.872 195.362 593.101 196.204 593.101 197.313C593.101 198.059 592.995 198.686 592.785 199.194C592.574 199.698 592.279 200.079 591.9 200.336C591.521 200.59 591.081 200.717 590.581 200.717C590.101 200.717 589.722 200.631 589.445 200.459C589.167 200.288 588.943 200.094 588.771 199.879H588.648L588.349 200.6H586.984V191.483H588.771ZM590.054 195.356C589.742 195.356 589.494 195.42 589.31 195.549C589.126 195.678 588.992 195.872 588.906 196.129C588.824 196.387 588.779 196.713 588.771 197.108V197.301C588.771 197.938 588.865 198.426 589.052 198.766C589.24 199.102 589.581 199.27 590.077 199.27C590.445 199.27 590.736 199.1 590.951 198.76C591.169 198.42 591.279 197.93 591.279 197.29C591.279 196.649 591.169 196.167 590.951 195.842C590.732 195.518 590.433 195.356 590.054 195.356ZM597.759 193.926C598.364 193.926 598.886 194.043 599.323 194.278C599.761 194.508 600.099 194.844 600.337 195.286C600.575 195.727 600.694 196.266 600.694 196.903V197.77H596.47C596.489 198.274 596.64 198.67 596.921 198.959C597.206 199.245 597.6 199.387 598.104 199.387C598.522 199.387 598.905 199.344 599.253 199.258C599.6 199.172 599.958 199.043 600.325 198.872V200.254C600.001 200.415 599.661 200.532 599.306 200.606C598.954 200.68 598.526 200.717 598.022 200.717C597.366 200.717 596.784 200.596 596.276 200.354C595.772 200.112 595.376 199.743 595.087 199.247C594.802 198.75 594.659 198.125 594.659 197.372C594.659 196.606 594.788 195.969 595.046 195.461C595.308 194.95 595.671 194.567 596.136 194.313C596.6 194.055 597.141 193.926 597.759 193.926ZM597.77 195.198C597.423 195.198 597.134 195.309 596.903 195.532C596.677 195.754 596.546 196.104 596.511 196.581H599.018C599.015 196.315 598.966 196.079 598.872 195.872C598.782 195.665 598.645 195.5 598.462 195.379C598.282 195.258 598.052 195.198 597.77 195.198ZM555.662 212.717C555.013 212.717 554.46 212.6 554.003 212.366C553.546 212.127 553.199 211.76 552.96 211.264C552.722 210.768 552.603 210.133 552.603 209.36C552.603 208.559 552.738 207.907 553.007 207.403C553.281 206.895 553.658 206.522 554.138 206.284C554.623 206.045 555.183 205.926 555.82 205.926C556.273 205.926 556.664 205.971 556.992 206.061C557.324 206.147 557.613 206.25 557.859 206.372L557.332 207.754C557.05 207.641 556.789 207.549 556.546 207.479C556.304 207.405 556.062 207.368 555.82 207.368C555.507 207.368 555.248 207.442 555.041 207.59C554.834 207.735 554.679 207.954 554.578 208.247C554.476 208.54 554.425 208.907 554.425 209.348C554.425 209.782 554.48 210.141 554.589 210.426C554.699 210.711 554.857 210.924 555.064 211.065C555.271 211.202 555.523 211.27 555.82 211.27C556.191 211.27 556.521 211.221 556.81 211.124C557.099 211.022 557.38 210.881 557.654 210.702V212.231C557.38 212.403 557.093 212.526 556.793 212.6C556.496 212.678 556.119 212.717 555.662 212.717ZM565.61 209.313C565.61 209.86 565.536 210.344 565.388 210.766C565.243 211.188 565.03 211.545 564.749 211.838C564.472 212.127 564.136 212.346 563.741 212.495C563.351 212.643 562.909 212.717 562.417 212.717C561.956 212.717 561.532 212.643 561.146 212.495C560.763 212.346 560.429 212.127 560.144 211.838C559.862 211.545 559.644 211.188 559.487 210.766C559.335 210.344 559.259 209.86 559.259 209.313C559.259 208.586 559.388 207.971 559.646 207.467C559.903 206.963 560.271 206.581 560.747 206.319C561.224 206.057 561.792 205.926 562.452 205.926C563.065 205.926 563.608 206.057 564.081 206.319C564.558 206.581 564.931 206.963 565.2 207.467C565.474 207.971 565.61 208.586 565.61 209.313ZM561.081 209.313C561.081 209.743 561.128 210.104 561.222 210.397C561.315 210.69 561.462 210.911 561.661 211.059C561.86 211.208 562.12 211.282 562.44 211.282C562.757 211.282 563.013 211.208 563.208 211.059C563.407 210.911 563.552 210.69 563.642 210.397C563.735 210.104 563.782 209.743 563.782 209.313C563.782 208.879 563.735 208.52 563.642 208.235C563.552 207.946 563.407 207.729 563.208 207.584C563.009 207.44 562.749 207.368 562.429 207.368C561.956 207.368 561.612 207.53 561.398 207.854C561.187 208.178 561.081 208.665 561.081 209.313ZM571.288 205.926C571.987 205.926 572.549 206.118 572.975 206.5C573.401 206.879 573.614 207.489 573.614 208.329V212.6H571.827V208.774C571.827 208.305 571.741 207.952 571.569 207.713C571.401 207.475 571.135 207.356 570.772 207.356C570.225 207.356 569.852 207.542 569.653 207.913C569.454 208.284 569.354 208.819 569.354 209.518V212.6H567.567V206.049H568.932L569.172 206.887H569.272C569.413 206.661 569.586 206.477 569.794 206.336C570.004 206.196 570.237 206.092 570.491 206.026C570.749 205.959 571.014 205.926 571.288 205.926ZM578.693 211.293C578.889 211.293 579.078 211.274 579.262 211.235C579.449 211.196 579.635 211.147 579.818 211.088V212.418C579.627 212.504 579.389 212.575 579.104 212.629C578.822 212.688 578.514 212.717 578.178 212.717C577.787 212.717 577.436 212.655 577.123 212.53C576.815 212.401 576.57 212.18 576.391 211.868C576.215 211.551 576.127 211.112 576.127 210.549V207.391H575.272V206.635L576.256 206.038L576.772 204.655H577.914V206.049H579.748V207.391H577.914V210.549C577.914 210.799 577.984 210.987 578.125 211.112C578.27 211.233 578.459 211.293 578.693 211.293ZM583.416 206.049V212.6H581.629V206.049H583.416ZM582.525 203.483C582.791 203.483 583.019 203.545 583.211 203.67C583.402 203.792 583.498 204.02 583.498 204.356C583.498 204.688 583.402 204.918 583.211 205.047C583.019 205.172 582.791 205.235 582.525 205.235C582.255 205.235 582.025 205.172 581.834 205.047C581.646 204.918 581.552 204.688 581.552 204.356C581.552 204.02 581.646 203.792 581.834 203.67C582.025 203.545 582.255 203.483 582.525 203.483ZM589.497 205.926C590.196 205.926 590.759 206.118 591.185 206.5C591.61 206.879 591.823 207.489 591.823 208.329V212.6H590.036V208.774C590.036 208.305 589.95 207.952 589.778 207.713C589.61 207.475 589.345 207.356 588.982 207.356C588.435 207.356 588.062 207.542 587.862 207.913C587.663 208.284 587.564 208.819 587.564 209.518V212.6H585.776V206.049H587.142L587.382 206.887H587.482C587.622 206.661 587.796 206.477 588.003 206.336C588.214 206.196 588.446 206.092 588.7 206.026C588.958 205.959 589.224 205.926 589.497 205.926ZM600.155 206.049V212.6H598.784L598.544 211.762H598.45C598.309 211.985 598.133 212.167 597.923 212.307C597.712 212.448 597.479 212.551 597.225 212.618C596.971 212.684 596.708 212.717 596.434 212.717C595.965 212.717 595.557 212.635 595.21 212.471C594.862 212.303 594.59 212.043 594.395 211.692C594.204 211.34 594.108 210.883 594.108 210.321V206.049H595.895V209.875C595.895 210.344 595.979 210.698 596.147 210.936C596.315 211.174 596.583 211.293 596.95 211.293C597.313 211.293 597.598 211.211 597.805 211.047C598.012 210.879 598.157 210.635 598.239 210.315C598.325 209.991 598.368 209.596 598.368 209.131V206.049H600.155ZM605.211 205.926C605.817 205.926 606.338 206.043 606.776 206.278C607.213 206.508 607.551 206.844 607.789 207.286C608.028 207.727 608.147 208.266 608.147 208.903V209.77H603.922C603.942 210.274 604.092 210.67 604.373 210.959C604.658 211.245 605.053 211.387 605.557 211.387C605.975 211.387 606.358 211.344 606.705 211.258C607.053 211.172 607.41 211.043 607.778 210.872V212.254C607.453 212.415 607.113 212.532 606.758 212.606C606.406 212.68 605.979 212.717 605.475 212.717C604.819 212.717 604.236 212.596 603.729 212.354C603.225 212.112 602.828 211.743 602.539 211.247C602.254 210.75 602.111 210.125 602.111 209.372C602.111 208.606 602.24 207.969 602.498 207.461C602.76 206.95 603.123 206.567 603.588 206.313C604.053 206.055 604.594 205.926 605.211 205.926ZM605.223 207.198C604.875 207.198 604.586 207.309 604.356 207.532C604.129 207.754 603.998 208.104 603.963 208.581H606.471C606.467 208.315 606.418 208.079 606.324 207.872C606.235 207.665 606.098 207.5 605.914 207.379C605.735 207.258 605.504 207.198 605.223 207.198ZM612.154 212.717C611.424 212.717 610.828 212.432 610.367 211.862C609.91 211.288 609.681 210.446 609.681 209.336C609.681 208.215 609.914 207.368 610.379 206.793C610.843 206.215 611.451 205.926 612.201 205.926C612.513 205.926 612.789 205.969 613.027 206.055C613.265 206.141 613.47 206.256 613.642 206.401C613.818 206.545 613.966 206.708 614.088 206.887H614.146C614.123 206.762 614.093 206.579 614.058 206.336C614.027 206.09 614.011 205.838 614.011 205.581V203.483H615.804V212.6H614.433L614.088 211.75H614.011C613.898 211.93 613.756 212.094 613.584 212.243C613.416 212.387 613.215 212.502 612.98 212.588C612.746 212.674 612.47 212.717 612.154 212.717ZM612.781 211.293C613.269 211.293 613.613 211.149 613.812 210.86C614.015 210.567 614.123 210.127 614.134 209.542V209.348C614.134 208.711 614.037 208.225 613.841 207.889C613.646 207.549 613.283 207.379 612.752 207.379C612.357 207.379 612.049 207.549 611.826 207.889C611.603 208.229 611.492 208.719 611.492 209.36C611.492 210 611.603 210.483 611.826 210.807C612.052 211.131 612.371 211.293 612.781 211.293Z" fill="#333333"/>
<path d="M600.217 175.004V176.508L596.248 178.788L584.398 181.767V177.037L600.217 175.004Z" fill="#C78A0C"/>
<path d="M600.217 158.328V175.006L584.398 177.038V167.419L600.217 158.328Z" fill="#598F22"/>
<path d="M600.217 158.328L584.398 167.419L568.58 158.328L584.398 149.239L600.217 158.328Z" fill="#598F22"/>
<path d="M596.248 178.788L584.398 185.598V181.769L596.248 178.788Z" fill="#754C24"/>
<path d="M584.398 181.768V185.598L568.58 176.507V168.235L584.377 181.773L584.398 181.768Z" fill="#754C24"/>
<path d="M584.398 177.038V181.768L584.377 181.773L568.58 168.234V162.872L584.377 177.04L584.398 177.038Z" fill="#C78A0C"/>
<path d="M584.398 167.419V177.038L584.377 177.041L568.58 162.872V158.328L584.398 167.419Z" fill="#598F22"/>
<path d="M584.78 185.598H584.015V167.639L568.389 158.658L568.772 157.999L584.781 167.199L584.78 185.598Z" fill="#1D1D1B"/>
<path d="M600.026 157.999L584.208 167.09L584.59 167.75L600.409 158.658L600.026 157.999Z" fill="#1D1D1B"/>
<path d="M584.399 186.037L568.2 176.728V158.11L568.391 158L584.4 148.8L600.6 158.109V176.727L584.399 186.037ZM568.963 176.29L584.399 185.16L599.835 176.29V158.55L584.399 149.68L568.963 158.55V176.29Z" fill="#1D1D1B"/>
<path d="M584.275 182.188L568.331 168.523L568.83 167.946L584.476 181.356L596.156 178.419L596.341 179.158L584.463 182.145L584.275 182.188Z" fill="#1D1D1B"/>
<path d="M584.249 177.439L584.12 177.323L568.324 163.156L568.835 162.59L584.501 176.641L600.166 174.627L600.264 175.382L584.418 177.419L584.249 177.439Z" fill="#1D1D1B"/>
</g>
<defs>
<clipPath id="clip0_1864_14555">
<rect width="660" height="398" fill="white"/>
</clipPath>
</defs>
</svg>
