<svg width="660" height="398" viewBox="0 0 660 398" fill="none" xmlns="http://www.w3.org/2000/svg">
<g clip-path="url(#clip0_3230_7039)">
<rect width="660" height="398" fill="#E6F0FC"/>
<path d="M130.256 42.5302C130.256 43.1659 129.934 43.4888 129.3 43.4888H126.01C125.386 43.4888 125.084 43.1659 125.084 42.5302V33.9535C125.084 33.3078 125.396 32.9849 126.03 32.9849H129.3C129.934 32.9849 130.256 33.3078 130.256 33.9535V36.1936H128.686V34.337H126.644V42.1468H128.686V39.2105H127.519V37.8786H130.256V42.5302Z" fill="black"/>
<path d="M136.785 42.5302C136.785 43.1659 136.463 43.4888 135.839 43.4888H132.438C131.815 43.4888 131.513 43.1659 131.513 42.5302V33.9535C131.513 33.3078 131.825 32.9849 132.438 32.9849H135.839C136.473 32.9849 136.785 33.3078 136.785 33.9535V42.5302ZM135.225 42.1367V34.3269H133.072V42.1367H135.225Z" fill="black"/>
<path d="M142.329 34.3672H139.623V37.475H141.937V38.8372H139.623V43.4787H138.043V32.9849H142.319V34.3672H142.329Z" fill="black"/>
<path d="M147.56 43.4893H143.214V32.9854H147.52V34.3778H144.783V37.4351H147.138V38.7973H144.783V42.0968H147.56V43.4893Z" fill="black"/>
<path d="M153.99 43.4893H152.36L150.629 38.6056V37.6571H152.169V34.3274H150.197V43.4893H148.627V32.9854H152.782C153.416 32.9854 153.728 33.3082 153.728 33.954V37.7782C153.728 38.2222 153.577 38.5047 153.275 38.6359C153.114 38.7065 152.772 38.7368 152.259 38.7368L153.99 43.4893Z" fill="black"/>
<path d="M121.834 45.5166V46.2532L118.644 48.0997L108.955 50.5516V47.1916L121.834 45.5166Z" fill="#C78A0C"/>
<path d="M121.834 31.3501V44.8609L108.955 46.5258V38.7967L121.834 31.3501Z" fill="#649D35"/>
<path d="M112.366 25.1146C112.346 25.1348 112.325 25.1549 112.305 25.165C112.305 25.1549 112.295 25.1549 112.295 25.1448C112.285 25.1146 112.265 25.0843 112.255 25.0439L112.366 25.1146Z" fill="#649D35"/>
<path d="M121.502 30.7852L108.633 38.2419L95.7646 30.7953L104.085 25.9721L102.043 30.8457L104.407 33.8425H106.732V32.6821H110.022V33.8425H112.346L114.71 30.8457L112.587 25.8006C112.597 25.7905 112.607 25.7905 112.607 25.7804C112.638 25.7602 112.668 25.73 112.708 25.6997L121.502 30.7852Z" fill="#649D35"/>
<path d="M116.562 49.3008L108.955 53.7102V51.228L116.562 49.3008Z" fill="#754C24"/>
<path d="M108.302 51.1473V53.7102L95.4336 46.2535V40.0278L108.302 51.1473Z" fill="#754C24"/>
<path d="M108.302 47.0605V50.2792L95.4336 39.1699V35.4365L108.302 47.0605Z" fill="#C78A0C"/>
<path d="M108.302 38.7972V46.1832L95.4336 34.5492V31.3506L108.302 38.7972Z" fill="#649D35"/>
<path d="M112.255 25.0439C112.265 25.0742 112.275 25.1045 112.295 25.1448C112.295 25.1549 112.305 25.1549 112.305 25.165C112.325 25.1448 112.346 25.1348 112.366 25.1146L112.255 25.0439Z" fill="#333333"/>
<path d="M114.207 22.8443C114.187 22.8847 114.167 22.9351 114.147 22.9755C113.774 23.7423 113.161 24.3982 112.708 24.8119C112.678 24.8321 112.657 24.8624 112.627 24.8825C112.567 24.933 112.507 24.9834 112.456 25.0339C112.426 25.0642 112.396 25.0843 112.366 25.1146L112.255 25.0541C112.215 24.9532 112.185 24.8422 112.154 24.7312C112.144 24.6908 112.134 24.6404 112.124 24.6C112.104 24.5193 112.094 24.4487 112.094 24.3679C112.084 24.2872 112.084 24.2166 112.084 24.146C112.084 23.1874 112.627 22.3398 113.422 21.916L114.207 22.8443Z" fill="white"/>
<path d="M113.221 25.2257C113.191 25.2459 113.171 25.2762 113.14 25.2964C113.04 25.3872 112.949 25.4679 112.869 25.5385C112.808 25.589 112.748 25.6394 112.688 25.6899L121.491 30.7855L108.623 38.2421L95.7543 30.7955L104.075 25.9724L104.216 25.6294L104.206 25.3065C104.206 25.256 104.206 25.1955 104.206 25.145L94.7783 30.5937V46.6372L108.633 54.6589L122.487 46.6372V30.5937L113.221 25.2257ZM108.301 53.7104L95.4323 46.2538V40.0281L108.301 51.1475V53.7104ZM108.301 50.2798L95.4323 39.1704V35.437L108.301 47.0711V50.2798ZM108.301 46.1831L95.4323 34.5491V31.3505L108.301 38.7971V46.1831ZM108.955 53.7104V51.2383L116.561 49.3111L108.955 53.7104ZM121.833 46.2538L118.644 48.1003L108.965 50.5522V47.1821L121.833 45.5172V46.2538ZM121.833 44.8613L108.965 46.5262V38.7971L121.833 31.3404V44.8613Z" fill="black"/>
<path d="M106.047 20.1503L105.987 20.7254H106.852V21.3813H105.625C105.534 21.3813 105.444 21.3409 105.383 21.2703C105.323 21.1997 105.293 21.1089 105.303 21.0181L105.403 19.9889C105.413 19.9283 105.433 19.8678 105.474 19.8173L105.886 19.3027C105.947 19.222 106.037 19.1816 106.138 19.1816H107.164V19.8375H106.299L106.047 20.1503Z" fill="white"/>
<path d="M110.937 20.9573C110.937 20.9573 110.393 21.3407 109.931 21.3105C109.468 21.2701 108.904 20.5335 108.904 20.5335C108.904 20.5335 109.156 20.1904 109.83 19.9786C110.504 19.7566 110.937 20.9573 110.937 20.9573Z" fill="white"/>
<path d="M112.366 25.1146C112.346 25.1348 112.325 25.1549 112.305 25.165C112.305 25.1549 112.295 25.1549 112.295 25.1448C112.285 25.1146 112.265 25.0843 112.255 25.0439L112.366 25.1146Z" fill="white"/>
<path d="M115.103 21.2498L115.093 21.1489L114.881 20.9774L111.551 18.1622L111.481 18.142C111.189 18.0613 108.563 17.3954 107.577 17.5467C106.711 17.6779 104.689 18.919 104.458 19.0602L104.317 19.1511L104.307 19.3226C104.307 19.3529 104.156 21.9057 104.216 24.963C104.216 25.0236 104.216 25.0841 104.216 25.1446C104.216 25.1951 104.216 25.2556 104.216 25.3061L104.226 25.629L104.085 25.972L102.043 30.8456L104.407 33.8424H106.732V32.682H110.022V33.8424H112.346L114.71 30.8456L112.587 25.8005C112.597 25.7904 112.607 25.7904 112.607 25.7803C112.638 25.7601 112.668 25.7299 112.708 25.6996C112.758 25.6592 112.819 25.6088 112.889 25.5483C112.97 25.4776 113.06 25.3969 113.161 25.3061C113.181 25.2859 113.211 25.2556 113.241 25.2355C113.432 25.0538 113.644 24.8419 113.845 24.5998L114.157 24.9126C114.227 24.9832 114.318 25.0236 114.419 25.0236C114.469 25.0236 114.509 25.0135 114.559 24.9933C114.7 24.9328 114.781 24.8016 114.781 24.6603V23.3284C114.801 23.2477 115.374 22.1781 115.103 21.2498ZM113.946 30.7346L112.014 33.1765H110.656V31.2896L111.46 30.331L111.833 29.8871L111.46 29.1404L110.957 28.1414L110.384 28.4542L111.058 29.7962L110.002 31.0575V32.0161H106.711V31.0575L105.655 29.7962L106.319 28.4845L105.746 28.1717L105.373 28.9184L104.88 29.8971L105.373 30.4824L106.057 31.2997V33.1866H104.699L102.767 30.7447L104.83 25.8308L104.86 25.7501L104.85 25.5079L104.84 25.2859C104.84 25.2355 104.84 25.185 104.84 25.1446C104.84 25.0841 104.84 25.0135 104.84 24.9529C104.84 24.8924 104.84 24.8318 104.84 24.7713C104.8 22.279 104.89 20.1399 104.921 19.5446C105.605 19.1309 107.074 18.3035 107.647 18.2127C108.351 18.1118 110.394 18.5658 111.219 18.7777L113.915 21.048C112.487 21.3507 111.41 22.6322 111.41 24.1558C111.41 24.176 111.41 24.1962 111.41 24.2163C111.41 24.287 111.41 24.3576 111.42 24.4383C111.42 24.4989 111.43 24.5493 111.44 24.6099C111.45 24.7108 111.471 24.8117 111.501 24.9025C111.511 24.9529 111.521 24.9933 111.541 25.0437C111.581 25.1749 111.621 25.3061 111.682 25.4272C111.712 25.4978 111.742 25.5583 111.782 25.629L113.946 30.7346ZM114.147 22.9853C113.775 23.7522 113.161 24.4081 112.708 24.8218C112.678 24.8419 112.658 24.8722 112.628 24.8924C112.567 24.9428 112.507 24.9933 112.457 25.0437C112.426 25.074 112.396 25.0942 112.366 25.1245C112.346 25.1446 112.326 25.1648 112.306 25.1749C112.306 25.1648 112.296 25.1648 112.296 25.1547C112.285 25.1245 112.265 25.0942 112.255 25.0538C112.215 24.9529 112.185 24.8419 112.155 24.7309C112.145 24.6906 112.135 24.6401 112.125 24.5998C112.104 24.5191 112.094 24.4484 112.094 24.3677C112.084 24.287 112.084 24.2163 112.084 24.1457C112.084 23.1871 112.628 22.3396 113.422 21.9158L114.207 22.8542C114.187 22.8945 114.167 22.9349 114.147 22.9853Z" fill="black"/>
<path d="M111.792 25.609C111.752 25.5384 111.722 25.4677 111.692 25.4072C111.641 25.2861 111.591 25.1549 111.551 25.0238C111.541 24.9733 111.521 24.9329 111.511 24.8825C111.491 24.7816 111.47 24.6908 111.45 24.5899C111.44 24.5293 111.43 24.4688 111.43 24.4183C111.42 24.3376 111.42 24.267 111.42 24.1964C111.42 24.1762 111.42 24.156 111.42 24.1358C111.42 22.6122 112.497 21.3307 113.925 21.028L111.229 18.7577C110.404 18.5458 108.361 18.0817 107.657 18.1927C107.084 18.2835 105.615 19.1109 104.93 19.5246C104.9 20.13 104.8 22.259 104.85 24.7513C104.85 24.8119 104.85 24.8724 104.85 24.9329C104.85 25.0036 104.85 25.0641 104.85 25.1247C104.85 25.1751 104.85 25.2256 104.85 25.2659L104.86 25.4879L104.87 25.7301L104.84 25.8108L102.777 30.7247L104.709 33.1666H106.067V31.2797L105.383 30.4624L104.89 29.8772L105.383 28.8984L105.756 28.1517L106.329 28.4645L105.665 29.7763L106.721 31.0375V31.9961H110.012V31.0375L111.068 29.7763L110.394 28.4343L110.967 28.1215L111.47 29.1204L111.843 29.8671L111.47 30.311L110.666 31.2696V33.1565H112.024L113.956 30.7146L111.792 25.609ZM109.83 19.9686C110.505 19.7567 110.937 20.9574 110.937 20.9574C110.937 20.9574 110.394 21.3408 109.931 21.3106C109.468 21.2702 108.905 20.5336 108.905 20.5336C108.905 20.5336 109.156 20.1905 109.83 19.9686ZM105.403 19.9887C105.413 19.9282 105.434 19.8677 105.474 19.8172L105.886 19.3026C105.947 19.2219 106.037 19.1815 106.138 19.1815H107.164V19.8374H106.299L106.047 20.1502L105.987 20.7253H106.852V21.3812H105.625C105.534 21.3812 105.444 21.3408 105.383 21.2702C105.323 21.1996 105.293 21.1088 105.303 21.0179L105.403 19.9887Z" fill="white"/>
<path d="M110.938 20.9573C110.938 20.9573 110.394 21.3407 109.932 21.3105C109.469 21.2701 108.905 20.5335 108.905 20.5335C108.905 20.5335 109.157 20.1904 109.831 19.9786C110.505 19.7566 110.938 20.9573 110.938 20.9573Z" fill="#333333"/>
<path d="M106.047 20.1503L105.987 20.7254H106.852V21.3813H105.625C105.534 21.3813 105.444 21.3409 105.383 21.2703C105.323 21.1997 105.293 21.1089 105.303 21.0181L105.403 19.9889C105.413 19.9283 105.433 19.8678 105.474 19.8173L105.886 19.3027C105.947 19.222 106.037 19.1816 106.138 19.1816H107.164V19.8375H106.299L106.047 20.1503Z" fill="#333333"/>
<path d="M62.8144 45.5874C62.4019 46.2433 61.919 46.7881 61.3656 47.2119C60.6915 47.7265 59.9872 47.9788 59.2627 47.9788C58.2566 47.9788 57.6429 47.5954 57.4316 46.8487L56.9989 46.7781L56.6367 48.7053C57.2706 49.0484 57.8944 49.23 58.5081 49.23C60.3594 49.23 62.0799 48.0191 63.6797 45.5975H62.8144V45.5874Z" fill="#243D51"/>
<path d="M67.9756 43.438C68.6598 43.8316 69.1628 44.0838 69.515 44.2049C70.0382 44.4067 70.662 44.4975 71.3663 44.4975C72.6139 44.4975 73.5798 44.1746 74.2539 43.549C74.8576 42.9739 75.1594 42.207 75.1594 41.2586C75.1594 40.4312 74.7067 39.5533 73.8012 38.6351C73.0063 37.8481 72.5032 37.3234 72.3121 37.0711C71.9197 36.5868 71.7285 36.1226 71.7285 35.6888C71.7285 35.3053 71.8694 34.9824 72.1611 34.6898C72.463 34.4073 72.8856 34.2559 73.4289 34.2559C73.7911 34.2559 74.1734 34.3669 74.5859 34.599C75.0085 34.8109 75.2902 35.0732 75.421 35.3961C75.5015 35.5778 75.5317 35.8199 75.5317 36.1024L76.1153 36.2841L76.7894 34.1349C75.8436 33.6203 74.8475 33.3579 73.8012 33.3579C72.7346 33.3579 71.8694 33.6707 71.2053 34.3165C70.5413 34.932 70.2092 35.6787 70.2092 36.5565C70.2092 37.3435 70.5815 38.1407 71.3361 38.9378L72.7548 40.4816C73.3383 41.1274 73.6402 41.7025 73.6402 42.207C73.6402 42.5703 73.4993 42.8831 73.2276 43.1353C72.8956 43.4683 72.3926 43.6298 71.7184 43.6298C71.1651 43.6298 70.6318 43.4784 70.1388 43.1757C69.5351 42.8326 69.2333 42.3786 69.2333 41.8337C69.2333 41.7429 69.2433 41.5915 69.2836 41.3595L68.6296 41.198L67.9756 43.438Z" fill="#243D51"/>
<path d="M48.4062 43.438C49.0804 43.8316 49.5935 44.0838 49.9456 44.2049C50.489 44.4067 51.1027 44.4975 51.7969 44.4975C53.0647 44.4975 54.0306 44.1746 54.6946 43.549C55.3084 42.9739 55.6203 42.207 55.6203 41.2586C55.6203 40.4312 55.1575 39.5533 54.2419 38.6351C53.447 37.8481 52.9439 37.3234 52.7528 37.0711C52.3805 36.5868 52.1893 36.1226 52.1893 35.6888C52.1893 35.3053 52.3302 34.9824 52.622 34.6898C52.9238 34.4073 53.3363 34.2559 53.8595 34.2559C54.2218 34.2559 54.6041 34.3669 55.0166 34.599C55.4392 34.8109 55.7209 35.0732 55.8517 35.3961C55.9221 35.5778 55.9624 35.8199 55.9624 36.1024L56.5459 36.2841L57.2201 34.1349C56.2743 33.6203 55.2782 33.3579 54.2318 33.3579C53.1653 33.3579 52.3 33.6707 51.636 34.3165C50.9719 34.932 50.6399 35.6787 50.6399 36.5565C50.6399 37.3435 51.0122 38.1407 51.7668 38.9378L53.1854 40.4816C53.769 41.1274 54.0708 41.7025 54.0708 42.207C54.0708 42.5703 53.93 42.8831 53.6583 43.1353C53.3263 43.4683 52.8333 43.6298 52.1692 43.6298C51.5957 43.6298 51.0625 43.4784 50.5695 43.1757C49.9658 42.8326 49.6639 42.3786 49.6639 41.8337C49.6639 41.7429 49.684 41.5915 49.7344 41.3595L49.0602 41.198L48.4062 43.438Z" fill="#243D51"/>
<path d="M47.4398 41.2384C46.7355 42.2777 46.1922 42.8024 45.8099 42.8024C45.4577 42.8024 45.2867 42.6207 45.2867 42.2373C45.2867 41.9951 45.337 41.6117 45.4476 41.087L47.0776 33.3579C46.7858 33.3983 46.5041 33.4285 46.2224 33.4285C46.1016 33.4285 45.83 33.4285 45.4074 33.4084C45.0049 33.3781 44.7031 33.368 44.5019 33.368C42.7814 33.368 41.2319 33.9129 39.8434 34.9925C38.6864 35.9006 37.7507 37.0812 37.0464 38.5241C36.4125 39.7955 36.1006 40.9155 36.1006 41.9043C36.1006 42.6006 36.2616 43.1858 36.5735 43.6499C36.9457 44.2251 37.4891 44.5177 38.2034 44.5177C39.3303 44.5177 40.5176 43.8114 41.7551 42.4088C42.6103 41.4301 43.3951 40.2293 44.1095 38.8268L44.1497 38.8672L43.7674 40.4715C43.5259 41.5512 43.4052 42.4391 43.4052 43.1454C43.4052 44.0535 43.7774 44.5076 44.5119 44.5076C45.5181 44.5076 46.7053 43.4885 48.0636 41.4704L47.4398 41.2384ZM37.9921 41.7631C37.9921 41.0567 38.1732 40.1991 38.5355 39.2001C38.8675 38.3122 39.2699 37.4949 39.7328 36.7684C40.3767 35.7695 41.081 35.0833 41.8356 34.71C42.4493 34.4073 43.2341 34.2559 44.19 34.2559C44.4616 34.2559 44.7333 34.2862 45.0251 34.3468C44.9345 35.8704 44.1397 37.7572 42.6506 40.0175C41.1615 42.2474 39.934 43.3674 38.9681 43.3674C38.3141 43.3674 37.9921 42.8427 37.9921 41.7631Z" fill="#243D51"/>
<path d="M18.0112 36.1428C18.0112 38.6653 18.8363 40.754 20.4763 42.3987C22.1163 44.0232 24.1487 44.8506 26.5534 44.8506C29.6322 44.8506 32.0469 43.8315 33.8077 41.7933C35.2867 40.088 36.0212 38.1305 36.0212 35.9208C36.0212 33.4083 35.1961 31.36 33.5561 29.7556C31.9262 28.1412 29.8032 27.334 27.1872 27.334C24.4807 27.334 22.227 28.2926 20.4562 30.2097C18.8262 31.9452 18.0112 33.9229 18.0112 36.1428ZM20.2952 36.2537C20.2952 34.0137 20.9995 32.1369 22.398 30.6133C23.7965 29.0897 25.4768 28.3228 27.4388 28.3228C29.1895 28.3228 30.6584 28.9686 31.8457 30.2501C33.1134 31.6122 33.7473 33.378 33.7473 35.5777C33.7473 37.9287 33.0732 39.8862 31.735 41.4704C30.4069 43.0546 28.7266 43.8517 26.6942 43.8517C24.6417 43.8517 23.0319 43.0445 21.8547 41.4199C20.8184 39.9871 20.2952 38.2718 20.2952 36.2537Z" fill="#243D51"/>
<path d="M63.6789 45.5874C63.8097 45.3856 63.9405 45.1838 64.0713 44.9618L65.993 41.7733C68.287 37.939 69.4239 35.5376 69.4239 34.5891C69.4239 33.7718 69.1322 33.3682 68.5385 33.3682C68.1663 33.3682 67.7437 33.5195 67.2708 33.8222C67.0897 33.9231 66.6772 34.246 66.0232 34.7707L66.2244 35.2752C66.5464 35.0129 66.8382 34.8918 67.1299 34.8918C67.5022 34.8918 67.6934 35.1138 67.6934 35.5678C67.6934 36.2136 67.2004 37.4749 66.2244 39.3517L64.192 43.2465H64.1417C64.0109 42.4191 63.7996 41.3798 63.5078 40.1387C63.1456 38.5545 62.9544 37.717 62.9444 37.6464C62.5822 35.921 62.1797 34.7303 61.7471 34.0644C61.4352 33.6002 61.0428 33.3682 60.5699 33.3682C59.8354 33.3682 58.8494 34.1451 57.6118 35.6788L57.2295 36.1531L57.7929 36.5869C58.4369 35.5779 59.0405 35.0734 59.5738 35.0734C60.1875 35.0734 60.6705 35.81 61.0226 37.2731L62.9142 45.3856C62.874 45.4562 62.8337 45.5269 62.7834 45.6076H63.6789V45.5874Z" fill="#243D51"/>
<path fill-rule="evenodd" clip-rule="evenodd" d="M85.6611 49.2197V27.0918H85.9061V49.2197H85.6611Z" fill="#333333"/>
<path fill-rule="evenodd" clip-rule="evenodd" d="M136.818 155H122.61C122.604 155 122.598 155 122.591 155C122.585 155 122.579 155 122.573 155H109.593C109.585 155 109.578 155 109.57 155C109.563 155 109.556 155 109.548 155H108.662V154.945C104.909 154.486 102 151.221 102 147.262C102 142.988 105.389 139.524 109.57 139.524C109.748 139.524 109.925 139.53 110.1 139.542C111.224 133.538 116.389 129 122.591 129C128.44 129 133.367 133.035 134.852 138.53C135.483 138.371 136.144 138.286 136.824 138.286C141.339 138.286 145 142.027 145 146.643C145 150.945 141.82 154.487 137.732 154.949V155H136.83C136.828 155 136.826 155 136.824 155C136.822 155 136.82 155 136.818 155Z" fill="white" fill-opacity="0.6"/>
<path fill-rule="evenodd" clip-rule="evenodd" d="M526.516 338.389H715.999C696.379 251.132 661.285 193 621.257 193C581.229 193 546.135 251.132 526.516 338.389Z" fill="#649D35"/>
<path fill-rule="evenodd" clip-rule="evenodd" d="M625.93 193.265C599.463 218.47 577.138 270.504 562.709 338.389H526.516C546.135 251.132 581.229 193 621.257 193C622.823 193 624.38 193.089 625.93 193.265Z" fill="#467609"/>
<path d="M590.809 284.034C584.588 278.527 572.25 276.461 566.858 276.117C571.213 276.117 619.114 262.348 627.201 259.938C635.288 257.529 650.103 251.361 650.103 247.857C650.103 242.301 628.45 235.864 621.918 233.111C615.386 230.357 601.384 224.295 595.786 218.443C590.187 212.591 595.786 207.548 600.69 204.063C605.717 200.49 619.894 193.168 622.573 193.031C625.252 192.895 627.817 193.226 627.072 193.605C618.071 198.181 609.423 203.774 603.483 209.292C598.207 214.195 617.098 221.328 636.694 228.901C656.289 236.474 666.49 241.321 666.49 247.857C666.49 254.023 657.508 259.688 648.488 264.852C641.272 268.982 615.719 277.723 602.862 284.034C598.508 286.329 597.03 289.542 590.809 284.034Z" fill="#9A9A9A"/>
<path fill-rule="evenodd" clip-rule="evenodd" d="M444 339H643.263C622.631 297.204 585.726 269.36 543.632 269.36C501.537 269.36 464.632 297.204 444 339Z" fill="#186219"/>
<path fill-rule="evenodd" clip-rule="evenodd" d="M643.263 338.389H475.174C490.641 303.883 515.756 278.487 545.321 269.375C544.759 269.365 544.196 269.36 543.631 269.36C501.537 269.36 464.632 296.96 444 338.389H643.263C643.263 338.389 643.263 338.389 643.263 338.389Z" fill="#124A13"/>
<path d="M519.007 281.869C518.447 278.171 532.598 271.758 539.362 269.667C542.059 269.051 549.159 269.35 545.66 270.671C542.161 271.991 530.272 278 532.715 280.563C535.864 283.864 559.655 287.166 568.751 291.458C582.745 298.061 579.597 305.997 576.098 311.94C571.365 319.98 562.803 326.797 556.856 330.429C552.097 333.334 553.007 338.34 554.057 339H481.285C482.451 337.459 487.233 333.387 489.332 332.08C493.88 329.246 507.525 325.133 525.368 321.502C543.211 317.87 559.523 311.461 559.523 304.172C559.523 296.228 550.937 293.848 542.161 291.458C536.122 289.813 519.707 286.491 519.007 281.869Z" fill="#B2B2B2"/>
<path fill-rule="evenodd" clip-rule="evenodd" d="M303.818 85H289.61C289.604 85 289.598 85 289.591 85C289.585 85 289.579 85 289.573 85H276.593C276.585 85 276.578 85 276.57 85C276.563 85 276.556 85 276.548 85H275.662V84.9448C271.909 84.486 269 81.2212 269 77.2619C269 72.9883 272.389 69.5238 276.57 69.5238C276.748 69.5238 276.925 69.5301 277.1 69.5425C278.224 63.5378 283.389 59 289.591 59C295.44 59 300.367 63.0352 301.852 68.5305C302.483 68.3705 303.144 68.2857 303.824 68.2857C308.339 68.2857 312 72.0273 312 76.6428C312 80.9446 308.82 84.4872 304.732 84.949V85H303.83C303.828 85 303.826 85 303.824 85C303.822 85 303.82 85 303.818 85Z" fill="white" fill-opacity="0.6"/>
<path fill-rule="evenodd" clip-rule="evenodd" d="M472.814 250H458.61C458.604 250 458.598 250 458.591 250C458.585 250 458.579 250 458.573 250H445.593C445.585 250 445.578 250 445.57 250C445.563 250 445.555 250 445.548 250H444.662V249.947C440.909 249.506 438 246.367 438 242.56C438 238.45 441.389 235.119 445.57 235.119C445.748 235.119 445.925 235.125 446.1 235.137C447.224 229.363 452.389 225 458.591 225C464.44 225 469.367 228.88 470.852 234.164C471.483 234.01 472.144 233.929 472.824 233.929C477.339 233.929 481 237.526 481 241.964C481 246.101 477.82 249.507 473.732 249.951V250H472.834C472.831 250 472.827 250 472.824 250C472.821 250 472.817 250 472.814 250Z" fill="white"/>
<path fill-rule="evenodd" clip-rule="evenodd" d="M566.818 120H552.61C552.604 120 552.598 120 552.591 120C552.585 120 552.579 120 552.573 120H539.593C539.585 120 539.578 120 539.57 120C539.563 120 539.556 120 539.548 120H538.662V119.945C534.909 119.486 532 116.221 532 112.262C532 107.988 535.389 104.524 539.57 104.524C539.748 104.524 539.925 104.53 540.1 104.542C541.224 98.5378 546.389 94 552.591 94C558.44 94 563.367 98.0352 564.852 103.53C565.483 103.371 566.144 103.286 566.824 103.286C571.339 103.286 575 107.027 575 111.643C575 115.945 571.82 119.487 567.732 119.949V120H566.83C566.828 120 566.826 120 566.824 120C566.822 120 566.82 120 566.818 120Z" fill="white"/>
<path fill-rule="evenodd" clip-rule="evenodd" d="M378.024 106.983C378.239 106.994 378.455 107 378.673 107C385.481 107 391 101.43 391 94.5594C391 87.6888 385.481 82.119 378.673 82.119C377.961 82.119 377.264 82.1798 376.586 82.2965C373.893 76.0279 367.707 71.6428 360.505 71.6428C359.049 71.6428 357.633 71.8222 356.28 72.1604C353.098 60.5359 342.543 52 330.012 52C315.959 52 304.39 62.7353 302.92 76.5229C301.252 75.9074 299.45 75.5715 297.571 75.5715C288.972 75.5715 282 82.607 282 91.2857C282 99.9644 288.972 107 297.571 107C298.456 107 299.323 106.926 300.168 106.782V107H378.024V106.983Z" fill="white"/>
<path fill-rule="evenodd" clip-rule="evenodd" d="M116.024 167.989C116.156 167.996 116.289 168 116.423 168C120.608 168 124 164.557 124 160.309C124 156.062 120.608 152.619 116.423 152.619C115.985 152.619 115.557 152.657 115.14 152.729C113.485 148.854 109.682 146.143 105.256 146.143C104.36 146.143 103.49 146.254 102.658 146.463C100.703 139.277 94.2143 134 86.5118 134C77.8737 134 70.7629 140.636 69.8589 149.16C68.8337 148.779 67.7264 148.571 66.5714 148.571C61.2852 148.571 57 152.921 57 158.286C57 163.651 61.2852 168 66.5714 168C67.1151 168 67.6483 167.954 68.1673 167.866V168H116.024V167.989Z" fill="white"/>
<path d="M660 396V338H0V396H660Z" fill="#649D35" stroke="black" stroke-width="2"/>
<path d="M660 378.359L0 353V388.033L660 393V378.359Z" fill="#C78A0C" stroke="black" stroke-width="2"/>
<path d="M660 391.443L0 366V398H660V391.443Z" fill="#754C24" stroke="black" stroke-width="2"/>
<rect x="41.2373" y="243.671" width="12.1695" height="94.3292" fill="#815C38" stroke="black" stroke-width="2"/>
<g style="mix-blend-mode:darken">
<rect x="40.2373" y="242.671" width="5.79661" height="96.3292" fill="#754C24"/>
</g>
<rect x="30" y="187" width="34" height="87.893" rx="17" fill="#649D35" stroke="black" stroke-width="4"/>
<g style="mix-blend-mode:darken">
<path fill-rule="evenodd" clip-rule="evenodd" d="M47 185C36.5066 185 28 193.507 28 204V257.893C28 268.386 36.5066 276.893 47 276.893C48.6692 276.893 50.2881 276.678 51.8305 276.274C43.6766 274.136 37.661 266.717 37.661 257.893V204C37.661 195.176 43.6766 187.757 51.8305 185.619C50.2881 185.215 48.6692 185 47 185Z" fill="#467609"/>
</g>
<rect x="17.915" y="206.309" width="11.7966" height="131.691" fill="#815C38" stroke="black" stroke-width="2"/>
<g style="mix-blend-mode:darken">
<rect x="16.915" y="205.309" width="5.64407" height="133.691" fill="#754C24"/>
</g>
<rect x="7" y="111" width="33" height="127.791" rx="16.5" fill="#649D35" stroke="black" stroke-width="4"/>
<g style="mix-blend-mode:darken">
<path fill-rule="evenodd" clip-rule="evenodd" d="M23.5 109C13.2827 109 5 117.283 5 127.5V222.291C5 232.508 13.2827 240.791 23.5 240.791C25.1253 240.791 26.7016 240.581 28.2034 240.187C20.264 238.107 14.4068 230.883 14.4068 222.291V127.5C14.4068 118.908 20.264 111.684 28.2034 109.603C26.7016 109.21 25.1253 109 23.5 109Z" fill="#467609"/>
</g>
<path d="M109 182H240V212H109V182Z" fill="#649D35"/>
<path d="M192.533 199.338H191.478L191.193 193.287H192.818L192.533 199.338ZM191.121 201.255C191.121 200.93 191.204 200.702 191.371 200.571C191.542 200.436 191.75 200.368 191.997 200.368C192.239 200.368 192.445 200.436 192.616 200.571C192.787 200.702 192.872 200.93 192.872 201.255C192.872 201.573 192.787 201.803 192.616 201.946C192.445 202.085 192.239 202.155 191.997 202.155C191.75 202.155 191.542 202.085 191.371 201.946C191.204 201.803 191.121 201.573 191.121 201.255Z" fill="white"/>
<path d="M187.59 201.994H186.154V194.502H183.605V193.287H190.133V194.502H187.59V201.994Z" fill="white"/>
<path d="M179.228 193.287C179.978 193.287 180.598 193.378 181.086 193.561C181.578 193.744 181.944 194.022 182.182 194.395C182.424 194.768 182.545 195.242 182.545 195.818C182.545 196.247 182.466 196.612 182.307 196.914C182.148 197.216 181.94 197.466 181.682 197.664C181.424 197.863 181.148 198.022 180.854 198.141L183.325 201.994H181.711L179.609 198.504H178.21V201.994H176.78V193.287H179.228ZM179.133 194.478H178.21V197.325H179.198C179.861 197.325 180.342 197.202 180.639 196.956C180.941 196.709 181.092 196.346 181.092 195.866C181.092 195.362 180.931 195.004 180.61 194.794C180.292 194.583 179.8 194.478 179.133 194.478Z" fill="white"/>
<path d="M174.111 201.994L173.26 199.576H169.931L169.079 201.994H167.572L170.812 193.251H172.396L175.63 201.994H174.111ZM172.89 198.349L172.063 195.967C172.031 195.864 171.985 195.719 171.926 195.532C171.866 195.342 171.807 195.149 171.747 194.955C171.687 194.756 171.638 194.589 171.598 194.454C171.558 194.617 171.509 194.8 171.449 195.002C171.394 195.201 171.338 195.387 171.282 195.562C171.231 195.737 171.191 195.872 171.163 195.967L170.33 198.349H172.89Z" fill="white"/>
<path d="M164.84 201.994H163.404V194.502H160.855V193.287H167.383V194.502H164.84V201.994Z" fill="white"/>
<path d="M160.141 199.624C160.141 200.14 160.014 200.585 159.76 200.958C159.509 201.331 159.148 201.617 158.676 201.815C158.207 202.014 157.647 202.113 156.996 202.113C156.679 202.113 156.375 202.095 156.085 202.059C155.795 202.024 155.521 201.972 155.263 201.905C155.009 201.833 154.777 201.748 154.566 201.649V200.303C154.92 200.457 155.315 200.598 155.752 200.725C156.188 200.849 156.633 200.91 157.086 200.91C157.455 200.91 157.76 200.862 158.003 200.767C158.249 200.668 158.431 200.529 158.551 200.35C158.67 200.168 158.729 199.955 158.729 199.713C158.729 199.455 158.66 199.237 158.521 199.058C158.382 198.879 158.171 198.717 157.89 198.57C157.612 198.419 157.262 198.258 156.841 198.087C156.556 197.972 156.282 197.841 156.02 197.694C155.761 197.547 155.531 197.375 155.329 197.176C155.126 196.978 154.965 196.743 154.846 196.473C154.731 196.199 154.674 195.878 154.674 195.509C154.674 195.016 154.791 194.595 155.025 194.246C155.263 193.897 155.597 193.629 156.025 193.442C156.458 193.255 156.962 193.162 157.538 193.162C157.995 193.162 158.424 193.21 158.825 193.305C159.229 193.4 159.627 193.535 160.016 193.71L159.563 194.859C159.206 194.713 158.858 194.595 158.521 194.508C158.187 194.421 157.846 194.377 157.496 194.377C157.195 194.377 156.939 194.423 156.728 194.514C156.518 194.605 156.357 194.734 156.246 194.901C156.139 195.064 156.085 195.258 156.085 195.485C156.085 195.739 156.147 195.953 156.27 196.128C156.397 196.299 156.591 196.455 156.853 196.598C157.119 196.741 157.461 196.9 157.878 197.075C158.358 197.273 158.765 197.482 159.098 197.7C159.436 197.919 159.694 198.181 159.873 198.486C160.051 198.788 160.141 199.167 160.141 199.624Z" fill="white"/>
<path d="M106 179H109V337H106V179Z" fill="#5C4208"/>
<path d="M105 179H107V337H105V179Z" fill="#C78A0C"/>
<path d="M241 179H243V337H241V179Z" fill="#5C4208"/>
<path d="M240 179H242V337H240V179Z" fill="#C78A0C"/>
<path d="M111 175.5C111 177.985 108.985 180 106.5 180C104.015 180 102 177.985 102 175.5C102 173.015 104.015 171 106.5 171C108.985 171 111 173.015 111 175.5Z" fill="#5C4208"/>
<path d="M246 175.5C246 177.985 243.985 180 241.5 180C239.015 180 237 177.985 237 175.5C237 173.015 239.015 171 241.5 171C243.985 171 246 173.015 246 175.5Z" fill="#5C4208"/>
<path d="M114.421 291.608C114.421 289.063 116.484 287 119.029 287C121.23 287 123.014 288.784 123.014 290.985V338H114.421V291.608Z" fill="#F7F7F7" stroke="black" stroke-width="2"/>
<rect x="0.854476" y="-1.12704" width="20.095" height="45.4341" transform="matrix(-0.136184 -0.990684 0.99066 -0.136355 99.0961 316.278)" fill="#F7F7F7" stroke="black" stroke-width="2"/>
<rect width="17.6561" height="4.71007" transform="matrix(0.991571 -0.129564 0.129301 0.991605 107.332 301.717)" fill="#DD359A"/>
<path d="M131.564 300.926L121.041 308.986L119.327 295.839L131.564 300.926Z" fill="#DD359A"/>
<g clip-path="url(#clip1_3230_7039)">
<path d="M400.998 275.901V279.867L390.587 285.88L359.499 293.74V281.265L400.998 275.901Z" fill="#C78A0C"/>
<path d="M400.998 231.923V275.902L359.499 281.266V255.897L400.998 231.923Z" fill="#70A739"/>
<path d="M400.997 231.923L359.499 255.897L318.004 231.923L359.499 207.949L400.997 231.923Z" fill="#70A739"/>
<path d="M390.585 285.881L359.499 303.842V293.742L390.585 285.881Z" fill="#754C24"/>
<path d="M359.499 293.742V303.841L318.004 279.868V258.047L359.442 293.753L359.499 293.742Z" fill="#754C24"/>
<path d="M359.499 281.266V293.742L359.44 293.755L318.004 258.049V243.907L359.442 281.272L359.499 281.266Z" fill="#C78A0C"/>
<path d="M359.499 255.897V281.267L359.44 281.273L318.002 243.908V231.923L359.499 255.897Z" fill="#70A739"/>
<path d="M360.502 303.841H358.495V256.476L317.502 232.792L318.505 231.054L360.502 255.317V303.841Z" fill="#1D1D1B"/>
<path d="M400.494 231.052L358.998 255.029L360.001 256.768L401.498 232.79L400.494 231.052Z" fill="#1D1D1B"/>
<path d="M359.499 305L317 280.447V231.343L317.502 231.054L359.499 206.79L402 231.343V280.447L359.499 305ZM319.007 279.288L359.499 302.682L399.993 279.288V232.503L359.499 209.108L319.007 232.503V279.288Z" fill="#1D1D1B"/>
<path d="M359.174 294.85L317.349 258.809L318.658 257.288L359.702 292.655L390.341 284.908L390.832 286.854L359.672 294.732L359.174 294.85Z" fill="#1D1D1B"/>
<path d="M359.106 282.322L358.77 282.019L317.332 244.654L318.675 243.163L359.771 280.22L400.868 274.907L401.125 276.902L359.556 282.274L359.106 282.322Z" fill="#1D1D1B"/>
<path d="M368.197 221.472H349.534V236.702H368.197V221.472Z" fill="white"/>
<path d="M351.896 223.742V229.04L352.644 233.122L355.034 235.149H349.392L340.424 231.928L347.004 216.293C346.675 205.911 347.224 196.868 347.224 196.868C347.224 196.868 353.89 192.767 356.419 192.386C359.316 191.951 367.998 194.192 367.998 194.192L378.306 202.877L378.386 202.946C378.436 203.31 378.461 203.677 378.461 204.044C378.432 205.592 378.046 207.112 377.334 208.486C375.275 212.683 371.049 215.815 370.451 216.243C370.405 216.277 370.38 216.294 370.38 216.294L376.961 231.929L370.377 240.267H364.733V233.123L368.15 229.041L365.482 223.742" fill="white"/>
<path d="M378.458 204.045C378.429 205.592 378.043 207.113 377.331 208.487L373.68 204.15L378.382 202.947C378.432 203.311 378.458 203.678 378.458 204.045Z" fill="#1D1D1B"/>
<path d="M354.059 203.141H350.287C350.147 203.141 350.008 203.111 349.88 203.054C349.752 202.997 349.638 202.914 349.544 202.81C349.45 202.706 349.379 202.584 349.335 202.451C349.292 202.318 349.276 202.177 349.29 202.038L349.604 198.892C349.624 198.699 349.698 198.515 349.819 198.364L351.076 196.791C351.17 196.673 351.29 196.578 351.425 196.513C351.561 196.448 351.709 196.414 351.86 196.414H355.004V198.422H352.342L351.571 199.386L351.395 201.133H354.059V203.141Z" fill="#1D1D1B"/>
<path d="M367.307 202.262C367.197 202.372 367.048 202.434 366.893 202.434C366.737 202.434 366.588 202.372 366.478 202.262L363.761 199.543L361.019 202.287C360.909 202.397 360.76 202.459 360.604 202.459C360.449 202.459 360.3 202.397 360.19 202.287L359.552 201.649C359.442 201.539 359.381 201.39 359.381 201.234C359.381 201.079 359.442 200.93 359.552 200.82L363.366 197.004C363.475 196.894 363.625 196.832 363.78 196.832C363.936 196.832 364.085 196.894 364.195 197.004L364.832 197.642C364.845 197.655 364.859 197.668 364.871 197.681L367.964 200.775C368.074 200.885 368.135 201.034 368.135 201.19C368.135 201.346 368.074 201.495 367.964 201.605L367.307 202.262Z" fill="#2E2E2E"/>
<path d="M377.474 209.061V213.167C377.475 213.222 377.459 213.275 377.429 213.32C377.398 213.366 377.355 213.401 377.305 213.422C377.255 213.443 377.199 213.448 377.146 213.437C377.093 213.426 377.044 213.4 377.006 213.361L375.514 211.868L377.474 209.061Z" fill="white"/>
<path d="M377.199 214.278C377.053 214.277 376.909 214.249 376.774 214.193C376.64 214.137 376.518 214.055 376.415 213.951L374.428 211.962L378.31 206.403V213.166C378.309 213.461 378.192 213.744 377.983 213.952C377.774 214.161 377.491 214.278 377.196 214.278H377.199ZM376.601 211.771L376.638 211.808V211.719L376.601 211.771Z" fill="#1D1D1B"/>
<path d="M377.603 210.371L376.142 208.631L376.435 208.044C377.078 206.808 377.429 205.44 377.458 204.046C377.458 203.724 377.436 203.403 377.392 203.085L379.346 202.656C380.225 205.542 378.389 208.942 378.31 209.086L377.603 210.371Z" fill="#1D1D1B"/>
<path d="M370.172 217.677L369.602 216.784C368.67 215.314 368.149 213.622 368.095 211.882C368.04 210.142 368.453 208.42 369.291 206.895C370.129 205.369 371.36 204.097 372.858 203.211C374.355 202.326 376.062 201.858 377.801 201.858C377.987 201.858 378.173 201.863 378.358 201.874L378.699 201.892L379.326 202.432L379.377 202.808C379.433 203.216 379.462 203.628 379.463 204.04C379.434 205.742 379.013 207.414 378.232 208.926C376.092 213.287 371.859 216.462 371.032 217.055L370.172 217.677ZM377.453 203.876C376.199 203.934 374.978 204.298 373.897 204.936C372.815 205.573 371.905 206.466 371.247 207.535C370.588 208.605 370.2 209.819 370.117 211.072C370.034 212.326 370.259 213.581 370.771 214.728C372.212 213.558 374.942 211.08 376.433 208.041C377.077 206.804 377.427 205.436 377.457 204.042C377.456 203.989 377.455 203.933 377.453 203.876Z" fill="#1D1D1B"/>
<path d="M328.865 225.021C328.547 224.935 328.257 224.769 328.022 224.538C327.787 224.308 327.615 224.021 327.523 223.705L326.086 217.762C326.045 217.502 326.058 217.238 326.126 216.984L326.392 215.99C326.524 215.503 326.843 215.088 327.279 214.836C327.716 214.584 328.234 214.515 328.722 214.644L334.281 215.637L333.41 212.897C333.42 212.68 333.503 212.473 333.647 212.31C333.966 211.952 336.099 210.474 336.514 210.232L337.052 209.914L340.777 216.801C340.946 217.093 341.035 217.426 341.034 217.764L346.011 218.707L341.93 228.132L337.732 226.934C337.282 227.118 336.785 227.15 336.315 227.023L328.865 225.021Z" fill="white"/>
<path fill-rule="evenodd" clip-rule="evenodd" d="M337.39 208.692L341.545 216.372C341.661 216.575 341.751 216.792 341.813 217.015L347.256 218.047L342.43 229.189L337.756 227.856C337.214 228.014 336.637 228.021 336.087 227.873L328.636 225.87C328.172 225.745 327.749 225.503 327.406 225.166C327.063 224.83 326.812 224.411 326.678 223.95L326.673 223.931L325.222 217.933L325.217 217.898C325.157 217.518 325.177 217.13 325.275 216.758L325.276 216.756L325.542 215.762L325.543 215.759C325.736 215.048 326.202 214.442 326.839 214.074C327.466 213.712 328.207 213.609 328.908 213.784L328.876 213.778L328.721 214.644L328.946 213.794C328.934 213.79 328.921 213.787 328.908 213.784L333.002 214.515L333.443 215.904L334.281 215.637L334.436 214.771L333.002 214.515L332.524 213.014L332.531 212.857C332.55 212.44 332.711 212.041 332.987 211.728L332.991 211.723C333.136 211.56 333.401 211.35 333.636 211.169C333.899 210.968 334.218 210.735 334.535 210.51C335.153 210.07 335.819 209.619 336.069 209.473L336.066 209.474L336.502 210.212L336.278 210.333L336.717 211.144C336.443 211.324 336.005 211.624 335.554 211.944C335.246 212.163 334.946 212.382 334.706 212.566C334.586 212.659 334.486 212.738 334.409 212.802C334.37 212.835 334.343 212.859 334.326 212.875L334.248 212.63L334.073 212.686L333.647 212.31L334.069 212.687L333.41 212.897L334.288 212.936C334.289 212.921 334.294 212.907 334.303 212.896C334.303 212.895 334.304 212.895 334.304 212.894C334.308 212.891 334.315 212.885 334.326 212.875L335.561 216.759L328.531 215.504L328.496 215.495C328.234 215.425 327.954 215.462 327.719 215.598C327.484 215.734 327.312 215.957 327.241 216.219L327.241 216.218L326.392 215.99L327.241 216.22C327.241 216.22 327.241 216.219 327.241 216.219L326.975 217.211C326.975 217.21 326.976 217.21 326.976 217.21L326.126 216.984L326.975 217.212L326.975 217.211C326.942 217.336 326.934 217.466 326.95 217.595L326.94 217.555L326.085 217.761L326.954 217.625C326.953 217.615 326.951 217.605 326.95 217.595L328.372 223.475C328.37 223.47 328.369 223.464 328.367 223.459L327.523 223.704L328.378 223.498L328.372 223.475C328.423 223.64 328.514 223.789 328.637 223.91C328.764 224.035 328.921 224.124 329.093 224.171L329.092 224.171L328.865 225.02L329.093 224.171L336.543 226.173C336.826 226.25 337.127 226.231 337.399 226.12L337.68 226.005L341.429 227.074L341.123 227.781L341.93 228.131L342.171 227.285L341.429 227.074L344.767 219.366L345.848 219.571L346.011 218.706L345.204 218.356L344.767 219.366L340.153 218.492L340.155 217.762C340.155 217.579 340.107 217.399 340.016 217.241L340.009 217.23L336.717 211.144C336.826 211.073 336.909 211.02 336.956 210.993L337.499 210.672L337.052 209.914L336.502 210.212L336.071 209.471C336.07 209.472 336.07 209.472 336.069 209.473L337.39 208.692Z" fill="#1D1D1B"/>
<path d="M362.136 164.64C362.136 163.182 360.955 162 359.498 162C358.041 162 356.86 163.182 356.86 164.64V175.785C356.86 177.242 358.041 178.424 359.498 178.424C360.955 178.424 362.136 177.242 362.136 175.785V164.64Z" fill="#70A739"/>
<path d="M385.232 173.465C386.263 172.434 386.263 170.763 385.232 169.732C384.202 168.701 382.532 168.701 381.502 169.732L373.627 177.613C372.596 178.644 372.596 180.315 373.627 181.346C374.657 182.377 376.327 182.377 377.357 181.346L385.232 173.465Z" fill="#70A739"/>
<path d="M341.641 181.346C342.671 182.377 344.341 182.377 345.371 181.346C346.401 180.315 346.401 178.644 345.371 177.613L337.496 169.732C336.466 168.702 334.795 168.702 333.765 169.732C332.735 170.763 332.735 172.434 333.765 173.465L341.641 181.346Z" fill="#70A739"/>
<path fill-rule="evenodd" clip-rule="evenodd" d="M363.746 241.27H370.88L378.123 232.084L371.616 216.629C373.077 215.499 376.417 212.643 378.24 208.93C379.021 207.417 379.442 205.745 379.471 204.043C379.47 203.631 379.442 203.22 379.386 202.812L379.334 202.436L368.476 193.28L368.255 193.221C367.346 192.985 359.288 190.941 356.276 191.394C353.622 191.793 347.405 195.582 346.705 196.013L346.261 196.286L346.229 196.807C346.223 196.897 345.688 205.887 346.001 216.105L339.275 232.084L340.757 234.148L352.758 238.249V238.255H363.746V241.27ZM363.746 235.322V232.757L366.974 228.902L364.603 224.193L366.394 223.289L369.36 229.178L365.753 233.487V239.263H369.908L375.818 231.771L369.136 215.902L369.851 215.446C370.341 215.094 374.474 212.058 376.443 208.044C377.087 206.807 377.438 205.439 377.467 204.045C377.467 203.85 377.459 203.653 377.442 203.455L367.535 195.109C365.008 194.468 358.721 193.056 356.574 193.379C354.806 193.645 350.293 196.195 348.203 197.451C348.095 199.52 347.734 207.452 348.013 216.261L348.02 216.481L341.636 231.508L346.896 233.269L352.773 235.321V235.322H363.746Z" fill="#1D1D1B"/>
</g>
<path d="M321 293L304 311" stroke="black" stroke-width="2" stroke-linecap="round" stroke-linejoin="round"/>
<path d="M331 293L313 311" stroke="black" stroke-width="2" stroke-linecap="round" stroke-linejoin="round"/>
<path d="M331 302L314 320" stroke="black" stroke-width="2" stroke-linecap="round" stroke-linejoin="round"/>
<path d="M452.152 112.45V85H459V112.45H452.152ZM452.152 122.548V115.352H459V122.548H452.152Z" fill="black"/>
<path d="M417.882 122.548V90.107H423.047V85H440.225V90.107H445.448V107.343H440.225V112.45H424.73V122.548H417.882ZM424.73 105.196H438.542V92.2542H424.73V105.196Z" fill="black"/>
<path d="M388.777 122.548V117.557H383.612V85H390.46V115.352H404.272V85H411.178V117.557H405.955V122.548H388.777Z" fill="black"/>
<path d="M343.246 122.548V117.557H338.081V85H344.929V115.352H358.741V110.303H365.647V117.557H360.424V122.548H343.246Z" fill="black"/>
<path d="M308.976 122.548V117.557H303.811V90.107H308.976V85H326.153V90.107H331.377V97.3031H324.471V92.2542H310.659V100.205H321.047V107.343H310.659V115.352H324.471V110.303H331.377V117.557H326.153V122.548H308.976Z" fill="black"/>
<path d="M279.812 122.548V117.557H274.705V107.343H269.54V85H276.388V105.196H281.553V115.352H285.035V105.196H290.2V85H297.106V107.343H291.883V117.557H286.776V122.548H279.812Z" fill="black"/>
<path d="M240.435 122.548V117.557H235.271V90.107H240.435V85H257.613V90.107H262.836V97.3031H255.93V92.2542H242.118V100.205H252.506V107.343H242.118V115.352H255.93V110.303H262.836V117.557H257.613V122.548H240.435Z" fill="black"/>
<path d="M206.165 122.548V117.557H201V85H207.848V115.352H221.66V110.303H228.566V117.557H223.343V122.548H206.165Z" fill="black"/>
<rect x="470.03" y="139.03" width="31.9394" height="31.9394" rx="5.15152" fill="#FDB515" stroke="black" stroke-width="2.06061"/>
<rect x="471.061" y="140.061" width="27.8182" height="27.8182" rx="6.18182" fill="#FED77F"/>
<rect x="472.091" y="142.121" width="6.18182" height="1.0303" transform="rotate(90 472.091 142.121)" fill="white"/>
<rect x="472.091" y="149.333" width="1.0303" height="1.0303" transform="rotate(90 472.091 149.333)" fill="white"/>
<rect x="473.121" y="141.091" width="1.0303" height="1.0303" transform="rotate(90 473.121 141.091)" fill="white"/>
<rect x="473.121" y="140.061" width="7.21212" height="1.0303" fill="white"/>
<rect x="504.03" y="139.03" width="31.9394" height="31.9394" rx="5.15152" fill="#FDB515" stroke="black" stroke-width="2.06061"/>
<rect x="505.061" y="140.061" width="27.8182" height="27.8182" rx="6.18182" fill="#FED77F"/>
<rect x="506.091" y="142.121" width="6.18182" height="1.0303" transform="rotate(90 506.091 142.121)" fill="white"/>
<rect x="506.091" y="149.333" width="1.0303" height="1.0303" transform="rotate(90 506.091 149.333)" fill="white"/>
<rect x="507.121" y="141.091" width="1.0303" height="1.0303" transform="rotate(90 507.121 141.091)" fill="white"/>
<rect x="507.121" y="140.061" width="7.21212" height="1.0303" fill="white"/>
<rect x="538.03" y="139.03" width="31.9394" height="31.9394" rx="5.15152" fill="#FDB515" stroke="black" stroke-width="2.06061"/>
<rect x="539.061" y="140.061" width="27.8182" height="27.8182" rx="6.18182" fill="#FED77F"/>
<rect x="540.091" y="142.121" width="6.18182" height="1.0303" transform="rotate(90 540.091 142.121)" fill="white"/>
<rect x="540.091" y="149.333" width="1.0303" height="1.0303" transform="rotate(90 540.091 149.333)" fill="white"/>
<rect x="541.121" y="141.091" width="1.0303" height="1.0303" transform="rotate(90 541.121 141.091)" fill="white"/>
<rect x="541.121" y="140.061" width="7.21212" height="1.0303" fill="white"/>
<rect x="572.03" y="139.03" width="31.9394" height="31.9394" rx="5.15152" fill="#FDB515" stroke="black" stroke-width="2.06061"/>
<rect x="573.061" y="140.061" width="27.8182" height="27.8182" rx="6.18182" fill="#FED77F"/>
<rect x="574.091" y="142.121" width="6.18182" height="1.0303" transform="rotate(90 574.091 142.121)" fill="white"/>
<rect x="574.091" y="149.333" width="1.0303" height="1.0303" transform="rotate(90 574.091 149.333)" fill="white"/>
<rect x="575.121" y="141.091" width="1.0303" height="1.0303" transform="rotate(90 575.121 141.091)" fill="white"/>
<rect x="575.121" y="140.061" width="7.21212" height="1.0303" fill="white"/>
<rect x="606.03" y="139.03" width="31.9394" height="31.9394" rx="5.15152" fill="#FDB515" stroke="black" stroke-width="2.06061"/>
<rect x="607.061" y="140.061" width="27.8182" height="27.8182" rx="6.18182" fill="#FED77F"/>
<rect x="608.091" y="142.121" width="6.18182" height="1.0303" transform="rotate(90 608.091 142.121)" fill="white"/>
<rect x="608.091" y="149.333" width="1.0303" height="1.0303" transform="rotate(90 608.091 149.333)" fill="white"/>
<rect x="609.121" y="141.091" width="1.0303" height="1.0303" transform="rotate(90 609.121 141.091)" fill="white"/>
<rect x="609.121" y="140.061" width="7.21212" height="1.0303" fill="white"/>
<path d="M619.844 158.89V152.694H624.743V148.671H618.229V153.781H615V147.584H617.436V145H625.537V147.584H628V153.781H625.537V156.306H623.128V158.89H619.844ZM619.844 164V160.359H623.128V164H619.844Z" fill="white"/>
<path d="M493.166 154.021L479.749 147.312H477.833V161.08H475.916L478.791 164.083L481.666 161.08H479.749V149.708L484.541 152.104V161.08H482.624L485.499 164.083L488.374 161.08H486.458V152.958L491.249 155.398V161.08H489.333L492.208 164.083L495.083 161.08H493.166V154.021Z" fill="black"/>
<path d="M493.167 144.917H491.25V150.667H493.167V144.917Z" fill="black"/>
<path d="M495.084 148.75V146.833H489.334V148.75H495.084Z" fill="black"/>
<path d="M544.833 146.75V154.083C544.833 154.633 545.2 155 545.75 155L562.25 151.333C562.8 151.333 563.166 150.967 563.166 150.417V146.75C563.166 146.2 562.8 145.833 562.25 145.833H545.75C545.2 145.833 544.833 146.2 544.833 146.75ZM561.333 149.5L546.666 153.167V147.667H561.333V149.5Z" fill="black"/>
<path fill-rule="evenodd" clip-rule="evenodd" d="M554.606 155.229C554.803 155.403 554.916 155.654 554.916 155.917V163.25C554.916 163.756 554.506 164.167 554 164.167H545.75C545.243 164.167 544.833 163.756 544.833 163.25V156.833C544.833 156.371 545.177 155.981 545.636 155.924L553.886 155.007C554.147 154.974 554.409 155.055 554.606 155.229ZM546.666 157.643V162.333H553.083V156.955L546.666 157.643Z" fill="black"/>
<path fill-rule="evenodd" clip-rule="evenodd" d="M562.772 153.33C563.019 153.501 563.167 153.783 563.167 154.084V163.25C563.167 163.757 562.756 164.167 562.25 164.167H557.667C557.16 164.167 556.75 163.757 556.75 163.25V155.459C556.75 155.077 556.987 154.735 557.345 154.6L561.928 153.225C562.21 153.12 562.525 153.159 562.772 153.33ZM558.583 156.094V162.334H561.333V155.406L558.583 156.094Z" fill="black"/>
<path fill-rule="evenodd" clip-rule="evenodd" d="M523 166L523 151L525 151L525 166L523 166Z" fill="black"/>
<path d="M514.689 146.764C513.892 146.764 513.274 147.064 512.837 147.666C512.399 148.263 512.181 149.097 512.181 150.168C512.181 152.396 513.017 153.511 514.689 153.511C515.391 153.511 516.241 153.335 517.239 152.984V154.762C516.419 155.104 515.503 155.274 514.491 155.274C513.037 155.274 511.925 154.835 511.155 153.955C510.385 153.071 510 151.804 510 150.154C510 149.115 510.189 148.206 510.567 147.427C510.946 146.643 511.488 146.044 512.194 145.629C512.905 145.21 513.737 145 514.689 145C515.66 145 516.635 145.235 517.615 145.704L516.932 147.427C516.558 147.249 516.182 147.094 515.804 146.962C515.425 146.83 515.054 146.764 514.689 146.764Z" fill="black"/>
<path fill-rule="evenodd" clip-rule="evenodd" d="M524 155C521.689 155 520 156.664 520 158.5C520 160.336 521.689 162 524 162C526.311 162 528 160.336 528 158.5C528 156.664 526.311 155 524 155ZM518 158.5C518 155.366 520.788 153 524 153C527.212 153 530 155.366 530 158.5C530 161.634 527.212 164 524 164C520.788 164 518 161.634 518 158.5Z" fill="black"/>
<path d="M579 159C579 158.448 579.448 158 580 158H584C584.552 158 585 158.448 585 159V163C585 163.552 584.552 164 584 164H580C579.448 164 579 163.552 579 163V159Z" fill="black"/>
<path d="M581 144H583V147H581V144Z" fill="black"/>
<path d="M581 151H583V158H581V151Z" fill="black"/>
<path d="M593 160L593 162L585 162L585 160L593 160Z" fill="black"/>
<path d="M596 160L596 162L599 162L599 160L596 160Z" fill="black"/>
<path fill-rule="evenodd" clip-rule="evenodd" d="M582 153C583.657 153 585 151.657 585 150C585 148.343 583.657 147 582 147C580.343 147 579 148.343 579 150C579 151.657 580.343 153 582 153ZM582 149C582.552 149 583 149.448 583 150C583 150.552 582.552 151 582 151C581.448 151 581 150.552 581 150C581 149.448 581.448 149 582 149Z" fill="black"/>
<path fill-rule="evenodd" clip-rule="evenodd" d="M594 164C595.657 164 597 162.657 597 161C597 159.343 595.657 158 594 158C592.343 158 591 159.343 591 161C591 162.657 592.343 164 594 164ZM594 160C594.552 160 595 160.448 595 161C595 161.552 594.552 162 594 162C593.448 162 593 161.552 593 161C593 160.448 593.448 160 594 160Z" fill="black"/>
</g>
<defs>
<clipPath id="clip0_3230_7039">
<rect width="660" height="398" fill="white"/>
</clipPath>
<clipPath id="clip1_3230_7039">
<rect width="85" height="143" fill="white" transform="translate(317 162)"/>
</clipPath>
</defs>
</svg>
