<svg width="700" height="414" viewBox="0 0 700 414" fill="none" xmlns="http://www.w3.org/2000/svg">
<g clip-path="url(#clip0_11374_1227)">
<rect width="700" height="414" fill="#79BFB5"/>
<path opacity="0.5" d="M507.984 290L395.59 386.277" stroke="white" stroke-width="10" stroke-linecap="round"/>
<path opacity="0.5" d="M175.984 155L63.5902 251.277" stroke="white" stroke-width="10" stroke-linecap="round"/>
<path d="M477.518 363.819C478.522 364.129 478.522 365.488 477.518 365.798L472.824 367.246C472.374 367.385 472.07 367.786 472.071 368.238L472.082 372.956C472.084 373.965 470.733 374.386 470.114 373.568L467.224 369.745C466.947 369.378 466.455 369.225 466.005 369.366L461.318 370.833C460.315 371.148 459.48 370.048 460.102 369.232L463.01 365.422C463.289 365.056 463.289 364.561 463.01 364.196L460.102 360.385C459.48 359.57 460.315 358.47 461.318 358.784L466.005 360.252C466.455 360.392 466.947 360.239 467.224 359.873L470.114 356.05C470.733 355.232 472.084 355.652 472.082 356.661L472.071 361.379C472.07 361.831 472.374 362.232 472.824 362.371L477.518 363.819Z" fill="white"/>
<path d="M422.37 41.5843C423.374 41.8942 423.374 43.2535 422.37 43.5633L417.676 45.0114C417.227 45.1502 416.922 45.5511 416.923 46.0032L416.934 50.7211C416.936 51.7306 415.585 52.1507 414.967 51.3327L412.077 47.5097C411.8 47.1434 411.307 46.9903 410.858 47.1309L406.171 48.5986C405.168 48.9127 404.333 47.813 404.955 46.9976L407.862 43.1868C408.141 42.8216 408.141 42.3261 407.862 41.9609L404.955 38.1501C404.333 37.3347 405.168 36.235 406.171 36.549L410.858 38.0168C411.307 38.1574 411.8 38.0043 412.077 37.6379L414.967 33.815C415.585 32.997 416.936 33.4171 416.934 34.4265L416.923 39.1445C416.922 39.5966 417.227 39.9975 417.676 40.1362L422.37 41.5843Z" fill="white"/>
<path d="M533.702 96.133C534.766 96.461 534.766 97.9003 533.702 98.2283L528.733 99.7617C528.256 99.9086 527.934 100.333 527.935 100.812L527.947 105.807C527.949 106.876 526.518 107.321 525.863 106.455L522.803 102.407C522.51 102.019 521.988 101.857 521.513 102.006L516.55 103.56C515.488 103.892 514.604 102.728 515.263 101.865L518.341 97.8297C518.636 97.443 518.636 96.9183 518.341 96.5317L515.263 92.4967C514.604 91.6333 515.488 90.4689 516.55 90.8015L521.513 92.3555C521.988 92.5044 522.51 92.3423 522.803 91.9544L525.863 87.9066C526.518 87.0405 527.949 87.4852 527.947 88.5541L527.935 93.5496C527.934 94.0282 528.256 94.4527 528.733 94.5997L533.702 96.133Z" fill="white"/>
<path d="M683.564 254.389C685.218 254.936 685.218 257.335 683.564 257.882L675.833 260.437C675.092 260.682 674.59 261.39 674.592 262.187L674.61 270.513C674.614 272.295 672.388 273.036 671.369 271.592L666.609 264.846C666.153 264.2 665.342 263.929 664.602 264.178L656.882 266.768C655.23 267.322 653.855 265.381 654.879 263.942L659.668 257.217C660.127 256.573 660.127 255.698 659.668 255.054L654.879 248.329C653.855 246.89 655.23 244.949 656.882 245.504L664.602 248.094C665.342 248.342 666.153 248.072 666.609 247.425L671.369 240.679C672.388 239.235 674.614 239.977 674.61 241.758L674.592 250.084C674.59 250.882 675.092 251.589 675.833 251.834L683.564 254.389Z" fill="white"/>
<path d="M179.72 254.389C181.374 254.936 181.374 257.335 179.72 257.882L171.989 260.437C171.249 260.682 170.747 261.39 170.749 262.187L170.766 270.513C170.77 272.295 168.545 273.036 167.526 271.592L162.766 264.846C162.31 264.2 161.498 263.929 160.759 264.178L153.039 266.768C151.387 267.322 150.011 265.381 151.036 263.942L155.825 257.217C156.284 256.573 156.284 255.698 155.825 255.054L151.036 248.329C150.011 246.89 151.387 244.949 153.039 245.504L160.759 248.094C161.498 248.342 162.31 248.072 162.766 247.425L167.526 240.679C168.545 239.235 170.77 239.977 170.766 241.758L170.749 250.084C170.747 250.882 171.249 251.589 171.989 251.834L179.72 254.389Z" fill="white"/>
<path d="M556.455 235.624C557.459 235.952 557.459 237.391 556.455 237.719L551.761 239.253C551.311 239.4 551.007 239.824 551.008 240.303L551.018 245.298C551.021 246.367 549.669 246.812 549.051 245.946L546.161 241.898C545.884 241.51 545.391 241.348 544.942 241.497L540.255 243.051C539.252 243.383 538.417 242.219 539.039 241.356L541.947 237.321C542.225 236.934 542.225 236.409 541.947 236.023L539.039 231.988C538.417 231.124 539.252 229.96 540.255 230.292L544.942 231.846C545.391 231.995 545.884 231.833 546.161 231.445L549.051 227.398C549.669 226.531 551.021 226.976 551.018 228.045L551.008 233.041C551.007 233.519 551.311 233.944 551.761 234.091L556.455 235.624Z" fill="white"/>
<path d="M340.19 252.925C341.194 253.253 341.194 254.693 340.19 255.021L335.496 256.554C335.046 256.701 334.742 257.125 334.743 257.604L334.753 262.599C334.756 263.668 333.404 264.113 332.786 263.247L329.896 259.199C329.619 258.811 329.126 258.649 328.677 258.798L323.99 260.352C322.987 260.685 322.152 259.52 322.774 258.657L325.682 254.622C325.96 254.235 325.96 253.711 325.682 253.324L322.774 249.289C322.152 248.426 322.987 247.261 323.99 247.594L328.677 249.148C329.126 249.297 329.619 249.135 329.896 248.747L332.786 244.699C333.404 243.833 334.756 244.277 334.753 245.346L334.743 250.342C334.742 250.82 335.046 251.245 335.496 251.392L340.19 252.925Z" fill="white"/>
<path d="M65.5329 338.35C66.5372 338.678 66.5372 340.117 65.5329 340.445L60.8392 341.978C60.3894 342.125 60.085 342.55 60.086 343.029L60.0968 348.024C60.0991 349.093 58.7477 349.538 58.1293 348.672L55.2392 344.624C54.9623 344.236 54.4697 344.074 54.0205 344.223L49.3335 345.777C48.3306 346.109 47.4954 344.945 48.1175 344.081L51.0251 340.046C51.3037 339.66 51.3037 339.135 51.0251 338.748L48.1175 334.713C47.4954 333.85 48.3306 332.686 49.3335 333.018L54.0205 334.572C54.4697 334.721 54.9623 334.559 55.2392 334.171L58.1293 330.123C58.7477 329.257 60.0991 329.702 60.0968 330.771L60.086 335.766C60.085 336.245 60.3894 336.67 60.8392 336.816L65.5329 338.35Z" fill="white"/>
<path d="M283.629 -0.798222C284.634 -0.488378 284.634 0.870907 283.629 1.18075L278.936 2.62887C278.486 2.76763 278.181 3.16854 278.182 3.62063L278.193 8.33858C278.196 9.34805 276.844 9.76809 276.226 8.95011L273.336 5.12715C273.059 4.76082 272.566 4.60769 272.117 4.74833L267.43 6.21607C266.427 6.53011 265.592 5.43042 266.214 4.61504L269.122 0.804204C269.4 0.439039 269.4 -0.0565106 269.122 -0.421676L266.214 -4.23252C265.592 -5.0479 266.427 -6.14758 267.43 -5.83354L272.117 -4.3658C272.566 -4.22516 273.059 -4.37829 273.336 -4.74462L276.226 -8.56758C276.844 -9.38556 278.196 -8.96552 278.193 -7.95605L278.182 -3.2381C278.181 -2.78601 278.486 -2.3851 278.936 -2.24634L283.629 -0.798222Z" fill="white"/>
<path d="M56.6663 223.684C57.7297 224.012 57.7297 225.452 56.6663 225.78L51.6965 227.313C51.2203 227.46 50.8979 227.884 50.899 228.363L50.9104 233.358C50.9129 234.427 49.482 234.872 48.8273 234.006L45.7672 229.958C45.4739 229.57 44.9523 229.408 44.4768 229.557L39.514 231.111C38.4521 231.444 37.5678 230.279 38.2265 229.416L41.3051 225.381C41.6001 224.994 41.6001 224.47 41.3051 224.083L38.2265 220.048C37.5678 219.185 38.4521 218.02 39.514 218.353L44.4768 219.907C44.9523 220.056 45.4739 219.894 45.7672 219.506L48.8273 215.458C49.482 214.592 50.9129 215.037 50.9104 216.105L50.899 221.101C50.8979 221.58 51.2203 222.004 51.6965 222.151L56.6663 223.684Z" fill="white"/>
<path d="M6.37017 143.096C6.96092 143.278 6.96092 144.077 6.37017 144.26L3.60915 145.112C3.34458 145.193 3.16548 145.429 3.16609 145.695L3.17243 148.47C3.17378 149.064 2.37887 149.311 2.01512 148.83L0.315064 146.581C0.152159 146.366 -0.137638 146.276 -0.401831 146.358L-3.15893 147.222C-3.74884 147.406 -4.24012 146.759 -3.87418 146.28L-2.16386 144.038C-1.99997 143.823 -1.99997 143.532 -2.16386 143.317L-3.87418 141.075C-4.24012 140.596 -3.74884 139.949 -3.15893 140.134L-0.401831 140.997C-0.137638 141.08 0.15216 140.99 0.315064 140.774L2.01512 138.525C2.37888 138.044 3.17378 138.291 3.17243 138.885L3.16609 141.66C3.16548 141.926 3.34458 142.162 3.60915 142.244L6.37017 143.096Z" fill="white"/>
<path d="M248.277 125.329C249.281 125.657 249.281 127.096 248.277 127.424L243.583 128.957C243.133 129.104 242.829 129.529 242.83 130.008L242.841 135.003C242.843 136.072 241.492 136.517 240.873 135.651L237.983 131.603C237.706 131.215 237.214 131.053 236.765 131.202L232.077 132.756C231.075 133.088 230.239 131.924 230.862 131.06L233.769 127.025C234.048 126.639 234.048 126.114 233.769 125.727L230.862 121.692C230.239 120.829 231.075 119.665 232.077 119.997L236.765 121.551C237.214 121.7 237.706 121.538 237.983 121.15L240.873 117.102C241.492 116.236 242.843 116.681 242.841 117.75L242.83 122.745C242.829 123.224 243.133 123.649 243.583 123.795L248.277 125.329Z" fill="white"/>
<path d="M120.282 110.207C121.818 110.699 121.818 112.858 120.282 113.35L113.103 115.65C112.415 115.87 111.95 116.507 111.951 117.225L111.968 124.718C111.971 126.322 109.904 126.989 108.959 125.69L104.538 119.618C104.115 119.036 103.361 118.793 102.675 119.016L95.5061 121.347C93.9723 121.846 92.695 120.1 93.6464 118.805L98.0933 112.752C98.5194 112.172 98.5194 111.385 98.0933 110.805L93.6464 104.753C92.695 103.458 93.9723 101.711 95.5061 102.21L102.675 104.541C103.361 104.764 104.115 104.521 104.538 103.939L108.959 97.8674C109.904 96.5683 111.971 97.2354 111.968 98.8387L111.951 106.332C111.95 107.05 112.415 107.687 113.103 107.907L120.282 110.207Z" fill="white"/>
<path fill-rule="evenodd" clip-rule="evenodd" d="M20.3135 301.368C12.9262 296.033 7.25962 288.217 4.71734 278.729C1.83765 267.981 3.50178 257.087 8.53212 248.086C0.766144 245.952 -5.69454 239.872 -7.92955 231.53C-11.2821 219.018 -3.85694 206.158 8.6551 202.805C21.1671 199.452 34.028 206.878 37.3806 219.39C38.1131 222.124 38.3311 224.874 38.0939 227.539C58.5447 224.352 78.5316 237.036 84.01 257.482C86.947 268.443 85.1576 279.557 79.8912 288.66C84.0042 287.769 88.2724 287.3 92.649 287.3C120.484 287.3 143.931 306.266 151 332.093C154.005 331.342 157.149 330.943 160.385 330.943C176.381 330.943 190.123 340.687 196.104 354.615C197.611 354.355 199.16 354.22 200.74 354.22C209.04 354.22 216.477 357.947 221.499 363.834C224.808 361.809 228.635 360.652 232.713 360.652C233.247 360.652 233.777 360.672 234.302 360.711C237.674 341.745 253.172 327.412 271.78 327.412C289.327 327.412 304.108 340.157 308.564 357.515C310.459 357.01 312.441 356.742 314.482 356.742C322.787 356.742 330.128 361.183 334.566 367.98C337.908 350.408 355.634 337 377 337C393.811 337 408.369 345.301 415.44 357.4C421.414 354.005 428.578 352.027 436.281 352.027C451.815 352.027 465.16 360.07 470.968 371.567C472.431 371.353 473.935 371.241 475.469 371.241C483.962 371.241 491.525 374.657 496.394 379.975C496.714 379.983 497.032 379.996 497.349 380.015C500.65 365.006 515.819 353.663 534.034 353.663C554.662 353.663 571.385 368.211 571.385 386.158C571.385 386.898 571.357 387.633 571.301 388.361C582.543 390.101 591.078 398.647 591.078 408.927C591.078 420.464 580.328 429.816 567.066 429.816C557.842 429.816 549.832 425.291 545.811 418.653H534.086L534.034 418.653L533.982 418.653H495.86L495.794 418.653L495.727 418.653H493.125V418.515C489.785 418.168 486.673 417.176 483.957 415.687C481.291 416.456 478.437 416.874 475.469 416.874C475 416.874 474.533 416.863 474.07 416.842V416.874H436.307H436.281H436.254H306.121V409.535H271.832L271.78 409.535L271.727 409.535H232.776L232.713 409.535L232.651 409.535H229.987V409.361C225.339 408.763 221.123 406.654 217.774 403.504C213.098 407.259 207.179 409.502 200.74 409.502C200.257 409.502 199.777 409.489 199.3 409.464V409.502H26.3561V409.019C24.4806 409.336 22.5538 409.502 20.5889 409.502C1.48599 409.502 -13.9999 393.87 -13.9999 374.587C-13.9999 355.304 1.48599 339.672 20.5889 339.672C21.6415 339.672 22.6832 339.72 23.7119 339.813C24.0375 338.629 24.4789 337.483 25.0267 336.393C21.0652 333.04 18.0502 328.487 16.6052 323.094C14.5319 315.357 16.1225 307.501 20.3135 301.368Z" fill="#CBCBCB"/>
<path fill-rule="evenodd" clip-rule="evenodd" d="M170.562 418.563H142.587C142.575 418.563 142.562 418.563 142.55 418.563C142.538 418.563 142.526 418.563 142.513 418.563H116.952C116.938 418.563 116.923 418.563 116.908 418.563C116.893 418.563 116.879 418.563 116.864 418.563H115.119V418.456C107.729 417.564 102 411.215 102 403.515C102 395.204 108.675 388.466 116.908 388.466C117.259 388.466 117.607 388.478 117.951 388.502C120.165 376.825 130.336 368 142.55 368C154.068 368 163.769 375.847 166.694 386.534C167.938 386.223 169.239 386.058 170.578 386.058C179.47 386.058 186.679 393.335 186.679 402.311C186.679 410.677 180.417 417.566 172.366 418.464V418.563H170.594C170.588 418.563 170.583 418.563 170.578 418.563C170.573 418.563 170.567 418.563 170.562 418.563Z" fill="white"/>
<path fill-rule="evenodd" clip-rule="evenodd" d="M-8.28903 319.742C-15.5467 314.501 -21.1137 306.821 -23.6114 297.5C-26.4405 286.942 -24.8056 276.239 -19.8636 267.395C-27.4932 265.299 -33.8405 259.325 -36.0362 251.131C-39.3299 238.838 -32.0351 226.203 -19.7428 222.91C-7.45041 219.616 5.18461 226.911 8.47834 239.203C9.19804 241.889 9.41219 244.591 9.17912 247.209C29.2708 244.078 48.9068 256.54 54.2891 276.627C57.1745 287.395 55.4166 298.314 50.2426 307.257C54.2834 306.382 58.4766 305.921 62.7763 305.921C90.1228 305.921 113.158 324.554 120.102 349.928C123.055 349.19 126.144 348.798 129.323 348.798C145.038 348.798 158.539 358.37 164.415 372.053C165.896 371.799 167.417 371.666 168.97 371.666C174.048 371.666 178.797 373.086 182.849 375.554C187.02 358.17 201.691 345.329 219.149 345.329C236.388 345.329 250.91 357.85 255.287 374.903C257.149 374.407 259.096 374.143 261.101 374.143C268.746 374.143 275.559 377.974 279.974 383.949C285.203 378.991 292.267 375.95 300.042 375.95C306.81 375.95 313.04 378.255 317.99 382.123C322.295 362.049 340.14 347 361.5 347C379.411 347 394.851 357.582 401.908 372.835C406.65 370.174 412.12 368.657 417.944 368.657C431.435 368.657 443.024 376.798 448.069 388.434C449.339 388.218 450.645 388.105 451.978 388.105C460.695 388.105 468.284 392.935 472.215 400.064C473.483 399.775 474.802 399.622 476.156 399.622C476.575 399.622 476.99 399.637 477.401 399.666C480.045 385.721 492.191 375.183 506.777 375.183C520.53 375.183 532.116 384.554 535.608 397.316C537.094 396.944 538.647 396.747 540.246 396.747C550.865 396.747 559.473 405.436 559.473 416.155C559.473 426.145 551.996 434.372 542.382 435.445V435.563H540.258H540.246H540.234H506.82H506.777H506.734H476.209L476.156 435.563L476.104 435.563H474.019V435.435C470.228 434.978 466.803 433.317 464.129 430.842C460.599 433.03 456.436 434.293 451.978 434.293C451.57 434.293 451.164 434.283 450.762 434.262V434.293H417.944H373.747C369.856 435.405 365.747 436 361.5 436C357.252 436 353.144 435.405 349.253 434.293H304.904V433.89C303.323 434.155 301.698 434.293 300.042 434.293C289.736 434.293 280.679 428.95 275.49 420.882C272.148 423.563 268.138 425.333 263.778 425.852V426.01H261.119L261.101 426.01L261.082 426.01H219.201L219.149 426.01L219.097 426.01H180.833L180.768 426.01L180.704 426.01H178.09V425.839C177.098 425.711 176.125 425.513 175.177 425.25C173.185 425.725 171.106 425.977 168.97 425.977C168.495 425.977 168.024 425.964 167.555 425.94V425.977H-2.35246V425.502C-4.19508 425.814 -6.088 425.977 -8.01851 425.977C-26.786 425.977 -42 410.62 -42 391.675C-42 372.731 -26.786 357.374 -8.01851 357.374C-6.98429 357.374 -5.96086 357.42 -4.95017 357.512C-4.6303 356.349 -4.19662 355.223 -3.65849 354.152C-7.55048 350.858 -10.5126 346.385 -11.9322 341.087C-13.9691 333.485 -12.4065 325.767 -8.28903 319.742Z" fill="white"/>
<path opacity="0.5" d="M161.984 -14L49.5902 82.2768" stroke="white" stroke-width="10" stroke-linecap="round"/>
<path opacity="0.5" d="M700.171 321L537.651 460.212" stroke="white" stroke-width="10" stroke-linecap="round"/>
<circle cx="359.735" cy="211.549" r="64.5575" fill="white"/>
<path d="M309.742 287.361C285.563 287.147 194.547 350.616 195.723 481.876C285.868 423.958 325.241 330.673 309.742 287.361Z" fill="#B90A24"/>
<path d="M308.703 286.761C291.122 288.098 211.536 353.976 209.188 461.756C282.074 411.933 312.441 334.87 308.703 286.761Z" fill="#B7520A"/>
<path d="M303.231 292.899C289.184 293.931 223.168 355.084 221.501 440.97C279.652 401.408 306.312 331.246 303.231 292.899Z" fill="#FD9850"/>
<path d="M290.325 319.428C282.289 320.687 242.038 361.499 237.303 414.802C272.128 387.719 290.387 343.058 290.325 319.428Z" fill="#F8E97B"/>
<path d="M345.159 250.939L335.252 253.901L331.51 260.87L338.261 261.028L345.178 261.282L347.428 255.852L345.159 250.939Z" fill="#FC7E24"/>
<path d="M210.646 272.181L255.608 247.479C256.975 246.728 258.636 247.759 258.57 249.317L256.514 297.493C256.484 298.201 256.087 298.838 255.456 299.161C250.747 301.577 239.853 306.758 232.079 310.866C225.604 314.288 217.326 336.606 213.184 350.74C212.569 352.839 209.267 352.764 208.936 350.602C205.59 328.716 203.126 292.747 202.604 286.11C201.991 278.327 207.71 273.581 210.646 272.181Z" fill="#D0213B"/>
<path d="M371.456 365.025L370.368 313.735C370.335 312.176 368.611 311.253 367.295 312.089L326.601 337.957C326.003 338.337 325.65 339 325.685 339.708C325.947 344.994 326.908 357.019 327.237 365.806C327.511 373.124 312.322 391.452 302.153 402.106C300.643 403.689 302.358 406.51 304.396 405.716C325.023 397.671 357.405 381.82 363.414 378.954C370.46 375.593 371.711 368.268 371.456 365.025Z" fill="#D0213B"/>
<path d="M317.105 269.711L342.38 269.946C342.535 269.947 342.676 269.855 342.736 269.712L372.524 198.595C372.599 198.418 372.529 198.213 372.362 198.117L355.901 188.613C355.738 188.519 355.532 188.556 355.413 188.701L306.333 248.704C306.237 248.821 306.22 248.985 306.289 249.12L316.767 269.503C316.833 269.629 316.963 269.709 317.105 269.711Z" fill="#FEC955"/>
<path fill-rule="evenodd" clip-rule="evenodd" d="M375.2 199.832C375.685 198.681 375.248 197.355 374.18 196.739L357.97 187.38C356.93 186.78 355.602 187.031 354.834 187.975L305.918 248.075C305.296 248.84 305.178 249.899 305.619 250.771L315.842 271.007C316.254 271.824 317.086 272.338 318.001 272.34L342.985 272.407C343.982 272.409 344.89 271.805 345.281 270.876L343.367 270.078L343.363 270.076M343.367 270.078L345.281 270.876L375.2 199.832M370.786 199.63L341.901 268.216L319.089 268.156L309.834 249.834L357.118 191.739L370.786 199.63ZM343.043 268.22C343.042 268.22 343.042 268.22 343.041 268.22L343.043 268.22Z" fill="#333333"/>
<path d="M337.423 215.894L327.105 228.413L317.239 240.533L333.235 240.324L342.562 229.752L337.423 215.894Z" fill="#FC7E24"/>
<path d="M363.881 216.652L358.124 216.752L351.849 223.2L354.321 231.866L356.724 233.636L359.611 226.724L363.881 216.652Z" fill="#FC7E24"/>
<path fill-rule="evenodd" clip-rule="evenodd" d="M416.738 68.5012C427.791 65.397 433.593 67.1762 435.847 69.0135C438.565 70.0473 443.006 74.1823 445.844 85.3056C450.017 101.661 455.029 159.564 443.856 194.177C432.682 228.789 410.383 277.123 379.442 305.745C367.048 317.21 356.631 327.37 348.065 335.724L348.065 335.724C335.246 348.227 326.575 356.683 321.642 359.408C315.42 362.844 307.289 356.618 301.095 351.877L301.095 351.876C299.095 350.345 297.298 348.969 295.832 348.123L275.917 336.625L264.138 329.824C262.672 328.978 260.582 328.109 258.256 327.143L258.255 327.143C251.052 324.15 241.595 320.221 241.46 313.115C241.353 307.48 244.341 295.743 248.759 278.39L248.759 278.389C251.711 266.794 255.301 252.692 259.033 236.227C268.35 195.12 299.059 151.641 323.447 124.659C347.836 97.6758 400.488 73.0651 416.738 68.5012ZM329.929 255.329C302.116 239.27 292.586 203.705 308.644 175.891C324.703 148.077 360.268 138.548 388.082 154.606C415.895 170.664 425.425 206.23 409.367 234.043C393.309 261.857 357.743 271.387 329.929 255.329Z" fill="#458CBA"/>
<g filter="url(#filter0_d_11374_1227)">
<path fill-rule="evenodd" clip-rule="evenodd" d="M332.441 251.116C306.973 236.412 298.247 203.846 312.951 178.378C327.655 152.91 360.221 144.184 385.689 158.888C411.157 173.592 419.883 206.158 405.179 231.626C390.475 257.094 357.909 265.82 332.441 251.116ZM329.989 255.363C302.175 239.305 292.646 203.74 308.704 175.926C324.762 148.112 360.328 138.582 388.141 154.641C415.955 170.699 425.485 206.264 409.427 234.078C393.368 261.892 357.803 271.422 329.989 255.363Z" fill="#D0213B"/>
</g>
<g filter="url(#filter1_d_11374_1227)">
<path fill-rule="evenodd" clip-rule="evenodd" d="M449.56 160.756C452.018 130.143 448.584 96.9132 445.584 85.1557C442.747 74.0327 438.305 69.8976 435.587 68.8637C433.333 67.0263 427.531 65.2466 416.478 68.351C404.796 71.6319 374.301 85.273 349.019 102.708C359.343 119.395 373.826 133.842 392.01 144.34C410.194 154.839 429.947 160.158 449.56 160.756Z" fill="#D0213B"/>
</g>
<path fill-rule="evenodd" clip-rule="evenodd" d="M390.702 148.805L400.686 154.569C400.88 154.681 401.015 154.871 401.057 155.09L403.175 166.218C403.245 166.584 403.569 166.848 403.942 166.842L412.069 166.728C412.168 166.726 412.267 166.744 412.36 166.781L421.017 170.17C421.67 170.426 421.669 171.347 421.015 171.594L396.987 180.661C396.889 180.698 396.801 180.754 396.726 180.827L389.4 187.928C389.336 187.99 389.261 188.04 389.179 188.076L379.477 192.386C379.29 192.469 379.145 192.623 379.073 192.815L373.727 207.217C373.649 207.426 373.483 207.59 373.272 207.666L362.022 211.716C361.923 211.751 361.819 211.766 361.714 211.759L354.993 211.339C354.753 211.324 354.533 211.197 354.399 210.996L350.675 205.386C350.617 205.299 350.578 205.201 350.559 205.098L348.441 193.33C348.401 193.109 348.46 192.883 348.603 192.711L358.402 180.88C358.532 180.723 358.593 180.52 358.572 180.316L357.453 169.759C357.443 169.67 357.45 169.58 357.471 169.494L359.958 159.598C359.983 159.498 359.987 159.393 359.97 159.29L355.809 133.947C355.696 133.258 356.493 132.796 357.041 133.233L364.305 139.036C364.383 139.098 364.448 139.175 364.496 139.262L368.461 146.357C368.643 146.683 369.033 146.832 369.385 146.709L380.08 142.98C380.291 142.906 380.524 142.928 380.717 143.04L390.702 148.805Z" fill="#FEC955"/>
<path fill-rule="evenodd" clip-rule="evenodd" d="M403.125 154.71C402.968 153.889 402.46 153.174 401.733 152.755L381.765 141.226C381.038 140.806 380.166 140.723 379.376 140.999L369.746 144.356L366.334 138.248C366.152 137.923 365.908 137.635 365.616 137.401L358.352 131.599C356.297 129.957 353.307 131.69 353.732 134.275L357.849 159.346L355.429 168.973C355.348 169.298 355.324 169.635 355.36 169.968L356.42 179.969L346.977 191.37C346.443 192.015 346.22 192.863 346.369 193.69L348.488 205.458C348.557 205.843 348.705 206.21 348.922 206.537L352.646 212.148C353.146 212.901 353.971 213.377 354.873 213.433L361.594 213.853C361.985 213.878 362.377 213.822 362.746 213.69L373.996 209.64C374.786 209.356 375.41 208.739 375.701 207.954L380.853 194.076L390.044 189.994C390.351 189.858 390.631 189.669 390.871 189.436L398 182.527L421.77 173.557C424.221 172.632 424.226 169.176 421.778 168.217L413.12 164.828C412.772 164.692 412.401 164.625 412.028 164.63L405.032 164.728L403.125 154.71ZM399.104 156.075L401.107 166.598C401.368 167.971 402.583 168.96 403.983 168.94L411.846 168.83L417.018 170.855L396.232 178.698C395.867 178.836 395.535 179.047 395.255 179.318L388.098 186.255L378.612 190.468C377.911 190.78 377.366 191.359 377.099 192.077L371.967 205.901L361.558 209.648L355.782 209.287L352.582 204.465L350.622 193.578L360.028 182.221C360.516 181.631 360.746 180.87 360.665 180.107L359.571 169.785L361.999 160.118C362.094 159.741 362.111 159.347 362.047 158.962L358.448 137.039L362.788 140.506L366.623 147.371C367.306 148.593 368.77 149.15 370.089 148.69L380.204 145.163L399.104 156.075Z" fill="#333333"/>
<path d="M368.038 168.267L361.212 163.227L359.539 169.958L360.731 180.542L367.238 177.702L368.038 168.267Z" fill="#FC7E24"/>
<path d="M373.58 201.595L376.728 193.077L373.526 192.108L370.03 196.247L371.872 201.488L373.58 201.595Z" fill="#FC7E24"/>
<path d="M389.35 150.443L385.903 154.24L389.432 162.551L398.4 163.699L400.066 161.469L399.308 156.192L389.35 150.443Z" fill="#FC7E24"/>
<path fill-rule="evenodd" clip-rule="evenodd" d="M405.674 140.746L408.973 144.08L398.126 154.749L394.826 151.415L405.674 140.746ZM409.515 144.085L398.124 155.288L394.285 151.41L405.676 140.206L409.515 144.085Z" fill="#353535"/>
<path d="M385.909 130.384L391.178 131.805L387.007 147.467L381.738 146.046L385.909 130.384Z" fill="#353535"/>
<path d="M413.985 130.906L407.798 132.389L406.174 138.329L410.736 142.786L416.923 141.304L418.548 135.364L413.985 130.906Z" fill="#FEC955"/>
<path d="M394.495 119.628L388.517 118.016L384.156 122.364L385.772 128.323L391.75 129.935L396.112 125.587L394.495 119.628Z" fill="#FEC955"/>
<path fill-rule="evenodd" clip-rule="evenodd" d="M387.15 172.093C388.54 171.886 389.918 172.529 390.653 173.726L391.244 174.688C391.649 175.348 392.511 175.554 393.171 175.149C393.831 174.744 394.037 173.882 393.632 173.222L393.042 172.26C391.719 170.105 389.238 168.948 386.737 169.321L385.529 169.502C384.764 169.616 384.236 170.329 384.35 171.094C384.464 171.86 385.177 172.388 385.943 172.274L387.15 172.093Z" fill="#333333"/>
<path fill-rule="evenodd" clip-rule="evenodd" d="M395.153 171.628C395.047 171.256 394.659 171.04 394.287 171.146L391.404 171.962C391.031 172.068 390.815 172.455 390.921 172.827C391.026 173.199 391.414 173.415 391.786 173.309L394.669 172.493C395.042 172.387 395.258 172 395.153 171.628Z" fill="#333333"/>
<path fill-rule="evenodd" clip-rule="evenodd" d="M372.788 163.801C372.273 162.494 371.027 161.622 369.623 161.584L368.495 161.554C367.721 161.533 367.111 160.889 367.131 160.115C367.152 159.342 367.796 158.731 368.57 158.752L369.698 158.782C372.226 158.85 374.468 160.421 375.396 162.773L375.843 163.909C376.127 164.629 375.774 165.443 375.054 165.727C374.334 166.011 373.52 165.657 373.236 164.937L372.788 163.801Z" fill="#333333"/>
<path fill-rule="evenodd" clip-rule="evenodd" d="M369.19 156.638C369.565 156.544 369.946 156.771 370.041 157.147L370.775 160.052C370.87 160.427 370.643 160.808 370.268 160.903C369.893 160.997 369.512 160.769 369.417 160.394L368.683 157.489C368.588 157.114 368.815 156.733 369.19 156.638Z" fill="#333333"/>
<path d="M409.515 144.085L405.676 140.206L394.285 151.41L398.124 155.288L409.515 144.085Z" fill="#333333"/>
<path fill-rule="evenodd" clip-rule="evenodd" d="M390.71 132.073L386.181 130.852L382.206 145.778L386.735 146.999L390.71 132.073ZM385.909 130.384L381.738 146.046L387.007 147.467L391.178 131.805L385.909 130.384Z" fill="#353535"/>
<path fill-rule="evenodd" clip-rule="evenodd" d="M415.25 126.282L404.388 128.884L401.461 139.584L409.471 147.41L420.333 144.808L423.26 134.108L415.25 126.282ZM416.923 141.304L410.736 142.786L406.174 138.329L407.798 132.388L413.985 130.906L418.548 135.364L416.923 141.304Z" fill="#333333"/>
<path fill-rule="evenodd" clip-rule="evenodd" d="M397.923 116.21L387.247 113.332L379.457 121.097L382.345 131.741L393.021 134.619L400.81 126.854L397.923 116.21ZM391.751 129.935L385.772 128.323L384.156 122.364L388.517 118.016L394.495 119.628L396.112 125.587L391.751 129.935Z" fill="#333333"/>
<path fill-rule="evenodd" clip-rule="evenodd" d="M312.305 276.705C312.305 276.705 312.305 276.705 312.305 276.705L317.668 279.801C319.633 280.936 320.262 283.476 319.053 285.396L256.073 385.445C255.56 386.26 254.494 386.524 253.66 386.043L252.14 385.165C250.279 384.09 249.599 381.736 250.602 379.835L305.167 276.387C306.006 274.795 308 274.22 309.558 275.119L312.305 276.705C312.305 276.705 312.305 276.705 312.305 276.705Z" fill="#D0213B"/>
<path opacity="0.5" d="M757.139 -47.0001L553.61 127.344" stroke="white" stroke-width="10" stroke-linecap="round"/>
</g>
<defs>
<filter id="filter0_d_11374_1227" x="296.903" y="146.84" width="124.324" height="124.324" filterUnits="userSpaceOnUse" color-interpolation-filters="sRGB">
<feFlood flood-opacity="0" result="BackgroundImageFix"/>
<feColorMatrix in="SourceAlpha" type="matrix" values="0 0 0 0 0 0 0 0 0 0 0 0 0 0 0 0 0 0 127 0" result="hardAlpha"/>
<feOffset dy="4"/>
<feGaussianBlur stdDeviation="2"/>
<feComposite in2="hardAlpha" operator="out"/>
<feColorMatrix type="matrix" values="0 0 0 0 0 0 0 0 0 0 0 0 0 0 0 0 0 0 0.25 0"/>
<feBlend mode="normal" in2="BackgroundImageFix" result="effect1_dropShadow_11374_1227"/>
<feBlend mode="normal" in="SourceGraphic" in2="effect1_dropShadow_11374_1227" result="shape"/>
</filter>
<filter id="filter1_d_11374_1227" x="345.019" y="66.6609" width="109.38" height="102.095" filterUnits="userSpaceOnUse" color-interpolation-filters="sRGB">
<feFlood flood-opacity="0" result="BackgroundImageFix"/>
<feColorMatrix in="SourceAlpha" type="matrix" values="0 0 0 0 0 0 0 0 0 0 0 0 0 0 0 0 0 0 127 0" result="hardAlpha"/>
<feOffset dy="4"/>
<feGaussianBlur stdDeviation="2"/>
<feComposite in2="hardAlpha" operator="out"/>
<feColorMatrix type="matrix" values="0 0 0 0 0 0 0 0 0 0 0 0 0 0 0 0 0 0 0.25 0"/>
<feBlend mode="normal" in2="BackgroundImageFix" result="effect1_dropShadow_11374_1227"/>
<feBlend mode="normal" in="SourceGraphic" in2="effect1_dropShadow_11374_1227" result="shape"/>
</filter>
<clipPath id="clip0_11374_1227">
<rect width="700" height="414" fill="white"/>
</clipPath>
</defs>
</svg>
