<svg width="660" height="398" viewBox="0 0 660 398" fill="none" xmlns="http://www.w3.org/2000/svg">
<g clip-path="url(#clip0_11374_1227)">
<rect width="660" height="398" fill="#79BFB5"/>
<path opacity="0.5" d="M497.984 277L385.59 373.277" stroke="white" stroke-width="10" stroke-linecap="round"/>
<path opacity="0.5" d="M165.984 142L53.5902 238.277" stroke="white" stroke-width="10" stroke-linecap="round"/>
<path d="M467.518 350.819C468.522 351.129 468.522 352.488 467.518 352.798L462.824 354.246C462.374 354.385 462.07 354.786 462.071 355.238L462.082 359.956C462.084 360.965 460.733 361.386 460.114 360.568L457.224 356.745C456.947 356.378 456.455 356.225 456.005 356.366L451.318 357.833C450.315 358.148 449.48 357.048 450.102 356.232L453.01 352.422C453.289 352.056 453.289 351.561 453.01 351.196L450.102 347.385C449.48 346.57 450.315 345.47 451.318 345.784L456.005 347.252C456.455 347.392 456.947 347.239 457.224 346.873L460.114 343.05C460.733 342.232 462.084 342.652 462.082 343.661L462.071 348.379C462.07 348.831 462.374 349.232 462.824 349.371L467.518 350.819Z" fill="white"/>
<path d="M412.37 28.5843C413.374 28.8942 413.374 30.2535 412.37 30.5633L407.676 32.0114C407.227 32.1502 406.922 32.5511 406.923 33.0032L406.934 37.7211C406.936 38.7306 405.585 39.1507 404.967 38.3327L402.077 34.5097C401.8 34.1434 401.307 33.9903 400.858 34.1309L396.171 35.5986C395.168 35.9127 394.333 34.813 394.955 33.9976L397.862 30.1868C398.141 29.8216 398.141 29.3261 397.862 28.9609L394.955 25.1501C394.333 24.3347 395.168 23.235 396.171 23.549L400.858 25.0168C401.307 25.1574 401.8 25.0043 402.077 24.6379L404.967 20.815C405.585 19.997 406.936 20.4171 406.934 21.4265L406.923 26.1445C406.922 26.5966 407.227 26.9975 407.676 27.1362L412.37 28.5843Z" fill="white"/>
<path d="M523.702 83.133C524.766 83.461 524.766 84.9003 523.702 85.2283L518.733 86.7617C518.256 86.9086 517.934 87.3331 517.935 87.8117L517.947 92.8072C517.949 93.8761 516.518 94.3208 515.863 93.4547L512.803 89.4069C512.51 89.019 511.988 88.8569 511.513 89.0058L506.55 90.5599C505.488 90.8924 504.604 89.728 505.263 88.8647L508.341 84.8297C508.636 84.443 508.636 83.9183 508.341 83.5317L505.263 79.4967C504.604 78.6333 505.488 77.4689 506.55 77.8015L511.513 79.3555C511.988 79.5044 512.51 79.3423 512.803 78.9544L515.863 74.9066C516.518 74.0405 517.949 74.4852 517.947 75.5541L517.935 80.5496C517.934 81.0282 518.256 81.4527 518.733 81.5997L523.702 83.133Z" fill="white"/>
<path d="M673.564 241.39C675.218 241.936 675.218 244.335 673.564 244.882L665.833 247.437C665.092 247.682 664.59 248.39 664.592 249.187L664.61 257.513C664.614 259.295 662.388 260.036 661.369 258.592L656.609 251.846C656.153 251.2 655.342 250.929 654.602 251.178L646.882 253.768C645.23 254.322 643.855 252.381 644.879 250.942L649.668 244.217C650.127 243.573 650.127 242.698 649.668 242.054L644.879 235.329C643.855 233.89 645.23 231.949 646.882 232.504L654.602 235.094C655.342 235.342 656.153 235.072 656.609 234.425L661.369 227.679C662.388 226.235 664.614 226.977 664.61 228.758L664.592 237.084C664.59 237.882 665.092 238.589 665.833 238.834L673.564 241.39Z" fill="white"/>
<path d="M169.72 241.39C171.374 241.936 171.374 244.335 169.72 244.882L161.989 247.437C161.249 247.682 160.747 248.39 160.749 249.187L160.766 257.513C160.77 259.295 158.545 260.036 157.526 258.592L152.766 251.846C152.31 251.2 151.498 250.929 150.759 251.178L143.039 253.768C141.387 254.322 140.011 252.381 141.036 250.942L145.825 244.217C146.284 243.573 146.284 242.698 145.825 242.054L141.036 235.329C140.011 233.89 141.387 231.949 143.039 232.504L150.759 235.094C151.498 235.342 152.31 235.072 152.766 234.425L157.526 227.679C158.545 226.235 160.77 226.977 160.766 228.758L160.749 237.084C160.747 237.882 161.249 238.589 161.989 238.834L169.72 241.39Z" fill="white"/>
<path d="M546.455 222.624C547.459 222.952 547.459 224.391 546.455 224.719L541.761 226.253C541.311 226.4 541.007 226.824 541.008 227.303L541.018 232.298C541.021 233.367 539.669 233.812 539.051 232.946L536.161 228.898C535.884 228.51 535.391 228.348 534.942 228.497L530.255 230.051C529.252 230.383 528.417 229.219 529.039 228.356L531.947 224.321C532.225 223.934 532.225 223.409 531.947 223.023L529.039 218.988C528.417 218.124 529.252 216.96 530.255 217.292L534.942 218.846C535.391 218.995 535.884 218.833 536.161 218.445L539.051 214.398C539.669 213.531 541.021 213.976 541.018 215.045L541.008 220.041C541.007 220.519 541.311 220.944 541.761 221.091L546.455 222.624Z" fill="white"/>
<path d="M330.19 239.925C331.194 240.253 331.194 241.693 330.19 242.021L325.496 243.554C325.046 243.701 324.742 244.125 324.743 244.604L324.753 249.599C324.756 250.668 323.404 251.113 322.786 250.247L319.896 246.199C319.619 245.811 319.126 245.649 318.677 245.798L313.99 247.352C312.987 247.685 312.152 246.52 312.774 245.657L315.682 241.622C315.96 241.235 315.96 240.711 315.682 240.324L312.774 236.289C312.152 235.426 312.987 234.261 313.99 234.594L318.677 236.148C319.126 236.297 319.619 236.135 319.896 235.747L322.786 231.699C323.404 230.833 324.756 231.277 324.753 232.346L324.743 237.342C324.742 237.82 325.046 238.245 325.496 238.392L330.19 239.925Z" fill="white"/>
<path d="M55.5329 325.35C56.5372 325.678 56.5372 327.117 55.5329 327.445L50.8392 328.978C50.3894 329.125 50.085 329.55 50.086 330.029L50.0968 335.024C50.0991 336.093 48.7477 336.538 48.1293 335.672L45.2392 331.624C44.9623 331.236 44.4697 331.074 44.0205 331.223L39.3335 332.777C38.3306 333.109 37.4954 331.945 38.1175 331.081L41.0251 327.046C41.3037 326.66 41.3037 326.135 41.0251 325.748L38.1175 321.713C37.4954 320.85 38.3306 319.686 39.3335 320.018L44.0205 321.572C44.4697 321.721 44.9623 321.559 45.2392 321.171L48.1293 317.123C48.7477 316.257 50.0991 316.702 50.0968 317.771L50.086 322.766C50.085 323.245 50.3894 323.67 50.8392 323.816L55.5329 325.35Z" fill="white"/>
<path d="M46.6663 210.684C47.7297 211.012 47.7297 212.452 46.6663 212.78L41.6965 214.313C41.2203 214.46 40.8979 214.884 40.899 215.363L40.9104 220.358C40.9129 221.427 39.482 221.872 38.8273 221.006L35.7672 216.958C35.4739 216.57 34.9523 216.408 34.4768 216.557L29.514 218.111C28.4521 218.444 27.5678 217.279 28.2265 216.416L31.3051 212.381C31.6001 211.994 31.6001 211.47 31.3051 211.083L28.2265 207.048C27.5678 206.185 28.4521 205.02 29.514 205.353L34.4768 206.907C34.9523 207.056 35.4739 206.894 35.7672 206.506L38.8273 202.458C39.482 201.592 40.9129 202.037 40.9104 203.105L40.899 208.101C40.8979 208.58 41.2203 209.004 41.6965 209.151L46.6663 210.684Z" fill="white"/>
<path d="M238.277 112.329C239.281 112.657 239.281 114.096 238.277 114.424L233.583 115.957C233.133 116.104 232.829 116.529 232.83 117.008L232.841 122.003C232.843 123.072 231.492 123.517 230.873 122.651L227.983 118.603C227.706 118.215 227.214 118.053 226.765 118.202L222.077 119.756C221.075 120.088 220.239 118.924 220.862 118.06L223.769 114.025C224.048 113.639 224.048 113.114 223.769 112.727L220.862 108.692C220.239 107.829 221.075 106.665 222.077 106.997L226.765 108.551C227.214 108.7 227.706 108.538 227.983 108.15L230.873 104.102C231.492 103.236 232.843 103.681 232.841 104.75L232.83 109.745C232.829 110.224 233.133 110.649 233.583 110.795L238.277 112.329Z" fill="white"/>
<path d="M110.282 97.207C111.818 97.6991 111.818 99.858 110.282 100.35L103.103 102.65C102.415 102.87 101.95 103.507 101.951 104.225L101.968 111.718C101.971 113.322 99.9044 113.989 98.9586 112.69L94.5385 106.618C94.1149 106.036 93.3615 105.793 92.6746 106.016L85.5061 108.347C83.9723 108.846 82.695 107.1 83.6464 105.805L88.0933 99.752C88.5194 99.1721 88.5194 98.385 88.0933 97.8051L83.6464 91.7526C82.695 90.4575 83.9723 88.711 85.5061 89.2098L92.6746 91.5409C93.3615 91.7642 94.1149 91.521 94.5385 90.9392L98.9586 84.8674C99.9044 83.5683 101.971 84.2354 101.968 85.8387L101.951 93.3319C101.95 94.0499 102.415 94.6867 103.103 94.9071L110.282 97.207Z" fill="white"/>
<path fill-rule="evenodd" clip-rule="evenodd" d="M10.3135 288.368C2.92617 283.033 -2.74038 275.217 -5.28266 265.729C-8.16235 254.981 -6.49822 244.087 -1.46788 235.086C-9.23386 232.952 -15.6945 226.872 -17.9296 218.53C-21.2821 206.018 -13.8569 193.158 -1.3449 189.805C11.1671 186.452 24.028 193.878 27.3806 206.39C28.1131 209.124 28.3311 211.874 28.0939 214.539C48.5447 211.352 68.5316 224.036 74.01 244.482C76.947 255.443 75.1576 266.557 69.8912 275.66C74.0042 274.769 78.2724 274.3 82.649 274.3C110.484 274.3 133.931 293.266 141 319.093C144.005 318.342 147.149 317.943 150.385 317.943C166.381 317.943 180.123 327.687 186.104 341.615C187.611 341.355 189.16 341.22 190.74 341.22C199.04 341.22 206.477 344.947 211.499 350.834C214.808 348.809 218.635 347.652 222.713 347.652C223.247 347.652 223.777 347.672 224.302 347.711C227.674 328.745 243.172 314.412 261.78 314.412C279.327 314.412 294.108 327.157 298.564 344.515C300.459 344.01 302.441 343.742 304.482 343.742C312.787 343.742 320.128 348.183 324.566 354.98C327.908 337.408 345.634 324 367 324C383.811 324 398.369 332.301 405.44 344.4C411.414 341.005 418.578 339.027 426.281 339.027C441.815 339.027 455.16 347.07 460.968 358.567C462.431 358.353 463.935 358.241 465.469 358.241C473.962 358.241 481.525 361.657 486.394 366.975C486.714 366.983 487.032 366.996 487.349 367.015C490.65 352.006 505.819 340.663 524.034 340.663C544.662 340.663 561.385 355.211 561.385 373.158C561.385 373.898 561.357 374.633 561.301 375.361C572.543 377.101 581.078 385.647 581.078 395.927C581.078 407.464 570.328 416.816 557.066 416.816C547.842 416.816 539.832 412.291 535.811 405.653H524.086L524.034 405.653L523.982 405.653H485.86L485.794 405.653L485.727 405.653H483.125V405.515C479.785 405.168 476.673 404.176 473.957 402.687C471.291 403.456 468.437 403.874 465.469 403.874C465 403.874 464.533 403.863 464.07 403.842V403.874H426.307H426.281H426.254H296.121V396.535H261.832L261.78 396.535L261.727 396.535H222.776L222.713 396.535L222.651 396.535H219.987V396.361C215.339 395.763 211.123 393.654 207.774 390.504C203.098 394.259 197.179 396.502 190.74 396.502C190.257 396.502 189.777 396.489 189.3 396.464V396.502H16.3561V396.019C14.4806 396.336 12.5538 396.502 10.5889 396.502C-8.51401 396.502 -23.9999 380.87 -23.9999 361.587C-23.9999 342.304 -8.51401 326.672 10.5889 326.672C11.6415 326.672 12.6832 326.72 13.7119 326.813C14.0375 325.629 14.4789 324.483 15.0267 323.393C11.0652 320.04 8.05022 315.487 6.60524 310.094C4.53193 302.357 6.12252 294.501 10.3135 288.368Z" fill="#CBCBCB"/>
<path fill-rule="evenodd" clip-rule="evenodd" d="M160.562 405.563H132.587C132.575 405.563 132.562 405.563 132.55 405.563C132.538 405.563 132.526 405.563 132.513 405.563H106.952C106.938 405.563 106.923 405.563 106.908 405.563C106.893 405.563 106.879 405.563 106.864 405.563H105.119V405.456C97.729 404.564 92.0001 398.215 92.0001 390.515C92.0001 382.204 98.6747 375.466 106.908 375.466C107.259 375.466 107.607 375.478 107.951 375.502C110.165 363.825 120.336 355 132.55 355C144.068 355 153.769 362.847 156.694 373.534C157.938 373.223 159.239 373.058 160.578 373.058C169.47 373.058 176.679 380.335 176.679 389.311C176.679 397.677 170.417 404.566 162.366 405.464V405.563H160.594C160.588 405.563 160.583 405.563 160.578 405.563C160.573 405.563 160.567 405.563 160.562 405.563Z" fill="white"/>
<path fill-rule="evenodd" clip-rule="evenodd" d="M-18.289 306.742C-25.5467 301.501 -31.1137 293.821 -33.6114 284.5C-36.4405 273.942 -34.8056 263.239 -29.8636 254.395C-37.4932 252.299 -43.8405 246.325 -46.0362 238.131C-49.33 225.838 -42.0351 213.203 -29.7428 209.91C-17.4504 206.616 -4.81539 213.911 -1.52166 226.203C-0.801964 228.889 -0.587814 231.591 -0.820885 234.209C19.2709 231.078 38.9068 243.54 44.2891 263.627C47.1745 274.395 45.4166 285.314 40.2426 294.257C44.2834 293.382 48.4766 292.921 52.7763 292.921C80.1228 292.921 103.158 311.554 110.102 336.928C113.055 336.19 116.144 335.798 119.323 335.798C135.038 335.798 148.539 345.37 154.415 359.053C155.896 358.799 157.417 358.666 158.97 358.666C164.048 358.666 168.797 360.086 172.849 362.554C177.02 345.17 191.691 332.329 209.149 332.329C226.388 332.329 240.91 344.85 245.287 361.903C247.149 361.407 249.096 361.143 251.101 361.143C258.746 361.143 265.559 364.974 269.974 370.949C275.203 365.991 282.267 362.95 290.042 362.95C296.81 362.95 303.04 365.255 307.99 369.123C312.295 349.049 330.14 334 351.5 334C369.411 334 384.851 344.582 391.908 359.835C396.65 357.174 402.12 355.657 407.944 355.657C421.435 355.657 433.024 363.798 438.069 375.434C439.339 375.218 440.645 375.105 441.978 375.105C450.695 375.105 458.284 379.935 462.215 387.064C463.483 386.775 464.802 386.622 466.156 386.622C466.575 386.622 466.99 386.637 467.401 386.666C470.045 372.721 482.191 362.183 496.776 362.183C510.53 362.183 522.116 371.554 525.608 384.316C527.094 383.944 528.647 383.747 530.246 383.747C540.865 383.747 549.473 392.436 549.473 403.155C549.473 413.145 541.996 421.372 532.382 422.445V422.563H530.258H530.246H530.234H496.82L496.776 422.563L496.734 422.563H466.209L466.156 422.563L466.104 422.563H464.019V422.435C460.228 421.978 456.803 420.317 454.129 417.842C450.599 420.03 446.436 421.293 441.978 421.293C441.57 421.293 441.164 421.283 440.762 421.262V421.293H407.944H363.747C359.856 422.405 355.747 423 351.5 423C347.252 423 343.144 422.405 339.253 421.293H294.904V420.89C293.323 421.155 291.698 421.293 290.042 421.293C279.736 421.293 270.679 415.95 265.49 407.882C262.148 410.563 258.138 412.333 253.778 412.852V413.01H251.119L251.101 413.01L251.082 413.01H209.201L209.149 413.01L209.097 413.01H170.833L170.768 413.01L170.704 413.01H168.09V412.839C167.098 412.711 166.125 412.513 165.177 412.25C163.185 412.725 161.106 412.977 158.97 412.977C158.495 412.977 158.024 412.964 157.555 412.94V412.977H-12.3525V412.502C-14.1951 412.814 -16.088 412.977 -18.0185 412.977C-36.786 412.977 -52 397.62 -52 378.675C-52 359.731 -36.786 344.374 -18.0185 344.374C-16.9843 344.374 -15.9609 344.42 -14.9502 344.512C-14.6303 343.349 -14.1966 342.223 -13.6585 341.152C-17.5505 337.858 -20.5126 333.385 -21.9322 328.087C-23.9691 320.485 -22.4065 312.767 -18.289 306.742Z" fill="white"/>
<path opacity="0.5" d="M151.984 -27L39.5902 69.2768" stroke="white" stroke-width="10" stroke-linecap="round"/>
<path opacity="0.5" d="M690.171 308L527.651 447.212" stroke="white" stroke-width="10" stroke-linecap="round"/>
<circle cx="349.735" cy="198.549" r="64.5575" fill="white"/>
<path d="M299.742 274.361C275.563 274.147 184.547 337.616 185.723 468.876C275.868 410.958 315.241 317.673 299.742 274.361Z" fill="#B90A24"/>
<path d="M298.703 273.761C281.122 275.098 201.536 340.976 199.188 448.756C272.074 398.933 302.441 321.87 298.703 273.761Z" fill="#B7520A"/>
<path d="M293.231 279.899C279.184 280.931 213.168 342.084 211.501 427.97C269.652 388.408 296.312 318.246 293.231 279.899Z" fill="#FD9850"/>
<path d="M280.325 306.428C272.289 307.687 232.038 348.499 227.303 401.802C262.128 374.719 280.387 330.058 280.325 306.428Z" fill="#F8E97B"/>
<path d="M335.159 237.939L325.252 240.901L321.51 247.87L328.261 248.028L335.178 248.282L337.428 242.852L335.159 237.939Z" fill="#FC7E24"/>
<path d="M200.646 259.181L245.608 234.479C246.975 233.728 248.636 234.759 248.57 236.317L246.514 284.493C246.484 285.201 246.087 285.838 245.456 286.161C240.747 288.577 229.853 293.758 222.079 297.866C215.604 301.288 207.326 323.606 203.184 337.74C202.569 339.839 199.267 339.764 198.936 337.602C195.59 315.716 193.126 279.747 192.604 273.11C191.991 265.327 197.71 260.581 200.646 259.181Z" fill="#D0213B"/>
<path d="M361.456 352.025L360.368 300.735C360.335 299.176 358.611 298.253 357.295 299.089L316.601 324.957C316.003 325.337 315.65 326 315.685 326.708C315.947 331.994 316.908 344.019 317.237 352.806C317.511 360.124 302.322 378.452 292.153 389.106C290.643 390.689 292.358 393.51 294.396 392.716C315.023 384.671 347.405 368.82 353.414 365.954C360.46 362.593 361.711 355.268 361.456 352.025Z" fill="#D0213B"/>
<path d="M307.105 256.711L332.38 256.946C332.535 256.947 332.676 256.855 332.736 256.712L362.524 185.595C362.599 185.418 362.529 185.213 362.362 185.117L345.901 175.613C345.738 175.519 345.532 175.556 345.413 175.701L296.333 235.704C296.237 235.821 296.22 235.985 296.289 236.12L306.767 256.503C306.833 256.629 306.963 256.709 307.105 256.711Z" fill="#FEC955"/>
<path fill-rule="evenodd" clip-rule="evenodd" d="M365.2 186.832C365.685 185.681 365.248 184.355 364.18 183.739L347.97 174.38C346.93 173.78 345.602 174.031 344.834 174.975L295.918 235.075C295.296 235.84 295.178 236.899 295.619 237.771L305.842 258.007C306.254 258.824 307.086 259.338 308.001 259.34L332.985 259.407C333.982 259.409 334.89 258.805 335.281 257.876L333.367 257.078L333.363 257.076M333.367 257.078L335.281 257.876L365.2 186.832M360.786 186.63L331.901 255.216L309.089 255.156L299.834 236.834L347.118 178.739L360.786 186.63ZM333.043 255.22C333.042 255.22 333.042 255.22 333.041 255.22Z" fill="#333333"/>
<path d="M327.423 202.894L317.105 215.413L307.239 227.532L323.235 227.324L332.562 216.752L327.423 202.894Z" fill="#FC7E24"/>
<path d="M353.881 203.652L348.124 203.752L341.849 210.2L344.321 218.866L346.724 220.636L349.611 213.724L353.881 203.652Z" fill="#FC7E24"/>
<path fill-rule="evenodd" clip-rule="evenodd" d="M406.738 55.5012C417.791 52.397 423.593 54.1762 425.847 56.0135C428.565 57.0473 433.006 61.1823 435.844 72.3056C440.017 88.6608 445.029 146.564 433.856 181.177C422.682 215.789 400.383 264.123 369.442 292.745C357.048 304.21 346.631 314.37 338.065 322.724L338.065 322.724C325.246 335.227 316.575 343.683 311.642 346.408C305.42 349.844 297.289 343.618 291.095 338.877L291.095 338.876C289.095 337.345 287.298 335.969 285.832 335.123L265.917 323.625L254.138 316.824C252.672 315.978 250.582 315.109 248.256 314.143L248.255 314.143C241.052 311.15 231.595 307.221 231.46 300.115C231.353 294.48 234.341 282.743 238.759 265.39L238.759 265.389C241.711 253.794 245.301 239.692 249.033 223.227C258.35 182.12 289.059 138.641 313.447 111.659C337.836 84.6758 390.488 60.0651 406.738 55.5012ZM319.929 242.329C292.116 226.27 282.586 190.705 298.644 162.891C314.703 135.077 350.268 125.548 378.082 141.606C405.895 157.664 415.425 193.23 399.367 221.043C383.309 248.857 347.743 258.387 319.929 242.329Z" fill="#458CBA"/>
<g filter="url(#filter0_d_11374_1227)">
<path fill-rule="evenodd" clip-rule="evenodd" d="M322.441 238.116C296.973 223.412 288.247 190.846 302.951 165.378C317.655 139.91 350.221 131.184 375.689 145.888C401.157 160.592 409.883 193.158 395.179 218.626C380.475 244.094 347.909 252.82 322.441 238.116ZM319.989 242.363C292.175 226.305 282.646 190.74 298.704 162.926C314.762 135.112 350.328 125.582 378.141 141.641C405.955 157.699 415.485 193.264 399.427 221.078C383.368 248.892 347.803 258.422 319.989 242.363Z" fill="#D0213B"/>
</g>
<g filter="url(#filter1_d_11374_1227)">
<path fill-rule="evenodd" clip-rule="evenodd" d="M439.56 147.756C442.018 117.143 438.584 83.9132 435.584 72.1557C432.747 61.0327 428.305 56.8976 425.587 55.8637C423.333 54.0263 417.531 52.2466 406.478 55.351C394.796 58.6319 364.301 72.273 339.019 89.7078C349.343 106.395 363.826 120.842 382.01 131.34C400.194 141.839 419.947 147.158 439.56 147.756Z" fill="#D0213B"/>
</g>
<path fill-rule="evenodd" clip-rule="evenodd" d="M380.702 135.805L390.686 141.569C390.88 141.681 391.015 141.871 391.057 142.09L393.175 153.218C393.245 153.584 393.569 153.848 393.942 153.842L402.069 153.728C402.168 153.726 402.267 153.744 402.36 153.781L411.017 157.17C411.67 157.426 411.669 158.347 411.015 158.594L386.987 167.661C386.889 167.698 386.801 167.754 386.726 167.827L379.4 174.928C379.336 174.99 379.261 175.04 379.179 175.076L369.477 179.386C369.29 179.469 369.145 179.623 369.073 179.815L363.727 194.217C363.649 194.426 363.483 194.59 363.272 194.666L352.022 198.716C351.923 198.751 351.819 198.766 351.714 198.759L344.993 198.339C344.753 198.324 344.533 198.197 344.399 197.996L340.675 192.386C340.617 192.299 340.578 192.201 340.559 192.098L338.441 180.33C338.401 180.109 338.46 179.883 338.603 179.711L348.402 167.88C348.532 167.723 348.593 167.52 348.572 167.316L347.453 156.759C347.443 156.67 347.45 156.58 347.471 156.494L349.958 146.598C349.983 146.498 349.987 146.393 349.97 146.29L345.809 120.947C345.696 120.258 346.493 119.796 347.041 120.233L354.305 126.036C354.383 126.098 354.448 126.175 354.496 126.262L358.461 133.357C358.643 133.683 359.033 133.832 359.385 133.709L370.08 129.98C370.291 129.906 370.524 129.928 370.717 130.04L380.702 135.805Z" fill="#FEC955"/>
<path fill-rule="evenodd" clip-rule="evenodd" d="M393.125 141.71C392.968 140.889 392.46 140.174 391.733 139.755L371.765 128.226C371.038 127.806 370.166 127.723 369.376 127.999L359.746 131.356L356.334 125.248C356.152 124.923 355.908 124.635 355.616 124.401L348.352 118.599C346.297 116.957 343.307 118.69 343.732 121.275L347.849 146.346L345.429 155.973C345.348 156.298 345.324 156.635 345.36 156.968L346.42 166.969L336.977 178.37C336.443 179.015 336.22 179.863 336.369 180.69L338.488 192.458C338.557 192.843 338.705 193.21 338.922 193.537L342.646 199.148C343.146 199.901 343.971 200.377 344.873 200.433L351.594 200.853C351.985 200.878 352.377 200.822 352.746 200.69L363.996 196.64C364.786 196.356 365.41 195.739 365.701 194.954L370.853 181.076L380.044 176.994C380.351 176.858 380.631 176.669 380.871 176.436L388 169.527L411.77 160.557C414.221 159.632 414.226 156.176 411.778 155.217L403.12 151.828C402.772 151.692 402.401 151.625 402.028 151.63L395.032 151.728L393.125 141.71ZM389.104 143.075L391.107 153.598C391.368 154.971 392.583 155.96 393.983 155.94L401.846 155.83L407.018 157.855L386.232 165.698C385.867 165.836 385.535 166.047 385.255 166.318L378.098 173.255L368.612 177.468C367.911 177.78 367.366 178.359 367.099 179.077L361.967 192.901L351.558 196.648L345.782 196.287L342.582 191.465L340.622 180.578L350.028 169.221C350.516 168.631 350.746 167.87 350.665 167.107L349.571 156.785L351.999 147.118C352.094 146.741 352.111 146.347 352.047 145.962L348.448 124.039L352.788 127.506L356.623 134.371C357.306 135.593 358.77 136.15 360.089 135.69L370.204 132.163L389.104 143.075Z" fill="#333333"/>
<path d="M358.038 155.267L351.212 150.227L349.539 156.958L350.731 167.542L357.238 164.702L358.038 155.267Z" fill="#FC7E24"/>
<path d="M363.58 188.595L366.728 180.077L363.526 179.108L360.03 183.247L361.872 188.488L363.58 188.595Z" fill="#FC7E24"/>
<path d="M379.35 137.443L375.903 141.24L379.432 149.551L388.4 150.699L390.066 148.469L389.308 143.192L379.35 137.443Z" fill="#FC7E24"/>
<path fill-rule="evenodd" clip-rule="evenodd" d="M395.674 127.746L398.973 131.08L388.126 141.749L384.826 138.415L395.674 127.746ZM399.515 131.085L388.124 142.288L384.285 138.41L395.676 127.206L399.515 131.085Z" fill="#353535"/>
<path d="M375.909 117.384L381.178 118.805L377.007 134.467L371.738 133.046L375.909 117.384Z" fill="#353535"/>
<path d="M403.985 117.906L397.798 119.389L396.174 125.329L400.736 129.786L406.923 128.304L408.548 122.364L403.985 117.906Z" fill="#FEC955"/>
<path d="M384.495 106.628L378.517 105.016L374.156 109.364L375.772 115.323L381.75 116.935L386.112 112.587L384.495 106.628Z" fill="#FEC955"/>
<path fill-rule="evenodd" clip-rule="evenodd" d="M377.15 159.093C378.54 158.886 379.918 159.529 380.653 160.726L381.244 161.688C381.649 162.348 382.511 162.554 383.171 162.149C383.831 161.744 384.037 160.882 383.632 160.222L383.042 159.26C381.719 157.105 379.238 155.948 376.737 156.321L375.529 156.502C374.764 156.616 374.236 157.329 374.35 158.094C374.464 158.86 375.177 159.388 375.943 159.274L377.15 159.093Z" fill="#333333"/>
<path fill-rule="evenodd" clip-rule="evenodd" d="M385.153 158.628C385.047 158.256 384.659 158.04 384.287 158.146L381.404 158.962C381.031 159.068 380.815 159.455 380.921 159.827C381.026 160.199 381.414 160.415 381.786 160.309L384.669 159.493C385.042 159.387 385.258 159 385.153 158.628Z" fill="#333333"/>
<path fill-rule="evenodd" clip-rule="evenodd" d="M362.788 150.801C362.273 149.494 361.027 148.622 359.623 148.584L358.495 148.554C357.721 148.533 357.111 147.889 357.131 147.115C357.152 146.342 357.796 145.731 358.57 145.752L359.698 145.782C362.226 145.85 364.468 147.421 365.396 149.773L365.843 150.909C366.127 151.629 365.774 152.443 365.054 152.727C364.334 153.011 363.52 152.657 363.236 151.937L362.788 150.801Z" fill="#333333"/>
<path fill-rule="evenodd" clip-rule="evenodd" d="M359.19 143.638C359.565 143.544 359.946 143.771 360.041 144.147L360.775 147.052C360.87 147.427 360.643 147.808 360.268 147.903C359.893 147.997 359.512 147.769 359.417 147.394L358.683 144.489C358.588 144.114 358.815 143.733 359.19 143.638Z" fill="#333333"/>
<path d="M399.515 131.085L395.676 127.206L384.285 138.41L388.124 142.288L399.515 131.085Z" fill="#333333"/>
<path fill-rule="evenodd" clip-rule="evenodd" d="M380.71 119.073L376.181 117.852L372.206 132.778L376.735 133.999L380.71 119.073ZM375.909 117.384L371.738 133.046L377.007 134.467L381.178 118.805L375.909 117.384Z" fill="#353535"/>
<path fill-rule="evenodd" clip-rule="evenodd" d="M405.25 113.282L394.388 115.884L391.461 126.584L399.471 134.41L410.333 131.808L413.26 121.108L405.25 113.282ZM406.923 128.304L400.736 129.786L396.174 125.329L397.798 119.388L403.985 117.906L408.548 122.364L406.923 128.304Z" fill="#333333"/>
<path fill-rule="evenodd" clip-rule="evenodd" d="M387.923 103.21L377.247 100.332L369.457 108.097L372.345 118.741L383.021 121.619L390.81 113.854L387.923 103.21ZM381.751 116.935L375.772 115.323L374.156 109.364L378.517 105.016L384.495 106.628L386.112 112.587L381.751 116.935Z" fill="#333333"/>
<path fill-rule="evenodd" clip-rule="evenodd" d="M302.305 263.705C302.305 263.705 302.305 263.705 302.305 263.705L307.668 266.801C309.633 267.936 310.262 270.476 309.053 272.396L246.073 372.445C245.56 373.26 244.494 373.524 243.66 373.043V373.043L242.14 372.165C240.279 371.09 239.599 368.736 240.602 366.835L295.167 263.387C296.006 261.795 298 261.22 299.558 262.119L302.305 263.705C302.305 263.705 302.305 263.705 302.305 263.705V263.705Z" fill="#D0213B"/>
<path opacity="0.5" d="M747.139 -60.0001L543.61 114.344" stroke="white" stroke-width="10" stroke-linecap="round"/>
</g>
<defs>
<filter id="filter0_d_11374_1227" x="286.903" y="133.84" width="124.324" height="124.324" filterUnits="userSpaceOnUse" color-interpolation-filters="sRGB">
<feFlood flood-opacity="0" result="BackgroundImageFix"/>
<feColorMatrix in="SourceAlpha" type="matrix" values="0 0 0 0 0 0 0 0 0 0 0 0 0 0 0 0 0 0 127 0" result="hardAlpha"/>
<feOffset dy="4"/>
<feGaussianBlur stdDeviation="2"/>
<feComposite in2="hardAlpha" operator="out"/>
<feColorMatrix type="matrix" values="0 0 0 0 0 0 0 0 0 0 0 0 0 0 0 0 0 0 0.25 0"/>
<feBlend mode="normal" in2="BackgroundImageFix" result="effect1_dropShadow_11374_1227"/>
<feBlend mode="normal" in="SourceGraphic" in2="effect1_dropShadow_11374_1227" result="shape"/>
</filter>
<filter id="filter1_d_11374_1227" x="335.019" y="53.6609" width="109.38" height="102.095" filterUnits="userSpaceOnUse" color-interpolation-filters="sRGB">
<feFlood flood-opacity="0" result="BackgroundImageFix"/>
<feColorMatrix in="SourceAlpha" type="matrix" values="0 0 0 0 0 0 0 0 0 0 0 0 0 0 0 0 0 0 127 0" result="hardAlpha"/>
<feOffset dy="4"/>
<feGaussianBlur stdDeviation="2"/>
<feComposite in2="hardAlpha" operator="out"/>
<feColorMatrix type="matrix" values="0 0 0 0 0 0 0 0 0 0 0 0 0 0 0 0 0 0 0.25 0"/>
<feBlend mode="normal" in2="BackgroundImageFix" result="effect1_dropShadow_11374_1227"/>
<feBlend mode="normal" in="SourceGraphic" in2="effect1_dropShadow_11374_1227" result="shape"/>
</filter>
<clipPath id="clip0_11374_1227">
<rect width="660" height="398" fill="white"/>
</clipPath>
</defs>
</svg>
