<svg width="700" height="414" viewBox="0 0 700 414" fill="none" xmlns="http://www.w3.org/2000/svg">
<g clip-path="url(#clip0_8925_1251)">
<rect width="700" height="414" fill="#FDF8D3"/>
<g opacity="0.6">
<path fill-rule="evenodd" clip-rule="evenodd" d="M439.449 24.5211C439.573 24.653 439.584 24.8795 439.472 25.0269L433.305 33.1727L424.454 31.5072L419.716 40.2653C419.626 40.4319 419.438 40.4805 419.297 40.3739C419.156 40.2672 419.115 40.0457 419.206 39.879L424.158 30.7259L433.074 32.4038L439.021 24.5489C439.133 24.4016 439.324 24.3891 439.449 24.5211Z" fill="#FED77F"/>
<path fill-rule="evenodd" clip-rule="evenodd" d="M413.505 17.7429C413.784 17.7429 414.009 18.0102 414.009 18.34V49.1472H440.458C440.737 49.1472 440.963 49.4145 440.963 49.7443C440.963 50.074 440.737 50.3413 440.458 50.3413H413V18.34C413 18.0102 413.226 17.7429 413.505 17.7429Z" fill="#FED77F"/>
<path d="M420.773 39.9527C420.773 40.81 420.185 41.505 419.461 41.505C418.736 41.505 418.148 40.81 418.148 39.9527C418.148 39.0954 418.736 38.4004 419.461 38.4004C420.185 38.4004 420.773 39.0954 420.773 39.9527Z" fill="#FED77F"/>
<path d="M425.619 31.1165C425.619 31.9738 425.031 32.6688 424.306 32.6688C423.581 32.6688 422.994 31.9738 422.994 31.1165C422.994 30.2592 423.581 29.5642 424.306 29.5642C425.031 29.5642 425.619 30.2592 425.619 31.1165Z" fill="#FED77F"/>
<path d="M434.502 32.5494C434.502 33.4067 433.915 34.1017 433.19 34.1017C432.465 34.1017 431.877 33.4067 431.877 32.5494C431.877 31.6921 432.465 30.9971 433.19 30.9971C433.915 30.9971 434.502 31.6921 434.502 32.5494Z" fill="#FED77F"/>
<path d="M440.357 24.6688C440.357 25.5261 439.77 26.2211 439.045 26.2211C438.32 26.2211 437.732 25.5261 437.732 24.6688C437.732 23.8114 438.32 23.1165 439.045 23.1165C439.77 23.1165 440.357 23.8114 440.357 24.6688Z" fill="#FED77F"/>
</g>
<g opacity="0.6">
<path fill-rule="evenodd" clip-rule="evenodd" d="M532.448 24.5211C532.573 24.653 532.584 24.8795 532.472 25.0269L526.305 33.1727L517.454 31.5072L512.715 40.2653C512.625 40.4319 512.438 40.4805 512.297 40.3739C512.156 40.2672 512.115 40.0457 512.205 39.879L517.158 30.7259L526.074 32.4038L532.021 24.5489C532.132 24.4016 532.324 24.3891 532.448 24.5211Z" fill="#FED77F"/>
<path fill-rule="evenodd" clip-rule="evenodd" d="M506.505 17.7429C506.784 17.7429 507.009 18.0102 507.009 18.34V49.1472H533.458C533.737 49.1472 533.963 49.4145 533.963 49.7443C533.963 50.074 533.737 50.3413 533.458 50.3413H506V18.34C506 18.0102 506.226 17.7429 506.505 17.7429Z" fill="#FED77F"/>
<path d="M513.773 39.9529C513.773 40.8103 513.185 41.5052 512.461 41.5052C511.736 41.5052 511.148 40.8103 511.148 39.9529C511.148 39.0956 511.736 38.4006 512.461 38.4006C513.185 38.4006 513.773 39.0956 513.773 39.9529Z" fill="#FED77F"/>
<path d="M518.619 31.1165C518.619 31.9738 518.031 32.6688 517.306 32.6688C516.581 32.6688 515.994 31.9738 515.994 31.1165C515.994 30.2592 516.581 29.5642 517.306 29.5642C518.031 29.5642 518.619 30.2592 518.619 31.1165Z" fill="#FED77F"/>
<path d="M527.502 32.5494C527.502 33.4067 526.915 34.1017 526.19 34.1017C525.465 34.1017 524.877 33.4067 524.877 32.5494C524.877 31.6921 525.465 30.9971 526.19 30.9971C526.915 30.9971 527.502 31.6921 527.502 32.5494Z" fill="#FED77F"/>
<path d="M533.357 24.6685C533.357 25.5258 532.769 26.2208 532.045 26.2208C531.32 26.2208 530.732 25.5258 530.732 24.6685C530.732 23.8112 531.32 23.1162 532.045 23.1162C532.769 23.1162 533.357 23.8112 533.357 24.6685Z" fill="#FED77F"/>
</g>
<g opacity="0.6">
<path fill-rule="evenodd" clip-rule="evenodd" d="M625.448 24.5211C625.573 24.653 625.584 24.8795 625.472 25.0269L619.305 33.1727L610.454 31.5072L605.715 40.2653C605.625 40.4319 605.438 40.4805 605.297 40.3739C605.156 40.2672 605.115 40.0457 605.205 39.879L610.158 30.7259L619.074 32.4038L625.021 24.5489C625.132 24.4016 625.324 24.3891 625.448 24.5211Z" fill="#FED77F"/>
<path fill-rule="evenodd" clip-rule="evenodd" d="M599.505 17.7429C599.784 17.7429 600.009 18.0102 600.009 18.34V49.1472H626.458C626.737 49.1472 626.963 49.4145 626.963 49.7443C626.963 50.074 626.737 50.3413 626.458 50.3413H599V18.34C599 18.0102 599.226 17.7429 599.505 17.7429Z" fill="#FED77F"/>
<path d="M606.773 39.9529C606.773 40.8103 606.185 41.5052 605.461 41.5052C604.736 41.5052 604.148 40.8103 604.148 39.9529C604.148 39.0956 604.736 38.4006 605.461 38.4006C606.185 38.4006 606.773 39.0956 606.773 39.9529Z" fill="#FED77F"/>
<path d="M611.619 31.1168C611.619 31.9741 611.031 32.6691 610.306 32.6691C609.581 32.6691 608.994 31.9741 608.994 31.1168C608.994 30.2594 609.581 29.5645 610.306 29.5645C611.031 29.5645 611.619 30.2594 611.619 31.1168Z" fill="#FED77F"/>
<path d="M620.502 32.5494C620.502 33.4067 619.915 34.1017 619.19 34.1017C618.465 34.1017 617.877 33.4067 617.877 32.5494C617.877 31.6921 618.465 30.9971 619.19 30.9971C619.915 30.9971 620.502 31.6921 620.502 32.5494Z" fill="#FED77F"/>
<path d="M626.357 24.6688C626.357 25.5261 625.77 26.2211 625.045 26.2211C624.32 26.2211 623.732 25.5261 623.732 24.6688C623.732 23.8114 624.32 23.1165 625.045 23.1165C625.77 23.1165 626.357 23.8114 626.357 24.6688Z" fill="#FED77F"/>
</g>
<g opacity="0.6">
<path fill-rule="evenodd" clip-rule="evenodd" d="M718.449 24.5211C718.573 24.653 718.584 24.8795 718.472 25.0269L712.305 33.1727L703.454 31.5072L698.716 40.2653C698.626 40.4319 698.438 40.4805 698.297 40.3739C698.156 40.2672 698.115 40.0457 698.206 39.879L703.158 30.7259L712.074 32.4038L718.021 24.5489C718.133 24.4016 718.324 24.3891 718.449 24.5211Z" fill="#FED77F"/>
<path fill-rule="evenodd" clip-rule="evenodd" d="M692.505 17.7429C692.784 17.7429 693.009 18.0102 693.009 18.34V49.1472H719.458C719.737 49.1472 719.963 49.4145 719.963 49.7443C719.963 50.074 719.737 50.3413 719.458 50.3413H692V18.34C692 18.0102 692.226 17.7429 692.505 17.7429Z" fill="#FED77F"/>
<path d="M699.773 39.9529C699.773 40.8103 699.185 41.5052 698.461 41.5052C697.736 41.5052 697.148 40.8103 697.148 39.9529C697.148 39.0956 697.736 38.4006 698.461 38.4006C699.185 38.4006 699.773 39.0956 699.773 39.9529Z" fill="#FED77F"/>
</g>
<g opacity="0.6">
<path fill-rule="evenodd" clip-rule="evenodd" d="M67.4484 24.5211C67.573 24.653 67.5835 24.8795 67.4719 25.0269L61.3049 33.1727L52.4541 31.5072L47.7154 40.2653C47.6253 40.4319 47.438 40.4805 47.2971 40.3739C47.1562 40.2672 47.1151 40.0457 47.2053 39.879L52.1577 30.7259L61.0739 32.4038L67.0207 24.5489C67.1323 24.4016 67.3238 24.3891 67.4484 24.5211Z" fill="#FED77F"/>
<path fill-rule="evenodd" clip-rule="evenodd" d="M41.5047 17.7429C41.7835 17.7429 42.0095 18.0102 42.0095 18.34V49.1472H68.4581C68.7369 49.1472 68.9628 49.4145 68.9628 49.7443C68.9628 50.074 68.7369 50.3413 68.4581 50.3413H41V18.34C41 18.0102 41.226 17.7429 41.5047 17.7429Z" fill="#FED77F"/>
<path d="M48.7729 39.9529C48.7729 40.8103 48.1853 41.5052 47.4605 41.5052C46.7357 41.5052 46.1482 40.8103 46.1482 39.9529C46.1482 39.0956 46.7357 38.4006 47.4605 38.4006C48.1853 38.4006 48.7729 39.0956 48.7729 39.9529Z" fill="#FED77F"/>
<path d="M53.6186 31.1165C53.6186 31.9738 53.031 32.6688 52.3062 32.6688C51.5814 32.6688 50.9939 31.9738 50.9939 31.1165C50.9939 30.2592 51.5814 29.5642 52.3062 29.5642C53.031 29.5642 53.6186 30.2592 53.6186 31.1165Z" fill="#FED77F"/>
<path d="M62.5021 32.5494C62.5021 33.4067 61.9146 34.1017 61.1898 34.1017C60.465 34.1017 59.8774 33.4067 59.8774 32.5494C59.8774 31.6921 60.465 30.9971 61.1898 30.9971C61.9146 30.9971 62.5021 31.6921 62.5021 32.5494Z" fill="#FED77F"/>
<path d="M68.3568 24.6685C68.3568 25.5258 67.7693 26.2208 67.0445 26.2208C66.3197 26.2208 65.7322 25.5258 65.7322 24.6685C65.7322 23.8112 66.3197 23.1162 67.0445 23.1162C67.7693 23.1162 68.3568 23.8112 68.3568 24.6685Z" fill="#FED77F"/>
</g>
<g opacity="0.6">
<path fill-rule="evenodd" clip-rule="evenodd" d="M160.448 24.5211C160.573 24.653 160.584 24.8795 160.472 25.0269L154.305 33.1727L145.454 31.5072L140.715 40.2653C140.625 40.4319 140.438 40.4805 140.297 40.3739C140.156 40.2672 140.115 40.0457 140.205 39.879L145.158 30.7259L154.074 32.4038L160.021 24.5489C160.132 24.4016 160.324 24.3891 160.448 24.5211Z" fill="#FED77F"/>
<path fill-rule="evenodd" clip-rule="evenodd" d="M134.505 17.7429C134.784 17.7429 135.009 18.0102 135.009 18.34V49.1472H161.458C161.737 49.1472 161.963 49.4145 161.963 49.7443C161.963 50.074 161.737 50.3413 161.458 50.3413H134V18.34C134 18.0102 134.226 17.7429 134.505 17.7429Z" fill="#FED77F"/>
<path d="M141.773 39.9529C141.773 40.8103 141.185 41.5052 140.461 41.5052C139.736 41.5052 139.148 40.8103 139.148 39.9529C139.148 39.0956 139.736 38.4006 140.461 38.4006C141.185 38.4006 141.773 39.0956 141.773 39.9529Z" fill="#FED77F"/>
<path d="M146.619 31.1168C146.619 31.9741 146.031 32.6691 145.306 32.6691C144.581 32.6691 143.994 31.9741 143.994 31.1168C143.994 30.2594 144.581 29.5645 145.306 29.5645C146.031 29.5645 146.619 30.2594 146.619 31.1168Z" fill="#FED77F"/>
<path d="M155.502 32.5494C155.502 33.4067 154.915 34.1017 154.19 34.1017C153.465 34.1017 152.877 33.4067 152.877 32.5494C152.877 31.6921 153.465 30.9971 154.19 30.9971C154.915 30.9971 155.502 31.6921 155.502 32.5494Z" fill="#FED77F"/>
<path d="M161.357 24.6688C161.357 25.5261 160.77 26.2211 160.045 26.2211C159.32 26.2211 158.732 25.5261 158.732 24.6688C158.732 23.8114 159.32 23.1165 160.045 23.1165C160.77 23.1165 161.357 23.8114 161.357 24.6688Z" fill="#FED77F"/>
</g>
<g opacity="0.6">
<path fill-rule="evenodd" clip-rule="evenodd" d="M253.449 24.5211C253.573 24.653 253.584 24.8795 253.472 25.0269L247.305 33.1727L238.454 31.5072L233.716 40.2653C233.626 40.4319 233.438 40.4805 233.297 40.3739C233.156 40.2672 233.115 40.0457 233.206 39.879L238.158 30.7259L247.074 32.4038L253.021 24.5489C253.133 24.4016 253.324 24.3891 253.449 24.5211Z" fill="#FED77F"/>
<path fill-rule="evenodd" clip-rule="evenodd" d="M227.505 17.7429C227.784 17.7429 228.009 18.0102 228.009 18.34V49.1472H254.458C254.737 49.1472 254.963 49.4145 254.963 49.7443C254.963 50.074 254.737 50.3413 254.458 50.3413H227V18.34C227 18.0102 227.226 17.7429 227.505 17.7429Z" fill="#FED77F"/>
<path d="M234.773 39.9529C234.773 40.8103 234.185 41.5052 233.461 41.5052C232.736 41.5052 232.148 40.8103 232.148 39.9529C232.148 39.0956 232.736 38.4006 233.461 38.4006C234.185 38.4006 234.773 39.0956 234.773 39.9529Z" fill="#FED77F"/>
<path d="M239.619 31.1168C239.619 31.9741 239.031 32.6691 238.306 32.6691C237.581 32.6691 236.994 31.9741 236.994 31.1168C236.994 30.2594 237.581 29.5645 238.306 29.5645C239.031 29.5645 239.619 30.2594 239.619 31.1168Z" fill="#FED77F"/>
<path d="M248.502 32.5496C248.502 33.4069 247.915 34.1019 247.19 34.1019C246.465 34.1019 245.878 33.4069 245.878 32.5496C245.878 31.6923 246.465 30.9973 247.19 30.9973C247.915 30.9973 248.502 31.6923 248.502 32.5496Z" fill="#FED77F"/>
<path d="M254.357 24.6688C254.357 25.5261 253.77 26.2211 253.045 26.2211C252.32 26.2211 251.733 25.5261 251.733 24.6688C251.733 23.8114 252.32 23.1165 253.045 23.1165C253.77 23.1165 254.357 23.8114 254.357 24.6688Z" fill="#FED77F"/>
</g>
<g opacity="0.6">
<path fill-rule="evenodd" clip-rule="evenodd" d="M346.448 24.5211C346.573 24.653 346.584 24.8795 346.472 25.0269L340.305 33.1727L331.454 31.5072L326.715 40.2653C326.625 40.4319 326.438 40.4805 326.297 40.3739C326.156 40.2672 326.115 40.0457 326.205 39.879L331.158 30.7259L340.074 32.4038L346.021 24.5489C346.132 24.4016 346.324 24.3891 346.448 24.5211Z" fill="#FED77F"/>
<path fill-rule="evenodd" clip-rule="evenodd" d="M320.505 17.7429C320.784 17.7429 321.009 18.0102 321.009 18.34V49.1472H347.458C347.737 49.1472 347.963 49.4145 347.963 49.7443C347.963 50.074 347.737 50.3413 347.458 50.3413H320V18.34C320 18.0102 320.226 17.7429 320.505 17.7429Z" fill="#FED77F"/>
<path d="M327.773 39.9529C327.773 40.8103 327.185 41.5052 326.461 41.5052C325.736 41.5052 325.148 40.8103 325.148 39.9529C325.148 39.0956 325.736 38.4006 326.461 38.4006C327.185 38.4006 327.773 39.0956 327.773 39.9529Z" fill="#FED77F"/>
<path d="M332.619 31.1168C332.619 31.9741 332.031 32.6691 331.306 32.6691C330.581 32.6691 329.994 31.9741 329.994 31.1168C329.994 30.2594 330.581 29.5645 331.306 29.5645C332.031 29.5645 332.619 30.2594 332.619 31.1168Z" fill="#FED77F"/>
<path d="M341.502 32.5494C341.502 33.4067 340.915 34.1017 340.19 34.1017C339.465 34.1017 338.877 33.4067 338.877 32.5494C338.877 31.6921 339.465 30.9971 340.19 30.9971C340.915 30.9971 341.502 31.6921 341.502 32.5494Z" fill="#FED77F"/>
<path d="M347.357 24.6688C347.357 25.5261 346.77 26.2211 346.045 26.2211C345.32 26.2211 344.732 25.5261 344.732 24.6688C344.732 23.8114 345.32 23.1165 346.045 23.1165C346.77 23.1165 347.357 23.8114 347.357 24.6688Z" fill="#FED77F"/>
</g>
<g opacity="0.6">
<path fill-rule="evenodd" clip-rule="evenodd" d="M497.449 96.6754C497.573 96.8073 497.584 97.0338 497.472 97.1812L491.305 105.327L482.454 103.661L477.716 112.42C477.626 112.586 477.438 112.635 477.297 112.528C477.156 112.422 477.115 112.2 477.206 112.033L482.158 102.88L491.074 104.558L497.021 96.7032C497.133 96.5559 497.324 96.5434 497.449 96.6754Z" fill="#FED77F"/>
<path fill-rule="evenodd" clip-rule="evenodd" d="M471.505 89.8972C471.784 89.8972 472.009 90.1645 472.009 90.4943V121.302H498.458C498.737 121.302 498.963 121.569 498.963 121.899C498.963 122.228 498.737 122.496 498.458 122.496H471V90.4943C471 90.1645 471.226 89.8972 471.505 89.8972Z" fill="#FED77F"/>
<path d="M478.773 112.107C478.773 112.964 478.185 113.659 477.461 113.659C476.736 113.659 476.148 112.964 476.148 112.107C476.148 111.25 476.736 110.555 477.461 110.555C478.185 110.555 478.773 111.25 478.773 112.107Z" fill="#FED77F"/>
<path d="M483.619 103.271C483.619 104.128 483.031 104.823 482.306 104.823C481.581 104.823 480.994 104.128 480.994 103.271C480.994 102.413 481.581 101.719 482.306 101.719C483.031 101.719 483.619 102.413 483.619 103.271Z" fill="#FED77F"/>
<path d="M492.502 104.704C492.502 105.561 491.915 106.256 491.19 106.256C490.465 106.256 489.877 105.561 489.877 104.704C489.877 103.846 490.465 103.151 491.19 103.151C491.915 103.151 492.502 103.846 492.502 104.704Z" fill="#FED77F"/>
<path d="M498.357 96.8231C498.357 97.6804 497.77 98.3754 497.045 98.3754C496.32 98.3754 495.732 97.6804 495.732 96.8231C495.732 95.9657 496.32 95.2708 497.045 95.2708C497.77 95.2708 498.357 95.9657 498.357 96.8231Z" fill="#FED77F"/>
</g>
<g opacity="0.6">
<path fill-rule="evenodd" clip-rule="evenodd" d="M590.448 96.6754C590.573 96.8073 590.584 97.0338 590.472 97.1812L584.305 105.327L575.454 103.661L570.715 112.42C570.625 112.586 570.438 112.635 570.297 112.528C570.156 112.422 570.115 112.2 570.205 112.033L575.158 102.88L584.074 104.558L590.021 96.7032C590.132 96.5559 590.324 96.5434 590.448 96.6754Z" fill="#FED77F"/>
<path fill-rule="evenodd" clip-rule="evenodd" d="M564.505 89.8972C564.784 89.8972 565.009 90.1645 565.009 90.4943V121.302H591.458C591.737 121.302 591.963 121.569 591.963 121.899C591.963 122.228 591.737 122.496 591.458 122.496H564V90.4943C564 90.1645 564.226 89.8972 564.505 89.8972Z" fill="#FED77F"/>
<path d="M571.773 112.107C571.773 112.965 571.185 113.66 570.461 113.66C569.736 113.66 569.148 112.965 569.148 112.107C569.148 111.25 569.736 110.555 570.461 110.555C571.185 110.555 571.773 111.25 571.773 112.107Z" fill="#FED77F"/>
<path d="M576.619 103.271C576.619 104.128 576.031 104.823 575.306 104.823C574.581 104.823 573.994 104.128 573.994 103.271C573.994 102.413 574.581 101.719 575.306 101.719C576.031 101.719 576.619 102.413 576.619 103.271Z" fill="#FED77F"/>
<path d="M585.502 104.704C585.502 105.561 584.915 106.256 584.19 106.256C583.465 106.256 582.877 105.561 582.877 104.704C582.877 103.846 583.465 103.151 584.19 103.151C584.915 103.151 585.502 103.846 585.502 104.704Z" fill="#FED77F"/>
<path d="M591.357 96.8228C591.357 97.6801 590.769 98.3751 590.045 98.3751C589.32 98.3751 588.732 97.6801 588.732 96.8228C588.732 95.9655 589.32 95.2705 590.045 95.2705C590.769 95.2705 591.357 95.9655 591.357 96.8228Z" fill="#FED77F"/>
</g>
<g opacity="0.6">
<path fill-rule="evenodd" clip-rule="evenodd" d="M683.448 96.6754C683.573 96.8073 683.584 97.0338 683.472 97.1812L677.305 105.327L668.454 103.661L663.715 112.42C663.625 112.586 663.438 112.635 663.297 112.528C663.156 112.422 663.115 112.2 663.205 112.033L668.158 102.88L677.074 104.558L683.021 96.7032C683.132 96.5559 683.324 96.5434 683.448 96.6754Z" fill="#FED77F"/>
<path fill-rule="evenodd" clip-rule="evenodd" d="M657.505 89.8972C657.784 89.8972 658.009 90.1645 658.009 90.4943V121.302H684.458C684.737 121.302 684.963 121.569 684.963 121.899C684.963 122.228 684.737 122.496 684.458 122.496H657V90.4943C657 90.1645 657.226 89.8972 657.505 89.8972Z" fill="#FED77F"/>
<path d="M664.773 112.107C664.773 112.965 664.185 113.66 663.461 113.66C662.736 113.66 662.148 112.965 662.148 112.107C662.148 111.25 662.736 110.555 663.461 110.555C664.185 110.555 664.773 111.25 664.773 112.107Z" fill="#FED77F"/>
<path d="M669.619 103.271C669.619 104.128 669.031 104.823 668.306 104.823C667.581 104.823 666.994 104.128 666.994 103.271C666.994 102.414 667.581 101.719 668.306 101.719C669.031 101.719 669.619 102.414 669.619 103.271Z" fill="#FED77F"/>
<path d="M678.502 104.704C678.502 105.561 677.915 106.256 677.19 106.256C676.465 106.256 675.877 105.561 675.877 104.704C675.877 103.846 676.465 103.151 677.19 103.151C677.915 103.151 678.502 103.846 678.502 104.704Z" fill="#FED77F"/>
<path d="M684.357 96.8231C684.357 97.6804 683.77 98.3754 683.045 98.3754C682.32 98.3754 681.732 97.6804 681.732 96.8231C681.732 95.9657 682.32 95.2708 683.045 95.2708C683.77 95.2708 684.357 95.9657 684.357 96.8231Z" fill="#FED77F"/>
</g>
<g opacity="0.6">
<path fill-rule="evenodd" clip-rule="evenodd" d="M32.4486 96.6754C32.5732 96.8073 32.5838 97.0338 32.4722 97.1812L26.3051 105.327L17.4544 103.661L12.7157 112.42C12.6255 112.586 12.4382 112.635 12.2973 112.528C12.1565 112.422 12.1154 112.2 12.2055 112.033L17.1579 102.88L26.0742 104.558L32.021 96.7032C32.1326 96.5559 32.324 96.5434 32.4486 96.6754Z" fill="#FED77F"/>
<path fill-rule="evenodd" clip-rule="evenodd" d="M6.50474 89.8972C6.78351 89.8972 7.00949 90.1645 7.00949 90.4943L7.00949 121.302H33.4581C33.7369 121.302 33.9628 121.569 33.9628 121.899C33.9628 122.228 33.7369 122.496 33.4581 122.496H6L6 90.4943C6 90.1645 6.22598 89.8972 6.50474 89.8972Z" fill="#FED77F"/>
<path d="M13.7729 112.107C13.7729 112.964 13.1853 113.659 12.4605 113.659C11.7357 113.659 11.1482 112.964 11.1482 112.107C11.1482 111.25 11.7357 110.555 12.4605 110.555C13.1853 110.555 13.7729 111.25 13.7729 112.107Z" fill="#FED77F"/>
<path d="M18.6186 103.271C18.6186 104.128 18.031 104.823 17.3062 104.823C16.5814 104.823 15.9939 104.128 15.9939 103.271C15.9939 102.413 16.5814 101.719 17.3062 101.719C18.031 101.719 18.6186 102.413 18.6186 103.271Z" fill="#FED77F"/>
<path d="M27.5021 104.704C27.5021 105.561 26.9146 106.256 26.1898 106.256C25.465 106.256 24.8774 105.561 24.8774 104.704C24.8774 103.846 25.465 103.151 26.1898 103.151C26.9146 103.151 27.5021 103.846 27.5021 104.704Z" fill="#FED77F"/>
<path d="M33.3571 96.8231C33.3571 97.6804 32.7695 98.3754 32.0448 98.3754C31.32 98.3754 30.7324 97.6804 30.7324 96.8231C30.7324 95.9657 31.32 95.2708 32.0448 95.2708C32.7695 95.2708 33.3571 95.9657 33.3571 96.8231Z" fill="#FED77F"/>
</g>
<g opacity="0.6">
<path fill-rule="evenodd" clip-rule="evenodd" d="M125.448 96.6754C125.573 96.8073 125.584 97.0338 125.472 97.1812L119.305 105.327L110.454 103.661L105.715 112.42C105.625 112.586 105.438 112.635 105.297 112.528C105.156 112.422 105.115 112.2 105.205 112.033L110.158 102.88L119.074 104.558L125.021 96.7032C125.132 96.5559 125.324 96.5434 125.448 96.6754Z" fill="#FED77F"/>
<path fill-rule="evenodd" clip-rule="evenodd" d="M99.5047 89.8972C99.7835 89.8972 100.009 90.1645 100.009 90.4943V121.302H126.458C126.737 121.302 126.963 121.569 126.963 121.899C126.963 122.228 126.737 122.496 126.458 122.496H99V90.4943C99 90.1645 99.226 89.8972 99.5047 89.8972Z" fill="#FED77F"/>
<path d="M106.773 112.107C106.773 112.965 106.185 113.66 105.461 113.66C104.736 113.66 104.148 112.965 104.148 112.107C104.148 111.25 104.736 110.555 105.461 110.555C106.185 110.555 106.773 111.25 106.773 112.107Z" fill="#FED77F"/>
<path d="M111.619 103.271C111.619 104.128 111.031 104.823 110.306 104.823C109.581 104.823 108.994 104.128 108.994 103.271C108.994 102.413 109.581 101.719 110.306 101.719C111.031 101.719 111.619 102.413 111.619 103.271Z" fill="#FED77F"/>
<path d="M120.502 104.704C120.502 105.561 119.915 106.256 119.19 106.256C118.465 106.256 117.877 105.561 117.877 104.704C117.877 103.846 118.465 103.151 119.19 103.151C119.915 103.151 120.502 103.846 120.502 104.704Z" fill="#FED77F"/>
<path d="M126.357 96.8228C126.357 97.6801 125.769 98.3751 125.045 98.3751C124.32 98.3751 123.732 97.6801 123.732 96.8228C123.732 95.9655 124.32 95.2705 125.045 95.2705C125.769 95.2705 126.357 95.9655 126.357 96.8228Z" fill="#FED77F"/>
</g>
<g opacity="0.6">
<path fill-rule="evenodd" clip-rule="evenodd" d="M218.448 96.6754C218.573 96.8073 218.584 97.0338 218.472 97.1812L212.305 105.327L203.454 103.661L198.715 112.42C198.625 112.586 198.438 112.635 198.297 112.528C198.156 112.422 198.115 112.2 198.205 112.033L203.158 102.88L212.074 104.558L218.021 96.7032C218.132 96.5559 218.324 96.5434 218.448 96.6754Z" fill="#FED77F"/>
<path fill-rule="evenodd" clip-rule="evenodd" d="M192.505 89.8972C192.784 89.8972 193.009 90.1645 193.009 90.4943V121.302H219.458C219.737 121.302 219.963 121.569 219.963 121.899C219.963 122.228 219.737 122.496 219.458 122.496H192V90.4943C192 90.1645 192.226 89.8972 192.505 89.8972Z" fill="#FED77F"/>
<path d="M199.773 112.107C199.773 112.965 199.185 113.66 198.461 113.66C197.736 113.66 197.148 112.965 197.148 112.107C197.148 111.25 197.736 110.555 198.461 110.555C199.185 110.555 199.773 111.25 199.773 112.107Z" fill="#FED77F"/>
<path d="M204.619 103.271C204.619 104.128 204.031 104.823 203.306 104.823C202.581 104.823 201.994 104.128 201.994 103.271C201.994 102.414 202.581 101.719 203.306 101.719C204.031 101.719 204.619 102.414 204.619 103.271Z" fill="#FED77F"/>
<path d="M213.502 104.704C213.502 105.561 212.915 106.256 212.19 106.256C211.465 106.256 210.877 105.561 210.877 104.704C210.877 103.846 211.465 103.151 212.19 103.151C212.915 103.151 213.502 103.846 213.502 104.704Z" fill="#FED77F"/>
<path d="M219.357 96.8231C219.357 97.6804 218.77 98.3754 218.045 98.3754C217.32 98.3754 216.732 97.6804 216.732 96.8231C216.732 95.9657 217.32 95.2708 218.045 95.2708C218.77 95.2708 219.357 95.9657 219.357 96.8231Z" fill="#FED77F"/>
</g>
<g opacity="0.6">
<path fill-rule="evenodd" clip-rule="evenodd" d="M311.449 96.6754C311.573 96.8073 311.584 97.0338 311.472 97.1812L305.305 105.327L296.454 103.661L291.716 112.42C291.626 112.586 291.438 112.635 291.297 112.528C291.156 112.422 291.115 112.2 291.206 112.033L296.158 102.88L305.074 104.558L311.021 96.7032C311.133 96.5559 311.324 96.5434 311.449 96.6754Z" fill="#FED77F"/>
<path fill-rule="evenodd" clip-rule="evenodd" d="M285.505 89.8972C285.784 89.8972 286.009 90.1645 286.009 90.4943V121.302H312.458C312.737 121.302 312.963 121.569 312.963 121.899C312.963 122.228 312.737 122.496 312.458 122.496H285V90.4943C285 90.1645 285.226 89.8972 285.505 89.8972Z" fill="#FED77F"/>
<path d="M292.773 112.107C292.773 112.965 292.185 113.66 291.461 113.66C290.736 113.66 290.148 112.965 290.148 112.107C290.148 111.25 290.736 110.555 291.461 110.555C292.185 110.555 292.773 111.25 292.773 112.107Z" fill="#FED77F"/>
<path d="M297.619 103.271C297.619 104.128 297.031 104.823 296.306 104.823C295.581 104.823 294.994 104.128 294.994 103.271C294.994 102.414 295.581 101.719 296.306 101.719C297.031 101.719 297.619 102.414 297.619 103.271Z" fill="#FED77F"/>
<path d="M306.502 104.704C306.502 105.561 305.915 106.256 305.19 106.256C304.465 106.256 303.878 105.561 303.878 104.704C303.878 103.847 304.465 103.152 305.19 103.152C305.915 103.152 306.502 103.847 306.502 104.704Z" fill="#FED77F"/>
<path d="M312.357 96.8231C312.357 97.6804 311.77 98.3754 311.045 98.3754C310.32 98.3754 309.733 97.6804 309.733 96.8231C309.733 95.9657 310.32 95.2708 311.045 95.2708C311.77 95.2708 312.357 95.9657 312.357 96.8231Z" fill="#FED77F"/>
</g>
<g opacity="0.6">
<path fill-rule="evenodd" clip-rule="evenodd" d="M404.448 96.6754C404.573 96.8073 404.584 97.0338 404.472 97.1812L398.305 105.327L389.454 103.661L384.715 112.42C384.625 112.586 384.438 112.635 384.297 112.528C384.156 112.422 384.115 112.2 384.205 112.033L389.158 102.88L398.074 104.558L404.021 96.7032C404.132 96.5559 404.324 96.5434 404.448 96.6754Z" fill="#FED77F"/>
<path fill-rule="evenodd" clip-rule="evenodd" d="M378.505 89.8972C378.784 89.8972 379.009 90.1645 379.009 90.4943V121.302H405.458C405.737 121.302 405.963 121.569 405.963 121.899C405.963 122.228 405.737 122.496 405.458 122.496H378V90.4943C378 90.1645 378.226 89.8972 378.505 89.8972Z" fill="#FED77F"/>
<path d="M385.773 112.107C385.773 112.965 385.185 113.66 384.461 113.66C383.736 113.66 383.148 112.965 383.148 112.107C383.148 111.25 383.736 110.555 384.461 110.555C385.185 110.555 385.773 111.25 385.773 112.107Z" fill="#FED77F"/>
<path d="M390.619 103.271C390.619 104.128 390.031 104.823 389.306 104.823C388.581 104.823 387.994 104.128 387.994 103.271C387.994 102.414 388.581 101.719 389.306 101.719C390.031 101.719 390.619 102.414 390.619 103.271Z" fill="#FED77F"/>
<path d="M399.502 104.704C399.502 105.561 398.915 106.256 398.19 106.256C397.465 106.256 396.877 105.561 396.877 104.704C396.877 103.846 397.465 103.151 398.19 103.151C398.915 103.151 399.502 103.846 399.502 104.704Z" fill="#FED77F"/>
<path d="M405.357 96.8231C405.357 97.6804 404.77 98.3754 404.045 98.3754C403.32 98.3754 402.732 97.6804 402.732 96.8231C402.732 95.9657 403.32 95.2708 404.045 95.2708C404.77 95.2708 405.357 95.9657 405.357 96.8231Z" fill="#FED77F"/>
</g>
<g opacity="0.6">
<path fill-rule="evenodd" clip-rule="evenodd" d="M439.449 180.658C439.573 180.79 439.584 181.017 439.472 181.164L433.305 189.31L424.454 187.644L419.716 196.402C419.626 196.569 419.438 196.618 419.297 196.511C419.156 196.404 419.115 196.183 419.206 196.016L424.158 186.863L433.074 188.541L439.021 180.686C439.133 180.539 439.324 180.526 439.449 180.658Z" fill="#FED77F"/>
<path fill-rule="evenodd" clip-rule="evenodd" d="M413.505 173.88C413.784 173.88 414.009 174.147 414.009 174.477V205.284H440.458C440.737 205.284 440.963 205.552 440.963 205.881C440.963 206.211 440.737 206.479 440.458 206.479H413V174.477C413 174.147 413.226 173.88 413.505 173.88Z" fill="#FED77F"/>
<path d="M420.773 196.09C420.773 196.947 420.185 197.642 419.461 197.642C418.736 197.642 418.148 196.947 418.148 196.09C418.148 195.233 418.736 194.538 419.461 194.538C420.185 194.538 420.773 195.233 420.773 196.09Z" fill="#FED77F"/>
<path d="M425.619 187.254C425.619 188.111 425.031 188.806 424.306 188.806C423.581 188.806 422.994 188.111 422.994 187.254C422.994 186.396 423.581 185.701 424.306 185.701C425.031 185.701 425.619 186.396 425.619 187.254Z" fill="#FED77F"/>
<path d="M434.502 188.687C434.502 189.544 433.915 190.239 433.19 190.239C432.465 190.239 431.877 189.544 431.877 188.687C431.877 187.829 432.465 187.134 433.19 187.134C433.915 187.134 434.502 187.829 434.502 188.687Z" fill="#FED77F"/>
<path d="M440.357 180.806C440.357 181.663 439.77 182.358 439.045 182.358C438.32 182.358 437.732 181.663 437.732 180.806C437.732 179.949 438.32 179.254 439.045 179.254C439.77 179.254 440.357 179.949 440.357 180.806Z" fill="#FED77F"/>
</g>
<g opacity="0.6">
<path fill-rule="evenodd" clip-rule="evenodd" d="M532.448 180.658C532.573 180.79 532.584 181.017 532.472 181.164L526.305 189.31L517.454 187.644L512.715 196.402C512.625 196.569 512.438 196.618 512.297 196.511C512.156 196.404 512.115 196.183 512.205 196.016L517.158 186.863L526.074 188.541L532.021 180.686C532.132 180.539 532.324 180.526 532.448 180.658Z" fill="#FED77F"/>
<path fill-rule="evenodd" clip-rule="evenodd" d="M506.505 173.88C506.784 173.88 507.009 174.147 507.009 174.477V205.284H533.458C533.737 205.284 533.963 205.552 533.963 205.881C533.963 206.211 533.737 206.479 533.458 206.479H506V174.477C506 174.147 506.226 173.88 506.505 173.88Z" fill="#FED77F"/>
<path d="M513.773 196.09C513.773 196.947 513.185 197.642 512.461 197.642C511.736 197.642 511.148 196.947 511.148 196.09C511.148 195.233 511.736 194.538 512.461 194.538C513.185 194.538 513.773 195.233 513.773 196.09Z" fill="#FED77F"/>
<path d="M518.619 187.254C518.619 188.111 518.031 188.806 517.306 188.806C516.581 188.806 515.994 188.111 515.994 187.254C515.994 186.396 516.581 185.701 517.306 185.701C518.031 185.701 518.619 186.396 518.619 187.254Z" fill="#FED77F"/>
<path d="M527.502 188.687C527.502 189.544 526.915 190.239 526.19 190.239C525.465 190.239 524.877 189.544 524.877 188.687C524.877 187.829 525.465 187.134 526.19 187.134C526.915 187.134 527.502 187.829 527.502 188.687Z" fill="#FED77F"/>
<path d="M533.357 180.806C533.357 181.663 532.769 182.358 532.045 182.358C531.32 182.358 530.732 181.663 530.732 180.806C530.732 179.948 531.32 179.253 532.045 179.253C532.769 179.253 533.357 179.948 533.357 180.806Z" fill="#FED77F"/>
</g>
<g opacity="0.6">
<path fill-rule="evenodd" clip-rule="evenodd" d="M625.448 180.658C625.573 180.79 625.584 181.017 625.472 181.164L619.305 189.31L610.454 187.644L605.715 196.402C605.625 196.569 605.438 196.618 605.297 196.511C605.156 196.404 605.115 196.183 605.205 196.016L610.158 186.863L619.074 188.541L625.021 180.686C625.132 180.539 625.324 180.526 625.448 180.658Z" fill="#FED77F"/>
<path fill-rule="evenodd" clip-rule="evenodd" d="M599.505 173.88C599.784 173.88 600.009 174.147 600.009 174.477V205.284H626.458C626.737 205.284 626.963 205.552 626.963 205.881C626.963 206.211 626.737 206.479 626.458 206.479H599V174.477C599 174.147 599.226 173.88 599.505 173.88Z" fill="#FED77F"/>
<path d="M606.773 196.09C606.773 196.947 606.185 197.642 605.461 197.642C604.736 197.642 604.148 196.947 604.148 196.09C604.148 195.233 604.736 194.538 605.461 194.538C606.185 194.538 606.773 195.233 606.773 196.09Z" fill="#FED77F"/>
<path d="M611.619 187.254C611.619 188.111 611.031 188.806 610.306 188.806C609.581 188.806 608.994 188.111 608.994 187.254C608.994 186.397 609.581 185.702 610.306 185.702C611.031 185.702 611.619 186.397 611.619 187.254Z" fill="#FED77F"/>
<path d="M620.502 188.687C620.502 189.544 619.915 190.239 619.19 190.239C618.465 190.239 617.877 189.544 617.877 188.687C617.877 187.829 618.465 187.134 619.19 187.134C619.915 187.134 620.502 187.829 620.502 188.687Z" fill="#FED77F"/>
<path d="M626.357 180.806C626.357 181.663 625.77 182.358 625.045 182.358C624.32 182.358 623.732 181.663 623.732 180.806C623.732 179.949 624.32 179.254 625.045 179.254C625.77 179.254 626.357 179.949 626.357 180.806Z" fill="#FED77F"/>
</g>
<g opacity="0.6">
<path fill-rule="evenodd" clip-rule="evenodd" d="M718.449 180.658C718.573 180.79 718.584 181.017 718.472 181.164L712.305 189.31L703.454 187.644L698.716 196.402C698.626 196.569 698.438 196.618 698.297 196.511C698.156 196.404 698.115 196.183 698.206 196.016L703.158 186.863L712.074 188.541L718.021 180.686C718.133 180.539 718.324 180.526 718.449 180.658Z" fill="#FED77F"/>
<path fill-rule="evenodd" clip-rule="evenodd" d="M692.505 173.88C692.784 173.88 693.009 174.147 693.009 174.477V205.284H719.458C719.737 205.284 719.963 205.552 719.963 205.881C719.963 206.211 719.737 206.479 719.458 206.479H692V174.477C692 174.147 692.226 173.88 692.505 173.88Z" fill="#FED77F"/>
<path d="M699.773 196.09C699.773 196.947 699.185 197.642 698.461 197.642C697.736 197.642 697.148 196.947 697.148 196.09C697.148 195.233 697.736 194.538 698.461 194.538C699.185 194.538 699.773 195.233 699.773 196.09Z" fill="#FED77F"/>
</g>
<g opacity="0.6">
<path fill-rule="evenodd" clip-rule="evenodd" d="M67.4484 180.658C67.573 180.79 67.5835 181.017 67.4719 181.164L61.3049 189.31L52.4541 187.644L47.7154 196.402C47.6253 196.569 47.438 196.618 47.2971 196.511C47.1562 196.404 47.1151 196.183 47.2053 196.016L52.1577 186.863L61.0739 188.541L67.0207 180.686C67.1323 180.539 67.3238 180.526 67.4484 180.658Z" fill="#FED77F"/>
<path fill-rule="evenodd" clip-rule="evenodd" d="M41.5047 173.88C41.7835 173.88 42.0095 174.147 42.0095 174.477V205.284H68.4581C68.7369 205.284 68.9628 205.552 68.9628 205.881C68.9628 206.211 68.7369 206.479 68.4581 206.479H41V174.477C41 174.147 41.226 173.88 41.5047 173.88Z" fill="#FED77F"/>
<path d="M48.7729 196.09C48.7729 196.947 48.1853 197.642 47.4605 197.642C46.7357 197.642 46.1482 196.947 46.1482 196.09C46.1482 195.233 46.7357 194.538 47.4605 194.538C48.1853 194.538 48.7729 195.233 48.7729 196.09Z" fill="#FED77F"/>
<path d="M53.6186 187.254C53.6186 188.111 53.031 188.806 52.3062 188.806C51.5814 188.806 50.9939 188.111 50.9939 187.254C50.9939 186.396 51.5814 185.701 52.3062 185.701C53.031 185.701 53.6186 186.396 53.6186 187.254Z" fill="#FED77F"/>
<path d="M62.5021 188.687C62.5021 189.544 61.9146 190.239 61.1898 190.239C60.465 190.239 59.8774 189.544 59.8774 188.687C59.8774 187.829 60.465 187.134 61.1898 187.134C61.9146 187.134 62.5021 187.829 62.5021 188.687Z" fill="#FED77F"/>
<path d="M68.3568 180.806C68.3568 181.663 67.7693 182.358 67.0445 182.358C66.3197 182.358 65.7322 181.663 65.7322 180.806C65.7322 179.948 66.3197 179.253 67.0445 179.253C67.7693 179.253 68.3568 179.948 68.3568 180.806Z" fill="#FED77F"/>
</g>
<g opacity="0.6">
<path fill-rule="evenodd" clip-rule="evenodd" d="M160.448 180.658C160.573 180.79 160.584 181.017 160.472 181.164L154.305 189.31L145.454 187.644L140.715 196.402C140.625 196.569 140.438 196.618 140.297 196.511C140.156 196.404 140.115 196.183 140.205 196.016L145.158 186.863L154.074 188.541L160.021 180.686C160.132 180.539 160.324 180.526 160.448 180.658Z" fill="#FED77F"/>
<path fill-rule="evenodd" clip-rule="evenodd" d="M134.505 173.88C134.784 173.88 135.009 174.147 135.009 174.477V205.284H161.458C161.737 205.284 161.963 205.552 161.963 205.881C161.963 206.211 161.737 206.479 161.458 206.479H134V174.477C134 174.147 134.226 173.88 134.505 173.88Z" fill="#FED77F"/>
<path d="M141.773 196.09C141.773 196.947 141.185 197.642 140.461 197.642C139.736 197.642 139.148 196.947 139.148 196.09C139.148 195.233 139.736 194.538 140.461 194.538C141.185 194.538 141.773 195.233 141.773 196.09Z" fill="#FED77F"/>
<path d="M146.619 187.254C146.619 188.111 146.031 188.806 145.306 188.806C144.581 188.806 143.994 188.111 143.994 187.254C143.994 186.397 144.581 185.702 145.306 185.702C146.031 185.702 146.619 186.397 146.619 187.254Z" fill="#FED77F"/>
<path d="M155.502 188.687C155.502 189.544 154.915 190.239 154.19 190.239C153.465 190.239 152.877 189.544 152.877 188.687C152.877 187.829 153.465 187.134 154.19 187.134C154.915 187.134 155.502 187.829 155.502 188.687Z" fill="#FED77F"/>
<path d="M161.357 180.806C161.357 181.663 160.77 182.358 160.045 182.358C159.32 182.358 158.732 181.663 158.732 180.806C158.732 179.949 159.32 179.254 160.045 179.254C160.77 179.254 161.357 179.949 161.357 180.806Z" fill="#FED77F"/>
</g>
<g opacity="0.6">
<path fill-rule="evenodd" clip-rule="evenodd" d="M253.449 180.658C253.573 180.79 253.584 181.017 253.472 181.164L247.305 189.31L238.454 187.644L233.716 196.402C233.626 196.569 233.438 196.618 233.297 196.511C233.156 196.404 233.115 196.183 233.206 196.016L238.158 186.863L247.074 188.541L253.021 180.686C253.133 180.539 253.324 180.526 253.449 180.658Z" fill="#FED77F"/>
<path fill-rule="evenodd" clip-rule="evenodd" d="M227.505 173.88C227.784 173.88 228.009 174.147 228.009 174.477V205.284H254.458C254.737 205.284 254.963 205.552 254.963 205.881C254.963 206.211 254.737 206.479 254.458 206.479H227V174.477C227 174.147 227.226 173.88 227.505 173.88Z" fill="#FED77F"/>
<path d="M234.773 196.09C234.773 196.947 234.185 197.642 233.461 197.642C232.736 197.642 232.148 196.947 232.148 196.09C232.148 195.233 232.736 194.538 233.461 194.538C234.185 194.538 234.773 195.233 234.773 196.09Z" fill="#FED77F"/>
<path d="M239.619 187.254C239.619 188.111 239.031 188.806 238.306 188.806C237.581 188.806 236.994 188.111 236.994 187.254C236.994 186.397 237.581 185.702 238.306 185.702C239.031 185.702 239.619 186.397 239.619 187.254Z" fill="#FED77F"/>
<path d="M248.502 188.687C248.502 189.544 247.915 190.239 247.19 190.239C246.465 190.239 245.878 189.544 245.878 188.687C245.878 187.83 246.465 187.135 247.19 187.135C247.915 187.135 248.502 187.83 248.502 188.687Z" fill="#FED77F"/>
<path d="M254.357 180.806C254.357 181.663 253.77 182.358 253.045 182.358C252.32 182.358 251.733 181.663 251.733 180.806C251.733 179.949 252.32 179.254 253.045 179.254C253.77 179.254 254.357 179.949 254.357 180.806Z" fill="#FED77F"/>
</g>
<g opacity="0.6">
<path fill-rule="evenodd" clip-rule="evenodd" d="M346.448 180.658C346.573 180.79 346.584 181.017 346.472 181.164L340.305 189.31L331.454 187.644L326.715 196.402C326.625 196.569 326.438 196.618 326.297 196.511C326.156 196.404 326.115 196.183 326.205 196.016L331.158 186.863L340.074 188.541L346.021 180.686C346.132 180.539 346.324 180.526 346.448 180.658Z" fill="#FED77F"/>
<path fill-rule="evenodd" clip-rule="evenodd" d="M320.505 173.88C320.784 173.88 321.009 174.147 321.009 174.477V205.284H347.458C347.737 205.284 347.963 205.552 347.963 205.881C347.963 206.211 347.737 206.479 347.458 206.479H320V174.477C320 174.147 320.226 173.88 320.505 173.88Z" fill="#FED77F"/>
<path d="M327.773 196.09C327.773 196.947 327.185 197.642 326.461 197.642C325.736 197.642 325.148 196.947 325.148 196.09C325.148 195.233 325.736 194.538 326.461 194.538C327.185 194.538 327.773 195.233 327.773 196.09Z" fill="#FED77F"/>
<path d="M332.619 187.254C332.619 188.111 332.031 188.806 331.306 188.806C330.581 188.806 329.994 188.111 329.994 187.254C329.994 186.397 330.581 185.702 331.306 185.702C332.031 185.702 332.619 186.397 332.619 187.254Z" fill="#FED77F"/>
<path d="M341.502 188.687C341.502 189.544 340.915 190.239 340.19 190.239C339.465 190.239 338.877 189.544 338.877 188.687C338.877 187.829 339.465 187.134 340.19 187.134C340.915 187.134 341.502 187.829 341.502 188.687Z" fill="#FED77F"/>
<path d="M347.357 180.806C347.357 181.663 346.77 182.358 346.045 182.358C345.32 182.358 344.732 181.663 344.732 180.806C344.732 179.949 345.32 179.254 346.045 179.254C346.77 179.254 347.357 179.949 347.357 180.806Z" fill="#FED77F"/>
</g>
<g opacity="0.6">
<path fill-rule="evenodd" clip-rule="evenodd" d="M497.449 252.813C497.573 252.945 497.584 253.171 497.472 253.318L491.305 261.464L482.454 259.799L477.716 268.557C477.626 268.723 477.438 268.772 477.297 268.665C477.156 268.559 477.115 268.337 477.206 268.171L482.158 259.017L491.074 260.695L497.021 252.84C497.133 252.693 497.324 252.681 497.449 252.813Z" fill="#FED77F"/>
<path fill-rule="evenodd" clip-rule="evenodd" d="M471.505 246.034C471.784 246.034 472.009 246.302 472.009 246.631V277.439H498.458C498.737 277.439 498.963 277.706 498.963 278.036C498.963 278.366 498.737 278.633 498.458 278.633H471V246.631C471 246.302 471.226 246.034 471.505 246.034Z" fill="#FED77F"/>
<path d="M478.773 268.244C478.773 269.102 478.185 269.797 477.461 269.797C476.736 269.797 476.148 269.102 476.148 268.244C476.148 267.387 476.736 266.692 477.461 266.692C478.185 266.692 478.773 267.387 478.773 268.244Z" fill="#FED77F"/>
<path d="M483.619 259.408C483.619 260.265 483.031 260.96 482.306 260.96C481.581 260.96 480.994 260.265 480.994 259.408C480.994 258.551 481.581 257.856 482.306 257.856C483.031 257.856 483.619 258.551 483.619 259.408Z" fill="#FED77F"/>
<path d="M492.502 260.841C492.502 261.698 491.915 262.393 491.19 262.393C490.465 262.393 489.877 261.698 489.877 260.841C489.877 259.984 490.465 259.289 491.19 259.289C491.915 259.289 492.502 259.984 492.502 260.841Z" fill="#FED77F"/>
<path d="M498.357 252.96C498.357 253.818 497.77 254.513 497.045 254.513C496.32 254.513 495.732 253.818 495.732 252.96C495.732 252.103 496.32 251.408 497.045 251.408C497.77 251.408 498.357 252.103 498.357 252.96Z" fill="#FED77F"/>
</g>
<g opacity="0.6">
<path fill-rule="evenodd" clip-rule="evenodd" d="M590.448 252.813C590.573 252.945 590.584 253.171 590.472 253.318L584.305 261.464L575.454 259.799L570.715 268.557C570.625 268.723 570.438 268.772 570.297 268.665C570.156 268.559 570.115 268.337 570.205 268.171L575.158 259.017L584.074 260.695L590.021 252.84C590.132 252.693 590.324 252.681 590.448 252.813Z" fill="#FED77F"/>
<path fill-rule="evenodd" clip-rule="evenodd" d="M564.505 246.034C564.784 246.034 565.009 246.302 565.009 246.631V277.439H591.458C591.737 277.439 591.963 277.706 591.963 278.036C591.963 278.366 591.737 278.633 591.458 278.633H564V246.631C564 246.302 564.226 246.034 564.505 246.034Z" fill="#FED77F"/>
<path d="M571.773 268.244C571.773 269.102 571.185 269.797 570.461 269.797C569.736 269.797 569.148 269.102 569.148 268.244C569.148 267.387 569.736 266.692 570.461 266.692C571.185 266.692 571.773 267.387 571.773 268.244Z" fill="#FED77F"/>
<path d="M576.619 259.408C576.619 260.265 576.031 260.96 575.306 260.96C574.581 260.96 573.994 260.265 573.994 259.408C573.994 258.551 574.581 257.856 575.306 257.856C576.031 257.856 576.619 258.551 576.619 259.408Z" fill="#FED77F"/>
<path d="M585.502 260.841C585.502 261.698 584.915 262.393 584.19 262.393C583.465 262.393 582.877 261.698 582.877 260.841C582.877 259.984 583.465 259.289 584.19 259.289C584.915 259.289 585.502 259.984 585.502 260.841Z" fill="#FED77F"/>
<path d="M591.357 252.96C591.357 253.817 590.769 254.512 590.045 254.512C589.32 254.512 588.732 253.817 588.732 252.96C588.732 252.103 589.32 251.408 590.045 251.408C590.769 251.408 591.357 252.103 591.357 252.96Z" fill="#FED77F"/>
</g>
<g opacity="0.6">
<path fill-rule="evenodd" clip-rule="evenodd" d="M683.448 252.813C683.573 252.945 683.584 253.171 683.472 253.318L677.305 261.464L668.454 259.799L663.715 268.557C663.625 268.723 663.438 268.772 663.297 268.665C663.156 268.559 663.115 268.337 663.205 268.171L668.158 259.017L677.074 260.695L683.021 252.84C683.132 252.693 683.324 252.681 683.448 252.813Z" fill="#FED77F"/>
<path fill-rule="evenodd" clip-rule="evenodd" d="M657.505 246.034C657.784 246.034 658.009 246.302 658.009 246.631V277.439H684.458C684.737 277.439 684.963 277.706 684.963 278.036C684.963 278.366 684.737 278.633 684.458 278.633H657V246.631C657 246.302 657.226 246.034 657.505 246.034Z" fill="#FED77F"/>
<path d="M664.773 268.244C664.773 269.102 664.185 269.797 663.461 269.797C662.736 269.797 662.148 269.102 662.148 268.244C662.148 267.387 662.736 266.692 663.461 266.692C664.185 266.692 664.773 267.387 664.773 268.244Z" fill="#FED77F"/>
<path d="M669.619 259.408C669.619 260.266 669.031 260.961 668.306 260.961C667.581 260.961 666.994 260.266 666.994 259.408C666.994 258.551 667.581 257.856 668.306 257.856C669.031 257.856 669.619 258.551 669.619 259.408Z" fill="#FED77F"/>
<path d="M678.502 260.841C678.502 261.698 677.915 262.393 677.19 262.393C676.465 262.393 675.877 261.698 675.877 260.841C675.877 259.984 676.465 259.289 677.19 259.289C677.915 259.289 678.502 259.984 678.502 260.841Z" fill="#FED77F"/>
<path d="M684.357 252.96C684.357 253.818 683.77 254.513 683.045 254.513C682.32 254.513 681.732 253.818 681.732 252.96C681.732 252.103 682.32 251.408 683.045 251.408C683.77 251.408 684.357 252.103 684.357 252.96Z" fill="#FED77F"/>
</g>
<g opacity="0.6">
<path fill-rule="evenodd" clip-rule="evenodd" d="M32.4486 252.813C32.5732 252.945 32.5838 253.171 32.4722 253.318L26.3051 261.464L17.4544 259.799L12.7157 268.557C12.6255 268.723 12.4382 268.772 12.2973 268.665C12.1565 268.559 12.1154 268.337 12.2055 268.171L17.1579 259.017L26.0742 260.695L32.021 252.84C32.1326 252.693 32.324 252.681 32.4486 252.813Z" fill="#FED77F"/>
<path fill-rule="evenodd" clip-rule="evenodd" d="M6.50474 246.034C6.78351 246.034 7.00949 246.302 7.00949 246.631L7.00949 277.439H33.4581C33.7369 277.439 33.9628 277.706 33.9628 278.036C33.9628 278.366 33.7369 278.633 33.4581 278.633H6L6 246.631C6 246.302 6.22598 246.034 6.50474 246.034Z" fill="#FED77F"/>
<path d="M13.7729 268.244C13.7729 269.102 13.1853 269.797 12.4605 269.797C11.7357 269.797 11.1482 269.102 11.1482 268.244C11.1482 267.387 11.7357 266.692 12.4605 266.692C13.1853 266.692 13.7729 267.387 13.7729 268.244Z" fill="#FED77F"/>
<path d="M18.6186 259.408C18.6186 260.265 18.031 260.96 17.3062 260.96C16.5814 260.96 15.9939 260.265 15.9939 259.408C15.9939 258.551 16.5814 257.856 17.3062 257.856C18.031 257.856 18.6186 258.551 18.6186 259.408Z" fill="#FED77F"/>
<path d="M27.5021 260.841C27.5021 261.698 26.9146 262.393 26.1898 262.393C25.465 262.393 24.8774 261.698 24.8774 260.841C24.8774 259.984 25.465 259.289 26.1898 259.289C26.9146 259.289 27.5021 259.984 27.5021 260.841Z" fill="#FED77F"/>
<path d="M33.3571 252.96C33.3571 253.818 32.7695 254.513 32.0448 254.513C31.32 254.513 30.7324 253.818 30.7324 252.96C30.7324 252.103 31.32 251.408 32.0448 251.408C32.7695 251.408 33.3571 252.103 33.3571 252.96Z" fill="#FED77F"/>
</g>
<g opacity="0.6">
<path fill-rule="evenodd" clip-rule="evenodd" d="M125.448 252.813C125.573 252.945 125.584 253.171 125.472 253.318L119.305 261.464L110.454 259.799L105.715 268.557C105.625 268.723 105.438 268.772 105.297 268.665C105.156 268.559 105.115 268.337 105.205 268.171L110.158 259.017L119.074 260.695L125.021 252.84C125.132 252.693 125.324 252.681 125.448 252.813Z" fill="#FED77F"/>
<path fill-rule="evenodd" clip-rule="evenodd" d="M99.5047 246.034C99.7835 246.034 100.009 246.302 100.009 246.631V277.439H126.458C126.737 277.439 126.963 277.706 126.963 278.036C126.963 278.366 126.737 278.633 126.458 278.633H99V246.631C99 246.302 99.226 246.034 99.5047 246.034Z" fill="#FED77F"/>
<path d="M106.773 268.244C106.773 269.102 106.185 269.797 105.461 269.797C104.736 269.797 104.148 269.102 104.148 268.244C104.148 267.387 104.736 266.692 105.461 266.692C106.185 266.692 106.773 267.387 106.773 268.244Z" fill="#FED77F"/>
<path d="M111.619 259.408C111.619 260.265 111.031 260.96 110.306 260.96C109.581 260.96 108.994 260.265 108.994 259.408C108.994 258.551 109.581 257.856 110.306 257.856C111.031 257.856 111.619 258.551 111.619 259.408Z" fill="#FED77F"/>
<path d="M120.502 260.841C120.502 261.698 119.915 262.393 119.19 262.393C118.465 262.393 117.877 261.698 117.877 260.841C117.877 259.984 118.465 259.289 119.19 259.289C119.915 259.289 120.502 259.984 120.502 260.841Z" fill="#FED77F"/>
<path d="M126.357 252.96C126.357 253.817 125.769 254.512 125.045 254.512C124.32 254.512 123.732 253.817 123.732 252.96C123.732 252.103 124.32 251.408 125.045 251.408C125.769 251.408 126.357 252.103 126.357 252.96Z" fill="#FED77F"/>
</g>
<g opacity="0.6">
<path fill-rule="evenodd" clip-rule="evenodd" d="M218.448 252.813C218.573 252.945 218.584 253.171 218.472 253.318L212.305 261.464L203.454 259.799L198.715 268.557C198.625 268.723 198.438 268.772 198.297 268.665C198.156 268.559 198.115 268.337 198.205 268.171L203.158 259.017L212.074 260.695L218.021 252.84C218.132 252.693 218.324 252.681 218.448 252.813Z" fill="#FED77F"/>
<path fill-rule="evenodd" clip-rule="evenodd" d="M192.505 246.034C192.784 246.034 193.009 246.302 193.009 246.631V277.439H219.458C219.737 277.439 219.963 277.706 219.963 278.036C219.963 278.366 219.737 278.633 219.458 278.633H192V246.631C192 246.302 192.226 246.034 192.505 246.034Z" fill="#FED77F"/>
<path d="M199.773 268.244C199.773 269.102 199.185 269.797 198.461 269.797C197.736 269.797 197.148 269.102 197.148 268.244C197.148 267.387 197.736 266.692 198.461 266.692C199.185 266.692 199.773 267.387 199.773 268.244Z" fill="#FED77F"/>
<path d="M204.619 259.408C204.619 260.266 204.031 260.961 203.306 260.961C202.581 260.961 201.994 260.266 201.994 259.408C201.994 258.551 202.581 257.856 203.306 257.856C204.031 257.856 204.619 258.551 204.619 259.408Z" fill="#FED77F"/>
<path d="M213.502 260.841C213.502 261.698 212.915 262.393 212.19 262.393C211.465 262.393 210.877 261.698 210.877 260.841C210.877 259.984 211.465 259.289 212.19 259.289C212.915 259.289 213.502 259.984 213.502 260.841Z" fill="#FED77F"/>
<path d="M219.357 252.96C219.357 253.818 218.77 254.513 218.045 254.513C217.32 254.513 216.732 253.818 216.732 252.96C216.732 252.103 217.32 251.408 218.045 251.408C218.77 251.408 219.357 252.103 219.357 252.96Z" fill="#FED77F"/>
</g>
<g opacity="0.6">
<path fill-rule="evenodd" clip-rule="evenodd" d="M311.449 252.813C311.573 252.945 311.584 253.171 311.472 253.318L305.305 261.464L296.454 259.799L291.716 268.557C291.626 268.723 291.438 268.772 291.297 268.665C291.156 268.559 291.115 268.337 291.206 268.171L296.158 259.017L305.074 260.695L311.021 252.84C311.133 252.693 311.324 252.681 311.449 252.813Z" fill="#FED77F"/>
<path fill-rule="evenodd" clip-rule="evenodd" d="M285.505 246.034C285.784 246.034 286.009 246.302 286.009 246.631V277.439H312.458C312.737 277.439 312.963 277.706 312.963 278.036C312.963 278.366 312.737 278.633 312.458 278.633H285V246.631C285 246.302 285.226 246.034 285.505 246.034Z" fill="#FED77F"/>
<path d="M292.773 268.244C292.773 269.102 292.185 269.797 291.461 269.797C290.736 269.797 290.148 269.102 290.148 268.244C290.148 267.387 290.736 266.692 291.461 266.692C292.185 266.692 292.773 267.387 292.773 268.244Z" fill="#FED77F"/>
<path d="M297.619 259.408C297.619 260.266 297.031 260.961 296.306 260.961C295.581 260.961 294.994 260.266 294.994 259.408C294.994 258.551 295.581 257.856 296.306 257.856C297.031 257.856 297.619 258.551 297.619 259.408Z" fill="#FED77F"/>
<path d="M306.502 260.841C306.502 261.698 305.915 262.393 305.19 262.393C304.465 262.393 303.878 261.698 303.878 260.841C303.878 259.984 304.465 259.289 305.19 259.289C305.915 259.289 306.502 259.984 306.502 260.841Z" fill="#FED77F"/>
<path d="M312.357 252.96C312.357 253.818 311.77 254.513 311.045 254.513C310.32 254.513 309.733 253.818 309.733 252.96C309.733 252.103 310.32 251.408 311.045 251.408C311.77 251.408 312.357 252.103 312.357 252.96Z" fill="#FED77F"/>
</g>
<g opacity="0.6">
<path fill-rule="evenodd" clip-rule="evenodd" d="M404.448 252.813C404.573 252.945 404.584 253.171 404.472 253.318L398.305 261.464L389.454 259.799L384.715 268.557C384.625 268.723 384.438 268.772 384.297 268.665C384.156 268.559 384.115 268.337 384.205 268.171L389.158 259.017L398.074 260.695L404.021 252.84C404.132 252.693 404.324 252.681 404.448 252.813Z" fill="#FED77F"/>
<path fill-rule="evenodd" clip-rule="evenodd" d="M378.505 246.034C378.784 246.034 379.009 246.302 379.009 246.631V277.439H405.458C405.737 277.439 405.963 277.706 405.963 278.036C405.963 278.366 405.737 278.633 405.458 278.633H378V246.631C378 246.302 378.226 246.034 378.505 246.034Z" fill="#FED77F"/>
<path d="M385.773 268.244C385.773 269.102 385.185 269.797 384.461 269.797C383.736 269.797 383.148 269.102 383.148 268.244C383.148 267.387 383.736 266.692 384.461 266.692C385.185 266.692 385.773 267.387 385.773 268.244Z" fill="#FED77F"/>
<path d="M390.619 259.408C390.619 260.266 390.031 260.961 389.306 260.961C388.581 260.961 387.994 260.266 387.994 259.408C387.994 258.551 388.581 257.856 389.306 257.856C390.031 257.856 390.619 258.551 390.619 259.408Z" fill="#FED77F"/>
<path d="M399.502 260.841C399.502 261.698 398.915 262.393 398.19 262.393C397.465 262.393 396.877 261.698 396.877 260.841C396.877 259.984 397.465 259.289 398.19 259.289C398.915 259.289 399.502 259.984 399.502 260.841Z" fill="#FED77F"/>
<path d="M405.357 252.96C405.357 253.818 404.77 254.513 404.045 254.513C403.32 254.513 402.732 253.818 402.732 252.96C402.732 252.103 403.32 251.408 404.045 251.408C404.77 251.408 405.357 252.103 405.357 252.96Z" fill="#FED77F"/>
</g>
<rect y="305.177" width="700" height="108.823" fill="#E6A513"/>
<rect y="305.177" width="700" height="30.7543" fill="#B8840F"/>
<path fill-rule="evenodd" clip-rule="evenodd" d="M490.912 121.294C478.258 121.294 468 131.552 468 144.206C468 156.86 478.258 167.118 490.912 167.118H492.999L484.078 184L508.699 167.118H527.088C539.742 167.118 550 156.86 550 144.206C550 131.552 539.742 121.294 527.088 121.294H490.912Z" fill="#209583"/>
<path d="M520.859 145.766C520.859 144.786 520.594 144.099 520.062 143.703C519.521 143.307 518.87 143.109 518.109 143.109C517.37 143.109 516.734 143.307 516.203 143.703C515.661 144.099 515.391 144.786 515.391 145.766C515.391 146.703 515.661 147.38 516.203 147.797C516.734 148.214 517.37 148.422 518.109 148.422C518.87 148.422 519.521 148.214 520.062 147.797C520.594 147.38 520.859 146.703 520.859 145.766ZM511.734 145.766C511.734 144.786 511.469 144.099 510.938 143.703C510.396 143.307 509.745 143.109 508.984 143.109C508.245 143.109 507.609 143.307 507.078 143.703C506.536 144.099 506.266 144.786 506.266 145.766C506.266 146.703 506.536 147.38 507.078 147.797C507.609 148.214 508.245 148.422 508.984 148.422C509.745 148.422 510.396 148.214 510.938 147.797C511.469 147.38 511.734 146.703 511.734 145.766ZM502.609 145.766C502.609 144.786 502.344 144.099 501.812 143.703C501.271 143.307 500.62 143.109 499.859 143.109C499.12 143.109 498.484 143.307 497.953 143.703C497.411 144.099 497.141 144.786 497.141 145.766C497.141 146.703 497.411 147.38 497.953 147.797C498.484 148.214 499.12 148.422 499.859 148.422C500.62 148.422 501.271 148.214 501.812 147.797C502.344 147.38 502.609 146.703 502.609 145.766Z" fill="white"/>
<rect x="137" y="102" width="320" height="208" rx="27" fill="#6C6C6C"/>
<rect x="148" y="113" width="298" height="186" rx="16" fill="white"/>
<path d="M111 315C111 312.239 113.239 310 116 310H479C481.761 310 484 312.239 484 315V321C484 329.284 477.284 336 469 336H126C117.716 336 111 329.284 111 321V315Z" fill="#E5E5E5"/>
<rect x="277" y="320" width="40" height="5" rx="2.5" fill="#B2B2B2"/>
<rect x="259" y="320" width="15" height="5" rx="2.5" fill="#B2B2B2"/>
<rect x="320" y="320" width="15" height="5" rx="2.5" fill="#B2B2B2"/>
<path d="M270.894 90.6281L273.609 79.4308C273.732 78.923 273.316 78.4458 272.796 78.4978L251.612 80.6162L230.105 80.2454L211.866 78.4916C211.352 78.4422 210.94 78.9097 211.053 79.4133L213.418 89.8865L219.351 97.6735L213.418 116.585L226.397 126.968L239.004 122.147L259.399 145.137L270.152 165.161L270.894 268.988H292.03V216.704L294.13 210.406C294.802 208.39 297.625 208.314 298.404 210.291L300.93 216.704L305.38 268.988H326.887L328.37 214.108L332.744 207.418C333.648 206.035 335.679 206.048 336.567 207.442L342.461 216.704L343.944 268.988H363.968V216.704L353.214 181.477L326.145 164.79L292.03 140.688L263.849 96.1903L270.894 90.6281Z" fill="#FC7E24"/>
<path fill-rule="evenodd" clip-rule="evenodd" d="M273.537 79.7263L270.894 90.628L263.848 96.1901L276.865 116.742L270.524 120.404V135.946L283.983 143.717L291.28 139.504L292.03 140.687L326.145 164.79L330.646 167.565L324.352 171.199V186.741L337.812 194.512L351.271 186.741V180.279L353.214 181.477L363.967 216.704V268.988H343.944L342.46 216.704L337.105 208.288C335.965 206.497 333.357 206.481 332.195 208.258L330.345 211.086L322.649 206.643L309.189 214.414V229.955L322.649 237.726L327.812 234.746L326.886 268.988H305.379L300.93 216.704L299.056 211.948C298.056 209.409 294.429 209.506 293.566 212.095L292.03 216.704V268.988H270.894L270.152 165.161L259.399 145.137L253.026 137.953L256.503 135.946V120.404L243.043 112.633L229.584 120.404V125.749L226.397 126.967L213.418 116.585L219.351 97.6734L213.418 89.8863L211.119 79.7038C210.973 79.057 211.502 78.4565 212.162 78.52L230.105 80.2453L251.612 80.6161L272.493 78.5279C273.161 78.4611 273.695 79.0741 273.537 79.7263ZM297.443 178.022L283.983 170.251L270.524 178.022V193.564L283.983 201.335L297.443 193.564V178.022Z" fill="#FEC955"/>
<path fill-rule="evenodd" clip-rule="evenodd" d="M214.704 81.8112L216.231 88.5742L222.714 97.084L216.933 115.513L226.935 123.515L239.881 118.565L261.903 143.39L273.179 164.388L273.905 265.956H288.998V216.212L291.253 209.447C292.82 204.744 299.408 204.567 301.225 209.18L303.914 216.005L308.165 265.956H323.935L325.361 213.168L330.206 205.759C332.316 202.531 337.055 202.561 339.125 205.814L345.468 215.782L346.891 265.956H360.935V217.157L350.648 183.458L324.472 167.322L289.79 142.818L259.824 95.5038L268.193 88.8965L269.905 81.8347L251.737 83.6515L229.933 83.2756L214.704 81.8112ZM208.095 80.0813C207.527 77.5634 209.586 75.226 212.156 75.4731L230.276 77.2154L251.487 77.5811L272.494 75.4803C275.094 75.2204 277.171 77.6063 276.556 80.1453L273.594 92.3599L267.873 96.8769L294.271 138.558L327.817 162.259L355.78 179.496L367 216.251V272.021H340.996L339.453 217.626L334.639 210.061L331.378 215.049L329.838 272.021H302.594L297.945 217.403L296.347 213.344L295.063 217.196V272.021H267.883L267.125 165.934L256.895 146.885L238.128 125.729L225.858 130.42L209.904 117.657L215.988 98.2632L210.606 91.199L208.095 80.0813Z" fill="#333333"/>
<path d="M227.116 69.0752L231.612 66.4795L239.028 79.3248L234.532 81.9205L227.116 69.0752Z" fill="#333333"/>
<path d="M255.286 69.1565L250.791 66.5608L243.374 79.4061L247.87 82.0018L255.286 69.1565Z" fill="#333333"/>
<path d="M243.156 98.619C244.795 98.619 246.123 97.2909 246.123 95.6525C246.123 94.0142 244.795 92.686 243.156 92.686C241.518 92.686 240.19 94.0142 240.19 95.6525C240.19 97.2909 241.518 98.619 243.156 98.619Z" fill="#333333"/>
<path d="M228.878 53.6219L233.786 58.2598L232.124 64.571L225.554 66.2443L220.646 61.6064L222.308 55.2952L228.878 53.6219Z" fill="#FEC955"/>
<path d="M252.818 53.5984L259.179 55.2865L260.883 61.5865L256.227 66.1984L249.866 64.5103L248.161 58.2103L252.818 53.5984Z" fill="#F2C94C"/>
<path fill-rule="evenodd" clip-rule="evenodd" d="M230.033 49.0589L238.331 56.966L235.452 67.9902L224.345 70.843L216.047 62.9358L218.926 51.9117L230.033 49.0589ZM251.625 49L262.553 51.9249L265.482 62.8408L257.481 70.8317L246.553 67.9068L243.624 56.991L251.625 49ZM222.27 55.2638L228.854 53.5728L233.773 58.2599L232.108 64.638L225.524 66.3291L220.605 61.642L222.27 55.2638ZM249.887 64.5767L256.261 66.2827L260.927 61.6219L259.219 55.255L252.845 53.549L248.179 58.2099L249.887 64.5767Z" fill="#353535"/>
<path opacity="0.5" d="M148 247H446V283.054C446 291.861 438.861 299 430.054 299H163.946C155.139 299 148 291.861 148 283.054V247Z" fill="#333333"/>
<circle cx="307" cy="274" r="19" fill="white"/>
<circle cx="252" cy="275" r="16" fill="white"/>
<circle cx="362" cy="275" r="16" fill="white"/>
<path d="M298.25 283C297.631 283 297.102 282.78 296.661 282.339C296.22 281.898 296 281.369 296 280.75V267.25C296 266.631 296.22 266.102 296.661 265.661C297.102 265.22 297.631 265 298.25 265H311.75C312.369 265 312.898 265.22 313.339 265.661C313.78 266.102 314 266.631 314 267.25V272.312L318.5 267.812V280.187L314 275.687V280.75C314 281.369 313.78 281.898 313.339 282.339C312.898 282.78 312.369 283 311.75 283H298.25ZM298.25 280.75H311.75V267.25H298.25V280.75Z" fill="#333333"/>
<path d="M246 278.375V271.625H250.5L256.125 266V284L250.5 278.375H246ZM248.25 276.125H251.456L253.875 278.544V271.456L251.456 273.875H248.25V276.125Z" fill="#333333"/>
<path d="M354 284V270.5C354 270.088 354.147 269.734 354.441 269.441C354.734 269.147 355.088 269 355.5 269H367.5C367.913 269 368.266 269.147 368.559 269.441C368.853 269.734 369 270.088 369 270.5V279.5C369 279.913 368.853 280.266 368.559 280.559C368.266 280.853 367.913 281 367.5 281H357L354 284Z" fill="#333333"/>
<circle cx="141" cy="215" r="31" fill="#FEE4AA" stroke="#4DAA9C" stroke-width="2"/>
<ellipse cx="155.294" cy="204.12" rx="4.05333" ry="4.05333" fill="#F2C94C"/>
<circle cx="141.853" cy="215.426" r="8.10667" fill="#FFEDB5"/>
<circle cx="128.84" cy="202.84" r="4.05333" fill="#F2994A"/>
<ellipse cx="144.2" cy="231.427" rx="3.2" ry="3.2" fill="#89E0DD"/>
<path d="M144.954 200.965C144.954 202.4 143.79 203.564 142.355 203.564C140.919 203.564 139.756 202.4 139.756 200.965C139.756 199.53 140.919 198.366 142.355 198.366C143.79 198.366 144.954 199.53 144.954 200.965Z" fill="#9A4C07" stroke="#9A4C07"/>
<path d="M131.849 229.448C131.909 231.731 130.162 233.604 127.979 233.661C125.796 233.718 123.953 231.939 123.893 229.656C123.833 227.373 125.58 225.5 127.763 225.443C129.947 225.386 131.789 227.165 131.849 229.448Z" fill="#9A4C07" stroke="#9A4C07"/>
<path d="M128.694 226.363L135.319 220.772L136.366 222.028L129.741 227.62L128.694 226.363Z" fill="#9A4C07"/>
<path fill-rule="evenodd" clip-rule="evenodd" d="M144.398 234.048C145.823 234.013 146.912 232.857 146.879 231.511C146.846 230.165 145.7 229.064 144.275 229.1C142.851 229.135 141.761 230.291 141.794 231.637C141.827 232.983 142.973 234.083 144.398 234.048ZM144.427 235.226C146.482 235.175 148.107 233.499 148.057 231.482C148.007 229.465 146.301 227.871 144.246 227.922C142.192 227.973 140.566 229.649 140.616 231.666C140.666 233.683 142.372 235.277 144.427 235.226Z" fill="#9A4C07"/>
<circle cx="155.507" cy="225.24" r="2.48667" fill="#9A4C07" stroke="#9A4C07"/>
<path fill-rule="evenodd" clip-rule="evenodd" d="M154.964 207.829C156.908 207.969 158.597 206.506 158.737 204.562C158.877 202.618 157.414 200.928 155.47 200.788C153.526 200.649 151.836 202.111 151.697 204.056C151.557 206 153.02 207.689 154.964 207.829ZM154.846 209.46C157.692 209.665 160.164 207.524 160.369 204.679C160.573 201.834 158.433 199.362 155.587 199.157C152.742 198.952 150.27 201.093 150.065 203.938C149.861 206.783 152.001 209.256 154.846 209.46Z" fill="#9A4C07"/>
<path fill-rule="evenodd" clip-rule="evenodd" d="M131.482 200.066C130.14 198.773 127.938 198.801 126.563 200.226C125.189 201.651 125.239 203.854 126.58 205.147C127.922 206.441 130.124 206.412 131.499 204.987C132.873 203.562 132.823 201.36 131.482 200.066ZM132.617 198.889C130.604 196.947 127.367 197.038 125.386 199.091C123.406 201.144 123.432 204.383 125.445 206.324C127.458 208.266 130.695 208.176 132.676 206.123C134.656 204.07 134.63 200.831 132.617 198.889Z" fill="#9A4C07"/>
<path fill-rule="evenodd" clip-rule="evenodd" d="M155.133 225.997L148.614 221.108L149.581 219.788L156.1 224.677L155.133 225.997Z" fill="#9A4C07"/>
<path fill-rule="evenodd" clip-rule="evenodd" d="M151.355 206.56L147.041 209.44L148.133 210.588L152.446 207.708L151.355 206.56Z" fill="#9A4C07"/>
<path fill-rule="evenodd" clip-rule="evenodd" d="M130.831 206.683L135.785 210.804L136.804 209.806L131.85 205.684L130.831 206.683Z" fill="#9A4C07"/>
<path fill-rule="evenodd" clip-rule="evenodd" d="M143.172 200.044V207.522H141.537V200.044H143.172Z" fill="#9A4C07"/>
<path d="M142.92 223.819L144.142 228.35L142.494 228.795L141.272 224.263L142.92 223.819Z" fill="#9A4C07"/>
<path fill-rule="evenodd" clip-rule="evenodd" d="M138.773 214.258C138.112 214.224 137.587 213.677 137.587 213.008C137.587 212.382 138.046 211.864 138.645 211.771C138.705 210.952 139.388 210.307 140.222 210.307C140.874 210.307 141.433 210.701 141.675 211.264C141.78 211.241 141.889 211.229 142.001 211.229C142.838 211.229 143.516 211.907 143.516 212.744C143.516 213.559 142.873 214.224 142.067 214.258V214.26H138.841L138.838 214.26L138.836 214.26H138.773V214.258ZM137.587 216.5V215.511C137.692 215.248 139.3 215.226 140.09 215.248C142.515 215.406 144.878 214.435 145.756 213.93H146.481V215.577C145.377 216.63 144.541 216.347 143.449 215.978L143.449 215.978L143.449 215.978L143.449 215.978L143.449 215.978C143.107 215.862 142.739 215.737 142.33 215.643C140.96 215.327 138.597 216.06 137.587 216.5ZM137.587 218.015V216.895C137.647 216.872 137.736 216.834 137.849 216.785C138.714 216.409 140.992 215.42 142.857 216.236C144.544 216.974 146.02 216.544 146.547 216.236V217.817C145.624 218.542 143.187 218.674 141.276 218.147C139.748 217.725 138.18 217.883 137.587 218.015ZM137.587 218.344V219.925C138.553 220.453 140.986 221.322 142.989 220.584C144.992 219.846 146.195 219.969 146.547 220.123V218.213C145.69 218.564 143.608 219.161 142.133 218.74C140.288 218.213 139.563 218.081 137.587 218.344Z" fill="#9A4C07"/>
<path fill-rule="evenodd" clip-rule="evenodd" d="M150.813 215.64C150.813 220.471 146.897 224.387 142.067 224.387C137.236 224.387 133.32 220.471 133.32 215.64C133.32 210.809 137.236 206.893 142.067 206.893C146.897 206.893 150.813 210.809 150.813 215.64ZM142.067 223.107C146.19 223.107 149.533 219.764 149.533 215.64C149.533 211.516 146.19 208.173 142.067 208.173C137.943 208.173 134.6 211.516 134.6 215.64C134.6 219.764 137.943 223.107 142.067 223.107Z" fill="#9A4C07"/>
<circle cx="456.5" cy="261.5" r="36.5" fill="#FED77F" stroke="#4DAA9C" stroke-width="2"/>
<path d="M449.4 275.62C449.4 277.564 447.824 279.14 445.88 279.14C443.936 279.14 442.36 277.564 442.36 275.62C442.36 273.676 443.936 272.1 445.88 272.1C447.824 272.1 449.4 273.676 449.4 275.62Z" fill="#F2994A"/>
<path fill-rule="evenodd" clip-rule="evenodd" d="M445.88 277.82C447.095 277.82 448.08 276.835 448.08 275.62C448.08 274.405 447.095 273.42 445.88 273.42C444.665 273.42 443.68 274.405 443.68 275.62C443.68 276.835 444.665 277.82 445.88 277.82ZM445.88 279.14C447.824 279.14 449.4 277.564 449.4 275.62C449.4 273.676 447.824 272.1 445.88 272.1C443.936 272.1 442.36 273.676 442.36 275.62C442.36 277.564 443.936 279.14 445.88 279.14Z" fill="#9A4C07"/>
<path d="M460.84 276.72C460.84 278.664 459.264 280.24 457.32 280.24C455.376 280.24 453.8 278.664 453.8 276.72C453.8 274.776 455.376 273.2 457.32 273.2C459.264 273.2 460.84 274.776 460.84 276.72Z" fill="#89E0DD"/>
<path fill-rule="evenodd" clip-rule="evenodd" d="M457.32 278.92C458.535 278.92 459.52 277.935 459.52 276.72C459.52 275.505 458.535 274.52 457.32 274.52C456.105 274.52 455.12 275.505 455.12 276.72C455.12 277.935 456.105 278.92 457.32 278.92ZM457.32 280.24C459.264 280.24 460.84 278.664 460.84 276.72C460.84 274.776 459.264 273.2 457.32 273.2C455.376 273.2 453.8 274.776 453.8 276.72C453.8 278.664 455.376 280.24 457.32 280.24Z" fill="#9A4C07"/>
<path d="M474.48 273.86C474.48 275.804 472.904 277.38 470.96 277.38C469.016 277.38 467.44 275.804 467.44 273.86C467.44 271.916 469.016 270.34 470.96 270.34C472.904 270.34 474.48 271.916 474.48 273.86Z" fill="#F2C94C"/>
<path fill-rule="evenodd" clip-rule="evenodd" d="M470.96 276.06C472.175 276.06 473.16 275.075 473.16 273.86C473.16 272.645 472.175 271.66 470.96 271.66C469.745 271.66 468.76 272.645 468.76 273.86C468.76 275.075 469.745 276.06 470.96 276.06ZM470.96 277.38C472.904 277.38 474.48 275.804 474.48 273.86C474.48 271.916 472.904 270.34 470.96 270.34C469.016 270.34 467.44 271.916 467.44 273.86C467.44 275.804 469.016 277.38 470.96 277.38Z" fill="#9A4C07"/>
<path fill-rule="evenodd" clip-rule="evenodd" d="M467.88 274.74H463.26V265.28H464.58V273.42H467.88V274.74Z" fill="#9A4C07"/>
<path fill-rule="evenodd" clip-rule="evenodd" d="M458.2 270.56V273.86H456.88V271.88H454.9V262.42H456.22V270.56H458.2Z" fill="#9A4C07"/>
<path fill-rule="evenodd" clip-rule="evenodd" d="M445.22 269.9V273.2H446.54V271.22H450.28V261.76H448.96V269.9H445.22Z" fill="#9A4C07"/>
<path d="M467.319 252.142C466.272 246.829 461.606 242.84 456 242.84C451.549 242.84 447.684 245.366 445.759 249.062C441.124 249.554 437.52 253.481 437.52 258.24C437.52 263.337 441.663 267.48 446.76 267.48H466.78C471.03 267.48 474.48 264.03 474.48 259.78C474.48 255.714 471.323 252.419 467.319 252.142Z" fill="#FFEDB5"/>
<path fill-rule="evenodd" clip-rule="evenodd" d="M465.853 253.804L465.592 252.482C464.704 247.978 460.748 244.6 456 244.6C452.232 244.6 448.954 246.737 447.32 249.875L446.884 250.712L445.945 250.812C442.197 251.21 439.28 254.389 439.28 258.24C439.28 262.365 442.635 265.72 446.76 265.72H466.78C470.058 265.72 472.72 263.058 472.72 259.78C472.72 256.657 470.297 254.112 467.197 253.897L465.853 253.804ZM456 242.84C461.606 242.84 466.272 246.829 467.319 252.142C471.323 252.419 474.48 255.714 474.48 259.78C474.48 264.03 471.03 267.48 466.78 267.48H446.76C441.663 267.48 437.52 263.337 437.52 258.24C437.52 253.481 441.124 249.554 445.759 249.062C447.684 245.366 451.549 242.84 456 242.84Z" fill="#9A4C07"/>
<ellipse opacity="0.3" cx="572.956" cy="389.514" rx="41.636" ry="8.4311" fill="#B8840F"/>
<mask id="path-244-outside-1_8925_1251" maskUnits="userSpaceOnUse" x="514" y="293" width="105" height="98" fill="black">
<rect fill="white" x="514" y="293" width="105" height="98"/>
<path fill-rule="evenodd" clip-rule="evenodd" d="M523.001 296C519.917 296 517.568 298.766 518.067 301.81L531.521 383.81C531.917 386.226 534.006 388 536.455 388H577.053C579.487 388 581.567 386.247 581.98 383.849L585.032 366.134C586.787 366.491 588.58 366.662 590.383 366.641C594.25 366.595 598.056 365.665 601.51 363.923C604.963 362.18 607.972 359.671 610.306 356.587C612.641 353.504 614.24 349.927 614.98 346.13C615.72 342.334 615.582 338.418 614.576 334.683C613.571 330.948 611.725 327.493 609.179 324.581C606.633 321.669 603.455 319.378 599.887 317.883C597.881 317.042 595.781 316.465 593.641 316.162L596.106 301.849C596.633 298.793 594.28 296 591.179 296H523.001ZM592.467 322.972L586.205 359.324C587.546 359.612 588.92 359.751 590.301 359.735C593.116 359.701 595.885 359.025 598.398 357.757C600.911 356.489 603.101 354.663 604.8 352.419C606.499 350.175 607.662 347.571 608.201 344.809C608.74 342.046 608.639 339.197 607.907 336.479C607.176 333.76 605.832 331.246 603.979 329.127C602.127 327.008 599.814 325.34 597.218 324.252C595.694 323.614 594.096 323.184 592.467 322.972Z"/>
</mask>
<path fill-rule="evenodd" clip-rule="evenodd" d="M523.001 296C519.917 296 517.568 298.766 518.067 301.81L531.521 383.81C531.917 386.226 534.006 388 536.455 388H577.053C579.487 388 581.567 386.247 581.98 383.849L585.032 366.134C586.787 366.491 588.58 366.662 590.383 366.641C594.25 366.595 598.056 365.665 601.51 363.923C604.963 362.18 607.972 359.671 610.306 356.587C612.641 353.504 614.24 349.927 614.98 346.13C615.72 342.334 615.582 338.418 614.576 334.683C613.571 330.948 611.725 327.493 609.179 324.581C606.633 321.669 603.455 319.378 599.887 317.883C597.881 317.042 595.781 316.465 593.641 316.162L596.106 301.849C596.633 298.793 594.28 296 591.179 296H523.001ZM592.467 322.972L586.205 359.324C587.546 359.612 588.92 359.751 590.301 359.735C593.116 359.701 595.885 359.025 598.398 357.757C600.911 356.489 603.101 354.663 604.8 352.419C606.499 350.175 607.662 347.571 608.201 344.809C608.74 342.046 608.639 339.197 607.907 336.479C607.176 333.76 605.832 331.246 603.979 329.127C602.127 327.008 599.814 325.34 597.218 324.252C595.694 323.614 594.096 323.184 592.467 322.972Z" fill="white"/>
<path d="M518.067 301.81L515.107 302.295L515.107 302.295L518.067 301.81ZM531.521 383.81L528.56 384.295L528.56 384.295L531.521 383.81ZM581.98 383.849L584.937 384.358L584.937 384.358L581.98 383.849ZM585.032 366.134L585.629 363.194L582.6 362.579L582.075 365.625L585.032 366.134ZM590.383 366.641L590.347 363.641L590.347 363.641L590.383 366.641ZM601.51 363.923L602.861 366.601L602.861 366.601L601.51 363.923ZM610.306 356.587L612.698 358.398L612.698 358.398L610.306 356.587ZM614.98 346.13L617.924 346.704L617.924 346.704L614.98 346.13ZM614.576 334.683L611.679 335.463L611.679 335.463L614.576 334.683ZM609.179 324.581L606.92 326.555L606.92 326.555L609.179 324.581ZM599.887 317.883L601.047 315.116L601.047 315.116L599.887 317.883ZM593.641 316.162L590.684 315.653L590.159 318.699L593.22 319.132L593.641 316.162ZM596.106 301.849L599.063 302.358L599.063 302.358L596.106 301.849ZM592.467 322.972L592.855 319.997L590 319.625L589.511 322.463L592.467 322.972ZM586.205 359.324L583.249 358.815L582.76 361.652L585.575 362.257L586.205 359.324ZM590.301 359.735L590.266 356.735L590.266 356.735L590.301 359.735ZM598.398 357.757L599.75 360.435L599.75 360.435L598.398 357.757ZM604.8 352.419L602.408 350.608L602.408 350.608L604.8 352.419ZM607.907 336.479L610.804 335.699L610.804 335.699L607.907 336.479ZM603.979 329.127L606.238 327.152L606.238 327.152L603.979 329.127ZM597.218 324.252L596.058 327.019L596.058 327.019L597.218 324.252ZM521.028 301.324C520.828 300.106 521.767 299 523.001 299V293C518.066 293 514.308 297.425 515.107 302.295L521.028 301.324ZM534.481 383.324L521.028 301.324L515.107 302.295L528.56 384.295L534.481 383.324ZM536.455 385C535.475 385 534.64 384.29 534.481 383.324L528.56 384.295C529.195 388.162 532.536 391 536.455 391V385ZM577.053 385H536.455V391H577.053V385ZM579.024 383.34C578.858 384.299 578.026 385 577.053 385V391C580.947 391 584.275 388.196 584.937 384.358L579.024 383.34ZM582.075 365.625L579.024 383.34L584.937 384.358L587.988 366.644L582.075 365.625ZM584.434 369.074C586.397 369.473 588.403 369.664 590.418 369.64L590.347 363.641C588.758 363.66 587.177 363.509 585.629 363.194L584.434 369.074ZM590.418 369.64C594.743 369.589 598.999 368.55 602.861 366.601L600.158 361.244C597.113 362.781 593.757 363.6 590.347 363.641L590.418 369.64ZM602.861 366.601C606.723 364.653 610.088 361.847 612.698 358.398L607.915 354.777C605.856 357.496 603.203 359.708 600.158 361.244L602.861 366.601ZM612.698 358.398C615.309 354.95 617.097 350.95 617.924 346.704L612.035 345.556C611.383 348.904 609.973 352.057 607.915 354.777L612.698 358.398ZM617.924 346.704C618.752 342.459 618.598 338.08 617.473 333.903L611.679 335.463C612.566 338.756 612.688 342.209 612.035 345.556L617.924 346.704ZM617.473 333.903C616.349 329.727 614.284 325.862 611.437 322.606L606.92 326.555C609.165 329.123 610.793 332.17 611.679 335.463L617.473 333.903ZM611.437 322.606C608.59 319.35 605.036 316.788 601.047 315.116L598.728 320.65C601.873 321.968 604.675 323.988 606.92 326.555L611.437 322.606ZM601.047 315.116C598.803 314.176 596.455 313.531 594.061 313.192L593.22 319.132C595.107 319.4 596.959 319.908 598.728 320.65L601.047 315.116ZM593.15 301.34L590.684 315.653L596.597 316.671L599.063 302.358L593.15 301.34ZM591.179 299C592.419 299 593.361 300.117 593.15 301.34L599.063 302.358C599.905 297.469 596.14 293 591.179 293V299ZM523.001 299H591.179V293H523.001V299ZM589.511 322.463L583.249 358.815L589.161 359.833L595.424 323.482L589.511 322.463ZM590.266 356.735C589.109 356.749 587.959 356.632 586.835 356.391L585.575 362.257C587.134 362.592 588.731 362.754 590.337 362.735L590.266 356.735ZM597.047 355.079C594.942 356.141 592.623 356.707 590.266 356.735L590.337 362.735C593.609 362.696 596.828 361.909 599.75 360.435L597.047 355.079ZM602.408 350.608C600.985 352.487 599.152 354.017 597.047 355.079L599.75 360.435C602.671 358.961 605.217 356.838 607.192 354.23L602.408 350.608ZM605.256 344.235C604.805 346.548 603.831 348.728 602.408 350.608L607.192 354.23C609.167 351.621 610.519 348.595 611.146 345.383L605.256 344.235ZM605.011 337.258C605.623 339.535 605.707 341.921 605.256 344.235L611.146 345.383C611.772 342.171 611.655 338.858 610.804 335.699L605.011 337.258ZM601.721 331.101C603.273 332.876 604.398 334.982 605.011 337.258L610.804 335.699C609.954 332.539 608.392 329.615 606.238 327.152L601.721 331.101ZM596.058 327.019C598.232 327.93 600.169 329.327 601.721 331.101L606.238 327.152C604.084 324.689 601.395 322.75 598.377 321.485L596.058 327.019ZM592.08 325.947C593.444 326.125 594.782 326.484 596.058 327.019L598.377 321.485C596.606 320.743 594.748 320.244 592.855 319.997L592.08 325.947Z" fill="#FEC955" mask="url(#path-244-outside-1_8925_1251)"/>
<path fill-rule="evenodd" clip-rule="evenodd" d="M567 388H577.428C579.862 388 581.942 386.247 582.355 383.849L596.481 301.849C597.008 298.793 594.655 296 591.554 296H580.835L567 388Z" fill="#F7F7F7"/>
<g clip-path="url(#clip1_8925_1251)">
<path d="M570.22 349.843C569.87 350.411 569.458 350.882 568.984 351.251C568.407 351.696 567.811 351.92 567.196 351.92C566.338 351.92 565.819 351.59 565.64 350.936L565.273 350.873L564.968 352.546C565.505 352.847 566.037 353 566.563 353C568.137 353 569.603 351.945 570.959 349.843H570.221H570.22Z" fill="#2A3C51"/>
<path d="M574.615 347.982C575.193 348.327 575.629 348.546 575.923 348.651C576.372 348.823 576.897 348.909 577.5 348.909C578.563 348.909 579.384 348.631 579.96 348.083C580.473 347.587 580.729 346.92 580.729 346.093C580.729 345.373 580.345 344.613 579.576 343.816C578.897 343.131 578.473 342.678 578.307 342.458C577.973 342.038 577.807 341.636 577.807 341.259C577.807 340.928 577.928 340.642 578.172 340.393C578.428 340.144 578.787 340.017 579.248 340.017C579.556 340.017 579.883 340.116 580.229 340.312C580.588 340.498 580.825 340.728 580.94 341C581.004 341.157 581.037 341.365 581.037 341.613L581.536 341.77L582.113 339.903C581.305 339.453 580.459 339.233 579.576 339.233C578.692 339.233 577.928 339.506 577.365 340.061C576.801 340.594 576.519 341.244 576.519 342.005C576.519 342.688 576.838 343.376 577.48 344.07L578.69 345.407C579.19 345.972 579.441 346.469 579.441 346.903C579.441 347.22 579.325 347.486 579.094 347.711C578.812 347.998 578.384 348.141 577.807 348.141C577.333 348.141 576.884 348.012 576.462 347.75C575.949 347.449 575.693 347.062 575.693 346.588C575.693 346.512 575.705 346.373 575.732 346.178L575.174 346.039L574.615 347.984V347.982Z" fill="#2A3C51"/>
<path d="M557.968 347.982C558.545 348.327 558.982 348.546 559.276 348.651C559.739 348.823 560.264 348.909 560.853 348.909C561.93 348.909 562.749 348.631 563.315 348.083C563.839 347.587 564.101 346.92 564.101 346.093C564.101 345.373 563.711 344.613 562.929 343.816C562.249 343.131 561.826 342.678 561.661 342.458C561.34 342.038 561.179 341.636 561.179 341.259C561.179 340.928 561.3 340.642 561.545 340.393C561.801 340.144 562.153 340.017 562.601 340.017C562.91 340.017 563.237 340.116 563.582 340.312C563.943 340.498 564.178 340.728 564.295 341C564.358 341.157 564.391 341.365 564.391 341.613L564.89 341.77L565.468 339.903C564.659 339.453 563.814 339.233 562.929 339.233C562.044 339.233 561.283 339.506 560.717 340.061C560.154 340.594 559.872 341.244 559.872 342.005C559.872 342.688 560.192 343.376 560.834 344.07L562.044 345.407C562.544 345.972 562.796 346.469 562.796 346.903C562.796 347.22 562.679 347.486 562.448 347.711C562.168 347.998 561.745 348.141 561.18 348.141C560.693 348.141 560.239 348.012 559.815 347.75C559.302 347.449 559.047 347.062 559.047 346.588C559.047 346.512 559.067 346.373 559.104 346.178L558.527 346.039L557.969 347.984L557.968 347.982Z" fill="#2A3C51"/>
<path d="M557.142 346.075C556.54 346.979 556.08 347.432 555.76 347.432C555.463 347.432 555.316 347.271 555.316 346.939C555.316 346.731 555.362 346.396 555.451 345.938L556.835 339.232C556.59 339.271 556.347 339.289 556.105 339.289C556.001 339.289 555.77 339.286 555.41 339.271C555.064 339.246 554.808 339.232 554.642 339.232C553.182 339.232 551.86 339.705 550.681 340.646C549.696 341.436 548.902 342.459 548.299 343.714C547.76 344.818 547.491 345.793 547.491 346.643C547.491 347.251 547.625 347.753 547.895 348.16C548.215 348.66 548.677 348.909 549.279 348.909C550.24 348.909 551.247 348.297 552.297 347.079C553.028 346.228 553.694 345.191 554.296 343.974L554.334 344.011L554.009 345.406C553.803 346.339 553.701 347.113 553.701 347.729C553.701 348.518 554.014 348.909 554.642 348.909C555.501 348.909 556.508 348.029 557.661 346.272L557.141 346.075H557.142ZM549.106 346.53C549.106 345.913 549.259 345.173 549.568 344.308C549.851 343.533 550.189 342.831 550.586 342.2C551.137 341.335 551.733 340.738 552.375 340.413C552.9 340.15 553.566 340.017 554.374 340.017C554.606 340.017 554.84 340.045 555.086 340.097C555.009 341.421 554.334 343.06 553.066 345.015C551.798 346.954 550.754 347.925 549.932 347.925C549.381 347.925 549.106 347.461 549.106 346.53" fill="#2A3C51"/>
<path d="M532.114 341.651C532.114 343.839 532.813 345.651 534.21 347.08C535.605 348.494 537.331 349.206 539.38 349.206C541.995 349.206 544.052 348.317 545.551 346.549C546.806 345.068 547.434 343.371 547.434 341.454C547.434 339.276 546.736 337.493 545.34 336.103C543.955 334.703 542.148 334 539.918 334C537.688 334 535.702 334.83 534.19 336.499C532.806 338.004 532.114 339.726 532.114 341.651ZM534.055 341.751C534.055 339.811 534.651 338.176 535.843 336.853C537.035 335.529 538.464 334.864 540.13 334.864C541.617 334.864 542.867 335.425 543.878 336.537C544.954 337.718 545.494 339.256 545.494 341.157C545.494 343.194 544.923 344.894 543.782 346.271C542.654 347.647 541.225 348.34 539.495 348.34C537.765 348.34 536.382 347.639 535.382 346.233C534.498 344.986 534.055 343.494 534.055 341.75" fill="#2A3C51"/>
<path d="M570.958 349.843C571.07 349.668 571.18 349.491 571.291 349.3L572.926 346.53C574.873 343.198 575.847 341.12 575.847 340.293C575.847 339.586 575.597 339.232 575.098 339.232C574.777 339.232 574.418 339.361 574.021 339.623C573.867 339.714 573.514 339.992 572.963 340.45L573.136 340.885C573.407 340.661 573.662 340.551 573.907 340.551C574.226 340.551 574.386 340.747 574.386 341.138C574.386 341.703 573.97 342.797 573.136 344.422L571.407 347.806H571.368C571.252 347.083 571.074 346.185 570.83 345.11C570.523 343.734 570.362 343.013 570.35 342.95C570.042 341.454 569.701 340.417 569.329 339.839C569.061 339.434 568.729 339.232 568.331 339.232C567.704 339.232 566.864 339.902 565.814 341.239L565.486 341.651L565.967 342.024C566.518 341.145 567.025 340.71 567.485 340.71C568.01 340.71 568.422 341.345 568.716 342.617L570.329 349.655C570.294 349.72 570.259 349.78 570.222 349.844H570.959L570.958 349.843Z" fill="#2A3C51"/>
</g>
<path fill-rule="evenodd" clip-rule="evenodd" d="M159.5 76C175.24 76 188 88.7599 188 104.5C188 120.24 175.24 133 159.5 133H156.904L168 154L137.375 133H114.5C98.7599 133 86 120.24 86 104.5C86 88.7599 98.7599 76 114.5 76H159.5Z" fill="#4DAA9C"/>
<path d="M119.711 106.648C119.711 105.18 120.109 104.148 120.906 103.555C121.719 102.961 122.695 102.664 123.836 102.664C124.945 102.664 125.898 102.961 126.695 103.555C127.508 104.148 127.914 105.18 127.914 106.648C127.914 108.055 127.508 109.07 126.695 109.695C125.898 110.32 124.945 110.633 123.836 110.633C122.695 110.633 121.719 110.32 120.906 109.695C120.109 109.07 119.711 108.055 119.711 106.648ZM133.398 106.648C133.398 105.18 133.797 104.148 134.594 103.555C135.406 102.961 136.383 102.664 137.523 102.664C138.633 102.664 139.586 102.961 140.383 103.555C141.195 104.148 141.602 105.18 141.602 106.648C141.602 108.055 141.195 109.07 140.383 109.695C139.586 110.32 138.633 110.633 137.523 110.633C136.383 110.633 135.406 110.32 134.594 109.695C133.797 109.07 133.398 108.055 133.398 106.648ZM147.086 106.648C147.086 105.18 147.484 104.148 148.281 103.555C149.094 102.961 150.07 102.664 151.211 102.664C152.32 102.664 153.273 102.961 154.07 103.555C154.883 104.148 155.289 105.18 155.289 106.648C155.289 108.055 154.883 109.07 154.07 109.695C153.273 110.32 152.32 110.633 151.211 110.633C150.07 110.633 149.094 110.32 148.281 109.695C147.484 109.07 147.086 108.055 147.086 106.648Z" fill="white"/>
<circle cx="374" cy="105" r="28" fill="#FEC955" stroke="#4DAA9C" stroke-width="2"/>
<path fill-rule="evenodd" clip-rule="evenodd" d="M360.834 91.544C360.834 91.0075 360.399 90.5725 359.863 90.5725C359.326 90.5725 358.891 91.0075 358.891 91.544V119.21C358.891 119.747 359.326 120.182 359.863 120.182H360.834H387.732C388.268 120.182 388.703 119.747 388.703 119.21C388.703 118.673 388.268 118.239 387.732 118.239H361.806C360.602 118.239 360.834 118.398 360.834 117.267V91.544Z" fill="#9A4C07"/>
<ellipse cx="368.973" cy="102.594" rx="1.62912" ry="1.79203" fill="#89E0DD"/>
<path fill-rule="evenodd" clip-rule="evenodd" d="M368.85 104.18C369.647 104.237 370.339 103.638 370.396 102.842C370.453 102.045 369.854 101.353 369.058 101.296C368.261 101.239 367.569 101.838 367.512 102.634C367.455 103.431 368.054 104.123 368.85 104.18ZM368.802 104.848C369.968 104.932 370.98 104.055 371.064 102.89C371.148 101.724 370.271 100.712 369.106 100.628C367.94 100.544 366.927 101.421 366.844 102.586C366.76 103.752 367.637 104.765 368.802 104.848Z" fill="#9A4C07"/>
<ellipse cx="378.35" cy="111.09" rx="2.262" ry="2.262" fill="#89E0DD"/>
<path fill-rule="evenodd" clip-rule="evenodd" d="M378.215 112.976C379.256 113.051 380.161 112.267 380.236 111.226C380.311 110.184 379.527 109.279 378.486 109.204C377.444 109.129 376.539 109.913 376.464 110.954C376.39 111.996 377.173 112.901 378.215 112.976ZM378.152 113.85C379.676 113.959 381 112.813 381.11 111.289C381.219 109.764 380.073 108.44 378.549 108.331C377.025 108.221 375.7 109.368 375.591 110.892C375.481 112.416 376.628 113.74 378.152 113.85Z" fill="#9A4C07"/>
<ellipse cx="366.17" cy="111.563" rx="2.11286" ry="1.98857" fill="#F2994A"/>
<path fill-rule="evenodd" clip-rule="evenodd" d="M366.05 113.102C366.969 113.168 367.767 112.477 367.834 111.558C367.9 110.639 367.208 109.84 366.289 109.774C365.37 109.708 364.572 110.4 364.506 111.318C364.44 112.237 365.131 113.036 366.05 113.102ZM365.995 113.873C367.339 113.97 368.508 112.958 368.605 111.613C368.701 110.268 367.69 109.1 366.345 109.003C365 108.907 363.832 109.918 363.735 111.263C363.638 112.608 364.65 113.776 365.995 113.873Z" fill="#9A4C07"/>
<ellipse cx="375.218" cy="97.8661" rx="1.914" ry="1.914" fill="#F2C94C"/>
<path fill-rule="evenodd" clip-rule="evenodd" d="M375.098 99.53C376.017 99.596 376.816 98.9047 376.882 97.9858C376.948 97.0668 376.257 96.2683 375.338 96.2023C374.419 96.1362 373.62 96.8275 373.554 97.7465C373.488 98.6654 374.179 99.4639 375.098 99.53ZM375.043 100.301C376.388 100.398 377.556 99.386 377.653 98.0412C377.75 96.6964 376.738 95.5279 375.393 95.4312C374.048 95.3345 372.88 96.3462 372.783 97.691C372.686 99.0358 373.698 100.204 375.043 100.301Z" fill="#9A4C07"/>
<path d="M387.184 95.2236L386.469 93.9789C386.426 93.8931 386.326 93.8645 386.254 93.8931L385.367 94.2507C385.181 94.1077 384.981 93.9932 384.766 93.9074L384.638 92.9631C384.609 92.8773 384.523 92.8201 384.437 92.8201H383.007C382.921 92.8201 382.849 92.8773 382.835 92.9774L382.706 93.9217C382.492 94.0075 382.291 94.1363 382.105 94.265L381.218 93.9074C381.132 93.8788 381.047 93.9074 381.004 93.9932L380.288 95.2379C380.245 95.3237 380.26 95.4096 380.331 95.4668L381.089 96.0534C381.075 96.1678 381.061 96.2823 381.061 96.3967C381.061 96.5112 381.075 96.6399 381.089 96.7401L380.331 97.3267C380.26 97.3839 380.245 97.484 380.288 97.5556L381.004 98.8003C381.047 98.8861 381.147 98.9147 381.218 98.8861L382.105 98.5284C382.291 98.6715 382.492 98.7859 382.706 98.8718L382.835 99.816C382.849 99.9162 382.921 99.9734 383.007 99.9734H384.437C384.523 99.9734 384.609 99.9162 384.609 99.816L384.738 98.8718C384.952 98.7859 385.153 98.6572 385.339 98.5284L386.226 98.8861C386.311 98.9147 386.397 98.8861 386.44 98.8003L387.156 97.5556C387.198 97.4697 387.184 97.3839 387.113 97.3267L386.369 96.7401C386.383 96.6256 386.397 96.5112 386.397 96.3967C386.397 96.2823 386.383 96.1535 386.369 96.0534L387.127 95.4668C387.198 95.4096 387.213 95.3094 387.184 95.2236ZM383.722 97.5842C383.064 97.5842 382.534 97.0405 382.534 96.3967C382.534 95.7386 383.078 95.2093 383.722 95.2093C384.366 95.2093 384.909 95.7529 384.909 96.3967C384.909 97.0548 384.38 97.5842 383.722 97.5842Z" fill="#F2C94C"/>
<path fill-rule="evenodd" clip-rule="evenodd" d="M382.49 92.9283C382.528 92.6619 382.742 92.4722 383.006 92.4722H384.437C384.665 92.4722 384.889 92.6178 384.968 92.8532L384.978 92.884L385.085 93.6682C385.198 93.7236 385.308 93.7864 385.414 93.8567L386.124 93.5704L386.125 93.5701C386.352 93.479 386.643 93.5649 386.774 93.8122L387.503 95.0805L387.514 95.1136C387.573 95.2914 387.564 95.5632 387.344 95.7386L387.342 95.7404L386.737 96.2087C386.742 96.2702 386.745 96.3344 386.745 96.3968C386.745 96.4617 386.741 96.5257 386.736 96.5868L387.33 97.055C387.426 97.1318 387.496 97.2397 387.519 97.3682C387.542 97.494 387.516 97.6132 387.467 97.7113L387.462 97.7203L386.746 98.9671C386.687 99.0773 386.593 99.1654 386.473 99.2114C386.351 99.2579 386.224 99.2527 386.115 99.2163L386.105 99.2129L385.38 98.9204C385.279 98.9855 385.171 99.0507 385.056 99.1088L384.956 99.8449C384.94 100.174 384.647 100.322 384.437 100.322H383.006C382.742 100.322 382.528 100.132 382.49 99.8653L382.49 99.8631L382.387 99.1112C382.274 99.0558 382.164 98.9929 382.058 98.9227L381.348 99.2089L381.347 99.2093C381.12 99.3003 380.829 99.2145 380.698 98.9672L379.988 97.7311C379.86 97.5136 379.905 97.2223 380.114 97.055L380.116 97.0533L380.721 96.5849C380.716 96.5235 380.713 96.4593 380.713 96.3968C380.713 96.3328 380.716 96.2695 380.722 96.2091L380.116 95.7404L380.114 95.7386C380.018 95.6619 379.948 95.554 379.924 95.4254C379.901 95.2997 379.928 95.1805 379.977 95.0824L379.981 95.0733L380.698 93.8266C380.756 93.7164 380.85 93.6282 380.971 93.5823C381.093 93.5358 381.219 93.541 381.328 93.5773L381.338 93.5807L382.064 93.8733C382.164 93.8081 382.272 93.743 382.387 93.6848L382.49 92.9283ZM383.16 93.1682L383.023 94.1696L382.835 94.2449C382.659 94.3154 382.486 94.4251 382.303 94.5513L382.149 94.658L381.235 94.2894L380.663 95.2838L381.459 95.8997L381.435 96.0966C381.42 96.2148 381.409 96.3077 381.409 96.3968C381.409 96.4869 381.42 96.5968 381.434 96.691L381.463 96.8915L380.663 97.5098L381.235 98.5043L382.16 98.1314L382.317 98.2527C382.478 98.3766 382.651 98.475 382.835 98.5488L383.023 98.624L383.16 99.6255H384.284L384.42 98.624L384.608 98.5488C384.785 98.4783 384.958 98.3686 385.14 98.2424L385.295 98.1356L386.209 98.5043L386.781 97.5086L385.999 96.8919L386.023 96.697C386.038 96.5788 386.049 96.486 386.049 96.3968C386.049 96.3067 386.037 96.1969 386.024 96.1027L385.995 95.9022L386.81 95.2718L386.237 94.2751L385.313 94.648L385.155 94.5267C384.994 94.4028 384.821 94.3044 384.637 94.2306L384.449 94.1553L384.314 93.1682H383.16ZM383.722 95.5574C383.267 95.5574 382.882 95.9336 382.882 96.3968C382.882 96.8512 383.259 97.2363 383.722 97.2363C384.188 97.2363 384.561 96.8627 384.561 96.3968C384.561 95.9452 384.173 95.5574 383.722 95.5574ZM382.186 96.3968C382.186 95.5438 382.889 94.8614 383.722 94.8614C384.558 94.8614 385.257 95.5608 385.257 96.3968C385.257 97.2471 384.572 97.9323 383.722 97.9323C382.869 97.9323 382.186 97.2301 382.186 96.3968Z" fill="#9A4C07"/>
</g>
<defs>
<clipPath id="clip0_8925_1251">
<rect width="700" height="414" fill="white"/>
</clipPath>
<clipPath id="clip1_8925_1251">
<rect width="50" height="19" fill="white" transform="translate(532.114 334)"/>
</clipPath>
</defs>
</svg>
