<svg width="160" height="160" viewBox="0 0 160 160" fill="none" xmlns="http://www.w3.org/2000/svg">
<g clip-path="url(#clip0_8839_5324)">
<rect width="160" height="160" rx="8" fill="#FFF2D4"/>
<path fill-rule="evenodd" clip-rule="evenodd" d="M160 40.8702L66 60L74.5 46.5L0 57.1428V8C0 3.58172 3.58172 0 8 0H152C156.418 0 160 3.58172 160 8V40.8702Z" fill="#4DAA9C"/>
<path d="M20.9062 23.5859H25.4375V29.5078C24.8385 29.7057 24.2161 29.8646 23.5703 29.9844C22.9245 30.099 22.1927 30.1562 21.375 30.1562C20.2396 30.1562 19.276 29.9323 18.4844 29.4844C17.6927 29.0365 17.0911 28.375 16.6797 27.5C16.2682 26.625 16.0625 25.5495 16.0625 24.2734C16.0625 23.0755 16.2917 22.0391 16.75 21.1641C17.2135 20.2891 17.888 19.612 18.7734 19.1328C19.6641 18.6536 20.75 18.4141 22.0312 18.4141C22.6354 18.4141 23.2318 18.4792 23.8203 18.6094C24.4089 18.7396 24.9427 18.9089 25.4219 19.1172L24.6172 21.0547C24.2682 20.8776 23.8698 20.7292 23.4219 20.6094C22.974 20.4896 22.5052 20.4297 22.0156 20.4297C21.3125 20.4297 20.7005 20.5911 20.1797 20.9141C19.6641 21.237 19.263 21.6901 18.9766 22.2734C18.6953 22.8516 18.5547 23.5339 18.5547 24.3203C18.5547 25.0651 18.6562 25.7266 18.8594 26.3047C19.0625 26.8776 19.3828 27.3281 19.8203 27.6562C20.2578 27.9792 20.8281 28.1406 21.5312 28.1406C21.875 28.1406 22.1641 28.125 22.3984 28.0938C22.638 28.0573 22.862 28.0208 23.0703 27.9844V25.6016H20.9062V23.5859ZM32.8516 21.1016C32.9714 21.1016 33.1094 21.1094 33.2656 21.125C33.4271 21.1354 33.5573 21.151 33.6562 21.1719L33.4766 23.4062C33.3984 23.3802 33.2865 23.362 33.1406 23.3516C33 23.3359 32.8776 23.3281 32.7734 23.3281C32.4661 23.3281 32.1667 23.3672 31.875 23.4453C31.5885 23.5234 31.3307 23.651 31.1016 23.8281C30.8724 24 30.6901 24.2292 30.5547 24.5156C30.4245 24.7969 30.3594 25.1432 30.3594 25.5547V30H27.9766V21.2656H29.7812L30.1328 22.7344H30.25C30.4219 22.4375 30.6354 22.1667 30.8906 21.9219C31.151 21.6719 31.4453 21.474 31.7734 21.3281C32.1068 21.1771 32.4661 21.1016 32.8516 21.1016ZM43.1797 25.6172C43.1797 26.3464 43.0807 26.9922 42.8828 27.5547C42.6901 28.1172 42.4062 28.5938 42.0312 28.9844C41.6615 29.3698 41.2135 29.6615 40.6875 29.8594C40.1667 30.0573 39.5781 30.1562 38.9219 30.1562C38.3073 30.1562 37.7422 30.0573 37.2266 29.8594C36.7161 29.6615 36.2708 29.3698 35.8906 28.9844C35.5156 28.5938 35.224 28.1172 35.0156 27.5547C34.8125 26.9922 34.7109 26.3464 34.7109 25.6172C34.7109 24.6484 34.8828 23.8281 35.2266 23.1562C35.5703 22.4844 36.0599 21.974 36.6953 21.625C37.3307 21.276 38.0885 21.1016 38.9688 21.1016C39.7865 21.1016 40.5104 21.276 41.1406 21.625C41.776 21.974 42.2734 22.4844 42.6328 23.1562C42.9974 23.8281 43.1797 24.6484 43.1797 25.6172ZM37.1406 25.6172C37.1406 26.1901 37.2031 26.6719 37.3281 27.0625C37.4531 27.4531 37.6484 27.7474 37.9141 27.9453C38.1797 28.1432 38.526 28.2422 38.9531 28.2422C39.375 28.2422 39.7161 28.1432 39.9766 27.9453C40.2422 27.7474 40.4349 27.4531 40.5547 27.0625C40.6797 26.6719 40.7422 26.1901 40.7422 25.6172C40.7422 25.0391 40.6797 24.5599 40.5547 24.1797C40.4349 23.7943 40.2422 23.5052 39.9766 23.3125C39.7109 23.1198 39.3646 23.0234 38.9375 23.0234C38.3073 23.0234 37.849 23.2396 37.5625 23.6719C37.2812 24.1042 37.1406 24.7526 37.1406 25.6172ZM53.1641 21.2656V30H51.3359L51.0156 28.8828H50.8906C50.7031 29.1797 50.4688 29.4219 50.1875 29.6094C49.9062 29.7969 49.5964 29.9349 49.2578 30.0234C48.9193 30.112 48.5677 30.1562 48.2031 30.1562C47.5781 30.1562 47.0339 30.0469 46.5703 29.8281C46.1068 29.6042 45.7448 29.2578 45.4844 28.7891C45.2292 28.3203 45.1016 27.7109 45.1016 26.9609V21.2656H47.4844V26.3672C47.4844 26.9922 47.5964 27.4635 47.8203 27.7812C48.0443 28.099 48.401 28.2578 48.8906 28.2578C49.375 28.2578 49.7552 28.1484 50.0312 27.9297C50.3073 27.7057 50.5 27.3802 50.6094 26.9531C50.724 26.5208 50.7812 25.9948 50.7812 25.375V21.2656H53.1641ZM60.625 21.1016C61.5573 21.1016 62.3073 21.3568 62.875 21.8672C63.4427 22.3724 63.7266 23.1849 63.7266 24.3047V30H61.3438V24.8984C61.3438 24.2734 61.2292 23.8021 61 23.4844C60.776 23.1667 60.4219 23.0078 59.9375 23.0078C59.2083 23.0078 58.7109 23.2552 58.4453 23.75C58.1797 24.2448 58.0469 24.9583 58.0469 25.8906V30H55.6641V21.2656H57.4844L57.8047 22.3828H57.9375C58.125 22.0807 58.3568 21.8359 58.6328 21.6484C58.9141 21.4609 59.224 21.3229 59.5625 21.2344C59.9062 21.1458 60.2604 21.1016 60.625 21.1016ZM68.9453 30.1562C67.9714 30.1562 67.1771 29.776 66.5625 29.0156C65.9531 28.25 65.6484 27.1276 65.6484 25.6484C65.6484 24.1536 65.9583 23.0234 66.5781 22.2578C67.1979 21.487 68.0078 21.1016 69.0078 21.1016C69.4245 21.1016 69.7917 21.1589 70.1094 21.2734C70.4271 21.388 70.7005 21.5417 70.9297 21.7344C71.1641 21.9271 71.362 22.1432 71.5234 22.3828H71.6016C71.5703 22.2161 71.5312 21.9714 71.4844 21.6484C71.4427 21.3203 71.4219 20.9844 71.4219 20.6406V17.8438H73.8125V30H71.9844L71.5234 28.8672H71.4219C71.2708 29.1068 71.0807 29.3255 70.8516 29.5234C70.6276 29.7161 70.3594 29.8698 70.0469 29.9844C69.7344 30.099 69.3672 30.1562 68.9453 30.1562ZM69.7812 28.2578C70.4323 28.2578 70.8906 28.0651 71.1562 27.6797C71.4271 27.2891 71.5703 26.7031 71.5859 25.9219V25.6641C71.5859 24.8151 71.4557 24.1667 71.1953 23.7188C70.9349 23.2656 70.4505 23.0391 69.7422 23.0391C69.2161 23.0391 68.8047 23.2656 68.5078 23.7188C68.2109 24.1719 68.0625 24.8255 68.0625 25.6797C68.0625 26.5339 68.2109 27.1771 68.5078 27.6094C68.8099 28.0417 69.2344 28.2578 69.7812 28.2578ZM84.1406 28.2578C84.401 28.2578 84.6536 28.2318 84.8984 28.1797C85.1484 28.1276 85.3958 28.0625 85.6406 27.9844V29.7578C85.3854 29.8724 85.0677 29.9661 84.6875 30.0391C84.3125 30.1172 83.901 30.1562 83.4531 30.1562C82.9323 30.1562 82.4635 30.0729 82.0469 29.9062C81.6354 29.7344 81.3099 29.4401 81.0703 29.0234C80.8359 28.6016 80.7188 28.0156 80.7188 27.2656V23.0547H79.5781V22.0469L80.8906 21.25L81.5781 19.4062H83.1016V21.2656H85.5469V23.0547H83.1016V27.2656C83.1016 27.599 83.1953 27.849 83.3828 28.0156C83.5755 28.1771 83.8281 28.2578 84.1406 28.2578ZM95.3516 25.6172C95.3516 26.3464 95.2526 26.9922 95.0547 27.5547C94.862 28.1172 94.5781 28.5938 94.2031 28.9844C93.8333 29.3698 93.3854 29.6615 92.8594 29.8594C92.3385 30.0573 91.75 30.1562 91.0938 30.1562C90.4792 30.1562 89.9141 30.0573 89.3984 29.8594C88.888 29.6615 88.4427 29.3698 88.0625 28.9844C87.6875 28.5938 87.3958 28.1172 87.1875 27.5547C86.9844 26.9922 86.8828 26.3464 86.8828 25.6172C86.8828 24.6484 87.0547 23.8281 87.3984 23.1562C87.7422 22.4844 88.2318 21.974 88.8672 21.625C89.5026 21.276 90.2604 21.1016 91.1406 21.1016C91.9583 21.1016 92.6823 21.276 93.3125 21.625C93.9479 21.974 94.4453 22.4844 94.8047 23.1562C95.1693 23.8281 95.3516 24.6484 95.3516 25.6172ZM89.3125 25.6172C89.3125 26.1901 89.375 26.6719 89.5 27.0625C89.625 27.4531 89.8203 27.7474 90.0859 27.9453C90.3516 28.1432 90.6979 28.2422 91.125 28.2422C91.5469 28.2422 91.888 28.1432 92.1484 27.9453C92.4141 27.7474 92.6068 27.4531 92.7266 27.0625C92.8516 26.6719 92.9141 26.1901 92.9141 25.6172C92.9141 25.0391 92.8516 24.5599 92.7266 24.1797C92.6068 23.7943 92.4141 23.5052 92.1484 23.3125C91.8828 23.1198 91.5365 23.0234 91.1094 23.0234C90.4792 23.0234 90.0208 23.2396 89.7344 23.6719C89.4531 24.1042 89.3125 24.7526 89.3125 25.6172ZM106.516 20.4297C106.052 20.4297 105.641 20.5208 105.281 20.7031C104.927 20.8802 104.628 21.138 104.383 21.4766C104.143 21.8151 103.961 22.224 103.836 22.7031C103.711 23.1823 103.648 23.7214 103.648 24.3203C103.648 25.1276 103.747 25.8177 103.945 26.3906C104.148 26.9583 104.461 27.3932 104.883 27.6953C105.305 27.9922 105.849 28.1406 106.516 28.1406C106.979 28.1406 107.443 28.0885 107.906 27.9844C108.375 27.8802 108.883 27.7318 109.43 27.5391V29.5703C108.924 29.7786 108.427 29.9271 107.938 30.0156C107.448 30.1094 106.898 30.1562 106.289 30.1562C105.112 30.1562 104.143 29.9141 103.383 29.4297C102.628 28.9401 102.068 28.2578 101.703 27.3828C101.339 26.5026 101.156 25.4766 101.156 24.3047C101.156 23.4401 101.273 22.6484 101.508 21.9297C101.742 21.2109 102.086 20.5885 102.539 20.0625C102.992 19.5365 103.552 19.1302 104.219 18.8438C104.885 18.5573 105.651 18.4141 106.516 18.4141C107.083 18.4141 107.651 18.487 108.219 18.6328C108.792 18.7734 109.339 18.9688 109.859 19.2188L109.078 21.1875C108.651 20.9844 108.221 20.8073 107.789 20.6562C107.357 20.5052 106.932 20.4297 106.516 20.4297ZM114.062 30H111.68V17.8438H114.062V30ZM124.508 25.6172C124.508 26.3464 124.409 26.9922 124.211 27.5547C124.018 28.1172 123.734 28.5938 123.359 28.9844C122.99 29.3698 122.542 29.6615 122.016 29.8594C121.495 30.0573 120.906 30.1562 120.25 30.1562C119.635 30.1562 119.07 30.0573 118.555 29.8594C118.044 29.6615 117.599 29.3698 117.219 28.9844C116.844 28.5938 116.552 28.1172 116.344 27.5547C116.141 26.9922 116.039 26.3464 116.039 25.6172C116.039 24.6484 116.211 23.8281 116.555 23.1562C116.898 22.4844 117.388 21.974 118.023 21.625C118.659 21.276 119.417 21.1016 120.297 21.1016C121.115 21.1016 121.839 21.276 122.469 21.625C123.104 21.974 123.602 22.4844 123.961 23.1562C124.326 23.8281 124.508 24.6484 124.508 25.6172ZM118.469 25.6172C118.469 26.1901 118.531 26.6719 118.656 27.0625C118.781 27.4531 118.977 27.7474 119.242 27.9453C119.508 28.1432 119.854 28.2422 120.281 28.2422C120.703 28.2422 121.044 28.1432 121.305 27.9453C121.57 27.7474 121.763 27.4531 121.883 27.0625C122.008 26.6719 122.07 26.1901 122.07 25.6172C122.07 25.0391 122.008 24.5599 121.883 24.1797C121.763 23.7943 121.57 23.5052 121.305 23.3125C121.039 23.1198 120.693 23.0234 120.266 23.0234C119.635 23.0234 119.177 23.2396 118.891 23.6719C118.609 24.1042 118.469 24.7526 118.469 25.6172ZM134.492 21.2656V30H132.664L132.344 28.8828H132.219C132.031 29.1797 131.797 29.4219 131.516 29.6094C131.234 29.7969 130.924 29.9349 130.586 30.0234C130.247 30.112 129.896 30.1562 129.531 30.1562C128.906 30.1562 128.362 30.0469 127.898 29.8281C127.435 29.6042 127.073 29.2578 126.812 28.7891C126.557 28.3203 126.43 27.7109 126.43 26.9609V21.2656H128.812V26.3672C128.812 26.9922 128.924 27.4635 129.148 27.7812C129.372 28.099 129.729 28.2578 130.219 28.2578C130.703 28.2578 131.083 28.1484 131.359 27.9297C131.635 27.7057 131.828 27.3802 131.938 26.9531C132.052 26.5208 132.109 25.9948 132.109 25.375V21.2656H134.492ZM139.758 30.1562C138.784 30.1562 137.99 29.776 137.375 29.0156C136.766 28.25 136.461 27.1276 136.461 25.6484C136.461 24.1536 136.771 23.0234 137.391 22.2578C138.01 21.487 138.82 21.1016 139.82 21.1016C140.237 21.1016 140.604 21.1589 140.922 21.2734C141.24 21.388 141.513 21.5417 141.742 21.7344C141.977 21.9271 142.174 22.1432 142.336 22.3828H142.414C142.383 22.2161 142.344 21.9714 142.297 21.6484C142.255 21.3203 142.234 20.9844 142.234 20.6406V17.8438H144.625V30H142.797L142.336 28.8672H142.234C142.083 29.1068 141.893 29.3255 141.664 29.5234C141.44 29.7161 141.172 29.8698 140.859 29.9844C140.547 30.099 140.18 30.1562 139.758 30.1562ZM140.594 28.2578C141.245 28.2578 141.703 28.0651 141.969 27.6797C142.24 27.2891 142.383 26.7031 142.398 25.9219V25.6641C142.398 24.8151 142.268 24.1667 142.008 23.7188C141.747 23.2656 141.263 23.0391 140.555 23.0391C140.029 23.0391 139.617 23.2656 139.32 23.7188C139.023 24.1719 138.875 24.8255 138.875 25.6797C138.875 26.5339 139.023 27.1771 139.32 27.6094C139.622 28.0417 140.047 28.2578 140.594 28.2578Z" fill="white"/>
<circle cx="131" cy="66" r="14.4" fill="#FED77F" stroke="#4DAA9C" stroke-width="1.2"/>
<path d="M128.16 71.648C128.16 72.4256 127.53 73.056 126.752 73.056C125.974 73.056 125.344 72.4256 125.344 71.648C125.344 70.8704 125.974 70.24 126.752 70.24C127.53 70.24 128.16 70.8704 128.16 71.648Z" fill="#F2994A"/>
<path fill-rule="evenodd" clip-rule="evenodd" d="M126.752 72.528C127.238 72.528 127.632 72.134 127.632 71.648C127.632 71.162 127.238 70.768 126.752 70.768C126.266 70.768 125.872 71.162 125.872 71.648C125.872 72.134 126.266 72.528 126.752 72.528ZM126.752 73.056C127.53 73.056 128.16 72.4256 128.16 71.648C128.16 70.8704 127.53 70.24 126.752 70.24C125.974 70.24 125.344 70.8704 125.344 71.648C125.344 72.4256 125.974 73.056 126.752 73.056Z" fill="#9A4C07"/>
<path d="M132.736 72.088C132.736 72.8656 132.106 73.496 131.328 73.496C130.55 73.496 129.92 72.8656 129.92 72.088C129.92 71.3104 130.55 70.68 131.328 70.68C132.106 70.68 132.736 71.3104 132.736 72.088Z" fill="#89E0DD"/>
<path fill-rule="evenodd" clip-rule="evenodd" d="M131.328 72.968C131.814 72.968 132.208 72.574 132.208 72.088C132.208 71.602 131.814 71.208 131.328 71.208C130.842 71.208 130.448 71.602 130.448 72.088C130.448 72.574 130.842 72.968 131.328 72.968ZM131.328 73.496C132.106 73.496 132.736 72.8656 132.736 72.088C132.736 71.3104 132.106 70.68 131.328 70.68C130.55 70.68 129.92 71.3104 129.92 72.088C129.92 72.8656 130.55 73.496 131.328 73.496Z" fill="#9A4C07"/>
<path d="M138.192 70.944C138.192 71.7216 137.562 72.352 136.784 72.352C136.006 72.352 135.376 71.7216 135.376 70.944C135.376 70.1664 136.006 69.536 136.784 69.536C137.562 69.536 138.192 70.1664 138.192 70.944Z" fill="#F2C94C"/>
<path fill-rule="evenodd" clip-rule="evenodd" d="M136.784 71.824C137.27 71.824 137.664 71.43 137.664 70.944C137.664 70.458 137.27 70.064 136.784 70.064C136.298 70.064 135.904 70.458 135.904 70.944C135.904 71.43 136.298 71.824 136.784 71.824ZM136.784 72.352C137.562 72.352 138.192 71.7216 138.192 70.944C138.192 70.1664 137.562 69.536 136.784 69.536C136.006 69.536 135.376 70.1664 135.376 70.944C135.376 71.7216 136.006 72.352 136.784 72.352Z" fill="#9A4C07"/>
<path fill-rule="evenodd" clip-rule="evenodd" d="M135.552 71.296H133.704V67.512H134.232V70.768H135.552V71.296Z" fill="#9A4C07"/>
<path fill-rule="evenodd" clip-rule="evenodd" d="M131.68 69.624V70.944H131.152V70.152H130.36V66.368H130.888V69.624H131.68Z" fill="#9A4C07"/>
<path fill-rule="evenodd" clip-rule="evenodd" d="M126.488 69.36V70.68H127.016V69.888H128.512V66.104H127.984V69.36H126.488Z" fill="#9A4C07"/>
<path d="M135.328 62.2567C134.909 60.1315 133.042 58.536 130.8 58.536C129.02 58.536 127.474 59.5463 126.704 61.0247C124.849 61.2218 123.408 62.7926 123.408 64.696C123.408 66.735 125.065 68.392 127.104 68.392H135.112C136.812 68.392 138.192 67.0122 138.192 65.312C138.192 63.6858 136.929 62.3675 135.328 62.2567Z" fill="#FFEDB5"/>
<path fill-rule="evenodd" clip-rule="evenodd" d="M134.741 62.9217L134.637 62.3928C134.282 60.591 132.699 59.24 130.8 59.24C129.293 59.24 127.982 60.0947 127.328 61.3499L127.154 61.6848L126.778 61.7247C125.279 61.8841 124.112 63.1556 124.112 64.696C124.112 66.3462 125.454 67.688 127.104 67.688H135.112C136.423 67.688 137.488 66.6234 137.488 65.312C137.488 64.0629 136.519 63.0448 135.279 62.959L134.741 62.9217ZM130.8 58.536C133.042 58.536 134.909 60.1315 135.328 62.2567C136.929 62.3675 138.192 63.6858 138.192 65.312C138.192 67.0122 136.812 68.392 135.112 68.392H127.104C125.065 68.392 123.408 66.735 123.408 64.696C123.408 62.7926 124.849 61.2218 126.704 61.0247C127.474 59.5463 129.02 58.536 130.8 58.536Z" fill="#9A4C07"/>
<circle cx="25" cy="81" r="14.4" fill="#FED77F" stroke="#4DAA9C" stroke-width="1.2"/>
<ellipse cx="31.6999" cy="75.9" rx="1.9" ry="1.9" fill="#F2C94C"/>
<ellipse cx="25.3999" cy="81.2001" rx="3.8" ry="3.8" fill="#FED77F"/>
<ellipse cx="19.2999" cy="75.3" rx="1.9" ry="1.9" fill="#F2994A"/>
<circle cx="26.4999" cy="88.7" r="1.5" fill="#89E0DD"/>
<circle cx="25.6349" cy="74.4211" r="1.15264" fill="#9A4C07" stroke="#9A4C07" stroke-width="0.6"/>
<path d="M20.6447 87.774C20.6719 88.8098 19.88 89.6559 18.8945 89.6818C17.9091 89.7076 17.0738 88.9042 17.0467 87.8685C17.0195 86.8328 17.8114 85.9867 18.7968 85.9608C19.7823 85.9349 20.6175 86.7383 20.6447 87.774Z" fill="#9A4C07" stroke="#9A4C07" stroke-width="0.6"/>
<path d="M19.2315 86.3267L22.3368 83.7056L22.8276 84.2946L19.7223 86.9156L19.2315 86.3267Z" fill="#9A4C07"/>
<path fill-rule="evenodd" clip-rule="evenodd" d="M26.5926 89.9287C27.2605 89.9122 27.7713 89.3704 27.7557 88.7395C27.7401 88.1086 27.2032 87.5927 26.5353 87.6092C25.8674 87.6257 25.3565 88.1675 25.3721 88.7984C25.3877 89.4293 25.9247 89.9452 26.5926 89.9287ZM26.6062 90.4809C27.5694 90.4571 28.3312 89.6713 28.3079 88.7259C28.2845 87.7804 27.4848 87.0333 26.5216 87.0571C25.5585 87.0809 24.7966 87.8666 24.82 88.8121C24.8434 89.7575 25.6431 90.5047 26.6062 90.4809Z" fill="#9A4C07"/>
<circle cx="31.7999" cy="85.8" r="1.1" fill="#9A4C07" stroke="#9A4C07" stroke-width="0.6"/>
<path fill-rule="evenodd" clip-rule="evenodd" d="M31.5454 77.6387C32.4567 77.7042 33.2486 77.0185 33.3142 76.1072C33.3797 75.1959 32.6941 74.4039 31.7827 74.3384C30.8714 74.2729 30.0795 74.9585 30.0139 75.8699C29.9484 76.7812 30.634 77.5731 31.5454 77.6387ZM31.4904 78.4034C32.8241 78.4993 33.983 77.4959 34.0789 76.1622C34.1748 74.8285 33.1714 73.6696 31.8377 73.5737C30.504 73.4778 29.3451 74.4812 29.2492 75.8149C29.1533 77.1485 30.1567 78.3075 31.4904 78.4034Z" fill="#9A4C07"/>
<path fill-rule="evenodd" clip-rule="evenodd" d="M20.5381 74C19.9095 73.3935 18.877 73.4069 18.2326 74.0749C17.5883 74.7429 17.6121 75.7752 18.2407 76.3816C18.8694 76.988 19.9018 76.9746 20.5462 76.3066C21.1905 75.6386 21.1667 74.6064 20.5381 74ZM21.0704 73.4482C20.1268 72.5379 18.6092 72.5802 17.6809 73.5427C16.7525 74.5051 16.7648 76.0231 17.7084 76.9334C18.6521 77.8436 20.1696 77.8013 21.098 76.8389C22.0263 75.8765 22.014 74.3584 21.0704 73.4482Z" fill="#9A4C07"/>
<path fill-rule="evenodd" clip-rule="evenodd" d="M31.6249 86.1547L28.5691 83.8631L29.0222 83.2446L32.0779 85.5362L31.6249 86.1547Z" fill="#9A4C07"/>
<path fill-rule="evenodd" clip-rule="evenodd" d="M29.8537 77.0438L27.8316 78.394L28.3432 78.932L30.3653 77.5819L29.8537 77.0438Z" fill="#9A4C07"/>
<path fill-rule="evenodd" clip-rule="evenodd" d="M20.2332 77.1016L22.5555 79.0334L23.0332 78.5651L20.7108 76.6334L20.2332 77.1016Z" fill="#9A4C07"/>
<path fill-rule="evenodd" clip-rule="evenodd" d="M26.0182 73.9896V77.4948H25.2515V73.9896H26.0182Z" fill="#9A4C07"/>
<path d="M25.8998 85.1339L26.4724 87.258L25.7 87.4663L25.1274 85.3421L25.8998 85.1339Z" fill="#9A4C07"/>
<path fill-rule="evenodd" clip-rule="evenodd" d="M23.9558 80.6522C23.6461 80.6361 23.3999 80.3799 23.3999 80.0662C23.3999 79.773 23.615 79.53 23.896 79.4864C23.9241 79.1027 24.2443 78.8 24.6352 78.8C24.9407 78.8 25.203 78.9849 25.3165 79.2488C25.3656 79.2381 25.4166 79.2324 25.469 79.2324C25.8613 79.2324 26.1793 79.5504 26.1793 79.9427C26.1793 80.3246 25.8778 80.6361 25.4999 80.6523V80.653H23.9882L23.9867 80.653L23.9852 80.653H23.9558V80.6522ZM23.3999 81.703V81.2397C23.4493 81.1162 24.2028 81.1059 24.5734 81.1162C25.7099 81.1903 26.8175 80.7353 27.2293 80.4986H27.569V81.2706C27.0518 81.7643 26.6599 81.6317 26.1481 81.4584L26.1481 81.4584C25.9875 81.4041 25.8152 81.3458 25.6234 81.3015C24.9811 81.1533 23.8734 81.4971 23.3999 81.703ZM23.3999 82.4133V81.8883C23.4284 81.8776 23.47 81.8596 23.5228 81.8366C23.9284 81.6605 24.9961 81.1969 25.8705 81.5795C26.6611 81.9254 27.3528 81.7236 27.5999 81.5795V82.3207C27.1676 82.6604 26.0249 82.7221 25.1293 82.4751C24.4128 82.2774 23.6778 82.3515 23.3999 82.4133ZM23.3999 82.5677V83.3089C23.8528 83.5559 24.9934 83.9636 25.9323 83.6177C26.8711 83.2718 27.4352 83.3295 27.5999 83.4015V82.5059C27.1984 82.6706 26.2226 82.9506 25.5308 82.753C24.6661 82.5059 24.3264 82.4442 23.3999 82.5677Z" fill="#9A4C07"/>
<path fill-rule="evenodd" clip-rule="evenodd" d="M29.5999 81.3C29.5999 83.5644 27.7643 85.4 25.4999 85.4C23.2356 85.4 21.3999 83.5644 21.3999 81.3C21.3999 79.0357 23.2356 77.2 25.4999 77.2C27.7643 77.2 29.5999 79.0357 29.5999 81.3ZM25.4999 84.8C27.4329 84.8 28.9999 83.233 28.9999 81.3C28.9999 79.367 27.4329 77.8 25.4999 77.8C23.5669 77.8 21.9999 79.367 21.9999 81.3C21.9999 83.233 23.5669 84.8 25.4999 84.8Z" fill="#9A4C07"/>
<path fill-rule="evenodd" clip-rule="evenodd" d="M44.9551 136.546H30.6988C30.6926 136.546 30.6863 136.546 30.6801 136.546C30.6739 136.546 30.6677 136.546 30.6615 136.546H17.6291C17.6204 136.546 17.6117 136.546 17.603 136.546C17.5943 136.546 17.5856 136.546 17.5769 136.546H16.6905V136.492C12.9217 136.041 10 132.833 10 128.943C10 124.744 13.404 121.34 17.603 121.34C17.7818 121.34 17.9592 121.346 18.135 121.358C19.2637 115.459 24.4512 111 30.6801 111C36.5539 111 41.5017 114.965 42.9932 120.364C43.6276 120.207 44.291 120.124 44.9739 120.124C49.5088 120.124 53.1852 123.8 53.1852 128.335C53.1852 132.562 49.9918 136.042 45.8861 136.496V136.546H44.9927C44.9864 136.546 44.9801 136.546 44.9739 136.546C44.9676 136.546 44.9614 136.546 44.9551 136.546Z" fill="#F2C94C"/>
<path fill-rule="evenodd" clip-rule="evenodd" d="M140.187 147.672H119.721C119.709 147.672 119.698 147.672 119.687 147.672C119.676 147.672 119.664 147.672 119.653 147.672H100.949C100.937 147.672 100.926 147.672 100.914 147.672C100.903 147.672 100.891 147.672 100.88 147.672H99.6044V147.594C94.1942 146.947 90 142.342 90 136.758C90 130.73 94.8865 125.844 100.914 125.844C101.171 125.844 101.426 125.852 101.678 125.87C103.298 117.4 110.745 111 119.687 111C128.119 111 135.222 116.692 137.363 124.442C138.273 124.217 139.226 124.097 140.206 124.097C146.716 124.097 151.994 129.375 151.994 135.885C151.994 141.952 147.409 146.949 141.516 147.6V147.672H140.225C140.219 147.672 140.213 147.672 140.206 147.672C140.2 147.672 140.193 147.672 140.187 147.672Z" fill="#FED77F"/>
<path fill-rule="evenodd" clip-rule="evenodd" d="M110.999 165.985C111.188 165.995 111.377 166 111.568 166C117.535 166 122.372 161.163 122.372 155.196C122.372 149.229 117.535 144.392 111.568 144.392C110.945 144.392 110.334 144.445 109.739 144.546C107.379 139.102 101.958 135.294 95.6462 135.294C94.3694 135.294 93.129 135.449 91.943 135.743C89.1541 125.648 79.9029 118.235 68.9203 118.235C56.6038 118.235 46.4649 127.558 45.1759 139.532C43.7142 138.997 42.1354 138.705 40.4885 138.705C32.9513 138.705 26.8412 144.816 26.8412 152.353C26.8412 159.89 32.9513 166 40.4885 166C41.2635 166 42.0233 165.935 42.7631 165.811V166L68.9203 166L110.999 166V165.985Z" fill="#F2994A"/>
<path d="M47.8718 88.3436L80.2773 70.5454L113.179 88.3436V124.295L80.2773 142.022L47.8718 124.295V88.3436Z" fill="white" stroke="#333333" stroke-width="0.0703125"/>
<path fill-rule="evenodd" clip-rule="evenodd" d="M113.39 90.3439L110.738 86.644L80.6108 108.18L61.0282 96.6543L46.5989 117.831L50.3662 120.391L62.3931 102.74L80.8518 113.604L113.39 90.3439Z" fill="#4DAA9C"/>
<path d="M85.2771 88.4046L83.1305 87.7341L81.1282 94.1442L83.2748 94.8147L85.2771 88.4046Z" fill="#333333"/>
<path d="M75.3271 88.4048L77.4737 87.7342L79.4759 94.1443L77.3293 94.8148L75.3271 88.4048Z" fill="#333333"/>
<path fill-rule="evenodd" clip-rule="evenodd" d="M93.2332 92.3292L91.9974 97.426L88.9454 99.8351L101.154 119.108L108.005 123.948L91.6827 133.197L91.6762 132.278L87.0177 121.035L78.1828 111.078L71.2923 114.595L65.67 110.097L69.6691 100.478L67.099 97.1048L66.0199 92.3271C65.998 92.2301 66.0802 92.1412 66.1786 92.1555L74.3275 93.3372L83.6444 93.4978L93.0754 92.1554C93.1747 92.1413 93.2568 92.2318 93.2332 92.3292Z" fill="#FC7E24"/>
<path fill-rule="evenodd" clip-rule="evenodd" d="M71.1926 92.8829L66.1786 92.1558C66.0802 92.1415 65.998 92.2304 66.0199 92.3274L67.099 97.105L69.6691 100.478L65.67 110.098L71.2923 114.595L78.1828 111.078L87.0177 121.036L89.5445 127.134L93.4068 122.613L102.663 124.331L104.963 130.83L112.056 126.81L101.154 119.108L98.5759 115.039L95.8348 116.622L87.1725 111.62V101.618L89.2974 100.391L88.9454 99.8354L91.9974 97.4263L93.2332 92.3295C93.2569 92.2321 93.1747 92.1415 93.0754 92.1557L83.6444 93.4981L79.855 93.4328V97.1783L75.5238 99.6789L71.1926 97.1783V92.8829Z" fill="#FEC955"/>
<path fill-rule="evenodd" clip-rule="evenodd" d="M92.9455 91.2428C93.6899 91.1368 94.3063 91.8157 94.1291 92.5464L92.9279 97.5005C92.8569 97.7933 92.6898 98.0539 92.4533 98.2405L90.1688 100.044L101.835 118.461L111.265 125.122C112.134 125.736 111.605 126.957 110.74 126.998L92.7924 137.168C91.898 137.675 90.7883 137.034 90.781 136.006L90.7557 132.465L86.2254 121.531L77.9666 112.223L71.956 115.291C71.4844 115.531 70.9155 115.474 70.502 115.143L65.3442 111.017C64.8754 110.642 64.7113 110.002 64.9417 109.448L68.6141 100.614L66.422 97.7372C66.3047 97.5834 66.222 97.4061 66.1794 97.2174L65.1208 92.5302C64.9565 91.8025 65.5727 91.1362 66.3109 91.2432L74.4019 92.4165L83.587 92.5749L92.9455 91.2428ZM92.0663 93.2302L83.8078 94.4057C83.7372 94.4157 83.666 94.4202 83.5947 94.4189L74.2532 94.2579L67.169 93.2306L67.9539 96.7058L70.2538 99.7239C70.5449 100.106 70.6106 100.614 70.4263 101.058L66.7875 109.811L71.4033 113.503L77.4706 110.406C78.0173 110.127 78.6834 110.253 79.0908 110.712L87.6598 120.37C87.7593 120.482 87.8394 120.61 87.8967 120.749L92.496 131.848C92.5625 132.009 92.5973 132.181 92.5986 132.354L92.6185 135.148L109.067 125.827L100.691 119.91C100.547 119.808 100.424 119.679 100.33 119.53L88.3719 100.652C88.0026 100.069 88.1335 99.3015 88.6753 98.8739L91.1766 96.8996L92.0663 93.2302Z" fill="#333333"/>
<path d="M84.6611 82.7337L87.0967 83.4944L87.6556 85.9841L85.779 87.713L83.3434 86.9522L82.7845 84.4625L84.6611 82.7337Z" fill="#FEC955"/>
<path fill-rule="evenodd" clip-rule="evenodd" d="M84.3024 81.1358L88.3011 82.3849L89.2187 86.4723L86.1377 89.3108L82.139 88.0617L81.2214 83.9743L84.3024 81.1358ZM87.0967 83.4944L84.6611 82.7336L82.7845 84.4625L83.3434 86.9522L85.779 87.713L87.6556 85.9841L87.0967 83.4944Z" fill="#333333"/>
<path d="M75.9431 82.7337L73.5075 83.4945L72.9486 85.9842L74.8252 87.713L77.2608 86.9523L77.8197 84.4626L75.9431 82.7337Z" fill="#FEC955"/>
<path fill-rule="evenodd" clip-rule="evenodd" d="M76.3018 81.1359L72.3031 82.385L71.3855 86.4724L74.4665 89.3109L78.4652 88.0618L79.3828 83.9744L76.3018 81.1359ZM73.5075 83.4945L75.9431 82.7337L77.8197 84.4626L77.2608 86.9523L74.8252 87.7131L72.9485 85.9842L73.5075 83.4945Z" fill="#333333"/>
<path d="M81.5715 100.512C81.5715 101.376 80.8419 102.076 79.9419 102.076C79.0418 102.076 78.3122 101.376 78.3122 100.512C78.3122 99.6478 79.0418 98.9473 79.9419 98.9473C80.8419 98.9473 81.5715 99.6478 81.5715 100.512Z" fill="#333333"/>
<path fill-rule="evenodd" clip-rule="evenodd" d="M79.9419 101.934C80.7691 101.934 81.4297 101.292 81.4297 100.512C81.4297 99.7315 80.7691 99.0891 79.9419 99.0891C79.1146 99.0891 78.454 99.7315 78.454 100.512C78.454 101.292 79.1146 101.934 79.9419 101.934ZM79.9419 102.076C80.8419 102.076 81.5715 101.376 81.5715 100.512C81.5715 99.6478 80.8419 98.9473 79.9419 98.9473C79.0418 98.9473 78.3122 99.6478 78.3122 100.512C78.3122 101.376 79.0418 102.076 79.9419 102.076Z" fill="#333333"/>
<path fill-rule="evenodd" clip-rule="evenodd" d="M80.49 72.9444L50.4996 89.4722V122.528L80.49 139.056L110.48 122.528V89.4722L80.49 72.9444ZM115.874 87.8404C115.874 87.0135 115.424 86.2522 114.7 85.8531L81.5852 67.6036C80.9034 67.2278 80.0766 67.2278 79.3948 67.6036L46.2803 85.8531C45.5561 86.2522 45.1064 87.0135 45.1064 87.8404V124.16C45.1064 124.986 45.5561 125.748 46.2803 126.147L79.3948 144.396C80.0766 144.772 80.9034 144.772 81.5852 144.396L114.7 126.147C115.424 125.748 115.874 124.986 115.874 124.16V87.8404Z" fill="#333333"/>
<path d="M79.8461 101.432L80.4101 101.255C80.685 101.169 80.9056 100.962 81.0097 100.693C81.2825 99.9895 80.6625 99.265 79.9249 99.4256L79.3473 99.5514C78.9921 99.6288 78.7095 99.8976 78.6146 100.248C78.4136 100.991 79.1122 101.662 79.8461 101.432Z" fill="#333333"/>
<path fill-rule="evenodd" clip-rule="evenodd" d="M78.2723 100.156C77.9981 101.169 78.9512 102.084 79.9522 101.77L80.5163 101.593C80.894 101.475 81.1973 101.191 81.3403 100.822C81.7151 99.8542 80.8631 98.8584 79.8495 99.0792L79.2718 99.205C78.7873 99.3105 78.4019 99.6771 78.2723 100.156ZM79.7399 101.094C79.2732 101.24 78.829 100.813 78.9568 100.341C79.0172 100.118 79.1968 99.947 79.4227 99.8978L80.0004 99.772C80.4619 99.6715 80.8498 100.125 80.6791 100.565C80.614 100.733 80.4759 100.863 80.304 100.917L79.7399 101.094Z" fill="#333333"/>
</g>
<defs>
<clipPath id="clip0_8839_5324">
<rect width="160" height="160" rx="8" fill="white"/>
</clipPath>
</defs>
</svg>
