<svg width="660" height="399" viewBox="0 0 660 399" fill="none" xmlns="http://www.w3.org/2000/svg">
<g clip-path="url(#clip0_21146_1184)">
<rect width="660" height="398" transform="translate(0 0.911377)" fill="#FDF8D3"/>
<rect x="-114" y="293.415" width="700" height="64.4493" transform="rotate(-35 -114 293.415)" fill="url(#paint0_linear_21146_1184)" fill-opacity="0.2"/>
<rect x="-57" y="285.057" width="600" height="60.9575" transform="rotate(-35 -57 285.057)" fill="url(#paint1_linear_21146_1184)" fill-opacity="0.34"/>
<rect x="-57" y="435.13" width="900" height="36.0241" transform="rotate(-35 -57 435.13)" fill="url(#paint2_linear_21146_1184)" fill-opacity="0.28"/>
<rect x="15" y="451.13" width="900" height="22.1527" transform="rotate(-35 15 451.13)" fill="url(#paint3_linear_21146_1184)" fill-opacity="0.3"/>
<rect x="231.501" y="495.325" width="900" height="9.3048" transform="rotate(-35 231.501 495.325)" fill="url(#paint4_linear_21146_1184)" fill-opacity="0.15"/>
<rect y="254.932" width="256.228" height="13" fill="url(#paint5_linear_21146_1184)"/>
<rect x="-195" y="260.415" width="700" height="20" transform="rotate(-35 -195 260.415)" fill="url(#paint6_linear_21146_1184)" fill-opacity="0.32"/>
<rect x="141.594" y="432.398" width="700" height="50.9156" transform="rotate(-35 141.594 432.398)" fill="url(#paint7_linear_21146_1184)" fill-opacity="0.16"/>
<rect x="-171" y="309.415" width="700" height="8.28184" transform="rotate(-35 -171 309.415)" fill="url(#paint8_linear_21146_1184)" fill-opacity="0.26"/>
<rect x="-306" y="219.415" width="700" height="75.7492" transform="rotate(-35 -306 219.415)" fill="url(#paint9_linear_21146_1184)" fill-opacity="0.15"/>
<path d="M238.968 175.635L329.406 125.963L421.23 175.635V275.968L329.406 325.442L238.968 275.968V175.635Z" fill="white" stroke="#333333" stroke-width="0.0703125"/>
<path fill-rule="evenodd" clip-rule="evenodd" d="M421.82 181.218L414.417 170.892L330.337 230.996L275.685 198.829L235.415 257.93L245.929 265.073L279.494 215.812L331.01 246.133L421.82 181.218Z" fill="#4DAA9C"/>
<path d="M343.36 175.806L337.369 173.934L331.781 191.824L337.772 193.695L343.36 175.806Z" fill="#333333"/>
<path d="M315.591 175.806L321.582 173.935L327.17 191.824L321.179 193.695L315.591 175.806Z" fill="#333333"/>
<path fill-rule="evenodd" clip-rule="evenodd" d="M365.564 186.758L362.115 200.983L353.597 207.706L387.669 261.494L406.79 275.001L361.237 300.814L361.219 298.249L348.218 266.873L323.561 239.082L304.331 248.897L288.64 236.347L299.801 209.499L292.628 200.086L289.616 186.753C289.555 186.482 289.784 186.234 290.059 186.274L312.801 189.572L338.803 190.02L365.124 186.273C365.401 186.234 365.63 186.486 365.564 186.758Z" fill="#FC7E24"/>
<path fill-rule="evenodd" clip-rule="evenodd" d="M304.052 188.304L290.059 186.274C289.784 186.235 289.555 186.483 289.616 186.753L292.628 200.087L299.801 209.5L288.64 236.348L304.331 248.898L323.561 239.083L348.218 266.874L355.27 283.892L366.048 271.277L391.881 276.07L398.3 294.207L418.097 282.989L387.669 261.495L380.475 250.138L372.825 254.554L348.65 240.597V212.682L354.58 209.258L353.597 207.707L362.115 200.983L365.564 186.759C365.63 186.487 365.401 186.235 365.124 186.274L338.803 190.021L328.228 189.838V200.291L316.14 207.27L304.052 200.291V188.304Z" fill="#FEC955"/>
<path fill-rule="evenodd" clip-rule="evenodd" d="M364.761 183.726C366.839 183.431 368.559 185.325 368.064 187.365L364.712 201.191C364.514 202.008 364.048 202.735 363.388 203.256L357.012 208.289L389.569 259.687L415.889 278.279C418.314 279.992 416.837 283.4 414.422 283.513L364.334 311.897C361.838 313.311 358.741 311.521 358.72 308.652L358.65 298.77L346.006 268.257L322.957 242.279L306.183 250.84C304.867 251.512 303.279 251.351 302.125 250.427L287.731 238.914C286.422 237.867 285.964 236.081 286.607 234.534L296.856 209.88L290.738 201.851C290.411 201.422 290.18 200.927 290.061 200.401L287.107 187.319C286.648 185.289 288.368 183.429 290.428 183.728L313.009 187.002L338.643 187.444L364.761 183.726ZM362.307 189.273L339.259 192.553C339.062 192.582 338.863 192.594 338.665 192.59L312.594 192.141L292.823 189.274L295.014 198.973L301.432 207.396C302.245 208.462 302.428 209.88 301.914 211.118L291.758 235.547L304.64 245.851L321.573 237.209C323.099 236.43 324.958 236.781 326.095 238.062L350.01 265.016C350.287 265.329 350.511 265.686 350.671 266.072L363.507 297.05C363.692 297.498 363.789 297.978 363.793 298.462L363.849 306.258L409.754 280.245L386.377 263.731C385.975 263.447 385.633 263.087 385.37 262.672L351.997 209.987C350.966 208.36 351.332 206.217 352.844 205.024L359.824 199.514L362.307 189.273Z" fill="#333333"/>
<path d="M341.641 159.979L348.438 162.102L349.998 169.05L344.76 173.875L337.963 171.752L336.403 164.804L341.641 159.979Z" fill="#FEC955"/>
<path fill-rule="evenodd" clip-rule="evenodd" d="M340.64 155.52L351.799 159.005L354.36 170.413L345.762 178.334L334.602 174.849L332.041 163.441L340.64 155.52ZM348.438 162.102L341.641 159.979L336.403 164.804L337.963 171.752L344.761 173.875L349.998 169.05L348.438 162.102Z" fill="#333333"/>
<path d="M317.31 159.979L310.513 162.102L308.953 169.05L314.19 173.875L320.988 171.752L322.548 164.804L317.31 159.979Z" fill="#FEC955"/>
<path fill-rule="evenodd" clip-rule="evenodd" d="M318.311 155.52L307.152 159.006L304.591 170.413L313.189 178.335L324.349 174.849L326.91 163.441L318.311 155.52ZM310.513 162.102L317.31 159.979L322.547 164.804L320.988 171.752L314.19 173.875L308.953 169.05L310.513 162.102Z" fill="#333333"/>
<path d="M333.018 209.595C333.018 212.006 330.982 213.961 328.47 213.961C325.958 213.961 323.922 212.006 323.922 209.595C323.922 207.183 325.958 205.228 328.47 205.228C330.982 205.228 333.018 207.183 333.018 209.595Z" fill="#333333"/>
<path fill-rule="evenodd" clip-rule="evenodd" d="M328.47 213.565C330.779 213.565 332.622 211.772 332.622 209.595C332.622 207.417 330.779 205.624 328.47 205.624C326.161 205.624 324.318 207.417 324.318 209.595C324.318 211.772 326.161 213.565 328.47 213.565ZM328.47 213.961C330.982 213.961 333.018 212.006 333.018 209.595C333.018 207.183 330.982 205.228 328.47 205.228C325.958 205.228 323.922 207.183 323.922 209.595C323.922 212.006 325.958 213.961 328.47 213.961Z" fill="#333333"/>
<path fill-rule="evenodd" clip-rule="evenodd" d="M330 132.659L246.302 178.785V271.038L330 317.164L413.698 271.038V178.785L330 132.659ZM428.75 174.231C428.75 171.923 427.495 169.798 425.474 168.685L333.057 117.753C331.154 116.705 328.846 116.705 326.943 117.753L234.526 168.685C232.505 169.798 231.25 171.923 231.25 174.231V275.592C231.25 277.9 232.505 280.024 234.526 281.138L326.943 332.07C328.846 333.118 331.154 333.118 333.057 332.07L425.474 281.138C427.495 280.024 428.75 277.9 428.75 275.592V174.231Z" fill="#333333"/>
<path d="M328.203 212.163L329.777 211.669C330.544 211.428 331.16 210.851 331.45 210.102C332.212 208.137 330.481 206.115 328.423 206.563L326.811 206.914C325.819 207.13 325.031 207.88 324.766 208.86C324.205 210.932 326.155 212.806 328.203 212.163Z" fill="#333333"/>
<path fill-rule="evenodd" clip-rule="evenodd" d="M323.811 208.601C323.046 211.428 325.705 213.984 328.499 213.107L330.073 212.613C331.127 212.282 331.974 211.489 332.373 210.459C333.419 207.759 331.041 204.98 328.212 205.597L326.6 205.948C325.248 206.242 324.172 207.265 323.811 208.601ZM327.906 211.219C326.604 211.627 325.364 210.436 325.721 209.118C325.889 208.496 326.391 208.019 327.021 207.881L328.633 207.53C329.921 207.25 331.004 208.515 330.528 209.744C330.346 210.213 329.961 210.574 329.481 210.725L327.906 211.219Z" fill="#333333"/>
<rect x="406.79" y="177.227" width="600" height="12" transform="rotate(-35 406.79 177.227)" fill="url(#paint10_linear_21146_1184)"/>
<path d="M601.833 373.083C601.065 374.299 600.167 375.31 599.137 376.096C597.882 377.05 596.572 377.518 595.224 377.518C593.351 377.518 592.209 376.807 591.816 375.422L591.011 375.291L590.337 378.865C591.516 379.502 592.677 379.838 593.819 379.838C597.264 379.838 600.466 377.593 603.443 373.102H601.833V373.083Z" fill="#243D51"/>
<path d="M611.438 369.116C612.712 369.845 613.648 370.313 614.303 370.538C615.277 370.912 616.438 371.081 617.748 371.081C620.07 371.081 621.868 370.482 623.122 369.322C624.246 368.255 624.807 366.833 624.807 365.074C624.807 363.539 623.965 361.911 622.28 360.208C620.8 358.749 619.864 357.775 619.508 357.308C618.778 356.409 618.422 355.549 618.422 354.744C618.422 354.033 618.685 353.434 619.228 352.891C619.789 352.367 620.576 352.087 621.587 352.087C622.261 352.087 622.972 352.293 623.74 352.723C624.526 353.116 625.051 353.602 625.294 354.201C625.444 354.538 625.5 354.987 625.5 355.511L626.586 355.848L627.841 351.862C626.08 350.908 624.227 350.421 622.28 350.421C620.295 350.421 618.685 351.001 617.449 352.199C616.213 353.34 615.595 354.725 615.595 356.353C615.595 357.813 616.288 359.291 617.692 360.77L620.332 363.633C621.418 364.83 621.98 365.897 621.98 366.833C621.98 367.506 621.718 368.086 621.212 368.554C620.594 369.172 619.658 369.471 618.404 369.471C617.374 369.471 616.382 369.191 615.464 368.629C614.341 367.993 613.779 367.151 613.779 366.14C613.779 365.972 613.798 365.691 613.873 365.261L612.655 364.961L611.438 369.116Z" fill="#243D51"/>
<path d="M575.021 369.116C576.275 369.845 577.23 370.313 577.885 370.538C578.896 370.912 580.038 371.081 581.33 371.081C583.69 371.081 585.487 370.482 586.723 369.322C587.865 368.255 588.446 366.833 588.446 365.074C588.446 363.539 587.584 361.911 585.88 360.208C584.401 358.749 583.465 357.775 583.109 357.308C582.416 356.409 582.061 355.549 582.061 354.744C582.061 354.033 582.323 353.434 582.866 352.891C583.428 352.367 584.195 352.087 585.169 352.087C585.843 352.087 586.554 352.293 587.322 352.723C588.108 353.116 588.633 353.602 588.876 354.201C589.007 354.538 589.082 354.987 589.082 355.511L590.168 355.848L591.423 351.862C589.663 350.908 587.809 350.421 585.862 350.421C583.877 350.421 582.267 351.001 581.031 352.199C579.795 353.34 579.177 354.725 579.177 356.353C579.177 357.813 579.87 359.291 581.274 360.77L583.914 363.633C585 364.83 585.562 365.897 585.562 366.833C585.562 367.506 585.3 368.086 584.794 368.554C584.176 369.172 583.259 369.471 582.023 369.471C580.956 369.471 579.964 369.191 579.046 368.629C577.923 367.993 577.361 367.151 577.361 366.14C577.361 365.972 577.398 365.691 577.492 365.261L576.238 364.961L575.021 369.116Z" fill="#243D51"/>
<path d="M573.223 365.036C571.912 366.964 570.901 367.937 570.19 367.937C569.534 367.937 569.216 367.6 569.216 366.889C569.216 366.44 569.31 365.729 569.516 364.756L572.549 350.421C572.006 350.496 571.482 350.552 570.957 350.552C570.733 350.552 570.227 350.552 569.441 350.515C568.692 350.459 568.13 350.44 567.756 350.44C564.554 350.44 561.67 351.45 559.087 353.453C556.933 355.137 555.192 357.326 553.881 360.002C552.702 362.36 552.121 364.437 552.121 366.271C552.121 367.562 552.421 368.648 553.001 369.509C553.694 370.575 554.705 371.118 556.035 371.118C558.132 371.118 560.341 369.808 562.644 367.207C564.236 365.392 565.696 363.165 567.025 360.564L567.1 360.639L566.389 363.614C565.939 365.616 565.715 367.263 565.715 368.573C565.715 370.257 566.408 371.099 567.774 371.099C569.647 371.099 571.856 369.209 574.384 365.467L573.223 365.036ZM555.641 366.009C555.641 364.699 555.978 363.109 556.652 361.256C557.27 359.609 558.019 358.094 558.881 356.746C560.079 354.894 561.39 353.621 562.794 352.929C563.936 352.367 565.396 352.087 567.175 352.087C567.681 352.087 568.186 352.143 568.729 352.255C568.561 355.081 567.082 358.58 564.311 362.772C561.539 366.908 559.255 368.985 557.458 368.985C556.241 368.985 555.641 367.993 555.641 366.009Z" fill="#243D51"/>
<path d="M518.456 355.586C518.456 360.264 519.991 364.138 523.043 367.188C526.095 370.201 529.877 371.736 534.352 371.736C540.082 371.736 544.576 369.845 547.852 366.065C550.605 362.903 551.972 359.273 551.972 355.174C551.972 350.515 550.436 346.716 547.384 343.741C544.351 340.747 540.4 339.249 535.532 339.249C530.495 339.249 526.301 341.027 523.006 344.583C519.972 347.783 518.456 351.469 518.456 355.586ZM522.706 355.792C522.706 351.638 524.017 348.157 526.619 345.331C529.222 342.506 532.349 341.083 536 341.083C539.258 341.083 541.992 342.281 544.201 344.658C546.56 347.184 547.74 350.459 547.74 354.538C547.74 358.898 546.485 362.529 543.995 365.467C541.524 368.405 538.397 369.883 534.614 369.883C530.795 369.883 527.799 368.386 525.608 365.373C523.68 362.716 522.706 359.516 522.706 355.792Z" fill="#243D51"/>
<path d="M603.443 373.083C603.687 372.709 603.93 372.334 604.174 371.923L607.75 366.009C612.019 358.898 614.135 354.445 614.135 352.686C614.135 351.17 613.592 350.421 612.487 350.421C611.794 350.421 611.008 350.702 610.128 351.263C609.791 351.45 609.023 352.049 607.806 353.022L608.18 353.958C608.78 353.471 609.323 353.247 609.866 353.247C610.558 353.247 610.914 353.659 610.914 354.501C610.914 355.698 609.997 358.037 608.18 361.518L604.398 368.741H604.305C604.061 367.207 603.668 365.279 603.125 362.978C602.451 360.04 602.095 358.487 602.076 358.356C601.402 355.156 600.653 352.947 599.848 351.712C599.268 350.852 598.538 350.421 597.658 350.421C596.291 350.421 594.456 351.862 592.153 354.707L591.441 355.586L592.49 356.391C593.688 354.519 594.812 353.584 595.804 353.584C596.946 353.584 597.845 354.95 598.5 357.663L602.02 372.709C601.945 372.84 601.871 372.971 601.777 373.12H603.443V373.083Z" fill="#243D51"/>
</g>
<defs>
<linearGradient id="paint0_linear_21146_1184" x1="-114" y1="325.64" x2="586" y2="325.64" gradientUnits="userSpaceOnUse">
<stop offset="0.0616663" stop-color="#FED77F"/>
</linearGradient>
<linearGradient id="paint1_linear_21146_1184" x1="-57" y1="315.536" x2="543" y2="315.536" gradientUnits="userSpaceOnUse">
<stop offset="0.0616663" stop-color="#FED77F"/>
</linearGradient>
<linearGradient id="paint2_linear_21146_1184" x1="-57" y1="453.142" x2="843" y2="453.142" gradientUnits="userSpaceOnUse">
<stop offset="0.0616663" stop-color="#FED77F"/>
</linearGradient>
<linearGradient id="paint3_linear_21146_1184" x1="15" y1="462.206" x2="915" y2="462.206" gradientUnits="userSpaceOnUse">
<stop offset="0.0616663" stop-color="#FED77F"/>
</linearGradient>
<linearGradient id="paint4_linear_21146_1184" x1="231.501" y1="499.977" x2="1131.5" y2="499.977" gradientUnits="userSpaceOnUse">
<stop offset="0.0616663" stop-color="#FED77F"/>
</linearGradient>
<linearGradient id="paint5_linear_21146_1184" x1="0" y1="261.432" x2="256.228" y2="261.432" gradientUnits="userSpaceOnUse">
<stop stop-color="#4DAA9C"/>
<stop offset="0.796666" stop-color="#56AD9D"/>
</linearGradient>
<linearGradient id="paint6_linear_21146_1184" x1="-195" y1="270.415" x2="505" y2="270.415" gradientUnits="userSpaceOnUse">
<stop offset="0.0616663" stop-color="#FED77F"/>
</linearGradient>
<linearGradient id="paint7_linear_21146_1184" x1="141.594" y1="457.856" x2="841.594" y2="457.856" gradientUnits="userSpaceOnUse">
<stop offset="0.0616663" stop-color="#FED77F"/>
</linearGradient>
<linearGradient id="paint8_linear_21146_1184" x1="-171" y1="313.556" x2="529" y2="313.556" gradientUnits="userSpaceOnUse">
<stop offset="0.0616663" stop-color="#FED77F"/>
</linearGradient>
<linearGradient id="paint9_linear_21146_1184" x1="-306" y1="257.289" x2="394" y2="257.289" gradientUnits="userSpaceOnUse">
<stop offset="0.0616663" stop-color="#FED77F"/>
</linearGradient>
<linearGradient id="paint10_linear_21146_1184" x1="406.79" y1="183.227" x2="1006.79" y2="183.227" gradientUnits="userSpaceOnUse">
<stop stop-color="#4DAA9C"/>
<stop offset="0.181666" stop-color="#FDB515"/>
</linearGradient>
<clipPath id="clip0_21146_1184">
<rect width="660" height="398" fill="white" transform="translate(0 0.911377)"/>
</clipPath>
</defs>
</svg>
