<svg width="660" height="398" viewBox="0 0 660 398" fill="none" xmlns="http://www.w3.org/2000/svg">
<g clip-path="url(#clip0_11686_2368)">
<rect width="660" height="398" fill="#FDF8D3"/>
<circle cx="329.915" cy="242.687" r="329.915" fill="#F8E97B"/>
<circle cx="329.915" cy="242.686" r="271.002" fill="#FAF0A7"/>
<circle cx="329.915" cy="242.687" r="200.306" fill="#FDF8D3"/>
<circle cx="329.915" cy="242.687" r="129.61" fill="#FEFBE7"/>
<g filter="url(#filter0_d_11686_2368)">
<path d="M360.819 44.5C360.819 60.7108 347.898 73.8187 332 73.8187C316.102 73.8187 303.181 60.7108 303.181 44.5C303.181 28.2892 316.102 15.1812 332 15.1812C347.898 15.1812 360.819 28.2892 360.819 44.5Z" fill="#FEC955" stroke="#4DAA9C" stroke-width="2.3625"/>
<path d="M326.422 59.8439C326.422 61.6547 324.978 63.1227 323.197 63.1227C321.416 63.1227 319.972 61.6547 319.972 59.8439C319.972 58.0331 321.416 56.5652 323.197 56.5652C324.978 56.5652 326.422 58.0331 326.422 59.8439Z" fill="#FD9850"/>
<path fill-rule="evenodd" clip-rule="evenodd" d="M323.197 61.8932C324.31 61.8932 325.212 60.9757 325.212 59.8439C325.212 58.7122 324.31 57.7947 323.197 57.7947C322.084 57.7947 321.181 58.7122 321.181 59.8439C321.181 60.9757 322.084 61.8932 323.197 61.8932ZM323.197 63.1227C324.978 63.1227 326.422 61.6547 326.422 59.8439C326.422 58.0331 324.978 56.5652 323.197 56.5652C321.416 56.5652 319.972 58.0331 319.972 59.8439C319.972 61.6547 321.416 63.1227 323.197 63.1227Z" fill="#8A3E08"/>
<path d="M336.903 60.8683C336.903 62.6792 335.459 64.1471 333.678 64.1471C331.897 64.1471 330.453 62.6792 330.453 60.8683C330.453 59.0575 331.897 57.5896 333.678 57.5896C335.459 57.5896 336.903 59.0575 336.903 60.8683Z" fill="#A2C8F4"/>
<path fill-rule="evenodd" clip-rule="evenodd" d="M333.678 62.9176C334.791 62.9176 335.694 62.0001 335.694 60.8683C335.694 59.7366 334.791 58.8191 333.678 58.8191C332.565 58.8191 331.662 59.7366 331.662 60.8683C331.662 62.0001 332.565 62.9176 333.678 62.9176ZM333.678 64.1471C335.459 64.1471 336.903 62.6792 336.903 60.8683C336.903 59.0575 335.459 57.5896 333.678 57.5896C331.897 57.5896 330.453 59.0575 330.453 60.8683C330.453 62.6792 331.897 64.1471 333.678 64.1471Z" fill="#8A3E08"/>
<path d="M349.4 58.2043C349.4 60.0151 347.956 61.483 346.175 61.483C344.394 61.483 342.95 60.0151 342.95 58.2043C342.95 56.3935 344.394 54.9255 346.175 54.9255C347.956 54.9255 349.4 56.3935 349.4 58.2043Z" fill="#FEC955"/>
<path fill-rule="evenodd" clip-rule="evenodd" d="M346.175 60.2535C347.288 60.2535 348.191 59.336 348.191 58.2043C348.191 57.0725 347.288 56.1551 346.175 56.1551C345.062 56.1551 344.159 57.0725 344.159 58.2043C344.159 59.336 345.062 60.2535 346.175 60.2535ZM346.175 61.483C347.956 61.483 349.4 60.0151 349.4 58.2043C349.4 56.3935 347.956 54.9255 346.175 54.9255C344.394 54.9255 342.95 56.3935 342.95 58.2043C342.95 60.0151 344.394 61.483 346.175 61.483Z" fill="#8A3E08"/>
<path fill-rule="evenodd" clip-rule="evenodd" d="M343.353 59.024H339.12V50.2124H340.33V57.7945H343.353V59.024Z" fill="#8A3E08"/>
<path fill-rule="evenodd" clip-rule="evenodd" d="M334.484 55.1304V58.2043H333.275V56.36H331.461V47.5483H332.67V55.1304H334.484Z" fill="#8A3E08"/>
<path fill-rule="evenodd" clip-rule="evenodd" d="M322.592 54.5157V57.5895H323.802V55.7452H327.228V46.9336H326.019V54.5157H322.592Z" fill="#8A3E08"/>
<path d="M342.839 37.9744C341.88 33.0255 337.605 29.3103 332.469 29.3103C328.391 29.3103 324.85 31.6628 323.086 35.1055C318.839 35.5645 315.538 39.2224 315.538 43.6548C315.538 48.4029 319.333 52.2616 324.003 52.2616H342.345C346.24 52.2616 349.4 49.0484 349.4 45.0893C349.4 41.3023 346.508 38.2326 342.839 37.9744Z" fill="#FFF2D4"/>
<path fill-rule="evenodd" clip-rule="evenodd" d="M341.496 39.5232L341.257 38.2914C340.444 34.0956 336.819 30.9497 332.469 30.9497C329.017 30.9497 326.014 32.9399 324.516 35.8628L324.117 36.6427L323.257 36.7357C319.823 37.1068 317.15 40.0677 317.15 43.6548C317.15 47.4975 320.224 50.6222 324.003 50.6222H342.345C345.349 50.6222 347.788 48.143 347.788 45.0893C347.788 42.1804 345.567 39.8097 342.728 39.6099L341.496 39.5232ZM332.469 29.3103C337.605 29.3103 341.88 33.0255 342.839 37.9744C346.508 38.2326 349.4 41.3023 349.4 45.0893C349.4 49.0484 346.24 52.2616 342.345 52.2616H324.003C319.333 52.2616 315.538 48.4029 315.538 43.6548C315.538 39.2224 318.839 35.5645 323.086 35.1055C324.85 31.6628 328.391 29.3103 332.469 29.3103Z" fill="#8A3E08"/>
</g>
<g filter="url(#filter1_d_11686_2368)">
<circle cx="424" cy="73" r="28.8188" fill="#FEE4AA" stroke="#4DAA9C" stroke-width="2.3625"/>
<ellipse cx="437.4" cy="62.8" rx="3.8" ry="3.8" fill="#FEC955"/>
<ellipse cx="424.8" cy="73.3998" rx="7.6" ry="7.6" fill="#FFF2D4"/>
<circle cx="412.6" cy="61.6" r="3.8" fill="#FD9850"/>
<ellipse cx="427" cy="88.3999" rx="3" ry="3" fill="#A2C8F4"/>
<circle cx="425.27" cy="59.8418" r="2.60996" fill="#8A3E08" stroke="#8A3E08" stroke-width="0.590625"/>
<path d="M415.594 86.5397C415.653 88.771 413.945 90.6113 411.797 90.6677C409.65 90.7241 407.848 88.976 407.789 86.7446C407.73 84.5133 409.439 82.673 411.586 82.6166C413.733 82.5602 415.536 84.3084 415.594 86.5397Z" fill="#8A3E08" stroke="#8A3E08" stroke-width="0.590625"/>
<path d="M412.463 83.653L418.674 78.4109L419.655 79.5888L413.445 84.8309L412.463 83.653Z" fill="#8A3E08"/>
<path fill-rule="evenodd" clip-rule="evenodd" d="M427.185 90.8573C428.521 90.8243 429.543 89.7407 429.512 88.4789C429.48 87.217 428.407 86.1853 427.071 86.2183C425.735 86.2513 424.713 87.3349 424.744 88.5967C424.776 89.8585 425.85 90.8903 427.185 90.8573ZM427.213 91.9616C429.139 91.914 430.663 90.3425 430.616 88.4516C430.569 86.5607 428.97 85.0664 427.043 85.114C425.117 85.1616 423.593 86.7331 423.64 88.624C423.687 90.5149 425.286 92.0092 427.213 91.9616Z" fill="#8A3E08"/>
<circle cx="437.6" cy="82.5998" r="2.50469" fill="#8A3E08" stroke="#8A3E08" stroke-width="0.590625"/>
<path fill-rule="evenodd" clip-rule="evenodd" d="M437.091 66.277C438.914 66.4081 440.497 65.0368 440.628 63.2141C440.76 61.3914 439.388 59.8076 437.566 59.6765C435.743 59.5454 434.159 60.9167 434.028 62.7394C433.897 64.5621 435.268 66.146 437.091 66.277ZM436.981 67.8064C439.648 67.9982 441.966 65.9914 442.158 63.3241C442.35 60.6567 440.343 58.3389 437.676 58.1471C435.008 57.9553 432.69 59.9621 432.499 62.6295C432.307 65.2968 434.314 67.6146 436.981 67.8064Z" fill="#8A3E08"/>
<path fill-rule="evenodd" clip-rule="evenodd" d="M415.076 58.9996C413.819 57.7867 411.754 57.8135 410.465 59.1495C409.177 60.4854 409.224 62.55 410.482 63.7628C411.739 64.9756 413.804 64.9488 415.093 63.6129C416.381 62.2769 416.334 60.2124 415.076 58.9996ZM416.141 57.896C414.254 56.0755 411.219 56.1601 409.362 58.0849C407.505 60.0097 407.53 63.0459 409.417 64.8664C411.304 66.6868 414.339 66.6022 416.196 64.6774C418.053 62.7526 418.028 59.7165 416.141 57.896Z" fill="#8A3E08"/>
<path fill-rule="evenodd" clip-rule="evenodd" d="M437.25 83.3093L431.138 78.7261L432.045 77.4891L438.156 82.0723L437.25 83.3093Z" fill="#8A3E08"/>
<path fill-rule="evenodd" clip-rule="evenodd" d="M433.708 65.0875L429.664 67.7878L430.687 68.8639L434.731 66.1636L433.708 65.0875Z" fill="#8A3E08"/>
<path fill-rule="evenodd" clip-rule="evenodd" d="M414.467 65.2029L419.111 69.0664L420.067 68.1299L415.422 64.2664L414.467 65.2029Z" fill="#8A3E08"/>
<path fill-rule="evenodd" clip-rule="evenodd" d="M426.037 58.979V65.9895H424.503V58.979H426.037Z" fill="#8A3E08"/>
<path d="M425.8 81.2674L426.945 85.5158L425.4 85.9322L424.255 81.6838L425.8 81.2674Z" fill="#8A3E08"/>
<path fill-rule="evenodd" clip-rule="evenodd" d="M421.912 72.3041C421.292 72.2719 420.8 71.7595 420.8 71.1321C420.8 70.5457 421.23 70.0597 421.792 69.9725C421.848 69.2051 422.489 68.5999 423.271 68.5999C423.882 68.5999 424.406 68.9695 424.633 69.4973C424.731 69.4758 424.834 69.4644 424.938 69.4644C425.723 69.4644 426.359 70.1005 426.359 70.885C426.359 71.6489 425.756 72.272 425 72.3043V72.3057H421.979L421.974 72.3057L421.968 72.3057H421.912V72.3041ZM420.8 74.4056V73.4792C420.899 73.2321 422.406 73.2115 423.147 73.2321C425.42 73.3803 427.635 72.4703 428.459 71.9968H429.138V73.5409C428.104 74.5283 427.32 74.263 426.296 73.9165C425.975 73.8079 425.631 73.6912 425.247 73.6027C423.962 73.3062 421.747 73.9939 420.8 74.4056ZM420.8 75.8264V74.7764C420.857 74.755 420.94 74.7189 421.046 74.673C421.857 74.3208 423.993 73.3937 425.741 74.1587C427.322 74.8505 428.706 74.4469 429.2 74.1587V75.6411C428.335 76.3205 426.05 76.444 424.259 75.9499C422.826 75.5546 421.356 75.7028 420.8 75.8264ZM420.8 76.135V77.6174C421.706 78.1115 423.987 78.9268 425.865 78.235C427.742 77.5433 428.871 77.6586 429.2 77.8027V76.0115C428.397 76.3409 426.445 76.9009 425.062 76.5056C423.332 76.0115 422.653 75.888 420.8 76.135Z" fill="#8A3E08"/>
<path fill-rule="evenodd" clip-rule="evenodd" d="M433.2 73.5999C433.2 78.1286 429.529 81.7999 425 81.7999C420.471 81.7999 416.8 78.1286 416.8 73.5999C416.8 69.0712 420.471 65.3999 425 65.3999C429.529 65.3999 433.2 69.0712 433.2 73.5999ZM425 80.5999C428.866 80.5999 432 77.4659 432 73.5999C432 69.7339 428.866 66.5999 425 66.5999C421.134 66.5999 418 69.7339 418 73.5999C418 77.4659 421.134 80.5999 425 80.5999Z" fill="#8A3E08"/>
</g>
<g filter="url(#filter2_d_11686_2368)">
<circle cx="189.5" cy="147.5" r="29.3188" fill="#FEC955" stroke="#4DAA9C" stroke-width="2.3625"/>
<path d="M174.65 134.015C174.65 133.037 175.444 132.243 176.422 132.243H201.168C203.125 132.243 204.712 133.83 204.712 135.787V161.124C204.712 161.776 204.183 162.305 203.531 162.305H178.194C176.237 162.305 174.65 160.718 174.65 158.761V134.015Z" fill="#FFF2D4"/>
<path fill-rule="evenodd" clip-rule="evenodd" d="M175.797 133.813C175.797 133.254 175.345 132.802 174.786 132.802C174.228 132.802 173.775 133.254 173.775 133.813V162.607C173.775 163.165 174.228 163.618 174.786 163.618H175.797H203.791C204.35 163.618 204.802 163.165 204.802 162.607C204.802 162.048 204.35 161.596 203.791 161.596H176.808C175.556 161.596 175.797 161.762 175.797 160.585V133.813Z" fill="#8A3E08"/>
<ellipse cx="184.268" cy="145.314" rx="1.69554" ry="1.86509" fill="#A2C8F4"/>
<path fill-rule="evenodd" clip-rule="evenodd" d="M184.14 146.964C184.969 147.024 185.689 146.4 185.749 145.572C185.809 144.743 185.185 144.022 184.356 143.963C183.527 143.903 182.807 144.527 182.747 145.356C182.688 146.185 183.311 146.905 184.14 146.964ZM184.09 147.66C185.303 147.747 186.357 146.835 186.445 145.622C186.532 144.409 185.619 143.355 184.406 143.267C183.193 143.18 182.139 144.093 182.052 145.306C181.965 146.519 182.877 147.573 184.09 147.66Z" fill="#8A3E08"/>
<ellipse cx="194.027" cy="154.156" rx="2.35422" ry="2.35422" fill="#A2C8F4"/>
<path fill-rule="evenodd" clip-rule="evenodd" d="M193.886 156.119C194.97 156.197 195.912 155.381 195.99 154.297C196.068 153.213 195.252 152.271 194.168 152.193C193.085 152.115 192.143 152.931 192.065 154.015C191.987 155.099 192.802 156.041 193.886 156.119ZM193.821 157.028C195.407 157.142 196.785 155.949 196.899 154.363C197.013 152.776 195.82 151.398 194.234 151.284C192.648 151.17 191.269 152.363 191.155 153.949C191.041 155.536 192.235 156.914 193.821 157.028Z" fill="#8A3E08"/>
<ellipse cx="181.351" cy="154.648" rx="2.19899" ry="2.06964" fill="#FD9850"/>
<path fill-rule="evenodd" clip-rule="evenodd" d="M181.226 156.25C182.183 156.319 183.014 155.599 183.082 154.643C183.151 153.686 182.432 152.855 181.475 152.786C180.519 152.718 179.688 153.437 179.619 154.394C179.55 155.35 180.27 156.181 181.226 156.25ZM181.169 157.052C182.568 157.153 183.784 156.1 183.885 154.7C183.986 153.301 182.933 152.085 181.533 151.984C180.133 151.883 178.917 152.936 178.817 154.336C178.716 155.736 179.769 156.952 181.169 157.052Z" fill="#8A3E08"/>
<ellipse cx="190.768" cy="140.393" rx="1.99203" ry="1.99203" fill="#FEC955"/>
<path fill-rule="evenodd" clip-rule="evenodd" d="M190.643 142.125C191.6 142.193 192.431 141.474 192.499 140.517C192.568 139.561 191.849 138.73 190.892 138.661C189.936 138.592 189.105 139.312 189.036 140.268C188.967 141.225 189.687 142.056 190.643 142.125ZM190.585 142.927C191.985 143.028 193.201 141.975 193.302 140.575C193.403 139.176 192.35 137.959 190.95 137.859C189.55 137.758 188.334 138.811 188.234 140.211C188.133 141.61 189.186 142.826 190.585 142.927Z" fill="#8A3E08"/>
<path d="M203.221 137.643L202.477 136.347C202.432 136.258 202.328 136.228 202.254 136.258L201.33 136.63C201.137 136.481 200.928 136.362 200.705 136.273L200.571 135.29C200.541 135.201 200.452 135.141 200.363 135.141H198.874C198.784 135.141 198.71 135.201 198.695 135.305L198.561 136.288C198.338 136.377 198.129 136.511 197.936 136.645L197.012 136.273C196.923 136.243 196.834 136.273 196.789 136.362L196.045 137.658C196 137.747 196.015 137.836 196.089 137.896L196.878 138.506C196.863 138.625 196.849 138.744 196.849 138.864C196.849 138.983 196.863 139.117 196.878 139.221L196.089 139.831C196.015 139.891 196 139.995 196.045 140.07L196.789 141.365C196.834 141.454 196.938 141.484 197.012 141.454L197.936 141.082C198.129 141.231 198.338 141.35 198.561 141.44L198.695 142.422C198.71 142.527 198.784 142.586 198.874 142.586H200.363C200.452 142.586 200.541 142.527 200.541 142.422L200.675 141.44C200.899 141.35 201.107 141.216 201.301 141.082L202.224 141.454C202.313 141.484 202.403 141.454 202.447 141.365L203.192 140.07C203.236 139.98 203.221 139.891 203.147 139.831L202.373 139.221C202.388 139.102 202.403 138.983 202.403 138.864C202.403 138.744 202.388 138.61 202.373 138.506L203.162 137.896C203.236 137.836 203.251 137.732 203.221 137.643ZM199.618 140.099C198.933 140.099 198.382 139.534 198.382 138.864C198.382 138.179 198.948 137.628 199.618 137.628C200.288 137.628 200.854 138.194 200.854 138.864C200.854 139.549 200.303 140.099 199.618 140.099Z" fill="#FEC955"/>
<path fill-rule="evenodd" clip-rule="evenodd" d="M198.336 135.254C198.376 134.976 198.599 134.779 198.874 134.779H200.363C200.6 134.779 200.833 134.93 200.915 135.175L200.925 135.207L201.037 136.024C201.155 136.081 201.269 136.147 201.379 136.22L202.118 135.922L202.119 135.921C202.356 135.827 202.659 135.916 202.795 136.173L203.554 137.494L203.565 137.528C203.627 137.713 203.616 137.996 203.388 138.178L203.386 138.18L202.756 138.668C202.761 138.732 202.765 138.798 202.765 138.863C202.765 138.931 202.761 138.998 202.755 139.061L203.373 139.548C203.473 139.628 203.546 139.741 203.57 139.874C203.594 140.005 203.567 140.129 203.516 140.232L203.511 140.241L202.765 141.539C202.705 141.653 202.607 141.745 202.481 141.793C202.354 141.841 202.223 141.836 202.109 141.798L202.099 141.794L201.344 141.49C201.239 141.558 201.127 141.626 201.007 141.686L200.903 142.452C200.886 142.794 200.581 142.948 200.363 142.948H198.874C198.599 142.948 198.376 142.751 198.336 142.473L198.336 142.471L198.229 141.688C198.111 141.631 197.997 141.565 197.887 141.492L197.148 141.79L197.147 141.791C196.91 141.885 196.607 141.796 196.471 141.539L195.732 140.252C195.598 140.026 195.645 139.723 195.863 139.549L195.865 139.547L196.495 139.059C196.49 138.995 196.486 138.928 196.486 138.863C196.486 138.797 196.49 138.731 196.496 138.668L195.865 138.18L195.863 138.178C195.763 138.099 195.69 137.986 195.666 137.852C195.642 137.722 195.67 137.598 195.721 137.495L195.725 137.486L196.471 136.188C196.532 136.074 196.629 135.982 196.755 135.934C196.882 135.886 197.013 135.891 197.127 135.929L197.137 135.933L197.893 136.237C197.997 136.169 198.11 136.101 198.229 136.041L198.336 135.254ZM199.033 135.503L198.891 136.545L198.695 136.624C198.512 136.697 198.331 136.811 198.142 136.943L197.981 137.054L197.03 136.67L196.435 137.705L197.263 138.346L197.238 138.551C197.222 138.674 197.211 138.771 197.211 138.863C197.211 138.957 197.223 139.072 197.237 139.17L197.267 139.378L196.435 140.022L197.03 141.057L197.992 140.669L198.156 140.795C198.324 140.924 198.503 141.026 198.695 141.103L198.891 141.181L199.033 142.224H200.203L200.345 141.181L200.541 141.103C200.724 141.03 200.905 140.916 201.094 140.784L201.255 140.673L202.207 141.057L202.802 140.021L201.988 139.379L202.013 139.176C202.029 139.053 202.04 138.956 202.04 138.863C202.04 138.77 202.028 138.655 202.014 138.557L201.984 138.349L202.832 137.693L202.236 136.655L201.274 137.043L201.11 136.917C200.942 136.788 200.763 136.686 200.571 136.609L200.375 136.531L200.235 135.503H199.033ZM199.618 137.99C199.145 137.99 198.744 138.381 198.744 138.863C198.744 139.336 199.136 139.737 199.618 139.737C200.103 139.737 200.492 139.348 200.492 138.863C200.492 138.393 200.088 137.99 199.618 137.99ZM198.02 138.863C198.02 137.976 198.751 137.265 199.618 137.265C200.488 137.265 201.216 137.993 201.216 138.863C201.216 139.748 200.503 140.462 199.618 140.462C198.73 140.462 198.02 139.731 198.02 138.863Z" fill="#8A3E08"/>
</g>
<g filter="url(#filter3_d_11686_2368)">
<circle cx="474.5" cy="147.5" r="29.3188" fill="#FEC955" stroke="#4DAA9C" stroke-width="2.3625"/>
<path fill-rule="evenodd" clip-rule="evenodd" d="M463.365 142.356L459.362 138.354L463.365 134.352L466.674 137.661H481.18C482.941 137.661 484.368 139.088 484.368 140.849V145.595C484.368 147.356 482.941 148.784 481.18 148.784H468.286C467.291 148.784 466.484 149.591 466.484 150.586V155.188C466.484 156.184 467.291 156.991 468.286 156.991H482.123C482.447 155.28 483.95 153.987 485.755 153.987C487.797 153.987 489.452 155.642 489.452 157.684C489.452 159.726 487.797 161.381 485.755 161.381C483.95 161.381 482.447 160.087 482.123 158.377H468.286C466.525 158.377 465.098 156.949 465.098 155.188V150.586C465.098 148.825 466.525 147.398 468.286 147.398H481.18C482.175 147.398 482.982 146.591 482.982 145.595V140.849C482.982 139.854 482.175 139.047 481.18 139.047H466.674L463.365 142.356Z" fill="#8A3E08"/>
<path d="M468.564 156.63C468.564 155.604 469.395 154.772 470.421 154.772H478.49C479.516 154.772 480.348 155.604 480.348 156.63V158.461C480.348 159.486 479.516 160.318 478.49 160.318H470.421C469.395 160.318 468.564 159.486 468.564 158.461V156.63Z" fill="#FD9850"/>
<path fill-rule="evenodd" clip-rule="evenodd" d="M478.49 155.887H470.421C470.011 155.887 469.678 156.22 469.678 156.63V158.461C469.678 158.871 470.011 159.204 470.421 159.204H478.49C478.901 159.204 479.233 158.871 479.233 158.461V156.63C479.233 156.22 478.901 155.887 478.49 155.887ZM470.421 154.772C469.395 154.772 468.564 155.604 468.564 156.63V158.461C468.564 159.486 469.395 160.318 470.421 160.318H478.49C479.516 160.318 480.348 159.486 480.348 158.461V156.63C480.348 155.604 479.516 154.772 478.49 154.772H470.421Z" fill="#8A3E08"/>
<path d="M468.564 147.134C468.564 146.108 469.395 145.277 470.421 145.277H478.49C479.516 145.277 480.348 146.108 480.348 147.134V148.965C480.348 149.991 479.516 150.822 478.49 150.822H470.421C469.395 150.822 468.564 149.991 468.564 148.965V147.134Z" fill="#A2C8F4"/>
<path fill-rule="evenodd" clip-rule="evenodd" d="M478.49 146.391H470.421C470.011 146.391 469.678 146.724 469.678 147.134V148.965C469.678 149.375 470.011 149.708 470.421 149.708H478.49C478.901 149.708 479.233 149.375 479.233 148.965V147.134C479.233 146.724 478.901 146.391 478.49 146.391ZM470.421 145.277C469.395 145.277 468.564 146.108 468.564 147.134V148.965C468.564 149.991 469.395 150.822 470.421 150.822H478.49C479.516 150.822 480.348 149.991 480.348 148.965V147.134C480.348 146.108 479.516 145.277 478.49 145.277H470.421Z" fill="#8A3E08"/>
<path d="M468.564 137.3C468.564 136.274 469.395 135.442 470.421 135.442H478.49C479.516 135.442 480.348 136.274 480.348 137.3V139.131C480.348 140.156 479.516 140.988 478.49 140.988H470.421C469.395 140.988 468.564 140.156 468.564 139.131V137.3Z" fill="#FEC955"/>
<path fill-rule="evenodd" clip-rule="evenodd" d="M478.49 136.557H470.421C470.011 136.557 469.678 136.889 469.678 137.3V139.131C469.678 139.541 470.011 139.874 470.421 139.874H478.49C478.901 139.874 479.233 139.541 479.233 139.131V137.3C479.233 136.889 478.901 136.557 478.49 136.557ZM470.421 135.442C469.395 135.442 468.564 136.274 468.564 137.3V139.131C468.564 140.156 469.395 140.988 470.421 140.988H478.49C479.516 140.988 480.348 140.156 480.348 139.131V137.3C480.348 136.274 479.516 135.442 478.49 135.442H470.421Z" fill="#8A3E08"/>
<rect x="460.34" y="138.334" width="4.29781" height="4.29781" transform="rotate(-45 460.34 138.334)" fill="#FFF2D4"/>
<g clip-path="url(#clip1_11686_2368)">
<path d="M463.053 139.74L462.997 139.297C462.967 139.285 462.939 139.271 462.912 139.255C462.886 139.239 462.86 139.222 462.834 139.203L462.422 139.376L462.041 138.718L462.398 138.448C462.395 138.431 462.394 138.416 462.394 138.401V138.307C462.394 138.292 462.395 138.277 462.398 138.26L462.041 137.99L462.422 137.331L462.834 137.505C462.86 137.486 462.886 137.469 462.914 137.453C462.942 137.437 462.97 137.423 462.997 137.411L463.053 136.968H463.815L463.871 137.411C463.901 137.423 463.929 137.437 463.956 137.453C463.982 137.469 464.008 137.486 464.034 137.505L464.446 137.331L464.827 137.99L464.47 138.26C464.473 138.277 464.474 138.292 464.474 138.307V138.401C464.474 138.416 464.471 138.431 464.467 138.448L464.824 138.718L464.443 139.376L464.034 139.203C464.008 139.222 463.982 139.239 463.954 139.255C463.926 139.271 463.898 139.285 463.871 139.297L463.815 139.74H463.053ZM463.441 138.839C463.575 138.839 463.689 138.792 463.784 138.697C463.879 138.602 463.926 138.488 463.926 138.354C463.926 138.22 463.879 138.106 463.784 138.011C463.689 137.916 463.575 137.869 463.441 137.869C463.305 137.869 463.19 137.916 463.096 138.011C463.002 138.106 462.956 138.22 462.956 138.354C462.956 138.488 463.002 138.602 463.096 138.697C463.19 138.792 463.305 138.839 463.441 138.839Z" fill="#8A3E08"/>
</g>
<circle cx="485.755" cy="157.684" r="2.77278" fill="#FFF2D4"/>
<path fill-rule="evenodd" clip-rule="evenodd" d="M485.755 156.297C484.99 156.297 484.369 156.918 484.369 157.684C484.369 158.449 484.99 159.07 485.755 159.07C486.52 159.07 487.141 158.449 487.141 157.684C487.141 156.918 486.52 156.297 485.755 156.297ZM485.478 158.377L484.784 157.684L484.98 157.488L485.478 157.985L486.53 156.932L486.725 157.129L485.478 158.377Z" fill="#8A3E08"/>
<path d="M474.762 139.242H474.344V138.097L474.348 137.909L474.355 137.703C474.285 137.772 474.237 137.818 474.21 137.839L473.983 138.022L473.781 137.77L474.419 137.263H474.762V139.242Z" fill="#8A3E08"/>
<path d="M475.031 148.9H473.648V148.609L474.145 148.107C474.292 147.956 474.388 147.852 474.433 147.794C474.478 147.735 474.511 147.681 474.53 147.632C474.55 147.582 474.56 147.53 474.56 147.477C474.56 147.398 474.538 147.339 474.494 147.3C474.45 147.261 474.392 147.242 474.319 147.242C474.242 147.242 474.168 147.259 474.096 147.294C474.024 147.33 473.948 147.38 473.87 147.445L473.642 147.175C473.74 147.092 473.82 147.034 473.885 146.999C473.949 146.965 474.019 146.939 474.094 146.921C474.17 146.902 474.255 146.892 474.349 146.892C474.473 146.892 474.582 146.915 474.677 146.96C474.771 147.005 474.845 147.068 474.897 147.15C474.95 147.231 474.976 147.324 474.976 147.428C474.976 147.52 474.96 147.605 474.927 147.686C474.895 147.765 474.846 147.847 474.778 147.931C474.711 148.015 474.593 148.134 474.423 148.29L474.169 148.529V148.548H475.031V148.9Z" fill="#8A3E08"/>
<path d="M474.954 156.997C474.954 157.121 474.917 157.226 474.842 157.313C474.767 157.399 474.662 157.459 474.526 157.491V157.5C474.686 157.519 474.807 157.568 474.889 157.646C474.971 157.723 475.012 157.826 475.012 157.957C475.012 158.148 474.943 158.296 474.805 158.403C474.667 158.508 474.47 158.561 474.214 158.561C473.999 158.561 473.808 158.525 473.642 158.454V158.098C473.719 158.137 473.803 158.168 473.895 158.193C473.987 158.217 474.079 158.229 474.169 158.229C474.307 158.229 474.409 158.206 474.475 158.159C474.541 158.112 474.574 158.037 474.574 157.933C474.574 157.84 474.536 157.774 474.46 157.735C474.384 157.696 474.263 157.677 474.097 157.677H473.947V157.356H474.1C474.253 157.356 474.365 157.336 474.436 157.296C474.507 157.256 474.543 157.187 474.543 157.089C474.543 156.94 474.449 156.865 474.261 156.865C474.196 156.865 474.13 156.875 474.062 156.897C473.995 156.919 473.921 156.956 473.839 157.009L473.645 156.721C473.825 156.591 474.041 156.526 474.291 156.526C474.496 156.526 474.657 156.568 474.775 156.651C474.895 156.734 474.954 156.849 474.954 156.997Z" fill="#8A3E08"/>
</g>
<g filter="url(#filter4_d_11686_2368)">
<path d="M269.819 73C269.819 88.8978 256.711 101.819 240.5 101.819C224.289 101.819 211.181 88.8978 211.181 73C211.181 57.1022 224.289 44.1812 240.5 44.1812C256.711 44.1812 269.819 57.1022 269.819 73Z" fill="#FEE4AA" stroke="#4DAA9C" stroke-width="2.3625"/>
<rect x="227.103" y="65.7727" width="22.7316" height="21.7436" fill="#FFF2D4"/>
<path fill-rule="evenodd" clip-rule="evenodd" d="M226.973 64.5371C226.638 64.628 226.392 64.9319 226.392 65.2928C226.392 65.2952 226.392 65.2976 226.392 65.3V87.605C226.392 88.0377 226.746 88.3885 227.183 88.3885H227.974H249.874C249.875 88.3885 249.877 88.3885 249.878 88.3885C249.878 88.3885 249.878 88.3885 249.878 88.3885C250.042 88.3885 250.194 88.3392 250.32 88.2547C250.531 88.1139 250.669 87.8754 250.669 87.605C250.669 87.6025 250.669 87.6001 250.669 87.5976L250.669 65.2928C250.669 64.8601 250.315 64.5093 249.878 64.5093H249.087L227.187 64.5093C227.185 64.5093 227.184 64.5093 227.183 64.5093C227.11 64.5093 227.04 64.5189 226.973 64.5371ZM249.087 86.8215L249.087 66.8598C249.087 66.4031 249.134 66.2073 249.058 66.1256C248.983 66.0442 248.785 66.0763 248.296 66.0763L227.974 66.0763V86.038C227.974 86.4947 227.927 86.6905 228.002 86.7721C228.078 86.8536 228.276 86.8215 228.765 86.8215H249.087Z" fill="#8A3E08"/>
<rect x="230.231" y="62.9006" width="22.7316" height="21.7436" fill="#FFF2D4"/>
<path fill-rule="evenodd" clip-rule="evenodd" d="M230.106 61.664C229.769 61.7533 229.52 62.0584 229.52 62.421C229.52 62.4233 229.52 62.4257 229.52 62.428V84.7332C229.52 85.1659 229.874 85.5167 230.311 85.5167H231.102H253.002C253.003 85.5167 253.005 85.5167 253.006 85.5167C253.006 85.5167 253.006 85.5167 253.006 85.5167C253.17 85.5167 253.322 85.4673 253.448 85.3828C253.659 85.242 253.797 85.0036 253.797 84.7332C253.797 84.7307 253.797 84.7282 253.797 84.7258L253.797 62.421C253.797 61.9882 253.443 61.6375 253.006 61.6375L252.215 61.6375L230.315 61.6375C230.314 61.6375 230.312 61.6375 230.311 61.6375C230.24 61.6375 230.172 61.6467 230.106 61.664ZM252.215 83.9497L252.215 63.988C252.215 63.5313 252.262 63.3355 252.187 63.2538C252.111 63.1724 251.913 63.2045 251.424 63.2045L231.102 63.2045V83.1662C231.102 83.6229 231.055 83.8186 231.131 83.9003C231.206 83.9817 231.404 83.9497 231.893 83.9497H252.215Z" fill="#8A3E08"/>
<rect x="233.274" y="59.7913" width="22.7316" height="21.7436" fill="#FFF2D4"/>
<path fill-rule="evenodd" clip-rule="evenodd" d="M233.149 58.5543C232.811 58.6437 232.562 58.9488 232.562 59.3113C232.562 59.3137 232.562 59.3161 232.562 59.3185V81.6235C232.562 82.0563 232.917 82.407 233.354 82.407H234.145H256.045C256.046 82.407 256.047 82.407 256.048 82.407C256.049 82.407 256.049 82.407 256.049 82.407C256.212 82.407 256.365 82.3577 256.491 82.2732C256.701 82.1324 256.84 81.894 256.84 81.6235C256.84 81.621 256.84 81.6185 256.84 81.616L256.84 59.3113C256.84 58.8786 256.485 58.5278 256.049 58.5278L255.257 58.5278L233.357 58.5278C233.356 58.5278 233.355 58.5278 233.354 58.5278C233.283 58.5278 233.214 58.5371 233.149 58.5543ZM255.257 80.84L255.257 60.8783C255.257 60.4216 255.305 60.2259 255.229 60.1442C255.154 60.0628 254.956 60.0948 254.466 60.0948L234.145 60.0948V80.0565C234.145 80.5132 234.097 80.709 234.173 80.7907C234.249 80.8721 234.447 80.84 234.936 80.84H255.257Z" fill="#8A3E08"/>
<path fill-rule="evenodd" clip-rule="evenodd" d="M243.688 71.1625L237.004 73.1628L236.822 72.5741L243.506 70.5737L243.688 71.1625Z" fill="#8A3E08"/>
<path fill-rule="evenodd" clip-rule="evenodd" d="M251.415 68.2631L244.518 65.408L244.761 64.8408L251.658 67.6959L251.415 68.2631Z" fill="#8A3E08"/>
<path fill-rule="evenodd" clip-rule="evenodd" d="M239.782 67.735L244.474 64.8632L244.805 65.3857L240.113 68.2575L239.782 67.735Z" fill="#8A3E08"/>
<path fill-rule="evenodd" clip-rule="evenodd" d="M251.546 63.1421L243.768 71.0912L243.317 70.6644L251.095 62.7153L251.546 63.1421Z" fill="#8A3E08"/>
<ellipse cx="243.558" cy="70.8564" rx="1.4388" ry="1.33196" fill="#FEC955"/>
<path fill-rule="evenodd" clip-rule="evenodd" d="M243.476 71.8878C244.102 71.9321 244.646 71.469 244.691 70.8535C244.736 70.238 244.265 69.7031 243.639 69.6589C243.014 69.6146 242.47 70.0777 242.425 70.6932C242.38 71.3087 242.851 71.8436 243.476 71.8878ZM243.439 72.4043C244.354 72.469 245.15 71.7914 245.216 70.8906C245.282 69.9899 244.593 69.2072 243.677 69.1424C242.761 69.0777 241.966 69.7553 241.9 70.6561C241.834 71.5568 242.523 72.3395 243.439 72.4043Z" fill="#8A3E08"/>
<ellipse cx="236.928" cy="72.8471" rx="1.4388" ry="1.33196" fill="#FEC955"/>
<path fill-rule="evenodd" clip-rule="evenodd" d="M236.847 73.8783C237.472 73.9226 238.016 73.4595 238.061 72.844C238.106 72.2285 237.635 71.6936 237.01 71.6494C236.384 71.6051 235.84 72.0682 235.795 72.6837C235.75 73.2992 236.221 73.834 236.847 73.8783ZM236.809 74.3947C237.725 74.4595 238.52 73.7818 238.586 72.8811C238.652 71.9804 237.963 71.1977 237.047 71.1329C236.132 71.0681 235.336 71.7458 235.27 72.6465C235.204 73.5473 235.893 74.33 236.809 74.3947Z" fill="#8A3E08"/>
<ellipse cx="251.178" cy="62.8838" rx="1.30338" ry="1.28202" fill="#FEC955"/>
<path fill-rule="evenodd" clip-rule="evenodd" d="M251.096 63.9984C251.722 64.0427 252.266 63.5796 252.311 62.9641C252.356 62.3486 251.885 61.8137 251.259 61.7695C250.634 61.7252 250.09 62.1883 250.045 62.8038C250 63.4193 250.471 63.9541 251.096 63.9984ZM251.059 64.5149C251.974 64.5796 252.77 63.902 252.836 63.0012C252.902 62.1005 252.213 61.3178 251.297 61.253C250.381 61.1883 249.586 61.8659 249.52 62.7667C249.454 63.6674 250.143 64.4501 251.059 64.5149Z" fill="#8A3E08"/>
<path fill-rule="evenodd" clip-rule="evenodd" d="M251.965 72.1409L246.438 74.635L246.178 74.0757L251.704 71.5815L251.965 72.1409Z" fill="#8A3E08"/>
<path fill-rule="evenodd" clip-rule="evenodd" d="M239.604 77.1546L246.174 74.0776L246.443 74.6332L239.873 77.7102L239.604 77.1546Z" fill="#8A3E08"/>
<ellipse cx="246.338" cy="74.4039" rx="1.45983" ry="1.33333" fill="#FD9850"/>
<path fill-rule="evenodd" clip-rule="evenodd" d="M246.231 75.3719C246.857 75.4162 247.401 74.9531 247.446 74.3376C247.491 73.7221 247.02 73.1873 246.394 73.143C245.768 73.0988 245.225 73.5618 245.18 74.1773C245.135 74.7928 245.605 75.3277 246.231 75.3719ZM246.193 75.8884C247.109 75.9532 247.905 75.2755 247.971 74.3748C248.037 73.474 247.348 72.6913 246.432 72.6266C245.516 72.5618 244.72 73.2395 244.655 74.1402C244.589 75.0409 245.278 75.8236 246.193 75.8884Z" fill="#8A3E08"/>
<ellipse cx="239.873" cy="77.4808" rx="1.45983" ry="1.33333" fill="#FD9850"/>
<path fill-rule="evenodd" clip-rule="evenodd" d="M239.766 78.4488C240.392 78.4931 240.936 78.03 240.981 77.4145C241.026 76.799 240.555 76.2642 239.929 76.2199C239.303 76.1757 238.76 76.6387 238.715 77.2542C238.67 77.8697 239.141 78.4046 239.766 78.4488ZM239.729 78.9653C240.644 79.0301 241.44 78.3524 241.506 77.4517C241.572 76.5509 240.883 75.7682 239.967 75.7035C239.051 75.6387 238.256 76.3164 238.19 77.2171C238.124 78.1178 238.813 78.9005 239.729 78.9653Z" fill="#8A3E08"/>
<ellipse cx="251.73" cy="71.7586" rx="1.35556" ry="1.33333" fill="#FD9850"/>
<path fill-rule="evenodd" clip-rule="evenodd" d="M251.659 72.9103C252.285 72.9545 252.829 72.4915 252.874 71.876C252.919 71.2605 252.448 70.7256 251.822 70.6813C251.197 70.6371 250.653 71.1002 250.608 71.7157C250.563 72.3312 251.034 72.866 251.659 72.9103ZM251.622 73.4267C252.537 73.4915 253.333 72.8138 253.399 71.9131C253.465 71.0124 252.776 70.2297 251.86 70.1649C250.944 70.1001 250.149 70.7778 250.083 71.6785C250.017 72.5793 250.706 73.362 251.622 73.4267Z" fill="#8A3E08"/>
<ellipse cx="239.931" cy="68.0529" rx="1.10939" ry="1.20032" fill="#A2C8F4"/>
<path fill-rule="evenodd" clip-rule="evenodd" d="M239.848 69.1153C240.39 69.1536 240.861 68.7523 240.9 68.2188C240.939 67.6854 240.531 67.2219 239.989 67.1835C239.447 67.1452 238.975 67.5465 238.936 68.0799C238.897 68.6134 239.305 69.0769 239.848 69.1153ZM239.815 69.5629C240.609 69.619 241.298 69.0317 241.355 68.251C241.412 67.4704 240.815 66.7921 240.022 66.7359C239.228 66.6798 238.538 67.2671 238.481 68.0477C238.424 68.8284 239.021 69.5067 239.815 69.5629Z" fill="#8A3E08"/>
<ellipse cx="244.629" cy="64.902" rx="1.10939" ry="1.20032" fill="#A2C8F4"/>
<path fill-rule="evenodd" clip-rule="evenodd" d="M244.545 65.9644C245.088 66.0027 245.559 65.6014 245.598 65.068C245.637 64.5345 245.229 64.071 244.687 64.0326C244.144 63.9943 243.673 64.3956 243.634 64.9291C243.595 65.4625 244.003 65.926 244.545 65.9644ZM244.513 66.412C245.306 66.4681 245.996 65.8808 246.053 65.1002C246.11 64.3195 245.513 63.6412 244.719 63.585C243.926 63.5289 243.236 64.1162 243.179 64.8969C243.122 65.6775 243.719 66.3558 244.513 66.412Z" fill="#8A3E08"/>
<ellipse cx="252.666" cy="67.8984" rx="1.54036" ry="1.51511" fill="#A2C8F4"/>
<path fill-rule="evenodd" clip-rule="evenodd" d="M252.574 69.1616C253.283 69.2118 253.899 68.6869 253.95 67.9894C254.001 67.2918 253.468 66.6856 252.759 66.6355C252.049 66.5853 251.433 67.1101 251.382 67.8077C251.331 68.5053 251.865 69.1114 252.574 69.1616ZM252.531 69.7469C253.569 69.8203 254.471 69.0523 254.546 68.0315C254.62 67.0106 253.839 66.1236 252.801 66.0502C251.764 65.9767 250.862 66.7448 250.787 67.7656C250.713 68.7864 251.493 69.6735 252.531 69.7469Z" fill="#8A3E08"/>
</g>
<path d="M306.842 138.912L316.122 136.358L323.637 163.672L314.358 166.225L306.842 138.912Z" fill="#333333"/>
<path fill-rule="evenodd" clip-rule="evenodd" d="M315.649 137.189L307.673 139.384L314.83 165.395L322.806 163.2L315.649 137.189ZM306.842 138.912L314.358 166.225L323.637 163.672L316.122 136.358L306.842 138.912Z" fill="#353535"/>
<path d="M354.958 138.801L345.662 136.31L338.224 164.07L347.52 166.561L354.958 138.801Z" fill="#353535"/>
<path fill-rule="evenodd" clip-rule="evenodd" d="M346.14 137.137L354.131 139.279L347.042 165.733L339.052 163.592L346.14 137.137ZM354.958 138.801L347.52 166.561L338.224 164.07L345.662 136.31L354.958 138.801Z" fill="#353535"/>
<path d="M311.633 114.7L319.772 122.465L317.017 133.032L306.122 135.833L297.983 128.068L300.739 117.502L311.633 114.7Z" fill="#FEC955"/>
<path fill-rule="evenodd" clip-rule="evenodd" d="M313.778 106.475L328.068 120.107L323.105 139.14L303.977 144.059L289.687 130.426L294.651 111.393L313.778 106.475ZM297.983 128.068L306.122 135.833L317.017 133.032L319.772 122.465L311.633 114.7L300.739 117.502L297.983 128.068Z" fill="#333333"/>
<path d="M351.331 114.661L361.878 117.487L364.705 128.035L356.983 135.756L346.436 132.93L343.609 122.382L351.331 114.661Z" fill="#FEC955"/>
<path fill-rule="evenodd" clip-rule="evenodd" d="M349.11 106.371L367.947 111.419L372.995 130.256L359.205 144.046L340.367 138.999L335.32 120.161L349.11 106.371ZM346.436 132.93L356.983 135.756L364.705 128.035L361.878 117.487L351.331 114.661L343.609 122.382L346.436 132.93Z" fill="#333333"/>
<path d="M336.49 413.875L297.642 391.876C297.403 391.741 297.27 391.475 297.304 391.203L314.534 255.883C314.577 255.546 314.865 255.293 315.205 255.293H348.76C349.092 255.293 349.374 255.533 349.427 255.86L371.5 391.216C371.543 391.482 371.425 391.747 371.2 391.893L337.19 413.855C336.978 413.991 336.709 413.999 336.49 413.875Z" fill="#FEC955"/>
<path fill-rule="evenodd" clip-rule="evenodd" d="M311.047 255.414C311.327 253.221 313.193 251.577 315.404 251.577H348.96C351.113 251.577 352.948 253.137 353.294 255.262L375.367 390.618C375.648 392.342 374.882 394.068 373.415 395.015L339.405 416.977C338.032 417.863 336.28 417.914 334.858 417.109L296.01 395.11C294.458 394.232 293.592 392.502 293.817 390.734L297.504 391.203L297.511 391.204M297.504 391.203L293.817 390.734L311.047 255.414M318.082 259.009L301.448 389.648L336.919 409.735L367.711 389.851L346.375 259.009H318.082ZM299.672 388.643C299.673 388.643 299.675 388.644 299.676 388.645L299.672 388.643Z" fill="#333333"/>
<path d="M355.165 313.186L359.895 341.564L364.287 368.929L339.988 354.424L335.055 329.915L355.165 313.186Z" fill="#FC7E24"/>
<path d="M312.357 360.152L324.904 373.488L324.473 387.51L314 381.767L303.189 376.024L304.544 365.687L312.357 360.152Z" fill="#FC7E24"/>
<path d="M314 290.889L322.723 296.147L326.631 311.615L315.189 322.733L309.946 323.321L311.635 310.145L314 290.889Z" fill="#FC7E24"/>
<path fill-rule="evenodd" clip-rule="evenodd" d="M331.404 162.848H311.079C310.685 162.848 310.31 163.021 310.053 163.32L297.011 178.536C296.583 179.036 295.855 179.154 295.29 178.815L282.984 171.431C282.833 171.341 282.666 171.281 282.492 171.254L266.287 168.782C265.065 168.596 264.255 170.013 265.035 170.971L293.728 206.213C293.844 206.356 293.93 206.521 293.98 206.698L298.906 224.105C298.949 224.257 299.019 224.4 299.112 224.529L310.126 239.755C310.338 240.048 310.424 240.414 310.364 240.771L305.832 267.638C305.766 268.029 305.875 268.428 306.13 268.732L319.737 284.931C319.856 285.073 320.003 285.188 320.168 285.271L330.8 290.587C331.18 290.777 331.628 290.777 332.008 290.587L342.64 285.271C342.805 285.188 342.952 285.073 343.07 284.931L356.678 268.732C356.933 268.428 357.042 268.029 356.976 267.638L352.444 240.771C352.384 240.414 352.469 240.048 352.682 239.755L363.696 224.529C363.789 224.4 363.858 224.257 363.901 224.105L368.828 206.698C368.878 206.521 368.964 206.356 369.08 206.213L397.772 170.971C398.553 170.013 397.743 168.596 396.521 168.782L380.316 171.254C380.142 171.281 379.975 171.341 379.824 171.431L367.518 178.815C366.952 179.154 366.225 179.036 365.796 178.536L352.754 163.32C352.498 163.021 352.123 162.848 351.728 162.848H331.404Z" fill="#FEC955"/>
<path fill-rule="evenodd" clip-rule="evenodd" d="M307.232 160.902C308.195 159.779 309.6 159.132 311.08 159.132H351.728C353.208 159.132 354.613 159.779 355.576 160.902L367.318 174.601L377.912 168.245C378.478 167.905 379.104 167.68 379.755 167.58L395.96 165.108C400.543 164.409 403.581 169.722 400.654 173.318L372.271 208.18L367.477 225.117C367.316 225.688 367.055 226.226 366.707 226.707L356.273 241.13L360.64 267.02C360.887 268.485 360.479 269.984 359.523 271.122L345.916 287.321C345.471 287.852 344.921 288.285 344.302 288.594L333.67 293.91C332.244 294.624 330.564 294.624 329.138 293.91L318.506 288.594C317.887 288.285 317.337 287.852 316.892 287.321L303.284 271.122C302.329 269.984 301.921 268.485 302.168 267.02L306.535 241.13L296.101 226.707C295.753 226.226 295.492 225.688 295.331 225.117L290.537 208.18L262.154 173.318C259.226 169.722 262.264 164.409 266.848 165.108L283.053 167.58C283.704 167.68 284.33 167.905 284.896 168.245L295.49 174.601L307.232 160.902ZM312.167 166.565L299.833 180.954C298.225 182.831 295.497 183.273 293.378 182.002L281.471 174.858L271.789 173.381L296.61 203.866C297.046 204.402 297.368 205.021 297.556 205.686L302.368 222.69L313.137 237.576C313.933 238.677 314.254 240.05 314.028 241.389L309.678 267.178L322.268 282.166L331.404 286.734L340.54 282.166L353.129 267.178L348.78 241.389C348.554 240.05 348.875 238.677 349.671 237.576L360.44 222.69L365.252 205.686C365.44 205.021 365.762 204.402 366.198 203.866L391.019 173.381L381.337 174.858L369.43 182.002C367.31 183.273 364.583 182.831 362.975 180.954L350.641 166.565H312.167Z" fill="#333333"/>
<path d="M348.849 212.848L363.714 211.159L360.336 222.983L349.187 238.186L341.755 228.051L348.849 212.848Z" fill="#FC7E24"/>
<path d="M311.011 259.132L313.714 243.254L319.457 244.605L321.146 254.064L313.714 260.483L311.011 259.132Z" fill="#FC7E24"/>
<path d="M332.023 166.564L333.939 175.455L321.226 185.093L306.522 178.901L305.944 173.997L311.753 166.564L332.023 166.564Z" fill="#FC7E24"/>
<ellipse opacity="0.2" cx="353.702" cy="208.07" rx="15.5925" ry="17.325" fill="#D9D9D9"/>
<rect x="337.171" y="190.745" width="33.495" height="33.495" rx="16.7475" stroke="#5C2905" stroke-width="4.62"/>
<ellipse opacity="0.2" cx="308.657" cy="207.493" rx="15.4842" ry="15.4842" fill="#D9D9D9"/>
<path d="M326.523 207.493H336.052" stroke="#5C2905" stroke-width="4.62" stroke-linecap="round"/>
<path d="M359.001 198.334C364.717 200.553 365.933 206.758 363.149 210.989" stroke="white" stroke-width="3.465" stroke-linecap="round"/>
<path d="M308.657 196.776C314.781 196.487 318.407 201.667 317.577 206.663" stroke="white" stroke-width="3.465" stroke-linecap="round"/>
<ellipse cx="359.278" cy="217.617" rx="1.78664" ry="1.78664" fill="white"/>
<rect x="291.909" y="190.745" width="33.495" height="33.495" rx="16.7475" stroke="#5C2905" stroke-width="4.62"/>
<path d="M304 305L333 312L361.5 305L370.5 359.5H297.5L304 305Z" fill="#1F1F1F"/>
<path d="M333.244 363L304 312H362L333.244 363Z" fill="#D9D9D9"/>
<path d="M333.244 363L333.244 312H362L333.244 363Z" fill="#CBCBCB"/>
<g filter="url(#filter5_d_11686_2368)">
<path d="M305.139 299C313.903 303.185 331.744 311.775 333 312.662L327.114 323L302 312.662L305.139 299Z" fill="white"/>
</g>
<g filter="url(#filter6_d_11686_2368)">
<path d="M360.861 299C352.097 303.185 334.256 311.775 333 312.662L338.886 323L364 312.662L360.861 299Z" fill="white"/>
</g>
<path d="M322.342 320.841L330.197 317.891C331.249 317.496 331.955 316.425 331.955 315.221V314.409C331.955 313.165 331.201 312.067 330.099 311.705L322.244 309.124C320.562 308.572 318.864 309.93 318.864 311.829V318.171C318.864 320.116 320.641 321.48 322.342 320.841Z" fill="#333333"/>
<path fill-rule="evenodd" clip-rule="evenodd" d="M326.507 317.164C326.553 317.531 326.812 317.779 327.087 317.718L330.864 316.875L330.698 315.545L326.921 316.388C326.647 316.449 326.461 316.797 326.507 317.164Z" fill="#E5E5E5"/>
<path fill-rule="evenodd" clip-rule="evenodd" d="M326.362 313.77C326.305 314.066 326.499 314.352 326.794 314.408L330.863 315.191L331.068 314.121L327 313.338C326.704 313.281 326.419 313.475 326.362 313.77Z" fill="#E5E5E5"/>
<path d="M342.509 320.73L335.842 318.19C334.814 317.798 334.136 316.824 334.136 315.737V314.854C334.136 313.726 334.866 312.725 335.949 312.363L342.616 310.141C344.344 309.564 346.136 310.832 346.136 312.631V318.278C346.136 320.124 344.256 321.396 342.509 320.73Z" fill="#333333"/>
<path fill-rule="evenodd" clip-rule="evenodd" d="M339.357 317.618C339.311 317.986 339.051 318.234 338.777 318.173L335 317.33L335.165 316L338.943 316.843C339.217 316.904 339.402 317.251 339.357 317.618Z" fill="#E5E5E5"/>
<path fill-rule="evenodd" clip-rule="evenodd" d="M339.692 313.77C339.749 314.066 339.555 314.352 339.26 314.408L335.191 315.191L334.986 314.121L339.054 313.338C339.349 313.281 339.635 313.475 339.692 313.77Z" fill="#E5E5E5"/>
<path d="M329.773 316.273C329.773 318.281 331.238 319.909 333.046 319.909C334.853 319.909 336.318 318.281 336.318 316.273V314.818C336.318 312.81 334.853 311.182 333.046 311.182C331.238 311.182 329.773 312.81 329.773 314.818V316.273Z" fill="#131313"/>
<path fill-rule="evenodd" clip-rule="evenodd" d="M551.05 46C530.588 46 514 62.5879 514 83.05C514 103.512 530.588 120.1 551.05 120.1H554.425L540 147.4L579.813 120.1H609.55C630.012 120.1 646.6 103.512 646.6 83.05C646.6 62.5879 630.012 46 609.55 46H551.05Z" fill="#4DAA9C"/>
<path d="M553.271 75.7227L549.639 90H546.191L544.258 82.5C544.219 82.3568 544.167 82.1387 544.102 81.8457C544.036 81.5527 543.968 81.2337 543.896 80.8887C543.825 80.5371 543.76 80.2083 543.701 79.9023C543.649 79.5898 543.613 79.3424 543.594 79.1602C543.574 79.3424 543.535 79.5866 543.477 79.8926C543.424 80.1986 543.363 80.5241 543.291 80.8691C543.226 81.2142 543.161 81.5365 543.096 81.8359C543.031 82.1354 542.979 82.3633 542.939 82.5195L541.016 90H537.578L533.936 75.7227H536.914L538.74 83.5156C538.792 83.75 538.851 84.0299 538.916 84.3555C538.988 84.681 539.056 85.0228 539.121 85.3809C539.193 85.7324 539.255 86.0742 539.307 86.4062C539.365 86.7318 539.408 87.015 539.434 87.2559C539.466 87.0085 539.508 86.722 539.561 86.3965C539.613 86.0645 539.668 85.7292 539.727 85.3906C539.792 85.0456 539.857 84.7266 539.922 84.4336C539.987 84.1406 540.046 83.903 540.098 83.7207L542.178 75.7227H545.039L547.119 83.7207C547.165 83.8965 547.217 84.1341 547.275 84.4336C547.34 84.7266 547.406 85.0456 547.471 85.3906C547.536 85.7357 547.594 86.0742 547.646 86.4062C547.705 86.7318 547.747 87.015 547.773 87.2559C547.819 86.9303 547.881 86.5365 547.959 86.0742C548.044 85.6055 548.132 85.14 548.223 84.6777C548.32 84.2155 548.405 83.8281 548.477 83.5156L550.293 75.7227H553.271ZM559.336 78.877C560.345 78.877 561.214 79.0723 561.943 79.4629C562.673 79.847 563.236 80.4069 563.633 81.1426C564.03 81.8783 564.229 82.7767 564.229 83.8379V85.2832H557.188C557.22 86.123 557.471 86.7839 557.939 87.2656C558.415 87.7409 559.072 87.9785 559.912 87.9785C560.609 87.9785 561.247 87.9069 561.826 87.7637C562.406 87.6204 563.001 87.4056 563.613 87.1191V89.4238C563.073 89.6908 562.507 89.8861 561.914 90.0098C561.328 90.1335 560.615 90.1953 559.775 90.1953C558.682 90.1953 557.712 89.9935 556.865 89.5898C556.025 89.1862 555.365 88.571 554.883 87.7441C554.408 86.9173 554.17 85.8757 554.17 84.6191C554.17 83.3431 554.385 82.2819 554.814 81.4355C555.251 80.5827 555.856 79.9447 556.631 79.5215C557.406 79.0918 558.307 78.877 559.336 78.877ZM559.355 80.9961C558.776 80.9961 558.294 81.1816 557.91 81.5527C557.533 81.9238 557.314 82.5065 557.256 83.3008H561.436C561.429 82.8581 561.348 82.4642 561.191 82.1191C561.042 81.7741 560.814 81.5007 560.508 81.2988C560.208 81.097 559.824 80.9961 559.355 80.9961ZM569.629 90H566.65V74.8047H569.629V90ZM577.197 90.1953C576.117 90.1953 575.195 90 574.434 89.6094C573.672 89.2122 573.092 88.6003 572.695 87.7734C572.298 86.9466 572.1 85.8887 572.1 84.5996C572.1 83.265 572.324 82.1777 572.773 81.3379C573.229 80.4915 573.857 79.8698 574.658 79.4727C575.465 79.0755 576.4 78.877 577.461 78.877C578.216 78.877 578.867 78.9518 579.414 79.1016C579.967 79.2448 580.449 79.4173 580.859 79.6191L579.98 81.9238C579.512 81.735 579.076 81.582 578.672 81.4648C578.268 81.3411 577.865 81.2793 577.461 81.2793C576.94 81.2793 576.507 81.403 576.162 81.6504C575.817 81.8913 575.56 82.2559 575.391 82.7441C575.221 83.2324 575.137 83.8444 575.137 84.5801C575.137 85.3027 575.228 85.9017 575.41 86.377C575.592 86.8522 575.856 87.207 576.201 87.4414C576.546 87.6693 576.966 87.7832 577.461 87.7832C578.079 87.7832 578.63 87.7018 579.111 87.5391C579.593 87.3698 580.062 87.1354 580.518 86.8359V89.3848C580.062 89.6712 579.583 89.8763 579.082 90C578.587 90.1302 577.959 90.1953 577.197 90.1953ZM592.979 84.5215C592.979 85.4329 592.855 86.2402 592.607 86.9434C592.367 87.6465 592.012 88.2422 591.543 88.7305C591.081 89.2122 590.521 89.5768 589.863 89.8242C589.212 90.0716 588.477 90.1953 587.656 90.1953C586.888 90.1953 586.182 90.0716 585.537 89.8242C584.899 89.5768 584.342 89.2122 583.867 88.7305C583.398 88.2422 583.034 87.6465 582.773 86.9434C582.52 86.2402 582.393 85.4329 582.393 84.5215C582.393 83.3105 582.607 82.2852 583.037 81.4453C583.467 80.6055 584.079 79.9674 584.873 79.5312C585.667 79.0951 586.615 78.877 587.715 78.877C588.737 78.877 589.642 79.0951 590.43 79.5312C591.224 79.9674 591.846 80.6055 592.295 81.4453C592.751 82.2852 592.979 83.3105 592.979 84.5215ZM585.43 84.5215C585.43 85.2376 585.508 85.8398 585.664 86.3281C585.82 86.8164 586.064 87.1842 586.396 87.4316C586.729 87.679 587.161 87.8027 587.695 87.8027C588.223 87.8027 588.649 87.679 588.975 87.4316C589.307 87.1842 589.548 86.8164 589.697 86.3281C589.854 85.8398 589.932 85.2376 589.932 84.5215C589.932 83.7988 589.854 83.1999 589.697 82.7246C589.548 82.2428 589.307 81.8815 588.975 81.6406C588.643 81.3997 588.21 81.2793 587.676 81.2793C586.888 81.2793 586.315 81.5495 585.957 82.0898C585.605 82.6302 585.43 83.4408 585.43 84.5215ZM608.262 78.877C609.499 78.877 610.433 79.196 611.064 79.834C611.702 80.4655 612.021 81.4811 612.021 82.8809V90H609.033V83.623C609.033 82.8418 608.9 82.2526 608.633 81.8555C608.366 81.4583 607.952 81.2598 607.393 81.2598C606.605 81.2598 606.045 81.543 605.713 82.1094C605.381 82.6693 605.215 83.4733 605.215 84.5215V90H602.236V83.623C602.236 83.1022 602.178 82.666 602.061 82.3145C601.943 81.9629 601.764 81.6992 601.523 81.5234C601.283 81.3477 600.973 81.2598 600.596 81.2598C600.042 81.2598 599.606 81.3997 599.287 81.6797C598.975 81.9531 598.75 82.36 598.613 82.9004C598.483 83.4342 598.418 84.0885 598.418 84.8633V90H595.439V79.082H597.715L598.115 80.4785H598.281C598.503 80.1009 598.779 79.7949 599.111 79.5605C599.45 79.3262 599.821 79.1536 600.225 79.043C600.628 78.9323 601.038 78.877 601.455 78.877C602.256 78.877 602.933 79.0072 603.486 79.2676C604.046 79.528 604.476 79.9316 604.775 80.4785H605.039C605.365 79.9186 605.824 79.5117 606.416 79.2578C607.015 79.0039 607.63 78.877 608.262 78.877ZM619.59 78.877C620.599 78.877 621.468 79.0723 622.197 79.4629C622.926 79.847 623.49 80.4069 623.887 81.1426C624.284 81.8783 624.482 82.7767 624.482 83.8379V85.2832H617.441C617.474 86.123 617.725 86.7839 618.193 87.2656C618.669 87.7409 619.326 87.9785 620.166 87.9785C620.863 87.9785 621.501 87.9069 622.08 87.7637C622.66 87.6204 623.255 87.4056 623.867 87.1191V89.4238C623.327 89.6908 622.76 89.8861 622.168 90.0098C621.582 90.1335 620.869 90.1953 620.029 90.1953C618.936 90.1953 617.965 89.9935 617.119 89.5898C616.279 89.1862 615.618 88.571 615.137 87.7441C614.661 86.9173 614.424 85.8757 614.424 84.6191C614.424 83.3431 614.639 82.2819 615.068 81.4355C615.505 80.5827 616.11 79.9447 616.885 79.5215C617.66 79.0918 618.561 78.877 619.59 78.877ZM619.609 80.9961C619.03 80.9961 618.548 81.1816 618.164 81.5527C617.786 81.9238 617.568 82.5065 617.51 83.3008H621.689C621.683 82.8581 621.602 82.4642 621.445 82.1191C621.296 81.7741 621.068 81.5007 620.762 81.2988C620.462 81.097 620.078 80.9961 619.609 80.9961ZM629.404 85.2637H627.021L626.523 75.7227H629.902L629.404 85.2637ZM626.484 88.6035C626.484 87.9915 626.65 87.5618 626.982 87.3145C627.321 87.0671 627.728 86.9434 628.203 86.9434C628.665 86.9434 629.062 87.0671 629.395 87.3145C629.733 87.5618 629.902 87.9915 629.902 88.6035C629.902 89.1895 629.733 89.6126 629.395 89.873C629.062 90.1335 628.665 90.2637 628.203 90.2637C627.728 90.2637 627.321 90.1335 626.982 89.873C626.65 89.6126 626.484 89.1895 626.484 88.6035Z" fill="white"/>
<path fill-rule="evenodd" clip-rule="evenodd" d="M232.049 357.891L190 357.891C190 351.816 199.413 346.891 211.024 346.891C222.636 346.891 232.049 351.816 232.049 357.891Z" fill="#1F1F1F"/>
<path d="M211.315 357.891C211.315 351.676 208.45 331.478 223.492 307.395C235.526 288.129 254.055 277.616 261.815 274.767" stroke="#1F1F1F" stroke-width="6"/>
<rect x="231.068" y="278.799" width="49.9185" height="25.4131" rx="12.7065" transform="rotate(-36.6518 231.068 278.799)" fill="#1F1F1F"/>
<path d="M163 358H487L451.973 459H198.027L163 358Z" fill="#8A3E08"/>
<path fill-rule="evenodd" clip-rule="evenodd" d="M487 358H390.266L378.612 397H474.399L487 358Z" fill="#5C2905"/>
</g>
<defs>
<filter id="filter0_d_11686_2368" x="296.375" y="10.625" width="71.25" height="72.25" filterUnits="userSpaceOnUse" color-interpolation-filters="sRGB">
<feFlood flood-opacity="0" result="BackgroundImageFix"/>
<feColorMatrix in="SourceAlpha" type="matrix" values="0 0 0 0 0 0 0 0 0 0 0 0 0 0 0 0 0 0 127 0" result="hardAlpha"/>
<feOffset dy="2.25"/>
<feGaussianBlur stdDeviation="2.8125"/>
<feComposite in2="hardAlpha" operator="out"/>
<feColorMatrix type="matrix" values="0 0 0 0 0.469937 0 0 0 0 0.608333 0 0 0 0 0.5875 0 0 0 1 0"/>
<feBlend mode="normal" in2="BackgroundImageFix" result="effect1_dropShadow_11686_2368"/>
<feBlend mode="normal" in="SourceGraphic" in2="effect1_dropShadow_11686_2368" result="shape"/>
</filter>
<filter id="filter1_d_11686_2368" x="388.375" y="39.625" width="71.25" height="71.25" filterUnits="userSpaceOnUse" color-interpolation-filters="sRGB">
<feFlood flood-opacity="0" result="BackgroundImageFix"/>
<feColorMatrix in="SourceAlpha" type="matrix" values="0 0 0 0 0 0 0 0 0 0 0 0 0 0 0 0 0 0 127 0" result="hardAlpha"/>
<feOffset dy="2.25"/>
<feGaussianBlur stdDeviation="2.8125"/>
<feComposite in2="hardAlpha" operator="out"/>
<feColorMatrix type="matrix" values="0 0 0 0 0.469937 0 0 0 0 0.608333 0 0 0 0 0.5875 0 0 0 1 0"/>
<feBlend mode="normal" in2="BackgroundImageFix" result="effect1_dropShadow_11686_2368"/>
<feBlend mode="normal" in="SourceGraphic" in2="effect1_dropShadow_11686_2368" result="shape"/>
</filter>
<filter id="filter2_d_11686_2368" x="153.375" y="113.625" width="72.25" height="72.25" filterUnits="userSpaceOnUse" color-interpolation-filters="sRGB">
<feFlood flood-opacity="0" result="BackgroundImageFix"/>
<feColorMatrix in="SourceAlpha" type="matrix" values="0 0 0 0 0 0 0 0 0 0 0 0 0 0 0 0 0 0 127 0" result="hardAlpha"/>
<feOffset dy="2.25"/>
<feGaussianBlur stdDeviation="2.8125"/>
<feComposite in2="hardAlpha" operator="out"/>
<feColorMatrix type="matrix" values="0 0 0 0 0.469937 0 0 0 0 0.608333 0 0 0 0 0.5875 0 0 0 1 0"/>
<feBlend mode="normal" in2="BackgroundImageFix" result="effect1_dropShadow_11686_2368"/>
<feBlend mode="normal" in="SourceGraphic" in2="effect1_dropShadow_11686_2368" result="shape"/>
</filter>
<filter id="filter3_d_11686_2368" x="438.375" y="113.625" width="72.25" height="72.25" filterUnits="userSpaceOnUse" color-interpolation-filters="sRGB">
<feFlood flood-opacity="0" result="BackgroundImageFix"/>
<feColorMatrix in="SourceAlpha" type="matrix" values="0 0 0 0 0 0 0 0 0 0 0 0 0 0 0 0 0 0 127 0" result="hardAlpha"/>
<feOffset dy="2.25"/>
<feGaussianBlur stdDeviation="2.8125"/>
<feComposite in2="hardAlpha" operator="out"/>
<feColorMatrix type="matrix" values="0 0 0 0 0.469937 0 0 0 0 0.608333 0 0 0 0 0.5875 0 0 0 1 0"/>
<feBlend mode="normal" in2="BackgroundImageFix" result="effect1_dropShadow_11686_2368"/>
<feBlend mode="normal" in="SourceGraphic" in2="effect1_dropShadow_11686_2368" result="shape"/>
</filter>
<filter id="filter4_d_11686_2368" x="204.375" y="39.625" width="72.25" height="71.25" filterUnits="userSpaceOnUse" color-interpolation-filters="sRGB">
<feFlood flood-opacity="0" result="BackgroundImageFix"/>
<feColorMatrix in="SourceAlpha" type="matrix" values="0 0 0 0 0 0 0 0 0 0 0 0 0 0 0 0 0 0 127 0" result="hardAlpha"/>
<feOffset dy="2.25"/>
<feGaussianBlur stdDeviation="2.8125"/>
<feComposite in2="hardAlpha" operator="out"/>
<feColorMatrix type="matrix" values="0 0 0 0 0.469937 0 0 0 0 0.608333 0 0 0 0 0.5875 0 0 0 1 0"/>
<feBlend mode="normal" in2="BackgroundImageFix" result="effect1_dropShadow_11686_2368"/>
<feBlend mode="normal" in="SourceGraphic" in2="effect1_dropShadow_11686_2368" result="shape"/>
</filter>
<filter id="filter5_d_11686_2368" x="298" y="299" width="39" height="32" filterUnits="userSpaceOnUse" color-interpolation-filters="sRGB">
<feFlood flood-opacity="0" result="BackgroundImageFix"/>
<feColorMatrix in="SourceAlpha" type="matrix" values="0 0 0 0 0 0 0 0 0 0 0 0 0 0 0 0 0 0 127 0" result="hardAlpha"/>
<feOffset dy="4"/>
<feGaussianBlur stdDeviation="2"/>
<feComposite in2="hardAlpha" operator="out"/>
<feColorMatrix type="matrix" values="0 0 0 0 0 0 0 0 0 0 0 0 0 0 0 0 0 0 0.25 0"/>
<feBlend mode="normal" in2="BackgroundImageFix" result="effect1_dropShadow_11686_2368"/>
<feBlend mode="normal" in="SourceGraphic" in2="effect1_dropShadow_11686_2368" result="shape"/>
</filter>
<filter id="filter6_d_11686_2368" x="329" y="299" width="39" height="32" filterUnits="userSpaceOnUse" color-interpolation-filters="sRGB">
<feFlood flood-opacity="0" result="BackgroundImageFix"/>
<feColorMatrix in="SourceAlpha" type="matrix" values="0 0 0 0 0 0 0 0 0 0 0 0 0 0 0 0 0 0 127 0" result="hardAlpha"/>
<feOffset dy="4"/>
<feGaussianBlur stdDeviation="2"/>
<feComposite in2="hardAlpha" operator="out"/>
<feColorMatrix type="matrix" values="0 0 0 0 0 0 0 0 0 0 0 0 0 0 0 0 0 0 0.25 0"/>
<feBlend mode="normal" in2="BackgroundImageFix" result="effect1_dropShadow_11686_2368"/>
<feBlend mode="normal" in="SourceGraphic" in2="effect1_dropShadow_11686_2368" result="shape"/>
</filter>
<clipPath id="clip0_11686_2368">
<rect width="660" height="398" fill="white"/>
</clipPath>
<clipPath id="clip1_11686_2368">
<rect width="3.32734" height="3.32734" fill="white" transform="translate(461.77 136.69)"/>
</clipPath>
</defs>
</svg>
