<?xml version="1.0" encoding="utf-8"?>
<!-- Generator: Adobe Illustrator 27.1.1, SVG Export Plug-In . SVG Version: 6.00 Build 0)  -->
<svg version="1.1" id="Logo" xmlns="http://www.w3.org/2000/svg" xmlns:xlink="http://www.w3.org/1999/xlink" x="0px" y="0px"
	 viewBox="0 0 1920 714.5" style="enable-background:new 0 0 1920 714.5;" xml:space="preserve">
<style type="text/css">
	.st0{fill:#FFFFFF;}
</style>
<g>
	<path class="st0" d="M1463.3,595.3c-13.4,21.3-29.3,39-47.5,52.8c-22.2,16.7-45,25.1-68.7,25.1c-32.9,0-52.9-12.4-59.7-36.9
		l-14.1-2.4l-11.8,62.8c20.6,11.3,41.1,17,61.2,17c60.5,0,116.7-39.6,168.8-118.5H1463.3z"/>
	<path class="st0" d="M1632.1,525.5c22.2,12.9,38.9,21.2,50.2,25.1c17.2,6.4,37.4,9.7,60.5,9.7c40.8,0,72.3-10.4,94.5-31
		c19.7-18.6,29.5-43.6,29.5-74.7c0-27-14.8-55.6-44.3-85.5c-26.1-25.7-42.3-42.7-48.7-50.9c-12.8-15.8-19.2-30.9-19.2-45
		c0-12.4,4.6-23.1,14-32.5c9.8-9.3,23.6-14.1,41.3-14.1c11.8,0,24.4,3.7,37.6,11.1c13.8,7,22.9,15.6,27.3,25.8
		c2.5,5.9,3.7,13.7,3.7,23l19.2,5.9l22.1-70.1c-31-16.9-63.5-25.1-97.4-25.1c-34.9,0-63.3,10.2-84.9,31.1
		c-21.7,20-32.5,44.4-32.5,72.9c0,25.7,12.3,51.5,36.9,77.5l46.5,50.2c19.2,21.2,28.9,39.8,28.9,56.2c0,11.9-4.5,21.9-13.3,30.3
		c-10.8,10.7-27.3,16.1-49.4,16.1c-18.2,0-35.4-4.9-51.7-14.7c-19.7-11.3-29.5-25.8-29.5-43.6c0-2.8,0.5-8,1.5-15.4l-21.4-5.2
		L1632.1,525.5z"/>
	<path class="st0" d="M992.8,525.5c22.2,12.9,38.9,21.2,50.2,25.1c17.8,6.4,37.9,9.7,60.5,9.7c41.3,0,72.8-10.4,94.5-31
		c20.1-18.6,30.2-43.6,30.2-74.7c0-27-15-55.6-45-85.5c-26.1-25.7-42.3-42.7-48.7-50.9c-12.3-15.8-18.5-30.9-18.5-45
		c0-12.4,4.7-23.1,14-32.5c9.8-9.3,23.4-14.1,40.6-14.1c11.8,0,24.4,3.7,37.7,11.1c13.8,7,22.9,15.6,27.4,25.8
		c2.4,5.9,3.7,13.7,3.7,23l19.2,5.9l22.2-70.1c-31.1-16.9-63.5-25.1-97.5-25.1c-34.9,0-63.2,10.2-84.9,31.1
		c-21.6,20-32.5,44.4-32.5,72.9c0,25.7,12.3,51.5,36.9,77.5l46.4,50.2c19.2,21.2,28.9,39.8,28.9,56.2c0,11.9-4.5,21.9-13.4,30.3
		c-10.8,10.7-27,16.1-48.7,16.1c-18.7,0-36.1-4.9-52.4-14.7c-19.7-11.3-29.5-25.8-29.5-43.6c0-2.8,0.8-8,2.2-15.4l-22.2-5.2
		L992.8,525.5z"/>
	<path class="st0" d="M961.1,453.9c-23.1,33.9-40.8,50.9-53.1,50.9c-11.4,0-17-6.1-17-18.5c0-7.8,1.8-20.4,5.2-37.6l53.2-251.6
		c-9.4,1.4-18.7,2.1-28,2.1c-4,0-12.9-0.1-26.7-0.7c-13.3-0.9-23.1-1.4-29.5-1.4c-56,0-106.8,17.7-152.1,53.1
		c-37.8,29.6-68.3,68-91.5,115.1c-20.7,41.4-31,78-31,109.9c0,22.8,5.1,41.6,15.5,56.9c12.3,18.8,30,28.1,53.1,28.1
		c36.9,0,75.6-23,115.9-68.7c28.1-31.9,53.6-70.8,76.8-116.5l1.4,1.4l-12.5,52.3c-7.9,35-11.8,64.1-11.8,87.2
		c0,29.6,12,44.3,36.1,44.3c33,0,71.7-33,115.9-99L961.1,453.9z M652.5,471c0-23.1,5.9-50.9,17.8-83.4
		c10.8-29.1,23.8-55.4,39.1-79.1c21.2-32.5,44-54.9,68.7-67.1c20.1-9.9,45.7-14.9,76.7-14.9c8.9,0,17.9,1.1,27.4,3
		c-3,49.7-28.9,111.2-77.6,184.6c-48.7,72.8-88.8,109.2-120.3,109.2C663.1,523.3,652.5,505.9,652.5,471"/>
	<g>
		<path class="st0" d="M0,287.9C0,370,26.8,438,80.5,491.6c53.6,53.1,119.8,79.8,198.6,79.8c100.4,0,179.4-33.3,236.9-99.7
			c48.2-55.6,72.3-119.3,72.3-191.2c0-81.8-26.8-148.7-80.4-200.8C454.7,27.1,385.3,0.7,299.7,0.7c-88.6,0-161.9,31.2-220,93.8
			C26.6,151,0,215.6,0,287.9 M74.6,291.6c0-72.8,22.9-134.1,68.7-183.8C189,58.1,243.9,33.2,307.8,33.2c57.1,0,105.1,21,144,62.8
			c41.3,44.3,62,102,62,173.4c0,76.4-21.9,140.3-65.7,191.9c-43.3,51.6-98.2,77.6-164.6,77.6c-66.9,0-119.5-26.3-157.9-79.1
			C91.5,413,74.6,357.1,74.6,291.6"/>
	</g>
	<path class="st0" d="M1491.6,595.3c4.3-6.6,8.5-13.2,12.8-20.4l62.8-104c74.8-125,112.2-203,112.2-234.1c0-26.5-9.6-39.8-28.8-39.8
		c-12.3,0-26.1,4.8-41.4,14.7c-5.9,3.4-19.5,13.8-40.6,31l6.6,16.3c10.4-8.4,20.2-12.5,29.6-12.5c12.3,0,18.4,7.4,18.4,22
		c0,21.2-16,62.2-48,123.2l-66.4,127h-1.5c-4.4-27.1-11.3-60.8-20.7-101.2c-11.8-51.6-18-78.7-18.4-81
		c-11.8-56.1-24.9-95.1-39.2-116.8c-10.3-15.2-23.1-22.8-38.3-22.8c-24.1,0-56.3,25.1-96.7,75.3l-12.6,15.4l18.5,14
		c21.2-33,40.6-49.3,58.3-49.3c20.2,0,36,23.9,47.3,71.6l61.9,264.1c-1.3,2.4-2.7,4.7-4.1,7.1H1491.6z"/>
</g>
</svg>
